999
"DXF R12 Output" (www.mydxf.blogspot.com)
 0 
SECTION
 2 
HEADER
 9 
$ACADVER
 1 
AC1009
 9 
$EXTMIN
 10 
 0 
 20 
 0 
 9 
$EXTMAX
 10 
 8.5 
 20 
 11 
 0 
ENDSEC
 0 
SECTION
 2 
ENTITIES
0
LINE
8
Layer 1
10
0.846666
20
317.647000
11
-0.846666
21
315.953000
0
LINE
8
Layer 1
10
0.000000
20
318.211000
11
0.000000
21
315.389000
0
LINE
8
Layer 1
10
2.257780
20
315.671000
11
1.128890
21
314.542110
0
LINE
8
Layer 1
10
1.693330
20
316.236000
11
0.564440
21
315.107110
0
LINE
8
Layer 1
10
1.128890
20
316.800000
11
0.000000
21
315.671110
0
LINE
8
0
10
16.544200
20
302.190000
11
16.437020
21
302.589999
0
LINE
8
0
10
16.437020
20
302.589999
11
16.144200
21
302.882819
0
LINE
8
0
10
16.144200
20
302.882819
11
15.744200
21
302.989999
0
LINE
8
0
10
15.744200
20
302.989999
11
15.344201
21
302.882819
0
LINE
8
0
10
15.344201
20
302.882819
11
15.051381
21
302.589999
0
LINE
8
0
10
15.051381
20
302.589999
11
14.944201
21
302.190000
0
LINE
8
0
10
14.944201
20
302.190000
11
15.051381
21
301.790001
0
LINE
8
0
10
15.051381
20
301.790001
11
15.344201
21
301.497181
0
LINE
8
0
10
15.344201
20
301.497181
11
15.744201
21
301.390001
0
LINE
8
0
10
15.744201
20
301.390001
11
16.144200
21
301.497181
0
LINE
8
0
10
16.144200
20
301.497181
11
16.437020
21
301.790001
0
LINE
8
0
10
16.437020
20
301.790001
11
16.544200
21
302.190000
0
LINE
8
0
10
16.544200
20
302.190000
11
16.544200
21
302.190000
0
LINE
8
0
10
31.637600
20
295.790000
11
10.304200
21
295.790000
0
LINE
8
0
10
14.570900
20
308.590000
11
13.711102
21
308.503341
0
LINE
8
0
10
13.711102
20
308.503341
11
12.910271
21
308.254783
0
LINE
8
0
10
12.910271
20
308.254783
11
12.185560
21
307.861476
0
LINE
8
0
10
12.185560
20
307.861476
11
11.554123
21
307.340572
0
LINE
8
0
10
11.554123
20
307.340572
11
11.033115
21
306.709221
0
LINE
8
0
10
11.033115
20
306.709221
11
10.639689
21
305.984574
0
LINE
8
0
10
10.639689
20
305.984574
11
10.391000
21
305.183784
0
LINE
8
0
10
10.391000
20
305.183784
11
10.304200
21
304.324000
0
LINE
8
0
10
14.570900
20
308.590000
11
27.370900
21
308.590000
0
LINE
8
0
10
31.637600
20
304.324000
11
31.550800
21
305.183784
0
LINE
8
0
10
31.550800
20
305.183784
11
31.302111
21
305.984574
0
LINE
8
0
10
31.302111
20
305.984574
11
30.908685
21
306.709221
0
LINE
8
0
10
30.908685
20
306.709221
11
30.387677
21
307.340572
0
LINE
8
0
10
30.387677
20
307.340572
11
29.756240
21
307.861476
0
LINE
8
0
10
29.756240
20
307.861476
11
29.031529
21
308.254783
0
LINE
8
0
10
29.031529
20
308.254783
11
28.230698
21
308.503341
0
LINE
8
0
10
28.230698
20
308.503341
11
27.370900
21
308.590000
0
LINE
8
0
10
31.637600
20
304.324000
11
31.637600
21
295.790000
0
LINE
8
0
10
27.370900
20
302.190000
11
27.085088
21
303.256665
0
LINE
8
0
10
27.085088
20
303.256665
11
26.304235
21
304.037518
0
LINE
8
0
10
26.304235
20
304.037518
11
25.237570
21
304.323330
0
LINE
8
0
10
25.237570
20
304.323330
11
24.170905
21
304.037518
0
LINE
8
0
10
24.170905
20
304.037518
11
23.390052
21
303.256665
0
LINE
8
0
10
23.390052
20
303.256665
11
23.104240
21
302.190000
0
LINE
8
0
10
23.104240
20
302.190000
11
23.390052
21
301.123335
0
LINE
8
0
10
23.390052
20
301.123335
11
24.170905
21
300.342482
0
LINE
8
0
10
24.170905
20
300.342482
11
25.237570
21
300.056670
0
LINE
8
0
10
25.237570
20
300.056670
11
26.304235
21
300.342482
0
LINE
8
0
10
26.304235
20
300.342482
11
27.085088
21
301.123335
0
LINE
8
0
10
27.085088
20
301.123335
11
27.370900
21
302.190000
0
LINE
8
0
10
27.370900
20
302.190000
11
27.370900
21
302.190000
0
LINE
8
0
10
26.090900
20
306.724000
11
25.977331
21
307.151622
0
LINE
8
0
10
25.977331
20
307.151622
11
25.664890
21
307.464893
0
LINE
8
0
10
25.664890
20
307.464893
11
25.237570
21
307.579596
0
LINE
8
0
10
25.237570
20
307.579596
11
24.810250
21
307.464893
0
LINE
8
0
10
24.810250
20
307.464893
11
24.497809
21
307.151622
0
LINE
8
0
10
24.497809
20
307.151622
11
24.384240
21
306.724000
0
LINE
8
0
10
24.384240
20
306.724000
11
24.497809
21
306.296378
0
LINE
8
0
10
24.497809
20
306.296378
11
24.810250
21
305.983107
0
LINE
8
0
10
24.810250
20
305.983107
11
25.237570
21
305.868404
0
LINE
8
0
10
25.237570
20
305.868404
11
25.664890
21
305.983107
0
LINE
8
0
10
25.664890
20
305.983107
11
25.977331
21
306.296378
0
LINE
8
0
10
25.977331
20
306.296378
11
26.090900
21
306.724000
0
LINE
8
0
10
26.090900
20
306.724000
11
26.090900
21
306.724000
0
LINE
8
0
10
30.016900
20
304.457000
11
29.903331
21
304.884622
0
LINE
8
0
10
29.903331
20
304.884622
11
29.590890
21
305.197893
0
LINE
8
0
10
29.590890
20
305.197893
11
29.163570
21
305.312596
0
LINE
8
0
10
29.163570
20
305.312596
11
28.736250
21
305.197893
0
LINE
8
0
10
28.736250
20
305.197893
11
28.423809
21
304.884622
0
LINE
8
0
10
28.423809
20
304.884622
11
28.310240
21
304.457000
0
LINE
8
0
10
28.310240
20
304.457000
11
28.423809
21
304.029378
0
LINE
8
0
10
28.423809
20
304.029378
11
28.736250
21
303.716107
0
LINE
8
0
10
28.736250
20
303.716107
11
29.163570
21
303.601404
0
LINE
8
0
10
29.163570
20
303.601404
11
29.590890
21
303.716107
0
LINE
8
0
10
29.590890
20
303.716107
11
29.903331
21
304.029378
0
LINE
8
0
10
29.903331
20
304.029378
11
30.016900
21
304.457000
0
LINE
8
0
10
30.016900
20
304.457000
11
30.016900
21
304.457000
0
LINE
8
0
10
30.016900
20
299.924000
11
29.903331
21
300.351622
0
LINE
8
0
10
29.903331
20
300.351622
11
29.590890
21
300.664893
0
LINE
8
0
10
29.590890
20
300.664893
11
29.163570
21
300.779596
0
LINE
8
0
10
29.163570
20
300.779596
11
28.736250
21
300.664893
0
LINE
8
0
10
28.736250
20
300.664893
11
28.423809
21
300.351622
0
LINE
8
0
10
28.423809
20
300.351622
11
28.310240
21
299.924000
0
LINE
8
0
10
28.310240
20
299.924000
11
28.423809
21
299.496378
0
LINE
8
0
10
28.423809
20
299.496378
11
28.736250
21
299.183107
0
LINE
8
0
10
28.736250
20
299.183107
11
29.163570
21
299.068404
0
LINE
8
0
10
29.163570
20
299.068404
11
29.590890
21
299.183107
0
LINE
8
0
10
29.590890
20
299.183107
11
29.903331
21
299.496378
0
LINE
8
0
10
29.903331
20
299.496378
11
30.016900
21
299.924000
0
LINE
8
0
10
30.016900
20
299.924000
11
30.016900
21
299.924000
0
LINE
8
0
10
26.090900
20
297.657000
11
25.977331
21
298.084622
0
LINE
8
0
10
25.977331
20
298.084622
11
25.664890
21
298.397893
0
LINE
8
0
10
25.664890
20
298.397893
11
25.237570
21
298.512596
0
LINE
8
0
10
25.237570
20
298.512596
11
24.810250
21
298.397893
0
LINE
8
0
10
24.810250
20
298.397893
11
24.497809
21
298.084622
0
LINE
8
0
10
24.497809
20
298.084622
11
24.384240
21
297.657000
0
LINE
8
0
10
24.384240
20
297.657000
11
24.497809
21
297.229378
0
LINE
8
0
10
24.497809
20
297.229378
11
24.810250
21
296.916107
0
LINE
8
0
10
24.810250
20
296.916107
11
25.237570
21
296.801404
0
LINE
8
0
10
25.237570
20
296.801404
11
25.664890
21
296.916107
0
LINE
8
0
10
25.664890
20
296.916107
11
25.977331
21
297.229378
0
LINE
8
0
10
25.977331
20
297.229378
11
26.090900
21
297.657000
0
LINE
8
0
10
26.090900
20
297.657000
11
26.090900
21
297.657000
0
LINE
8
0
10
22.164900
20
299.924000
11
22.051331
21
300.351622
0
LINE
8
0
10
22.051331
20
300.351622
11
21.738890
21
300.664893
0
LINE
8
0
10
21.738890
20
300.664893
11
21.311570
21
300.779596
0
LINE
8
0
10
21.311570
20
300.779596
11
20.884250
21
300.664893
0
LINE
8
0
10
20.884250
20
300.664893
11
20.571809
21
300.351622
0
LINE
8
0
10
20.571809
20
300.351622
11
20.458240
21
299.924000
0
LINE
8
0
10
20.458240
20
299.924000
11
20.571809
21
299.496378
0
LINE
8
0
10
20.571809
20
299.496378
11
20.884250
21
299.183107
0
LINE
8
0
10
20.884250
20
299.183107
11
21.311570
21
299.068404
0
LINE
8
0
10
21.311570
20
299.068404
11
21.738890
21
299.183107
0
LINE
8
0
10
21.738890
20
299.183107
11
22.051331
21
299.496378
0
LINE
8
0
10
22.051331
20
299.496378
11
22.164900
21
299.924000
0
LINE
8
0
10
22.164900
20
299.924000
11
22.164900
21
299.924000
0
LINE
8
0
10
22.164900
20
304.457000
11
22.051331
21
304.884622
0
LINE
8
0
10
22.051331
20
304.884622
11
21.738890
21
305.197893
0
LINE
8
0
10
21.738890
20
305.197893
11
21.311570
21
305.312596
0
LINE
8
0
10
21.311570
20
305.312596
11
20.884250
21
305.197893
0
LINE
8
0
10
20.884250
20
305.197893
11
20.571809
21
304.884622
0
LINE
8
0
10
20.571809
20
304.884622
11
20.458240
21
304.457000
0
LINE
8
0
10
20.458240
20
304.457000
11
20.571809
21
304.029378
0
LINE
8
0
10
20.571809
20
304.029378
11
20.884250
21
303.716107
0
LINE
8
0
10
20.884250
20
303.716107
11
21.311570
21
303.601404
0
LINE
8
0
10
21.311570
20
303.601404
11
21.738890
21
303.716107
0
LINE
8
0
10
21.738890
20
303.716107
11
22.051331
21
304.029378
0
LINE
8
0
10
22.051331
20
304.029378
11
22.164900
21
304.457000
0
LINE
8
0
10
22.164900
20
304.457000
11
22.164900
21
304.457000
0
LINE
8
0
10
10.304200
20
295.790000
11
10.304200
21
304.324000
0
LINE
8
0
10
35.981500
20
302.931000
11
35.967756
21
302.753321
0
LINE
8
0
10
36.601200
20
303.084000
11
35.981520
21
302.930516
0
LINE
8
0
10
36.629900
20
303.306000
11
36.601235
21
303.084586
0
LINE
8
0
10
36.069700
20
303.612000
11
36.629857
21
303.305764
0
LINE
8
0
10
36.101700
20
303.787000
11
36.069752
21
303.611678
0
LINE
8
0
10
36.733800
20
303.876000
11
36.101623
21
303.787046
0
LINE
8
0
10
36.785100
20
304.094000
11
36.733820
21
303.876703
0
LINE
8
0
10
36.259400
20
304.456000
11
36.785101
21
304.093791
0
LINE
8
0
10
36.309200
20
304.627000
11
36.259394
21
304.455894
0
LINE
8
0
10
36.947200
20
304.650000
11
36.309229
21
304.626519
0
LINE
8
0
10
37.020500
20
304.861000
11
36.947148
21
304.650129
0
LINE
8
0
10
36.534900
20
305.276000
11
37.020573
21
304.861659
0
LINE
8
0
10
36.602000
20
305.441000
11
36.534865
21
305.275920
0
LINE
8
0
10
37.239000
20
305.398000
11
36.601997
21
305.440240
0
LINE
8
0
10
37.333700
20
305.601000
11
37.239054
21
305.398788
0
LINE
8
0
10
36.893200
20
306.063000
11
37.333695
21
305.600918
0
LINE
8
0
10
36.976900
20
306.220000
11
36.893148
21
306.062698
0
LINE
8
0
10
37.606200
20
306.113000
11
36.976913
21
306.220512
0
LINE
8
0
10
37.721100
20
306.304000
11
37.606165
21
306.112594
0
LINE
8
0
10
37.330500
20
306.809000
11
37.721152
21
306.304071
0
LINE
8
0
10
37.430000
20
306.957000
11
37.330514
21
306.809144
0
LINE
8
0
10
38.044900
20
306.785000
11
37.430006
21
306.956647
0
LINE
8
0
10
38.178900
20
306.964000
11
38.044893
21
306.785424
0
LINE
8
0
10
37.842200
20
307.506000
11
38.178863
21
306.963584
0
LINE
8
0
10
37.956400
20
307.643000
11
37.842241
21
307.506156
0
LINE
8
0
10
38.550400
20
307.409000
11
37.956413
21
307.642962
0
LINE
8
0
10
38.702000
20
307.573000
11
38.550342
21
307.409150
0
LINE
8
0
10
38.422900
20
308.147000
11
38.702006
21
307.572839
0
LINE
8
0
10
38.550500
20
308.271000
11
38.422874
21
308.146619
0
LINE
8
0
10
39.117300
20
307.978000
11
38.550516
21
308.271799
0
LINE
8
0
10
39.285000
20
308.125000
11
39.117301
21
307.977610
0
LINE
8
0
10
39.066400
20
308.725000
11
39.284989
21
308.125185
0
LINE
8
0
10
39.206200
20
308.835000
11
39.066463
21
308.724403
0
LINE
8
0
10
39.739700
20
308.485000
11
39.206128
21
308.835517
0
LINE
8
0
10
39.921700
20
308.614000
11
39.739735
21
308.484635
0
LINE
8
0
10
39.765900
20
309.233000
11
39.921658
21
308.613890
0
LINE
8
0
10
39.916300
20
309.329000
11
39.765932
21
309.233355
0
LINE
8
0
10
40.411000
20
308.925000
11
39.916299
21
309.328521
0
LINE
8
0
10
40.605300
20
309.035000
11
40.410996
21
308.925032
0
LINE
8
0
10
40.514000
20
309.667000
11
40.605276
21
309.035156
0
LINE
8
0
10
40.673400
20
309.747000
11
40.513993
21
309.667323
0
LINE
8
0
10
41.124000
20
309.295000
11
40.673410
21
309.747249
0
LINE
8
0
10
41.328600
20
309.384000
11
41.124020
21
309.294592
0
LINE
8
0
10
41.302800
20
310.022000
11
41.328623
21
309.384119
0
LINE
8
0
10
41.469500
20
310.085000
11
41.302749
21
310.022135
0
LINE
8
0
10
41.871200
20
309.589000
11
41.469499
21
310.085183
0
LINE
8
0
10
42.083900
20
309.657000
11
41.871209
21
309.589100
0
LINE
8
0
10
42.123800
20
310.294000
11
42.083899
21
309.656844
0
LINE
8
0
10
42.296200
20
310.339000
11
42.123867
21
310.293616
0
LINE
8
0
10
42.644700
20
309.804000
11
42.296147
21
310.338856
0
LINE
8
0
10
42.863300
20
309.850000
11
42.644756
21
309.804331
0
LINE
8
0
10
42.968500
20
310.480000
11
42.863299
21
309.850323
0
LINE
8
0
10
43.144500
20
310.507000
11
42.968413
21
310.479568
0
LINE
8
0
10
43.436300
20
309.939000
11
43.144590
21
310.506856
0
LINE
8
0
10
43.658300
20
309.962000
11
43.436220
21
309.939055
0
LINE
8
0
10
43.827700
20
310.578000
11
43.658310
21
309.962479
0
LINE
8
0
10
44.005700
20
310.587000
11
43.827728
21
310.577828
0
LINE
8
0
10
44.237500
20
309.992000
11
44.005722
21
310.586842
0
LINE
8
0
10
44.460700
20
309.992000
11
44.237434
21
309.992000
0
LINE
8
0
10
44.692500
20
310.587000
11
44.460722
21
309.992158
0
LINE
8
0
10
44.870500
20
310.578000
11
44.692528
21
310.587172
0
LINE
8
0
10
45.039900
20
309.962000
11
44.870513
21
310.577521
0
LINE
8
0
10
45.262000
20
309.939000
11
45.039917
21
309.961945
0
LINE
8
0
10
45.553700
20
310.507000
11
45.261990
21
309.939144
0
LINE
8
0
10
45.729800
20
310.480000
11
45.553713
21
310.507432
0
LINE
8
0
10
45.835000
20
309.850000
11
45.729799
21
310.479677
0
LINE
8
0
10
46.053500
20
309.804000
11
45.835000
21
309.850000
0
LINE
8
0
10
46.402100
20
310.339000
11
46.053547
21
309.804144
0
LINE
8
0
10
46.574400
20
310.294000
11
46.402067
21
310.339384
0
LINE
8
0
10
46.614300
20
309.657000
11
46.574399
21
310.294156
0
LINE
8
0
10
46.827000
20
309.589000
11
46.614312
21
309.656900
0
LINE
8
0
10
47.228700
20
310.085000
11
46.826999
21
309.588817
0
LINE
8
0
10
47.395400
20
310.022000
11
47.228646
21
310.084865
0
LINE
8
0
10
47.369600
20
309.384000
11
47.395423
21
310.021881
0
LINE
8
0
10
47.574200
20
309.295000
11
47.369620
21
309.384408
0
LINE
8
0
10
48.024800
20
309.747000
11
47.574210
21
309.294751
0
LINE
8
0
10
48.184200
20
309.667000
11
48.024795
21
309.746677
0
LINE
8
0
10
48.092900
20
309.035000
11
48.184173
21
309.666844
0
LINE
8
0
10
48.287200
20
308.925000
11
48.092900
21
309.035000
0
LINE
8
0
10
48.781900
20
309.329000
11
48.287196
21
308.925479
0
LINE
8
0
10
48.932300
20
309.233000
11
48.781932
21
309.328645
0
LINE
8
0
10
48.776500
20
308.614000
11
48.932258
21
309.233110
0
LINE
8
0
10
48.958500
20
308.485000
11
48.776535
21
308.614365
0
LINE
8
0
10
49.492100
20
308.835000
11
48.958528
21
308.484483
0
LINE
8
0
10
49.631800
20
308.725000
11
49.492063
21
308.835597
0
LINE
8
0
10
49.413200
20
308.125000
11
49.631789
21
308.724815
0
LINE
8
0
10
49.580900
20
307.978000
11
49.413201
21
308.125390
0
LINE
8
0
10
50.147700
20
308.271000
11
49.580916
21
307.977201
0
LINE
8
0
10
50.275300
20
308.147000
11
50.147676
21
308.271381
0
LINE
8
0
10
49.996200
20
307.573000
11
50.275303
21
308.147161
0
LINE
8
0
10
50.147900
20
307.409000
11
49.996242
21
307.572850
0
LINE
8
0
10
50.741900
20
307.643000
11
50.147913
21
307.409038
0
LINE
8
0
10
50.856000
20
307.506000
11
50.741841
21
307.642844
0
LINE
8
0
10
50.519400
20
306.964000
11
50.856063
21
307.506416
0
LINE
8
0
10
50.653400
20
306.785000
11
50.519393
21
306.963576
0
LINE
8
0
10
51.268300
20
306.957000
11
50.653406
21
306.785353
0
LINE
8
0
10
51.367700
20
306.809000
11
51.268217
21
306.956856
0
LINE
8
0
10
50.977100
20
306.304000
11
51.367749
21
306.808929
0
LINE
8
0
10
51.092000
20
306.113000
11
50.977065
21
306.304406
0
LINE
8
0
10
51.721300
20
306.220000
11
51.092015
21
306.112488
0
LINE
8
0
10
51.805100
20
306.063000
11
51.721345
21
306.220302
0
LINE
8
0
10
51.364600
20
305.601000
11
51.805095
21
306.063082
0
LINE
8
0
10
51.459200
20
305.398000
11
51.364557
21
305.600212
0
LINE
8
0
10
52.096200
20
305.441000
11
51.459194
21
305.398760
0
LINE
8
0
10
52.163400
20
305.276000
11
52.096265
21
305.441080
0
LINE
8
0
10
51.677700
20
304.861000
11
52.163373
21
305.275341
0
LINE
8
0
10
51.751000
20
304.650000
11
51.677648
21
304.860871
0
LINE
8
0
10
52.389000
20
304.627000
11
51.751029
21
304.650481
0
LINE
8
0
10
52.438800
20
304.456000
11
52.388993
21
304.627106
0
LINE
8
0
10
51.913100
20
304.094000
11
52.438803
21
304.456209
0
LINE
8
0
10
51.964400
20
303.876000
11
51.913117
21
304.093297
0
LINE
8
0
10
52.596600
20
303.787000
11
51.964426
21
303.875954
0
LINE
8
0
10
52.628500
20
303.612000
11
52.596550
21
303.787322
0
LINE
8
0
10
52.068400
20
303.306000
11
52.628560
21
303.612236
0
LINE
8
0
10
52.097000
20
303.084000
11
52.068332
21
303.305414
0
LINE
8
0
10
52.716700
20
302.931000
11
52.097022
21
303.084484
0
LINE
8
0
10
52.730500
20
302.753000
11
52.716756
21
302.930679
0
LINE
8
0
10
52.141800
20
302.506000
11
52.730478
21
302.753018
0
LINE
8
0
10
52.147500
20
302.283000
11
52.141743
21
302.506190
0
LINE
8
0
10
52.748100
20
302.067000
11
52.147486
21
302.283385
0
LINE
8
0
10
52.743600
20
301.888000
11
52.748200
21
302.066150
0
LINE
8
0
10
52.132600
20
301.703000
11
52.743557
21
301.888180
0
LINE
8
0
10
52.115400
20
301.481000
11
52.132615
21
301.703600
0
LINE
8
0
10
52.690500
20
301.204000
11
52.115320
21
301.480992
0
LINE
8
0
10
52.667700
20
301.027000
11
52.690588
21
301.203736
0
LINE
8
0
10
52.040900
20
300.906000
11
52.667656
21
301.027378
0
LINE
8
0
10
52.000900
20
300.686000
11
52.040928
21
300.905648
0
LINE
8
0
10
52.544500
20
300.351000
11
52.000850
21
300.685667
0
LINE
8
0
10
52.503600
20
300.178000
11
52.544531
21
300.351442
0
LINE
8
0
10
51.867700
20
300.122000
11
52.503617
21
300.178292
0
LINE
8
0
10
51.805300
20
299.907000
11
51.867699
21
300.121367
0
LINE
8
0
10
52.311600
20
299.518000
11
51.805240
21
299.906792
0
LINE
8
0
10
52.253100
20
299.350000
11
52.311650
21
299.518317
0
LINE
8
0
10
51.614800
20
299.359000
11
52.253135
21
299.349602
0
LINE
8
0
10
51.530600
20
299.153000
11
51.614711
21
299.359815
0
LINE
8
0
10
51.994400
20
298.714000
11
51.530698
21
299.152796
0
LINE
8
0
10
51.918800
20
298.552000
11
51.994348
21
298.713406
0
LINE
8
0
10
51.284800
20
298.627000
11
51.918784
21
298.552022
0
LINE
8
0
10
51.179900
20
298.430000
11
51.284830
21
298.627070
0
LINE
8
0
10
51.596000
20
297.946000
11
51.179875
21
298.430149
0
LINE
8
0
10
51.504300
20
297.793000
11
51.596042
21
297.945781
0
LINE
8
0
10
50.881400
20
297.933000
11
51.504315
21
297.793235
0
LINE
8
0
10
50.756700
20
297.748000
11
50.881335
21
297.933236
0
LINE
8
0
10
51.120900
20
297.224000
11
50.756763
21
297.748368
0
LINE
8
0
10
51.013900
20
297.081000
11
51.120862
21
297.223539
0
LINE
8
0
10
50.408700
20
297.284000
11
51.013945
21
297.080924
0
LINE
8
0
10
50.265600
20
297.113000
11
50.408622
21
297.284441
0
LINE
8
0
10
50.573900
20
296.554000
11
50.265606
21
297.113031
0
LINE
8
0
10
50.452900
20
296.423000
11
50.573953
21
296.553784
0
LINE
8
0
10
49.871700
20
296.687000
11
50.452857
21
296.422770
0
LINE
8
0
10
49.711800
20
296.531000
11
49.871690
21
296.686826
0
LINE
8
0
10
49.961000
20
295.943000
11
49.711821
21
296.530767
0
LINE
8
0
10
49.827100
20
295.826000
11
49.960961
21
295.943644
0
LINE
8
0
10
49.276200
20
296.148000
11
49.827106
21
295.825417
0
LINE
8
0
10
49.101200
20
296.010000
11
49.276265
21
296.148560
0
LINE
8
0
10
49.288600
20
295.400000
11
49.101176
21
296.010271
0
LINE
8
0
10
49.143400
20
295.296000
11
49.288646
21
295.399259
0
LINE
8
0
10
48.628500
20
295.674000
11
49.143321
21
295.296480
0
LINE
8
0
10
48.440100
20
295.554000
11
48.628483
21
295.673826
0
LINE
8
0
10
48.563800
20
294.928000
11
48.440119
21
295.554307
0
LINE
8
0
10
48.408700
20
294.840000
11
48.563792
21
294.927777
0
LINE
8
0
10
47.935500
20
295.268000
11
48.408775
21
294.839547
0
LINE
8
0
10
47.735800
20
295.169000
11
47.935506
21
295.268819
0
LINE
8
0
10
47.794400
20
294.533000
11
47.735774
21
295.168708
0
LINE
8
0
10
47.631100
20
294.462000
11
47.794394
21
294.533363
0
LINE
8
0
10
47.204400
20
294.936000
11
47.631111
21
294.461156
0
LINE
8
0
10
46.995500
20
294.858000
11
47.204412
21
294.936757
0
LINE
8
0
10
46.988400
20
294.219000
11
46.995456
21
294.857366
0
LINE
8
0
10
46.818600
20
294.165000
11
46.988368
21
294.219195
0
LINE
8
0
10
46.443000
20
294.681000
11
46.818626
21
294.164799
0
LINE
8
0
10
46.227100
20
294.624000
11
46.443003
21
294.680856
0
LINE
8
0
10
46.154500
20
293.990000
11
46.227147
21
294.624257
0
LINE
8
0
10
45.980000
20
293.954000
11
46.154441
21
293.990455
0
LINE
8
0
10
45.659500
20
294.506000
11
45.980059
21
293.953912
0
LINE
8
0
10
45.438900
20
294.471000
11
45.659504
21
294.505358
0
LINE
8
0
10
45.301400
20
293.848000
11
45.438876
21
294.471426
0
LINE
8
0
10
45.124100
20
293.830000
11
45.301364
21
293.848316
0
LINE
8
0
10
44.862000
20
294.412000
11
45.124094
21
293.829878
0
LINE
8
0
10
44.639100
20
294.400000
11
44.862067
21
294.411486
0
LINE
8
0
10
44.438200
20
293.794000
11
44.639052
21
294.399984
0
LINE
8
0
10
44.260000
20
293.794000
11
44.438209
21
293.794000
0
LINE
8
0
10
44.059200
20
294.400000
11
44.260049
21
293.794016
0
LINE
8
0
10
43.836200
20
294.412000
11
44.059167
21
294.400514
0
LINE
8
0
10
43.574100
20
293.830000
11
43.836194
21
294.412122
0
LINE
8
0
10
43.396800
20
293.848000
11
43.574064
21
293.829684
0
LINE
8
0
10
43.259400
20
294.471000
11
43.396876
21
293.847574
0
LINE
8
0
10
43.038800
20
294.506000
11
43.259407
21
294.471642
0
LINE
8
0
10
42.718200
20
293.954000
11
43.038756
21
294.506088
0
LINE
8
0
10
42.543800
20
293.990000
11
42.718241
21
293.953545
0
LINE
8
0
10
42.471100
20
294.624000
11
42.543747
21
293.989743
0
LINE
8
0
10
42.255200
20
294.681000
11
42.471103
21
294.624144
0
LINE
8
0
10
41.879600
20
294.165000
11
42.255226
21
294.681201
0
LINE
8
0
10
41.709800
20
294.219000
11
41.879568
21
294.164805
0
LINE
8
0
10
41.702800
20
294.858000
11
41.709856
21
294.219634
0
LINE
8
0
10
41.493900
20
294.936000
11
41.702812
21
294.857243
0
LINE
8
0
10
41.067100
20
294.462000
11
41.493811
21
294.936844
0
LINE
8
0
10
40.903800
20
294.533000
11
41.067096
21
294.461637
0
LINE
8
0
10
40.962500
20
295.169000
11
40.903871
21
294.533292
0
LINE
8
0
10
40.762800
20
295.268000
11
40.962506
21
295.168181
0
LINE
8
0
10
40.289500
20
294.840000
11
40.762775
21
295.268453
0
LINE
8
0
10
40.134400
20
294.928000
11
40.289492
21
294.840223
0
LINE
8
0
10
40.258100
20
295.554000
11
40.134419
21
294.927693
0
LINE
8
0
10
40.069700
20
295.674000
11
40.258086
21
295.554174
0
LINE
8
0
10
39.554900
20
295.296000
11
40.069718
21
295.673520
0
LINE
8
0
10
39.409600
20
295.400000
11
39.554846
21
295.296741
0
LINE
8
0
10
39.597100
20
296.010000
11
39.409676
21
295.399729
0
LINE
8
0
10
39.422000
20
296.148000
11
39.597065
21
296.009440
0
LINE
8
0
10
38.871100
20
295.826000
11
39.422009
21
296.148583
0
LINE
8
0
10
38.737200
20
295.943000
11
38.871058
21
295.825356
0
LINE
8
0
10
38.986400
20
296.531000
11
38.737221
21
295.943233
0
LINE
8
0
10
38.826500
20
296.687000
11
38.986393
21
296.531174
0
LINE
8
0
10
38.245400
20
296.423000
11
38.826554
21
296.687230
0
LINE
8
0
10
38.124300
20
296.554000
11
38.245353
21
296.423216
0
LINE
8
0
10
38.432600
20
297.113000
11
38.124306
21
296.553969
0
LINE
8
0
10
38.289600
20
297.284000
11
38.432622
21
297.112559
0
LINE
8
0
10
37.684300
20
297.081000
11
38.289545
21
297.284076
0
LINE
8
0
10
37.577400
20
297.224000
11
37.684362
21
297.081461
0
LINE
8
0
10
37.941500
20
297.748000
11
37.577363
21
297.223632
0
LINE
8
0
10
37.816900
20
297.933000
11
37.941535
21
297.747764
0
LINE
8
0
10
37.193900
20
297.793000
11
37.816818
21
297.932765
0
LINE
8
0
10
37.102200
20
297.946000
11
37.193939
21
297.793219
0
LINE
8
0
10
37.518300
20
298.430000
11
37.102175
21
297.945851
0
LINE
8
0
10
37.413400
20
298.627000
11
37.518330
21
298.429930
0
LINE
8
0
10
36.779400
20
298.552000
11
37.413386
21
298.626978
0
LINE
8
0
10
36.703900
20
298.714000
11
36.779445
21
298.552594
0
LINE
8
0
10
37.167600
20
299.153000
11
36.703901
21
298.714204
0
LINE
8
0
10
37.083500
20
299.359000
11
37.167608
21
299.152185
0
LINE
8
0
10
36.445100
20
299.350000
11
37.083435
21
299.359398
0
LINE
8
0
10
36.386600
20
299.518000
11
36.445150
21
299.349683
0
LINE
8
0
10
36.892900
20
299.907000
11
36.386540
21
299.518208
0
LINE
8
0
10
36.830500
20
300.122000
11
36.892899
21
299.907633
0
LINE
8
0
10
36.194600
20
300.178000
11
36.830517
21
300.121708
0
LINE
8
0
10
36.153700
20
300.351000
11
36.194633
21
300.177558
0
LINE
8
0
10
36.697300
20
300.686000
11
36.153647
21
300.351333
0
LINE
8
0
10
36.657300
20
300.906000
11
36.697328
21
300.686352
0
LINE
8
0
10
36.030600
20
301.027000
11
36.657359
21
300.905622
0
LINE
8
0
10
36.007700
20
301.204000
11
36.030588
21
301.027264
0
LINE
8
0
10
36.582900
20
301.481000
11
36.007720
21
301.204008
0
LINE
8
0
10
36.565600
20
301.703000
11
36.582816
21
301.480400
0
LINE
8
0
10
35.954700
20
301.888000
11
36.565657
21
301.702820
0
LINE
8
0
10
35.950100
20
302.067000
11
35.954700
21
301.888850
0
LINE
8
0
10
36.550700
20
302.283000
11
35.950086
21
302.066615
0
LINE
8
0
10
36.556400
20
302.506000
11
36.550643
21
302.282810
0
LINE
8
0
10
35.967800
20
302.753000
11
36.556478
21
302.505982
0
LINE
8
0
10
45.149100
20
302.194000
11
45.041920
21
302.593999
0
LINE
8
0
10
45.041920
20
302.593999
11
44.749099
21
302.886819
0
LINE
8
0
10
44.749099
20
302.886819
11
44.349100
21
302.993999
0
LINE
8
0
10
44.349100
20
302.993999
11
43.949100
21
302.886819
0
LINE
8
0
10
43.949100
20
302.886819
11
43.656281
21
302.593999
0
LINE
8
0
10
43.656281
20
302.593999
11
43.549101
21
302.194000
0
LINE
8
0
10
43.549101
20
302.194000
11
43.656281
21
301.794001
0
LINE
8
0
10
43.656281
20
301.794001
11
43.949101
21
301.501181
0
LINE
8
0
10
43.949101
20
301.501181
11
44.349100
21
301.394001
0
LINE
8
0
10
44.349100
20
301.394001
11
44.749100
21
301.501181
0
LINE
8
0
10
44.749100
20
301.501181
11
45.041920
21
301.794001
0
LINE
8
0
10
45.041920
20
301.794001
11
45.149099
21
302.194000
0
LINE
8
0
10
45.149099
20
302.194000
11
45.149100
21
302.194000
 0 
ENDSEC
 0 
EOF