M48
METRIC,LZ,000.000
;FILE_FORMAT=3:3
;TYPE=PLATED
;Layer: PTH_Through_Via
;EasyEDA v6.5.46, 2025-06-12 16:27:01
;6984151e568f4603bee7606f082ae18e,f8d66010605f41bc84f108214e51d488,10
;Gerber Generator version 0.2
;Holesize 1 = 0.305 mm
T01C0.305
;Holesize 2 = 0.310 mm
T02C0.310
%
G05
G90
T01
X008798Y027143
X008798Y025943
X009998Y025943
X009998Y027143
X-009660Y023741
X-010660Y023741
X-010660Y022741
X-009660Y022741
T02
X000762Y026289
X000762Y027178
X001651Y026289
X001651Y027178
X001651Y028067
X002540Y027178
X002540Y028067
X014732Y060706
X015621Y060706
X014478Y060071
X015240Y060071
X016002Y060071
X002800Y073900
X003800Y073900
X-000127Y077978
X-002500Y076200
X-002200Y072500
X001800Y048600
X-000100Y037900
X-018669Y039116
X-018669Y050038
X000000Y002540
X000700Y014600
X018669Y013589
X018669Y002667
X006400Y073100
X011684Y030226
X012700Y030226
X005969Y030353
X006985Y030353
X-008509Y027178
X-007620Y027178
X-011811Y027178
X-012700Y027178
X-015240Y007874
X-015240Y010414
X-013335Y012573
X-009525Y009017
X-009525Y006477
X-009525Y005207
X-022000Y008300
X006858Y037973
X006858Y035052
X-007100Y070100
X-007100Y069300
X-018288Y056134
X005715Y058547
X004826Y058420
X006223Y059817
X007500Y058400
X006858Y060452
X011200Y058300
X010600Y057600
X015300Y070400
X013200Y053500
X-014400Y067200
X-006700Y056400
X-006400Y058200
X008400Y055300
X009200Y055300
X008400Y054400
X009200Y054400
X-012000Y035000
X-011400Y035800
X-012500Y035900
X001900Y035400
X002500Y036000
X001600Y036000
X-011300Y064800
X-022300Y064500
X007500Y064200
X-021200Y049697
X-022091Y049697
X-020300Y009100
X-020900Y009700
X005400Y071300
X006100Y070700
X006700Y070000
X009300Y067000
X015100Y062000
X-017800Y016900
X-013335Y026342
X-017100Y016100
X001800Y051300
X002800Y051400
X023750Y065717
X-024500Y066500
X004000Y042500
X002300Y049800
X005400Y049200
X016600Y052200
X018100Y060900
X022900Y062000
X-005199Y052100
X-010100Y061100
X-015100Y060800
X009700Y070000
X-001800Y053200
X001500Y056500
X010800Y053500
X013400Y055300
X014000Y054600
X014200Y055300
X010000Y053100
X010200Y054000
X004700Y039000
X004700Y038300
X003400Y037200
X003100Y038000
X015600Y025700
X015600Y024800
X014800Y024200
X013900Y024200
X013900Y023400
X004900Y024300
X004900Y023500
X-006500Y025200
X-005600Y025200
X-013600Y025200
X-013000Y024600
X-020600Y005400
X017200Y051500
X021200Y053400
X022000Y053800
X012300Y074800
X013700Y074100
X016000Y072400
X016400Y067300
X017600Y067300
X021700Y066500
X-009100Y055000
X010400Y042000
X016700Y056000
X016700Y055000
X010900Y063300
X-009100Y064200
X-009100Y063400
X-008000Y078000
X-025900Y057500
X001700Y073000
X005300Y076600
X008400Y073000
X017700Y052200
X007300Y069200
X003100Y038900
X003100Y039700
X003100Y040600
X-018100Y038100
X-017600Y039100
X016700Y055000
X007200Y037200
X009100Y040900
X018800Y044800
X019700Y044800
X019200Y044000
X016700Y050800
X017500Y050800
X020100Y051200
X020900Y051200
X020400Y050500
X021100Y064400
X022000Y064400
X021500Y063700
X002900Y031100
X-006100Y026000
X004600Y053600
X005400Y053600
X005000Y052900
X006100Y054600
X-000300Y056500
X-007800Y043900
X-006700Y043900
X-007300Y043000
X-016000Y055200
X-015300Y055700
X-014900Y073200
X016500Y064500
M30
