G04 Layer: TopLayer*
G04 EasyEDA v6.5.46, 2025-06-12 16:27:01*
G04 6984151e568f4603bee7606f082ae18e,f8d66010605f41bc84f108214e51d488,10*
G04 Gerber Generator version 0.2*
G04 Scale: 100 percent, Rotated: No, Reflected: No *
G04 Dimensions in millimeters *
G04 leading zeros omitted , absolute positions ,4 integer and 5 decimal *
%FSLAX45Y45*%
%MOMM*%

%AMMACRO1*21,1,$1,$2,0,0,$3*%
%AMMACRO2*1,1,$1,$2,$3*1,1,$1,$4,$5*20,1,$1,$2,$3,$4,$5,0*%
%ADD10C,0.2390*%
%ADD11C,0.2490*%
%ADD12C,0.3410*%
%ADD13C,0.3920*%
%ADD14C,0.9530*%
%ADD15C,0.4940*%
%ADD16C,0.4430*%
%ADD17C,0.7080*%
%ADD18C,0.2900*%
%ADD19C,0.7590*%
%ADD20C,0.4020*%
%ADD21C,0.8000*%
%ADD22C,0.3000*%
%ADD23C,1.1160*%
%ADD24C,1.1670*%
%ADD25C,0.8100*%
%ADD26C,1.0140*%
%ADD27C,1.2690*%
%ADD28C,1.2180*%
%ADD29C,0.6570*%
%ADD30R,0.7500X1.0000*%
%ADD31R,1.8000X1.8000*%
%ADD32R,1.3005X1.3995*%
%ADD33R,1.3995X1.3005*%
%ADD34R,1.0000X0.7500*%
%ADD35MACRO1,0.864X0.8065X0.0000*%
%ADD36R,0.8640X0.8065*%
%ADD37MACRO1,0.864X0.8065X90.0000*%
%ADD38MACRO1,1.2X1.4X135.0000*%
%ADD39MACRO1,1.2X1.4X-45.0000*%
%ADD40R,0.8000X0.9000*%
%ADD41MACRO1,0.8X0.9X-135.0000*%
%ADD42MACRO1,0.8X0.9X135.0000*%
%ADD43MACRO1,0.8X0.9X45.0000*%
%ADD44MACRO1,0.8X0.9X-45.0000*%
%ADD45R,0.9000X0.8000*%
%ADD46MACRO1,1X2.8X90.0000*%
%ADD47MACRO1,0.6X1.7X90.0000*%
%ADD48MACRO1,1X2.8X-90.0000*%
%ADD49MACRO1,0.6X1.7X-90.0000*%
%ADD50MACRO2,0.3X-0.601X0.601X0.601X-0.601*%
%ADD51MACRO2,0.3X-0.601X-0.601X0.601X0.601*%
%ADD52O,1.746504X0.3430016*%
%ADD53R,3.0000X4.2000*%
%ADD54R,1.1000X0.6000*%
%ADD55R,0.6750X0.2800*%
%ADD56R,0.2800X0.6750*%
%ADD57MACRO1,1.35X1.41X0.0000*%
%ADD58R,1.3500X1.4100*%
%ADD59R,1.5000X1.3589*%
%ADD60MACRO1,1.377X1.1325X-90.0000*%
%ADD61MACRO1,1.377X1.1325X0.0000*%
%ADD62R,1.3770X1.1325*%
%ADD63MACRO1,1.377X1.1325X90.0000*%
%ADD64MACRO1,0.864X0.8065X-90.0000*%
%ADD65R,1.2500X0.7000*%
%ADD66R,0.7000X1.2500*%
%ADD67O,0.350012X1.2999974*%
%ADD68R,2.7400X2.7400*%
%ADD69C,1.6000*%
%ADD70R,1.7000X1.7000*%
%ADD71C,1.7000*%
%ADD72R,2.0000X2.0000*%
%ADD73C,2.0000*%
%ADD74C,1.4999*%
%ADD75C,1.7780*%
%ADD76C,0.6096*%
%ADD77C,0.6200*%
%ADD78C,0.0117*%

%LPD*%
G36*
X65735Y7214108D02*
G01*
X61874Y7214870D01*
X58572Y7217105D01*
X-21894Y7297572D01*
X-24130Y7300874D01*
X-24892Y7304735D01*
X-24892Y7427264D01*
X-24130Y7431125D01*
X-21894Y7434427D01*
X-7264Y7449058D01*
X-3454Y7453833D01*
X-965Y7459065D01*
X304Y7464704D01*
X508Y7467904D01*
X508Y7530795D01*
X355Y7533894D01*
X-406Y7537958D01*
X-254Y7542377D01*
X1727Y7546289D01*
X5232Y7549032D01*
X9550Y7549997D01*
X53644Y7549997D01*
X57607Y7549184D01*
X60960Y7546898D01*
X63144Y7543546D01*
X63804Y7539583D01*
X62991Y7506919D01*
X63550Y7500569D01*
X65328Y7495082D01*
X68326Y7490104D01*
X72288Y7485888D01*
X77114Y7482687D01*
X82448Y7480655D01*
X89509Y7479792D01*
X137464Y7479792D01*
X141325Y7479030D01*
X144627Y7476794D01*
X149148Y7472324D01*
X151079Y7469581D01*
X152044Y7466380D01*
X152603Y7461605D01*
X154482Y7456373D01*
X157581Y7451445D01*
X159664Y7449058D01*
X171958Y7436764D01*
X176733Y7432954D01*
X179120Y7431633D01*
X183438Y7430008D01*
X186893Y7427823D01*
X189179Y7424470D01*
X189992Y7420508D01*
X189992Y7253935D01*
X189230Y7250074D01*
X186994Y7246772D01*
X157327Y7217105D01*
X154025Y7214870D01*
X150164Y7214108D01*
G37*

%LPD*%
G36*
X1250238Y6668262D02*
G01*
X1246327Y6669024D01*
X1243025Y6671259D01*
X984656Y6929628D01*
X982421Y6933082D01*
X981710Y6937197D01*
X982726Y6941210D01*
X985266Y6944512D01*
X988872Y6946493D01*
X991209Y6947204D01*
X999794Y6951573D01*
X1007567Y6957314D01*
X1012393Y6962343D01*
X1015898Y6964730D01*
X1020013Y6965492D01*
X1024128Y6964476D01*
X1027480Y6961936D01*
X1029462Y6958228D01*
X1031087Y6952894D01*
X1036574Y6940651D01*
X1043736Y6929170D01*
X1052322Y6918807D01*
X1062177Y6909663D01*
X1073200Y6901891D01*
X1085189Y6895693D01*
X1097889Y6891121D01*
X1111046Y6888327D01*
X1118514Y6887718D01*
X1121968Y6886803D01*
X1124915Y6884771D01*
X1165860Y6843928D01*
X1172514Y6838391D01*
X1174445Y6837019D01*
X1181811Y6832600D01*
X1183944Y6831533D01*
X1194155Y6827469D01*
X1202537Y6825386D01*
X1204874Y6824980D01*
X1213459Y6824167D01*
X1634744Y6824116D01*
X1638655Y6823354D01*
X1647139Y6817766D01*
X1652574Y6815886D01*
X1658924Y6815175D01*
X1795475Y6815175D01*
X1801825Y6815886D01*
X1807260Y6817766D01*
X1812188Y6820865D01*
X1816252Y6824980D01*
X1819351Y6829856D01*
X1821230Y6835292D01*
X1821738Y6839762D01*
X1823161Y6843928D01*
X1826158Y6847078D01*
X1830222Y6848652D01*
X1834591Y6848449D01*
X1838452Y6846366D01*
X1841093Y6842912D01*
X1842007Y6838645D01*
X1842007Y6786372D01*
X1841449Y6783019D01*
X1840331Y6779971D01*
X1839620Y6773621D01*
X1839620Y6708089D01*
X1838858Y6704228D01*
X1836674Y6700926D01*
X1807006Y6671259D01*
X1803704Y6669024D01*
X1799793Y6668262D01*
G37*

%LPD*%
G36*
X-212090Y5976315D02*
G01*
X-216052Y5977890D01*
X-218998Y5980988D01*
X-220421Y5985002D01*
X-220065Y5989269D01*
X-218033Y5996076D01*
X-217220Y6004052D01*
X-218033Y6012027D01*
X-220319Y6019698D01*
X-224129Y6026759D01*
X-229209Y6032957D01*
X-235407Y6038037D01*
X-242468Y6041796D01*
X-247396Y6043269D01*
X-250393Y6044742D01*
X-252729Y6047079D01*
X-254203Y6050076D01*
X-255676Y6055004D01*
X-259486Y6062065D01*
X-264566Y6068263D01*
X-270713Y6073343D01*
X-277825Y6077153D01*
X-282752Y6078626D01*
X-285750Y6080099D01*
X-288086Y6082436D01*
X-289560Y6085433D01*
X-291033Y6090361D01*
X-294843Y6097473D01*
X-299923Y6103620D01*
X-306120Y6108700D01*
X-313182Y6112510D01*
X-318109Y6113983D01*
X-321106Y6115456D01*
X-323443Y6117793D01*
X-324916Y6120790D01*
X-326390Y6125718D01*
X-330200Y6132779D01*
X-335280Y6138976D01*
X-341426Y6144056D01*
X-348538Y6147866D01*
X-353466Y6149340D01*
X-356463Y6150813D01*
X-358800Y6153150D01*
X-360273Y6156147D01*
X-361746Y6161074D01*
X-365556Y6168136D01*
X-370636Y6174333D01*
X-376834Y6179413D01*
X-383895Y6183223D01*
X-388823Y6184696D01*
X-391820Y6186170D01*
X-394157Y6188506D01*
X-395630Y6191504D01*
X-397103Y6196431D01*
X-400862Y6203492D01*
X-405942Y6209690D01*
X-412140Y6214770D01*
X-419201Y6218580D01*
X-424180Y6220053D01*
X-427177Y6221526D01*
X-429514Y6223863D01*
X-430987Y6226860D01*
X-432460Y6231788D01*
X-436270Y6238849D01*
X-441350Y6245047D01*
X-447497Y6250127D01*
X-454609Y6253937D01*
X-459536Y6255410D01*
X-462534Y6256883D01*
X-464870Y6259220D01*
X-466293Y6262217D01*
X-467817Y6267145D01*
X-471576Y6274206D01*
X-476656Y6280404D01*
X-482854Y6285484D01*
X-489915Y6289243D01*
X-494893Y6290767D01*
X-497890Y6292240D01*
X-500227Y6294577D01*
X-501700Y6297523D01*
X-503174Y6302502D01*
X-506984Y6309563D01*
X-512064Y6315760D01*
X-518210Y6320840D01*
X-525322Y6324650D01*
X-530250Y6326124D01*
X-533247Y6327597D01*
X-535584Y6329934D01*
X-537006Y6332931D01*
X-538530Y6337858D01*
X-542290Y6344920D01*
X-547420Y6351168D01*
X-549960Y6354572D01*
X-550824Y6358737D01*
X-549960Y6362903D01*
X-547420Y6366357D01*
X-528167Y6383477D01*
X-524865Y6385458D01*
X-521106Y6386068D01*
X-517398Y6385204D01*
X-514248Y6383070D01*
X-181305Y6050127D01*
X-179070Y6046825D01*
X-178308Y6042964D01*
X-178308Y5996635D01*
X-179070Y5992774D01*
X-181305Y5989472D01*
X-185775Y5984951D01*
X-189077Y5982766D01*
X-199034Y5980684D01*
X-207873Y5976467D01*
G37*

%LPD*%
G36*
X1401216Y5588000D02*
G01*
X1397304Y5588762D01*
X1394002Y5590997D01*
X1361897Y5623102D01*
X1359662Y5626404D01*
X1358900Y5630316D01*
X1358900Y6040983D01*
X1359662Y6044895D01*
X1361897Y6048197D01*
X1444802Y6131102D01*
X1448104Y6133338D01*
X1452016Y6134100D01*
X1570583Y6134100D01*
X1574495Y6133338D01*
X1577797Y6131102D01*
X1736902Y5971997D01*
X1739138Y5968695D01*
X1739900Y5964783D01*
X1739900Y5846216D01*
X1739138Y5842304D01*
X1736902Y5839002D01*
X1730197Y5832297D01*
X1726895Y5830062D01*
X1722983Y5829300D01*
X1588516Y5829300D01*
X1587500Y5828284D01*
X1587500Y5808370D01*
X1587093Y5805576D01*
X1585518Y5802274D01*
X1584096Y5800496D01*
X1577797Y5794197D01*
X1574495Y5791962D01*
X1570583Y5791200D01*
X1561998Y5791200D01*
X1559153Y5791606D01*
X1555089Y5793689D01*
X1549654Y5795568D01*
X1543304Y5796280D01*
X1434439Y5796280D01*
X1428140Y5795568D01*
X1422654Y5793689D01*
X1417777Y5790590D01*
X1413662Y5786526D01*
X1410614Y5781598D01*
X1408684Y5776163D01*
X1407972Y5769813D01*
X1407972Y5710986D01*
X1408684Y5704636D01*
X1410614Y5699201D01*
X1413662Y5694273D01*
X1417777Y5690209D01*
X1422654Y5687110D01*
X1428140Y5685180D01*
X1434439Y5684469D01*
X1543304Y5684469D01*
X1548536Y5685078D01*
X1551533Y5684977D01*
X1554378Y5683961D01*
X1556816Y5682183D01*
X1559102Y5679897D01*
X1561338Y5676595D01*
X1562100Y5672683D01*
X1562100Y5598160D01*
X1561338Y5594248D01*
X1559102Y5590997D01*
X1555851Y5588762D01*
X1551940Y5588000D01*
G37*

%LPD*%
G36*
X-431800Y5503316D02*
G01*
X-435711Y5504078D01*
X-438962Y5506262D01*
X-500837Y5568137D01*
X-503021Y5571388D01*
X-503783Y5575300D01*
X-503021Y5579211D01*
X-500837Y5582462D01*
X-432511Y5650788D01*
X-431800Y5652516D01*
X-431800Y5710783D01*
X-431038Y5714695D01*
X-428802Y5717997D01*
X-197662Y5949137D01*
X-194411Y5951321D01*
X-190500Y5952083D01*
X-186588Y5951321D01*
X-184302Y5949797D01*
X-153111Y5980988D01*
X-152400Y5982716D01*
X-152400Y6056884D01*
X-153111Y6058611D01*
X-507288Y6412788D01*
X-509016Y6413500D01*
X-532384Y6413500D01*
X-534060Y6412941D01*
X-754837Y6216650D01*
X-758139Y6214719D01*
X-761898Y6214110D01*
X-765606Y6214922D01*
X-768756Y6217056D01*
X-771702Y6220002D01*
X-773938Y6223304D01*
X-774700Y6227216D01*
X-774700Y6282283D01*
X-773938Y6286195D01*
X-771702Y6289497D01*
X-686511Y6374688D01*
X-685800Y6376416D01*
X-685800Y6488684D01*
X-686511Y6490411D01*
X-771347Y6575247D01*
X-773684Y6578955D01*
X-774242Y6583324D01*
X-770331Y6626352D01*
X-769416Y6629704D01*
X-767384Y6632600D01*
X-746658Y6653326D01*
X-743559Y6655460D01*
X-739851Y6656273D01*
X-736142Y6655714D01*
X-732840Y6653834D01*
X-625094Y6561175D01*
X-598220Y6534353D01*
X-592886Y6530035D01*
X-582980Y6524955D01*
X-571246Y6514846D01*
X-559511Y6503111D01*
X-557784Y6502400D01*
X-432816Y6502400D01*
X-431088Y6503111D01*
X-711Y6933488D01*
X0Y6935216D01*
X0Y6942683D01*
X762Y6946595D01*
X2997Y6949897D01*
X37388Y6984288D01*
X38100Y6986016D01*
X38100Y7069683D01*
X38811Y7073188D01*
X-162102Y7274102D01*
X-164338Y7277404D01*
X-165100Y7281316D01*
X-165100Y7310983D01*
X-164338Y7314895D01*
X-162102Y7318197D01*
X-164338Y7321448D01*
X-165100Y7325359D01*
X-165100Y7437983D01*
X-164338Y7441895D01*
X-162102Y7445197D01*
X-142697Y7464602D01*
X-139395Y7466838D01*
X-135483Y7467600D01*
X-89916Y7467600D01*
X-88188Y7468311D01*
X-76911Y7479588D01*
X-76200Y7481316D01*
X-76200Y7533640D01*
X-75438Y7537551D01*
X-73202Y7540802D01*
X-69951Y7543038D01*
X-66040Y7543800D01*
X-42316Y7543800D01*
X-38404Y7543038D01*
X-35102Y7540802D01*
X-32512Y7538212D01*
X-30327Y7534909D01*
X-29514Y7531049D01*
X-29514Y7472984D01*
X-29057Y7469530D01*
X-29159Y7466431D01*
X-30124Y7463536D01*
X-31953Y7461046D01*
X-50088Y7442911D01*
X-50800Y7441184D01*
X-50800Y7290816D01*
X-50088Y7289088D01*
X50088Y7188911D01*
X51816Y7188200D01*
X165100Y7188200D01*
X215188Y7238288D01*
X215900Y7240016D01*
X215900Y7293254D01*
X216458Y7299959D01*
X215900Y7306716D01*
X215900Y7441184D01*
X215188Y7442911D01*
X203200Y7454900D01*
X194716Y7454900D01*
X190804Y7455662D01*
X187502Y7457897D01*
X180797Y7464602D01*
X178562Y7467904D01*
X177800Y7471816D01*
X177800Y7479284D01*
X177088Y7481011D01*
X153111Y7504988D01*
X151384Y7505700D01*
X99314Y7505700D01*
X95351Y7506512D01*
X92049Y7508748D01*
X89865Y7512151D01*
X89154Y7516114D01*
X89763Y7540091D01*
X90576Y7543901D01*
X92811Y7547102D01*
X96062Y7549235D01*
X99923Y7549997D01*
X198831Y7549997D01*
X201066Y7550505D01*
X217830Y7558887D01*
X222402Y7560005D01*
X475792Y7560005D01*
X479653Y7559192D01*
X482955Y7557008D01*
X496570Y7543393D01*
X498957Y7539634D01*
X499516Y7535214D01*
X495300Y7492746D01*
X495300Y7446416D01*
X494538Y7442504D01*
X492302Y7439202D01*
X242011Y7188911D01*
X241300Y7187184D01*
X241300Y7182866D01*
X240538Y7179005D01*
X238302Y7175703D01*
X228142Y7165492D01*
X225552Y7163612D01*
X220268Y7160920D01*
X214934Y7156602D01*
X95453Y7037120D01*
X91135Y7031786D01*
X88239Y7026097D01*
X86563Y7021271D01*
X84937Y7019137D01*
X76911Y7011111D01*
X76200Y7009384D01*
X76200Y6909816D01*
X76911Y6908088D01*
X558088Y6426911D01*
X559816Y6426200D01*
X635863Y6426200D01*
X639775Y6425438D01*
X643077Y6423202D01*
X643737Y6422237D01*
X644702Y6423202D01*
X648004Y6425438D01*
X651916Y6426200D01*
X683209Y6426200D01*
X687070Y6425438D01*
X690372Y6423202D01*
X692556Y6419951D01*
X694994Y6405626D01*
X698195Y6396532D01*
X702868Y6388150D01*
X708964Y6380632D01*
X716178Y6374231D01*
X724408Y6369202D01*
X733348Y6365595D01*
X742797Y6363563D01*
X752449Y6363157D01*
X762000Y6364376D01*
X771194Y6367221D01*
X779830Y6371539D01*
X787603Y6377279D01*
X794258Y6384239D01*
X799642Y6392265D01*
X803656Y6401054D01*
X806043Y6410350D01*
X806907Y6419951D01*
X806043Y6429603D01*
X804367Y6436055D01*
X804113Y6439560D01*
X805027Y6442964D01*
X807008Y6445808D01*
X886002Y6524802D01*
X889304Y6527038D01*
X893216Y6527800D01*
X999083Y6527800D01*
X1002995Y6527038D01*
X1006297Y6524802D01*
X1013002Y6518097D01*
X1015237Y6514795D01*
X1016000Y6510883D01*
X1016000Y6392316D01*
X1015237Y6388404D01*
X1013002Y6385102D01*
X853897Y6225997D01*
X850595Y6223762D01*
X846683Y6223000D01*
X741070Y6223000D01*
X736955Y6223863D01*
X733602Y6226302D01*
X629259Y6340094D01*
X628751Y6339738D01*
X624840Y6338976D01*
X620928Y6339738D01*
X617677Y6341922D01*
X584911Y6374688D01*
X583184Y6375400D01*
X458216Y6375400D01*
X456488Y6374688D01*
X140411Y6058611D01*
X139700Y6056884D01*
X139700Y5944616D01*
X140411Y5942888D01*
X156311Y5926988D01*
X157937Y5924905D01*
X158953Y5922416D01*
X161848Y5916726D01*
X166166Y5911392D01*
X229717Y5847791D01*
X292201Y5778398D01*
X367588Y5703011D01*
X369316Y5702300D01*
X387045Y5702249D01*
X391007Y5701995D01*
X415188Y5701995D01*
X419049Y5701233D01*
X422351Y5699048D01*
X489407Y5631992D01*
X491388Y5629148D01*
X492353Y5625795D01*
X492099Y5622340D01*
X490677Y5619191D01*
X470458Y5588812D01*
X469188Y5587288D01*
X438962Y5557062D01*
X435711Y5554878D01*
X431800Y5554116D01*
X427888Y5554878D01*
X424637Y5557062D01*
X360781Y5620918D01*
X358495Y5624423D01*
X357835Y5628589D01*
X358851Y5632653D01*
X367792Y5650433D01*
X367588Y5652211D01*
X266852Y5752947D01*
X263194Y5757468D01*
X262432Y5758992D01*
X258064Y5764377D01*
X240029Y5782411D01*
X142341Y5889904D01*
X141884Y5890615D01*
X64211Y5968288D01*
X62484Y5969000D01*
X-113283Y5969000D01*
X-115011Y5968288D01*
X-152755Y5930544D01*
X-154838Y5928918D01*
X-157327Y5927902D01*
X-162915Y5926429D01*
X-168605Y5923534D01*
X-172364Y5920486D01*
X-175361Y5918758D01*
X-178765Y5918200D01*
X-181762Y5918200D01*
X-359105Y5740908D01*
X-359867Y5738977D01*
X-343458Y5592876D01*
X-343560Y5589828D01*
X-344576Y5586984D01*
X-346354Y5584545D01*
X-424637Y5506262D01*
X-427888Y5504078D01*
G37*

%LPD*%
G36*
X83007Y5445556D02*
G01*
X79095Y5446318D01*
X75793Y5448503D01*
X-93014Y5617311D01*
X-95199Y5620613D01*
X-95961Y5624525D01*
X-95961Y5750509D01*
X-95199Y5754420D01*
X-93014Y5757722D01*
X-52730Y5797956D01*
X-47345Y5804560D01*
X-43535Y5811621D01*
X-41249Y5819292D01*
X-40436Y5827268D01*
X-41249Y5835243D01*
X-43535Y5842914D01*
X-47345Y5849975D01*
X-52425Y5856122D01*
X-58623Y5861253D01*
X-65684Y5865012D01*
X-70662Y5866536D01*
X-73609Y5867958D01*
X-75946Y5870295D01*
X-77419Y5873292D01*
X-78943Y5878271D01*
X-82702Y5885332D01*
X-87782Y5891530D01*
X-93980Y5896610D01*
X-101041Y5900369D01*
X-105968Y5901893D01*
X-108966Y5903315D01*
X-111302Y5905652D01*
X-112776Y5908649D01*
X-114249Y5913577D01*
X-117246Y5919216D01*
X-118414Y5923330D01*
X-117805Y5927547D01*
X-115468Y5931154D01*
X-106527Y5940094D01*
X-103225Y5942330D01*
X-99364Y5943092D01*
X48564Y5943092D01*
X52425Y5942330D01*
X55727Y5940094D01*
X114046Y5881827D01*
X115824Y5879439D01*
X118364Y5874664D01*
X119532Y5870498D01*
X118922Y5866282D01*
X116585Y5862675D01*
X112979Y5860338D01*
X108762Y5859729D01*
X104648Y5860897D01*
X96926Y5865012D01*
X89255Y5867349D01*
X81330Y5868111D01*
X73355Y5867349D01*
X65684Y5865012D01*
X58623Y5861253D01*
X52425Y5856122D01*
X47345Y5849975D01*
X43535Y5842914D01*
X41249Y5835243D01*
X40436Y5827268D01*
X41249Y5819292D01*
X43535Y5811621D01*
X47345Y5804560D01*
X52730Y5797956D01*
X73202Y5777534D01*
X75387Y5774232D01*
X76149Y5770321D01*
X75387Y5766460D01*
X73202Y5763158D01*
X36728Y5726582D01*
X31445Y5719622D01*
X27686Y5712104D01*
X25400Y5704027D01*
X24587Y5695238D01*
X24638Y5578094D01*
X25857Y5569458D01*
X28498Y5561482D01*
X32613Y5554167D01*
X38252Y5547360D01*
X122783Y5462879D01*
X124968Y5459577D01*
X125780Y5455716D01*
X124968Y5451805D01*
X122783Y5448503D01*
X119481Y5446318D01*
X115620Y5445556D01*
G37*

%LPD*%
G36*
X774192Y5379974D02*
G01*
X770331Y5380786D01*
X767029Y5382971D01*
X653694Y5496306D01*
X650748Y5500471D01*
X649986Y5504230D01*
X649986Y5558993D01*
X649274Y5560720D01*
X618032Y5591962D01*
X615797Y5595315D01*
X615035Y5599226D01*
X615848Y5603189D01*
X618134Y5606491D01*
X621487Y5608624D01*
X625449Y5609336D01*
X970127Y5600242D01*
X973886Y5599379D01*
X977137Y5597194D01*
X979271Y5593943D01*
X979982Y5590082D01*
X979982Y5534202D01*
X979220Y5530291D01*
X977036Y5526989D01*
X960729Y5510682D01*
X960018Y5509006D01*
X960018Y5404205D01*
X959205Y5400294D01*
X957021Y5396992D01*
X942949Y5382971D01*
X939698Y5380786D01*
X935786Y5379974D01*
G37*

%LPD*%
G36*
X1792986Y5272938D02*
G01*
X1789226Y5273344D01*
X1781962Y5275580D01*
X1777593Y5276138D01*
X1774393Y5277104D01*
X1771700Y5279034D01*
X1669186Y5381498D01*
X1662582Y5386476D01*
X1655470Y5390032D01*
X1647850Y5392166D01*
X1639519Y5392978D01*
X1360525Y5392978D01*
X1357325Y5393486D01*
X1354480Y5394960D01*
X1349806Y5398414D01*
X1341170Y5402732D01*
X1331976Y5405577D01*
X1322425Y5406796D01*
X1312773Y5406390D01*
X1307592Y5405272D01*
X1303121Y5405323D01*
X1299057Y5407304D01*
X1296263Y5410809D01*
X1295298Y5415229D01*
X1295298Y5586628D01*
X1295857Y5589981D01*
X1297482Y5592927D01*
X1304086Y5599328D01*
X1307185Y5604205D01*
X1309065Y5609640D01*
X1309776Y5615990D01*
X1309776Y5674868D01*
X1309065Y5681167D01*
X1307185Y5686653D01*
X1304086Y5691530D01*
X1300022Y5695645D01*
X1295095Y5698693D01*
X1289659Y5700623D01*
X1283766Y5701284D01*
X1281023Y5701995D01*
X1278585Y5703417D01*
X1271981Y5708700D01*
X1262075Y5714390D01*
X1251407Y5718556D01*
X1240282Y5721146D01*
X1228496Y5722010D01*
X1120749Y5722010D01*
X1116787Y5722823D01*
X1113485Y5725058D01*
X1111300Y5728462D01*
X1110589Y5732424D01*
X1111504Y5736336D01*
X1113637Y5741060D01*
X1116025Y5750356D01*
X1116888Y5759958D01*
X1116634Y5762599D01*
X1117041Y5766460D01*
X1118870Y5769864D01*
X1121816Y5772353D01*
X1125474Y5773572D01*
X1131976Y5774385D01*
X1141171Y5777230D01*
X1154226Y5783834D01*
X1158240Y5783986D01*
X1162659Y5782106D01*
X1168146Y5780227D01*
X1174445Y5779516D01*
X1283309Y5779516D01*
X1289659Y5780227D01*
X1295095Y5782106D01*
X1300022Y5785205D01*
X1304086Y5789320D01*
X1307185Y5794197D01*
X1309116Y5799632D01*
X1309827Y5805982D01*
X1309827Y5864860D01*
X1309116Y5871159D01*
X1307185Y5876645D01*
X1304086Y5881522D01*
X1300022Y5885637D01*
X1295095Y5888685D01*
X1289659Y5890615D01*
X1283309Y5891326D01*
X1261008Y5891326D01*
X1257147Y5892088D01*
X1253845Y5894273D01*
X1251610Y5897575D01*
X1250848Y5901486D01*
X1250848Y5926937D01*
X1251712Y5931001D01*
X1254099Y5934405D01*
X1257655Y5936538D01*
X1264208Y5938824D01*
X1269085Y5941872D01*
X1273200Y5945987D01*
X1276299Y5950864D01*
X1278178Y5956350D01*
X1278890Y5962650D01*
X1278890Y6051550D01*
X1278178Y6057849D01*
X1276299Y6063335D01*
X1273200Y6068212D01*
X1269085Y6072327D01*
X1264208Y6075375D01*
X1258722Y6077305D01*
X1252423Y6078016D01*
X1173581Y6078016D01*
X1167231Y6077305D01*
X1161796Y6075375D01*
X1156868Y6072327D01*
X1152804Y6068212D01*
X1149705Y6063335D01*
X1147775Y6057849D01*
X1147064Y6051550D01*
X1147064Y5962650D01*
X1147775Y5956350D01*
X1149705Y5950864D01*
X1152804Y5945987D01*
X1156868Y5941872D01*
X1161796Y5938824D01*
X1168298Y5936538D01*
X1171854Y5934405D01*
X1174292Y5931001D01*
X1175105Y5926937D01*
X1175156Y5900267D01*
X1174292Y5896203D01*
X1171905Y5892800D01*
X1168349Y5890666D01*
X1162659Y5888685D01*
X1157782Y5885637D01*
X1155496Y5883351D01*
X1151991Y5881065D01*
X1147826Y5880404D01*
X1143762Y5881471D01*
X1141171Y5882741D01*
X1131976Y5885586D01*
X1122426Y5886805D01*
X1112774Y5886399D01*
X1103325Y5884367D01*
X1094384Y5880760D01*
X1086154Y5875731D01*
X1080668Y5870854D01*
X1077569Y5868974D01*
X1073962Y5868365D01*
X928268Y5868365D01*
X920292Y5867552D01*
X913130Y5865368D01*
X906526Y5861862D01*
X900328Y5856732D01*
X863396Y5819851D01*
X860094Y5817616D01*
X856183Y5816854D01*
X815695Y5816854D01*
X812038Y5817514D01*
X808888Y5819444D01*
X806653Y5822391D01*
X805586Y5825896D01*
X806907Y5839968D01*
X806043Y5849620D01*
X803656Y5858916D01*
X799642Y5867704D01*
X794258Y5875731D01*
X787603Y5882690D01*
X779830Y5888431D01*
X771194Y5892749D01*
X762000Y5895594D01*
X752449Y5896813D01*
X747776Y5896610D01*
X743966Y5897168D01*
X740664Y5899099D01*
X693064Y5940653D01*
X685444Y5945835D01*
X680770Y5947714D01*
X677367Y5949950D01*
X675132Y5953353D01*
X674370Y5957366D01*
X678332Y5972098D01*
X678942Y5979109D01*
X679805Y5982411D01*
X681736Y5985256D01*
X684479Y5987338D01*
X687781Y5988304D01*
X697788Y5989624D01*
X706983Y5992418D01*
X715619Y5996787D01*
X723392Y6002528D01*
X730046Y6009487D01*
X735431Y6017463D01*
X739444Y6026251D01*
X741832Y6035598D01*
X742696Y6045200D01*
X741832Y6054801D01*
X739444Y6064148D01*
X735431Y6072936D01*
X730046Y6080912D01*
X723392Y6087872D01*
X715619Y6093612D01*
X706983Y6097981D01*
X697788Y6100775D01*
X688238Y6102045D01*
X678586Y6101588D01*
X674522Y6100724D01*
X670661Y6100622D01*
X667105Y6101994D01*
X664260Y6104534D01*
X662584Y6107988D01*
X662279Y6111798D01*
X665022Y6120638D01*
X666496Y6123635D01*
X668832Y6125972D01*
X671830Y6127394D01*
X676757Y6128918D01*
X683818Y6132677D01*
X689965Y6137706D01*
X693216Y6139535D01*
X696925Y6140043D01*
X700532Y6139180D01*
X703580Y6137046D01*
X775106Y6065621D01*
X777087Y6062827D01*
X778052Y6059576D01*
X777849Y6056172D01*
X776528Y6050330D01*
X776528Y6044539D01*
X777798Y6038900D01*
X780288Y6033668D01*
X784250Y6028690D01*
X847090Y5965850D01*
X852068Y5961888D01*
X857300Y5959398D01*
X862939Y5958128D01*
X868730Y5958128D01*
X874369Y5959398D01*
X879551Y5961888D01*
X884529Y5965850D01*
X940308Y6021628D01*
X944270Y6026607D01*
X946810Y6031839D01*
X948080Y6037478D01*
X948080Y6043269D01*
X946810Y6048908D01*
X944270Y6054090D01*
X940308Y6059068D01*
X877468Y6121908D01*
X872490Y6125870D01*
X867308Y6128410D01*
X861669Y6129680D01*
X855878Y6129680D01*
X850239Y6128410D01*
X845007Y6125870D01*
X840841Y6123381D01*
X837184Y6122924D01*
X833577Y6123787D01*
X830529Y6125870D01*
X776630Y6179718D01*
X774395Y6183020D01*
X773633Y6186932D01*
X774395Y6190792D01*
X776630Y6194094D01*
X779932Y6196330D01*
X783793Y6197092D01*
X850595Y6197092D01*
X856640Y6197752D01*
X862126Y6199682D01*
X867054Y6202781D01*
X869442Y6204864D01*
X1034135Y6369558D01*
X1037945Y6374333D01*
X1040434Y6379565D01*
X1041704Y6385204D01*
X1041908Y6388404D01*
X1041908Y6514795D01*
X1041247Y6520840D01*
X1040485Y6523532D01*
X1038606Y6527698D01*
X1037742Y6531660D01*
X1038453Y6535572D01*
X1040637Y6538976D01*
X1043940Y6541211D01*
X1047902Y6542024D01*
X1100023Y6542024D01*
X1103934Y6541262D01*
X1107236Y6539026D01*
X1149146Y6497269D01*
X1151331Y6493967D01*
X1152144Y6490055D01*
X1152144Y6380480D01*
X1152906Y6372606D01*
X1155039Y6365494D01*
X1158544Y6358991D01*
X1163574Y6352844D01*
X1342948Y6173470D01*
X1349095Y6168440D01*
X1355598Y6164935D01*
X1362710Y6162802D01*
X1370584Y6162040D01*
X1414576Y6162040D01*
X1418437Y6161278D01*
X1421739Y6159042D01*
X1423924Y6155740D01*
X1424736Y6151880D01*
X1423924Y6147968D01*
X1421739Y6144666D01*
X1340764Y6063742D01*
X1336954Y6058966D01*
X1334465Y6053734D01*
X1333195Y6048095D01*
X1332992Y6044895D01*
X1332992Y5626404D01*
X1333652Y5620359D01*
X1335582Y5614873D01*
X1338681Y5609945D01*
X1340764Y5607558D01*
X1378458Y5569864D01*
X1383233Y5566054D01*
X1388465Y5563565D01*
X1394104Y5562295D01*
X1397304Y5562092D01*
X1561541Y5562092D01*
X1567840Y5562803D01*
X1573326Y5564733D01*
X1578203Y5567781D01*
X1582318Y5571896D01*
X1585366Y5576773D01*
X1587296Y5582259D01*
X1588008Y5588558D01*
X1588008Y5676595D01*
X1587347Y5682640D01*
X1585417Y5688126D01*
X1582318Y5693054D01*
X1580235Y5695442D01*
X1567942Y5707735D01*
X1563166Y5711545D01*
X1557934Y5714034D01*
X1552295Y5715304D01*
X1549095Y5715508D01*
X1450035Y5715508D01*
X1446174Y5716270D01*
X1442872Y5718505D01*
X1438605Y5722772D01*
X1436370Y5726074D01*
X1435608Y5729935D01*
X1435608Y5755132D01*
X1436370Y5759043D01*
X1438605Y5762294D01*
X1441856Y5764530D01*
X1445768Y5765292D01*
X1574495Y5765292D01*
X1580540Y5765952D01*
X1586026Y5767882D01*
X1590954Y5770981D01*
X1593342Y5773064D01*
X1605635Y5785358D01*
X1609445Y5790133D01*
X1610715Y5792470D01*
X1612290Y5796737D01*
X1614474Y5800242D01*
X1617827Y5802579D01*
X1621840Y5803392D01*
X1726895Y5803392D01*
X1732940Y5804052D01*
X1738426Y5805982D01*
X1743354Y5809081D01*
X1745742Y5811164D01*
X1758035Y5823458D01*
X1761845Y5828233D01*
X1764334Y5833465D01*
X1765604Y5839104D01*
X1765807Y5842304D01*
X1765807Y5955487D01*
X1766570Y5959398D01*
X1768805Y5962700D01*
X1772056Y5964885D01*
X1775968Y5965647D01*
X1779879Y5964885D01*
X1783130Y5962700D01*
X1799386Y5946444D01*
X1801622Y5943142D01*
X1802384Y5939231D01*
X1802384Y5283047D01*
X1801672Y5279339D01*
X1799691Y5276138D01*
X1796643Y5273903D01*
G37*

%LPD*%
G36*
X29718Y5167833D02*
G01*
X-270154Y5167884D01*
X-274066Y5168646D01*
X-277368Y5170881D01*
X-672541Y5566054D01*
X-674928Y5569813D01*
X-675436Y5574284D01*
X-674014Y5578551D01*
X-670864Y5581751D01*
X-666648Y5583275D01*
X-658012Y5584393D01*
X-648817Y5587238D01*
X-640181Y5591556D01*
X-632409Y5597296D01*
X-625754Y5604256D01*
X-620369Y5612282D01*
X-616356Y5621070D01*
X-613968Y5630367D01*
X-613105Y5639968D01*
X-613968Y5649620D01*
X-616356Y5658916D01*
X-620369Y5667705D01*
X-622858Y5671413D01*
X-624281Y5674614D01*
X-624535Y5678068D01*
X-623620Y5681421D01*
X-621639Y5684316D01*
X-503326Y5802579D01*
X-498246Y5808776D01*
X-494690Y5815380D01*
X-492506Y5822594D01*
X-491743Y5830570D01*
X-491743Y5853379D01*
X-490982Y5857290D01*
X-488746Y5860592D01*
X-457911Y5891428D01*
X-454406Y5893714D01*
X-450240Y5894374D01*
X-446176Y5893308D01*
X-436321Y5885230D01*
X-429259Y5881420D01*
X-424332Y5879947D01*
X-421335Y5878474D01*
X-418998Y5876137D01*
X-417576Y5873140D01*
X-416051Y5868212D01*
X-412292Y5861151D01*
X-407212Y5854954D01*
X-401015Y5849874D01*
X-393954Y5846064D01*
X-386283Y5843778D01*
X-378307Y5842965D01*
X-370332Y5843778D01*
X-365150Y5845352D01*
X-360730Y5845657D01*
X-356565Y5844032D01*
X-353466Y5840831D01*
X-352094Y5836615D01*
X-352653Y5832195D01*
X-354990Y5828436D01*
X-449935Y5733542D01*
X-453745Y5728766D01*
X-456234Y5723534D01*
X-457504Y5717895D01*
X-457708Y5714695D01*
X-457708Y5666435D01*
X-458470Y5662574D01*
X-460705Y5659272D01*
X-525932Y5594045D01*
X-529894Y5589066D01*
X-532384Y5583834D01*
X-533704Y5578195D01*
X-533704Y5572404D01*
X-532384Y5566765D01*
X-529894Y5561533D01*
X-525932Y5556554D01*
X-450545Y5481167D01*
X-445566Y5477205D01*
X-440334Y5474716D01*
X-434695Y5473395D01*
X-428904Y5473395D01*
X-423265Y5474716D01*
X-418033Y5477205D01*
X-413054Y5481167D01*
X-343255Y5551017D01*
X-339953Y5553202D01*
X-336042Y5554014D01*
X-332181Y5553202D01*
X-328879Y5551017D01*
X36931Y5185206D01*
X39166Y5181904D01*
X39928Y5177993D01*
X39166Y5174081D01*
X36931Y5170830D01*
X33629Y5168595D01*
G37*

%LPD*%
G36*
X476097Y4928666D02*
G01*
X472135Y4929327D01*
X468731Y4931511D01*
X466445Y4934864D01*
X465632Y4938826D01*
X465582Y5231892D01*
X464362Y5240528D01*
X461721Y5248503D01*
X457606Y5255818D01*
X451967Y5262626D01*
X118567Y5595772D01*
X116382Y5599074D01*
X115620Y5602935D01*
X115620Y5672632D01*
X116382Y5676544D01*
X118567Y5679846D01*
X137566Y5698794D01*
X140868Y5700979D01*
X144729Y5701741D01*
X148640Y5700979D01*
X151942Y5698794D01*
X172212Y5678474D01*
X178816Y5673090D01*
X185877Y5669280D01*
X193548Y5666994D01*
X201523Y5666181D01*
X209499Y5666994D01*
X217170Y5669280D01*
X224231Y5673090D01*
X230428Y5678170D01*
X235508Y5684367D01*
X239267Y5691428D01*
X241604Y5699099D01*
X242366Y5707024D01*
X241401Y5716219D01*
X241858Y5720334D01*
X243840Y5723940D01*
X247142Y5726430D01*
X251155Y5727446D01*
X255270Y5726734D01*
X258724Y5724448D01*
X331622Y5651550D01*
X333908Y5648045D01*
X334568Y5643880D01*
X333502Y5639816D01*
X332689Y5638190D01*
X330504Y5632246D01*
X329742Y5626506D01*
X330301Y5620715D01*
X332130Y5615228D01*
X335280Y5610098D01*
X337515Y5607558D01*
X413054Y5531967D01*
X418033Y5528005D01*
X423265Y5525516D01*
X428904Y5524195D01*
X434695Y5524195D01*
X440334Y5525516D01*
X445566Y5528005D01*
X450545Y5531967D01*
X484276Y5565698D01*
X487578Y5567934D01*
X491439Y5568696D01*
X600456Y5568696D01*
X604316Y5567934D01*
X607618Y5565698D01*
X621131Y5552236D01*
X623316Y5548934D01*
X624078Y5545074D01*
X624078Y5500268D01*
X624738Y5494223D01*
X626668Y5488736D01*
X629767Y5483860D01*
X631901Y5481472D01*
X751484Y5361889D01*
X756208Y5358079D01*
X761441Y5355539D01*
X767080Y5354269D01*
X770280Y5354066D01*
X939698Y5354066D01*
X945743Y5354726D01*
X951230Y5356656D01*
X956157Y5359755D01*
X978103Y5381447D01*
X981913Y5386222D01*
X984453Y5391454D01*
X985723Y5397093D01*
X985926Y5400294D01*
X985926Y5495036D01*
X986688Y5498947D01*
X988872Y5502249D01*
X998118Y5511444D01*
X1001928Y5516219D01*
X1004417Y5521452D01*
X1005738Y5527090D01*
X1005890Y5530291D01*
X1005890Y5558536D01*
X1006703Y5562447D01*
X1008887Y5565698D01*
X1012190Y5567934D01*
X1016050Y5568696D01*
X1152296Y5568797D01*
X1156208Y5568035D01*
X1159510Y5565800D01*
X1161694Y5562549D01*
X1162456Y5558637D01*
X1162456Y5292496D01*
X1163320Y5281726D01*
X1165758Y5271617D01*
X1171498Y5257647D01*
X1171346Y5253685D01*
X1169670Y5250129D01*
X1166825Y5247436D01*
X1163116Y5246014D01*
X1159205Y5246166D01*
X1144676Y5249468D01*
X1130554Y5250840D01*
X1116330Y5250383D01*
X1102309Y5248097D01*
X1088694Y5244033D01*
X1075690Y5238292D01*
X1063548Y5230926D01*
X1052423Y5222087D01*
X1042568Y5211876D01*
X1034084Y5200497D01*
X1027074Y5188102D01*
X1021740Y5174945D01*
X1018133Y5161178D01*
X1016355Y5147106D01*
X1016355Y5132882D01*
X1018133Y5118811D01*
X1021740Y5105044D01*
X1027074Y5091887D01*
X1034084Y5079492D01*
X1042568Y5068112D01*
X1052423Y5057902D01*
X1063548Y5049062D01*
X1075690Y5041696D01*
X1088694Y5035905D01*
X1102309Y5031892D01*
X1116330Y5029606D01*
X1130554Y5029149D01*
X1144676Y5030520D01*
X1158544Y5033670D01*
X1171905Y5038598D01*
X1184503Y5045151D01*
X1196136Y5053279D01*
X1206652Y5062829D01*
X1215847Y5073650D01*
X1223619Y5085588D01*
X1229766Y5098389D01*
X1234236Y5111851D01*
X1236980Y5125821D01*
X1237894Y5139994D01*
X1236980Y5154168D01*
X1234643Y5166156D01*
X1234744Y5170424D01*
X1236573Y5174284D01*
X1239824Y5177078D01*
X1243939Y5178247D01*
X1248206Y5177586D01*
X1251813Y5175300D01*
X1267917Y5159146D01*
X1269746Y5156708D01*
X1270711Y5153761D01*
X1270812Y5150662D01*
X1270355Y5147106D01*
X1270355Y5132882D01*
X1272133Y5118811D01*
X1275740Y5105044D01*
X1281074Y5091887D01*
X1288084Y5079492D01*
X1296568Y5068112D01*
X1306423Y5057902D01*
X1317548Y5049062D01*
X1329690Y5041696D01*
X1342694Y5035905D01*
X1356309Y5031892D01*
X1370330Y5029606D01*
X1384554Y5029149D01*
X1390751Y5029758D01*
X1394866Y5029301D01*
X1398473Y5027269D01*
X1400911Y5023967D01*
X1401876Y5019954D01*
X1401216Y5015890D01*
X1398930Y5012486D01*
X1347266Y4960823D01*
X1343964Y4958588D01*
X1340104Y4957826D01*
X586536Y4957826D01*
X582574Y4958638D01*
X579221Y4960975D01*
X577596Y4962652D01*
X569823Y4968392D01*
X561187Y4972761D01*
X551992Y4975555D01*
X542442Y4976825D01*
X532790Y4976368D01*
X523341Y4974336D01*
X514400Y4970780D01*
X506171Y4965700D01*
X498957Y4959350D01*
X492861Y4951831D01*
X488188Y4943398D01*
X485343Y4935423D01*
X483311Y4931968D01*
X480009Y4929581D01*
G37*

%LPC*%
G36*
X876553Y5029149D02*
G01*
X890676Y5030520D01*
X904544Y5033670D01*
X917905Y5038598D01*
X930503Y5045151D01*
X942136Y5053279D01*
X952652Y5062829D01*
X961847Y5073650D01*
X969619Y5085588D01*
X975766Y5098389D01*
X980236Y5111851D01*
X982980Y5125821D01*
X983894Y5139994D01*
X982980Y5154168D01*
X980236Y5168138D01*
X975766Y5181600D01*
X969619Y5194401D01*
X961847Y5206288D01*
X952652Y5217109D01*
X942136Y5226659D01*
X930503Y5234838D01*
X917905Y5241391D01*
X904544Y5246268D01*
X890676Y5249468D01*
X876553Y5250840D01*
X862330Y5250383D01*
X848309Y5248097D01*
X834694Y5244033D01*
X821690Y5238292D01*
X809548Y5230926D01*
X798423Y5222087D01*
X788568Y5211876D01*
X780084Y5200497D01*
X773074Y5188102D01*
X767740Y5174945D01*
X764133Y5161178D01*
X762355Y5147106D01*
X762355Y5132882D01*
X764133Y5118811D01*
X767740Y5105044D01*
X773074Y5091887D01*
X780084Y5079492D01*
X788568Y5068112D01*
X798423Y5057902D01*
X809548Y5049062D01*
X821690Y5041696D01*
X834694Y5035905D01*
X848309Y5031892D01*
X862330Y5029606D01*
G37*

%LPD*%
G36*
X1007516Y4064000D02*
G01*
X1003604Y4064762D01*
X1000302Y4066997D01*
X984503Y4082796D01*
X982471Y4085742D01*
X981557Y4089196D01*
X980592Y4101185D01*
X978001Y4112056D01*
X973683Y4122420D01*
X967841Y4132021D01*
X960526Y4140504D01*
X952042Y4147820D01*
X942441Y4153662D01*
X932078Y4157979D01*
X921207Y4160570D01*
X909218Y4161536D01*
X905764Y4162450D01*
X902817Y4164482D01*
X879297Y4188002D01*
X877062Y4191304D01*
X876300Y4195216D01*
X876300Y4405731D01*
X875537Y4407560D01*
X775462Y4495139D01*
X773887Y4495800D01*
X512216Y4495800D01*
X508304Y4496562D01*
X505002Y4498797D01*
X483209Y4520590D01*
X481025Y4523892D01*
X480212Y4527804D01*
X480212Y4692396D01*
X481025Y4696307D01*
X483209Y4699609D01*
X593902Y4810302D01*
X597204Y4812538D01*
X601116Y4813300D01*
X1392783Y4813300D01*
X1396695Y4812538D01*
X1399997Y4810302D01*
X1749602Y4460697D01*
X1751838Y4457395D01*
X1752600Y4453483D01*
X1752600Y4106316D01*
X1751838Y4102404D01*
X1749602Y4099102D01*
X1717497Y4066997D01*
X1714195Y4064762D01*
X1710283Y4064000D01*
X1670659Y4064000D01*
X1665630Y4065320D01*
X1651457Y4069791D01*
X1636877Y4072534D01*
X1622094Y4073448D01*
X1607261Y4072534D01*
X1592681Y4069791D01*
X1578559Y4065320D01*
X1573479Y4064000D01*
X1220673Y4064000D01*
X1215644Y4065320D01*
X1201470Y4069791D01*
X1186891Y4072534D01*
X1172108Y4073448D01*
X1157274Y4072534D01*
X1142695Y4069791D01*
X1128572Y4065320D01*
X1127760Y4064914D01*
X1123492Y4064000D01*
G37*

%LPC*%
G36*
X1040028Y4128515D02*
G01*
X1051204Y4129379D01*
X1062075Y4132021D01*
X1072438Y4136288D01*
X1082040Y4142181D01*
X1090523Y4149445D01*
X1097838Y4157979D01*
X1103680Y4167530D01*
X1107998Y4177893D01*
X1110589Y4188815D01*
X1111504Y4199991D01*
X1110589Y4211167D01*
X1107998Y4222089D01*
X1103680Y4232452D01*
X1097838Y4242003D01*
X1090523Y4250537D01*
X1082040Y4257802D01*
X1072438Y4263694D01*
X1062075Y4267962D01*
X1051204Y4270603D01*
X1040028Y4271467D01*
X1028801Y4270603D01*
X1017930Y4267962D01*
X1007567Y4263694D01*
X997966Y4257802D01*
X989482Y4250537D01*
X982167Y4242003D01*
X976325Y4232452D01*
X972007Y4222089D01*
X969416Y4211167D01*
X968502Y4199991D01*
X969416Y4188815D01*
X972007Y4177893D01*
X976325Y4167530D01*
X982167Y4157979D01*
X989482Y4149445D01*
X997966Y4142181D01*
X1007567Y4136288D01*
X1017930Y4132021D01*
X1028801Y4129379D01*
G37*

%LPD*%
G36*
X965555Y3986682D02*
G01*
X961491Y3988308D01*
X958494Y3991508D01*
X957122Y3995674D01*
X956919Y3997502D01*
X954786Y4004614D01*
X951280Y4011117D01*
X946302Y4017264D01*
X860856Y4102709D01*
X858621Y4106011D01*
X857859Y4109872D01*
X857859Y4148277D01*
X858621Y4152188D01*
X860856Y4155440D01*
X864108Y4157675D01*
X868019Y4158437D01*
X871880Y4157675D01*
X875182Y4155440D01*
X984656Y4046016D01*
X986688Y4043070D01*
X987602Y4039565D01*
X987196Y4035958D01*
X985570Y4032758D01*
X982878Y4029151D01*
X980033Y4024477D01*
X978103Y4018940D01*
X977392Y4012641D01*
X977392Y3996690D01*
X976426Y3992422D01*
X973785Y3988917D01*
X969924Y3986885D01*
G37*

%LPD*%
G36*
X844550Y3778910D02*
G01*
X840486Y3779723D01*
X837082Y3782161D01*
X834948Y3785717D01*
X832815Y3791762D01*
X829767Y3796690D01*
X825652Y3800754D01*
X820775Y3803853D01*
X815289Y3805732D01*
X808990Y3806444D01*
X749808Y3806444D01*
X745490Y3807409D01*
X741984Y3810152D01*
X740003Y3814064D01*
X739444Y3816248D01*
X735431Y3825036D01*
X733044Y3828592D01*
X731774Y3831285D01*
X731316Y3834231D01*
X731266Y3846118D01*
X730046Y3854704D01*
X727405Y3862628D01*
X723290Y3869994D01*
X717651Y3876801D01*
X414832Y4179620D01*
X412546Y4183126D01*
X411835Y4187190D01*
X412851Y4191254D01*
X415391Y4194556D01*
X418998Y4196537D01*
X421182Y4197197D01*
X429818Y4201566D01*
X439216Y4208424D01*
X443992Y4211218D01*
X447548Y4213606D01*
X450748Y4216298D01*
X453745Y4219295D01*
X456438Y4222496D01*
X458774Y4226001D01*
X460857Y4229658D01*
X462534Y4233468D01*
X463854Y4237482D01*
X464820Y4241546D01*
X465429Y4245711D01*
X465632Y4250182D01*
X465632Y4477004D01*
X466394Y4480915D01*
X468579Y4484217D01*
X471881Y4486402D01*
X475792Y4487164D01*
X479653Y4486402D01*
X482955Y4484217D01*
X489458Y4477664D01*
X494233Y4473854D01*
X499465Y4471365D01*
X505104Y4470095D01*
X508304Y4469892D01*
X573684Y4469892D01*
X578002Y4468926D01*
X581507Y4466183D01*
X583539Y4462272D01*
X583641Y4457852D01*
X581914Y4453737D01*
X578561Y4450842D01*
X575716Y4449267D01*
X564032Y4440783D01*
X553516Y4430928D01*
X544322Y4419803D01*
X536600Y4407611D01*
X530453Y4394606D01*
X526034Y4380890D01*
X523341Y4366717D01*
X522427Y4352340D01*
X523341Y4337964D01*
X526034Y4323791D01*
X530453Y4310075D01*
X536600Y4297019D01*
X544322Y4284878D01*
X553516Y4273753D01*
X564032Y4263898D01*
X575716Y4255414D01*
X588314Y4248454D01*
X601726Y4243171D01*
X615696Y4239564D01*
X629970Y4237786D01*
X644398Y4237786D01*
X658723Y4239564D01*
X672693Y4243171D01*
X680923Y4246422D01*
X684733Y4247134D01*
X688594Y4246321D01*
X691845Y4244136D01*
X779170Y4156811D01*
X781354Y4153509D01*
X782116Y4149648D01*
X782116Y4090466D01*
X782929Y4082592D01*
X785063Y4075531D01*
X788568Y4068978D01*
X793597Y4062882D01*
X879043Y3977436D01*
X881227Y3974134D01*
X881989Y3970223D01*
X881989Y3815740D01*
X881126Y3811676D01*
X878687Y3808272D01*
X875131Y3806139D01*
X868324Y3803802D01*
X863447Y3800754D01*
X859332Y3796690D01*
X856284Y3791762D01*
X854151Y3785717D01*
X852017Y3782161D01*
X848614Y3779723D01*
G37*

%LPD*%
G36*
X1130300Y2851607D02*
G01*
X1125829Y2851658D01*
X1121867Y2853690D01*
X1119073Y2857195D01*
X1118108Y2861564D01*
X1118108Y3020364D01*
X1118870Y3024225D01*
X1121105Y3027527D01*
X1173835Y3080258D01*
X1177645Y3085033D01*
X1180134Y3090265D01*
X1181404Y3095904D01*
X1181608Y3099104D01*
X1181608Y3136341D01*
X1180896Y3142640D01*
X1178966Y3148126D01*
X1175918Y3153003D01*
X1171752Y3157169D01*
X1169568Y3160420D01*
X1168806Y3164332D01*
X1169568Y3168243D01*
X1171752Y3171494D01*
X1175054Y3173730D01*
X1178966Y3174492D01*
X1229664Y3174492D01*
X1233525Y3173730D01*
X1236827Y3171494D01*
X1317294Y3091027D01*
X1319530Y3087725D01*
X1320292Y3083864D01*
X1320292Y2868218D01*
X1319580Y2864561D01*
X1317650Y2861411D01*
X1314653Y2859125D01*
X1311046Y2858109D01*
X1307338Y2858465D01*
X1305204Y2859074D01*
X1296822Y2859836D01*
X1157427Y2859836D01*
X1149045Y2859074D01*
X1141425Y2856890D01*
G37*

%LPD*%
G36*
X-990955Y2598521D02*
G01*
X-995476Y2598572D01*
X-999490Y2600502D01*
X-1002284Y2604058D01*
X-1003300Y2608427D01*
X-1003300Y3094482D01*
X-1002487Y3098444D01*
X-1000201Y3101797D01*
X-663397Y3426104D01*
X-660095Y3428237D01*
X-656234Y3428949D01*
X862584Y3416300D01*
X863600Y3417315D01*
X863600Y3609340D01*
X864362Y3613251D01*
X866597Y3616502D01*
X869848Y3618737D01*
X873760Y3619500D01*
X877722Y3619500D01*
X880160Y3620008D01*
X1066800Y3620008D01*
X1067409Y3620262D01*
X1105763Y3668217D01*
X1109167Y3670960D01*
X1109980Y3671163D01*
X1104950Y3783584D01*
X1104290Y3785209D01*
X1006297Y3883202D01*
X1004062Y3886504D01*
X1003300Y3890416D01*
X1003300Y4009796D01*
X1003808Y4013047D01*
X1005332Y4015892D01*
X1018946Y4034028D01*
X1021181Y4036212D01*
X1023975Y4037634D01*
X1027074Y4038092D01*
X1714195Y4038092D01*
X1720240Y4038752D01*
X1725726Y4040682D01*
X1730654Y4043781D01*
X1733042Y4045864D01*
X1748180Y4061002D01*
X1751482Y4063237D01*
X1755343Y4064000D01*
X1773783Y4064000D01*
X1777695Y4063237D01*
X1780997Y4061002D01*
X1876602Y3965397D01*
X1878838Y3962095D01*
X1879600Y3958183D01*
X1879600Y3039618D01*
X1878787Y3035655D01*
X1876501Y3032302D01*
X1502968Y2672842D01*
X1499717Y2670708D01*
X1495907Y2669997D01*
X1133856Y2669997D01*
X1130249Y2670657D01*
X1127099Y2672588D01*
X1119124Y2679700D01*
X1116584Y2683154D01*
X1115720Y2687320D01*
X1115720Y2749804D01*
X1116482Y2753664D01*
X1118666Y2756966D01*
X1134821Y2773121D01*
X1137767Y2775204D01*
X1141222Y2776067D01*
X1144778Y2775712D01*
X1149045Y2774492D01*
X1157427Y2773730D01*
X1296822Y2773730D01*
X1305204Y2774492D01*
X1312824Y2776677D01*
X1319936Y2780233D01*
X1326286Y2785008D01*
X1331620Y2790901D01*
X1337360Y2800248D01*
X1339596Y2802280D01*
X1346047Y2806801D01*
X1346200Y2807208D01*
X1346200Y3097784D01*
X1345488Y3099511D01*
X1240637Y3204362D01*
X1239977Y3203397D01*
X1236675Y3201162D01*
X1232763Y3200400D01*
X1080516Y3200400D01*
X1078788Y3199688D01*
X1057097Y3177997D01*
X1053795Y3175762D01*
X1049883Y3175000D01*
X153416Y3175000D01*
X151688Y3174288D01*
X79197Y3101797D01*
X75895Y3099562D01*
X71983Y3098800D01*
X-164084Y3098800D01*
X-165811Y3098088D01*
X-225602Y3038297D01*
X-228904Y3036062D01*
X-232816Y3035300D01*
X-786384Y3035300D01*
X-787400Y3034284D01*
X-787400Y3014116D01*
X-788162Y3010204D01*
X-790397Y3006902D01*
X-799388Y2997911D01*
X-800100Y2996184D01*
X-800100Y2854960D01*
X-800862Y2851048D01*
X-803097Y2847797D01*
X-806348Y2845562D01*
X-810260Y2844800D01*
X-900480Y2844800D01*
X-902360Y2844038D01*
X-964539Y2769362D01*
X-965200Y2767838D01*
X-965200Y2643987D01*
X-966266Y2639466D01*
X-984046Y2603906D01*
X-986891Y2600401D01*
G37*

%LPC*%
G36*
X1558086Y3313582D02*
G01*
X1574139Y3314039D01*
X1590090Y3316325D01*
X1605635Y3320389D01*
X1620621Y3326231D01*
X1634845Y3333750D01*
X1648155Y3342843D01*
X1660296Y3353358D01*
X1671167Y3365195D01*
X1680616Y3378250D01*
X1688541Y3392220D01*
X1694789Y3407054D01*
X1699310Y3422497D01*
X1702054Y3438347D01*
X1702968Y3454400D01*
X1702054Y3470452D01*
X1699310Y3486302D01*
X1694789Y3501745D01*
X1688541Y3516579D01*
X1680616Y3530549D01*
X1671167Y3543604D01*
X1660296Y3555441D01*
X1648155Y3565956D01*
X1634845Y3575050D01*
X1620621Y3582568D01*
X1605635Y3588410D01*
X1590090Y3592474D01*
X1574139Y3594760D01*
X1558086Y3595217D01*
X1542034Y3593846D01*
X1526286Y3590645D01*
X1510995Y3585667D01*
X1496364Y3579012D01*
X1482598Y3570681D01*
X1469847Y3560876D01*
X1458315Y3549650D01*
X1448104Y3537204D01*
X1439418Y3523691D01*
X1432306Y3509264D01*
X1426921Y3494074D01*
X1423263Y3478428D01*
X1421434Y3462426D01*
X1421434Y3446373D01*
X1423263Y3430371D01*
X1426921Y3414725D01*
X1432306Y3399536D01*
X1439418Y3385108D01*
X1448104Y3371596D01*
X1458315Y3359150D01*
X1469847Y3347923D01*
X1482598Y3338118D01*
X1496364Y3329787D01*
X1510995Y3323082D01*
X1526286Y3318154D01*
X1542034Y3314954D01*
G37*

%LPD*%
G36*
X220116Y2540000D02*
G01*
X216204Y2540762D01*
X212902Y2542997D01*
X203911Y2551988D01*
X202184Y2552700D01*
X55016Y2552700D01*
X51104Y2553462D01*
X47802Y2555697D01*
X2997Y2600502D01*
X762Y2603804D01*
X0Y2607716D01*
X0Y2738983D01*
X762Y2742895D01*
X2997Y2746197D01*
X111302Y2854502D01*
X114604Y2856738D01*
X118516Y2857500D01*
X491083Y2857500D01*
X494995Y2856738D01*
X498297Y2854502D01*
X507288Y2845511D01*
X509016Y2844800D01*
X558139Y2844800D01*
X562660Y2843733D01*
X566775Y2841701D01*
X574395Y2839516D01*
X582777Y2838754D01*
X722172Y2838754D01*
X730554Y2839516D01*
X733653Y2840380D01*
X737209Y2840736D01*
X740664Y2839872D01*
X743610Y2837789D01*
X746302Y2835097D01*
X748538Y2831795D01*
X749300Y2827883D01*
X749300Y2737205D01*
X748588Y2733548D01*
X746658Y2730347D01*
X743661Y2728112D01*
X740054Y2727096D01*
X736346Y2727452D01*
X730554Y2729077D01*
X722172Y2729839D01*
X582777Y2729839D01*
X574395Y2729077D01*
X566775Y2726893D01*
X559663Y2723388D01*
X554990Y2719832D01*
X552094Y2718308D01*
X548894Y2717800D01*
X382016Y2717800D01*
X380288Y2717088D01*
X330911Y2667711D01*
X330200Y2665984D01*
X330200Y2556916D01*
X329438Y2553004D01*
X327202Y2549702D01*
X320497Y2542997D01*
X317195Y2540762D01*
X313283Y2540000D01*
G37*

%LPD*%
G36*
X-1259840Y1866900D02*
G01*
X-1263751Y1867662D01*
X-1267002Y1869897D01*
X-1269238Y1873148D01*
X-1270000Y1877060D01*
X-1270000Y1888083D01*
X-1269238Y1891995D01*
X-1267002Y1895297D01*
X-1194511Y1967788D01*
X-1193800Y1969516D01*
X-1193800Y1992528D01*
X-1193088Y1996236D01*
X-1191006Y1999488D01*
X-1187907Y2001723D01*
X-1184198Y2002637D01*
X-1180439Y2002129D01*
X-1163421Y1996490D01*
X-1160119Y1994611D01*
X-1157732Y1991715D01*
X-1156563Y1988108D01*
X-1155700Y1980692D01*
X-1155700Y1934616D01*
X-1156462Y1930704D01*
X-1158697Y1927402D01*
X-1205788Y1880311D01*
X-1207262Y1873148D01*
X-1209497Y1869897D01*
X-1212748Y1867662D01*
X-1216660Y1866900D01*
G37*

%LPD*%
G36*
X-1107440Y1866900D02*
G01*
X-1111351Y1867662D01*
X-1114602Y1869897D01*
X-1116838Y1873148D01*
X-1117600Y1877060D01*
X-1117600Y1888083D01*
X-1116838Y1891995D01*
X-1114602Y1895297D01*
X-1067511Y1942388D01*
X-1066800Y1944116D01*
X-1066800Y1983739D01*
X-1066038Y1987651D01*
X-1063802Y1990902D01*
X-1060551Y1993138D01*
X-1056640Y1993900D01*
X-1039368Y1993900D01*
X-1035456Y1993138D01*
X-1032205Y1990902D01*
X-1029969Y1987651D01*
X-1029208Y1983739D01*
X-1029208Y1908708D01*
X-1029969Y1904796D01*
X-1032205Y1901494D01*
X-1053388Y1880311D01*
X-1054862Y1873148D01*
X-1057097Y1869897D01*
X-1060348Y1867662D01*
X-1064260Y1866900D01*
G37*

%LPD*%
G36*
X-937818Y1847799D02*
G01*
X-941781Y1848866D01*
X-974852Y1865375D01*
X-977493Y1867306D01*
X-979424Y1869948D01*
X-990244Y1891588D01*
X-991158Y1892858D01*
X-1000302Y1902002D01*
X-1002537Y1905304D01*
X-1003300Y1909216D01*
X-1003300Y1988464D01*
X-1002741Y1991715D01*
X-1001217Y1994662D01*
X-998778Y1996897D01*
X-980998Y2008784D01*
X-976934Y2010359D01*
X-972616Y2010105D01*
X-968756Y2008022D01*
X-966114Y2004568D01*
X-965200Y2000300D01*
X-965200Y1969516D01*
X-964488Y1967788D01*
X-930097Y1933397D01*
X-927862Y1930095D01*
X-927100Y1926183D01*
X-927100Y1857959D01*
X-927912Y1853895D01*
X-930300Y1850542D01*
X-933754Y1848408D01*
G37*

%LPD*%
G36*
X-784098Y1827123D02*
G01*
X-787857Y1827530D01*
X-791210Y1829307D01*
X-838606Y1867306D01*
X-873302Y1902002D01*
X-875537Y1905304D01*
X-876300Y1909216D01*
X-876300Y1980692D01*
X-875080Y1992071D01*
X-875080Y2009139D01*
X-874318Y2013051D01*
X-872134Y2016302D01*
X-868832Y2018538D01*
X-864920Y2019300D01*
X-848360Y2019300D01*
X-844448Y2018538D01*
X-841197Y2016302D01*
X-838962Y2013051D01*
X-838200Y2009139D01*
X-838200Y1956816D01*
X-837488Y1955088D01*
X-777697Y1895297D01*
X-775462Y1891995D01*
X-774700Y1888083D01*
X-774700Y1837232D01*
X-775411Y1833524D01*
X-777392Y1830324D01*
X-780440Y1828088D01*
G37*

%LPD*%
G36*
X-2973222Y19100D02*
G01*
X-2977134Y19862D01*
X-2980436Y22098D01*
X-2982620Y25400D01*
X-2983382Y29260D01*
X-2983382Y146304D01*
X-2982468Y150520D01*
X-2979928Y153974D01*
X-2976168Y156057D01*
X-2971850Y156413D01*
X-2967837Y154940D01*
X-2965399Y153416D01*
X-2959963Y151485D01*
X-2953613Y150774D01*
X-2817469Y150774D01*
X-2813558Y150012D01*
X-2810306Y147828D01*
X-2742946Y80568D01*
X-2735884Y75234D01*
X-2728315Y71424D01*
X-2720136Y69138D01*
X-2711246Y68275D01*
X-1979422Y68326D01*
X-1970684Y69545D01*
X-1962657Y72237D01*
X-1955241Y76403D01*
X-1948332Y82092D01*
X-1883968Y146558D01*
X-1878634Y153619D01*
X-1874824Y161188D01*
X-1872538Y169367D01*
X-1871675Y178257D01*
X-1871675Y267868D01*
X-1870811Y271983D01*
X-1868322Y275437D01*
X-1864614Y277520D01*
X-1860397Y277977D01*
X-1856333Y277469D01*
X-1577492Y277469D01*
X-1571142Y278231D01*
X-1565706Y280111D01*
X-1560779Y283210D01*
X-1556715Y287274D01*
X-1553616Y292201D01*
X-1551686Y297637D01*
X-1550974Y303987D01*
X-1550974Y402844D01*
X-1551686Y409143D01*
X-1553616Y414629D01*
X-1556715Y419506D01*
X-1560779Y423621D01*
X-1565706Y426669D01*
X-1571142Y428599D01*
X-1577492Y429310D01*
X-1856333Y429310D01*
X-1860397Y428853D01*
X-1864614Y429259D01*
X-1868322Y431393D01*
X-1870811Y434797D01*
X-1871675Y438962D01*
X-1871675Y599033D01*
X-1870913Y602945D01*
X-1868728Y606196D01*
X-1736496Y738428D01*
X-1733245Y740613D01*
X-1729333Y741375D01*
X-1560220Y741375D01*
X-1557477Y741019D01*
X-1554886Y739902D01*
X-1549603Y736600D01*
X-1540662Y733044D01*
X-1531213Y731012D01*
X-1521561Y730554D01*
X-1512011Y731824D01*
X-1502816Y734618D01*
X-1493774Y739190D01*
X-1490472Y740156D01*
X-1487017Y740003D01*
X-1483817Y738682D01*
X-1477111Y734517D01*
X-1474165Y731672D01*
X-1472590Y727913D01*
X-1472590Y723849D01*
X-1474165Y720090D01*
X-1477111Y717296D01*
X-1483004Y713587D01*
X-1487119Y709523D01*
X-1490167Y704596D01*
X-1492097Y699160D01*
X-1492808Y692810D01*
X-1492808Y633984D01*
X-1492097Y627634D01*
X-1490167Y622198D01*
X-1487119Y617270D01*
X-1483004Y613206D01*
X-1477111Y609498D01*
X-1474165Y606653D01*
X-1472590Y602945D01*
X-1472590Y598830D01*
X-1474216Y595122D01*
X-1477111Y592277D01*
X-1483004Y588619D01*
X-1487119Y584504D01*
X-1490167Y579628D01*
X-1492097Y574141D01*
X-1492808Y567842D01*
X-1492808Y508965D01*
X-1492097Y502666D01*
X-1490167Y497179D01*
X-1487119Y492302D01*
X-1483004Y488188D01*
X-1478127Y485140D01*
X-1472641Y483209D01*
X-1466342Y482498D01*
X-1400759Y482498D01*
X-1398270Y482193D01*
X-1391564Y480466D01*
X-1381455Y479653D01*
X-1163828Y479653D01*
X-1153718Y480466D01*
X-1144320Y482854D01*
X-1135430Y486765D01*
X-1127252Y492099D01*
X-1121613Y497078D01*
X-1038250Y580440D01*
X-1031697Y588162D01*
X-1026718Y596493D01*
X-1023213Y605536D01*
X-1021130Y616051D01*
X-1019962Y620217D01*
X-1017168Y623468D01*
X-1013256Y625297D01*
X-1008938Y625348D01*
X-1004976Y623620D01*
X-1002131Y620369D01*
X-999642Y615848D01*
X-993546Y608330D01*
X-986332Y601980D01*
X-978103Y596900D01*
X-969924Y593648D01*
X-966571Y591413D01*
X-964336Y588111D01*
X-963523Y584200D01*
X-964336Y580288D01*
X-966571Y576986D01*
X-969924Y574751D01*
X-978103Y571500D01*
X-986332Y566420D01*
X-993546Y560070D01*
X-999642Y552551D01*
X-1004316Y544118D01*
X-1007516Y535025D01*
X-1009142Y525526D01*
X-1009142Y515874D01*
X-1007516Y506374D01*
X-1004316Y497281D01*
X-999642Y488848D01*
X-993546Y481330D01*
X-986332Y474980D01*
X-978103Y469900D01*
X-969162Y466343D01*
X-959713Y464312D01*
X-950061Y463854D01*
X-940511Y465124D01*
X-931316Y467918D01*
X-921918Y472643D01*
X-918057Y473709D01*
X-914095Y473201D01*
X-906018Y470509D01*
X-899617Y469798D01*
X-730758Y469798D01*
X-724458Y470509D01*
X-718972Y472389D01*
X-714095Y475488D01*
X-709980Y479602D01*
X-706932Y484479D01*
X-705002Y489966D01*
X-704291Y496265D01*
X-704291Y555142D01*
X-705002Y561441D01*
X-706932Y566928D01*
X-709980Y571804D01*
X-714095Y575919D01*
X-719988Y579628D01*
X-722934Y582422D01*
X-724509Y586181D01*
X-724509Y590245D01*
X-722884Y594004D01*
X-719988Y596798D01*
X-714095Y600506D01*
X-709980Y604570D01*
X-706932Y609498D01*
X-705002Y614934D01*
X-704291Y621284D01*
X-704291Y680110D01*
X-705002Y686460D01*
X-706932Y691896D01*
X-709980Y696823D01*
X-714095Y700887D01*
X-718972Y703986D01*
X-724458Y705916D01*
X-730758Y706628D01*
X-899617Y706628D01*
X-905967Y705916D01*
X-911402Y703986D01*
X-919937Y698500D01*
X-924102Y697839D01*
X-928166Y698906D01*
X-931316Y700481D01*
X-940511Y703275D01*
X-950061Y704545D01*
X-959713Y704088D01*
X-969162Y702056D01*
X-978103Y698500D01*
X-986332Y693420D01*
X-993546Y687070D01*
X-999642Y679551D01*
X-1001725Y675792D01*
X-1004671Y672490D01*
X-1008735Y670763D01*
X-1013155Y670915D01*
X-1017066Y672947D01*
X-1019759Y676452D01*
X-1020724Y680770D01*
X-1020724Y868629D01*
X-1019759Y872947D01*
X-1017066Y876452D01*
X-1013155Y878484D01*
X-1008735Y878636D01*
X-1004671Y876909D01*
X-1001725Y873607D01*
X-999642Y869848D01*
X-993546Y862330D01*
X-986332Y855980D01*
X-978103Y850900D01*
X-969162Y847344D01*
X-959713Y845312D01*
X-950061Y844854D01*
X-940511Y846124D01*
X-931316Y848918D01*
X-926744Y851255D01*
X-923391Y852220D01*
X-919937Y852068D01*
X-916736Y850747D01*
X-911402Y847394D01*
X-905967Y845515D01*
X-899617Y844803D01*
X-730758Y844803D01*
X-724458Y845515D01*
X-718972Y847394D01*
X-714095Y850493D01*
X-709980Y854608D01*
X-706932Y859485D01*
X-705002Y864971D01*
X-704291Y871270D01*
X-704291Y930148D01*
X-705002Y936447D01*
X-706932Y941933D01*
X-709980Y946810D01*
X-714095Y950925D01*
X-719988Y954582D01*
X-722934Y957427D01*
X-724509Y961186D01*
X-724509Y965250D01*
X-722934Y969010D01*
X-719988Y971803D01*
X-714095Y975512D01*
X-709980Y979576D01*
X-706932Y984503D01*
X-705002Y989939D01*
X-704291Y996289D01*
X-704291Y1055116D01*
X-705002Y1061466D01*
X-706932Y1066901D01*
X-709980Y1071829D01*
X-714095Y1075893D01*
X-719988Y1079601D01*
X-722934Y1082446D01*
X-724509Y1086154D01*
X-724509Y1090269D01*
X-722884Y1093978D01*
X-719988Y1096822D01*
X-714095Y1100480D01*
X-709980Y1104595D01*
X-706932Y1109472D01*
X-705002Y1114958D01*
X-704291Y1121257D01*
X-704291Y1180134D01*
X-705002Y1186434D01*
X-706932Y1191920D01*
X-709980Y1196797D01*
X-714095Y1200912D01*
X-718972Y1203960D01*
X-724408Y1205890D01*
X-732180Y1206652D01*
X-735787Y1207719D01*
X-738733Y1209954D01*
X-740664Y1213104D01*
X-741324Y1216761D01*
X-741324Y1866493D01*
X-742188Y1876552D01*
X-744575Y1885950D01*
X-749198Y1896872D01*
X-750316Y1900936D01*
X-752754Y1906066D01*
X-756564Y1910842D01*
X-779322Y1933549D01*
X-781558Y1936902D01*
X-782269Y1940814D01*
X-781456Y1944776D01*
X-779170Y1948027D01*
X-775817Y1950212D01*
X-769162Y1952802D01*
X-762355Y1956968D01*
X-756462Y1962404D01*
X-751636Y1968754D01*
X-748080Y1975916D01*
X-745896Y1983638D01*
X-745083Y1992071D01*
X-745083Y2086102D01*
X-745540Y2091029D01*
X-744982Y2095500D01*
X-742492Y2099259D01*
X-738632Y2101596D01*
X-730758Y2104237D01*
X-723341Y2108403D01*
X-716432Y2114092D01*
X-706526Y2123998D01*
X-703122Y2126284D01*
X-699109Y2126996D01*
X-695147Y2126081D01*
X-691845Y2123694D01*
X-689762Y2120188D01*
X-689051Y2118156D01*
X-685952Y2113280D01*
X-681888Y2109165D01*
X-676960Y2106066D01*
X-671525Y2104186D01*
X-665175Y2103475D01*
X-528624Y2103475D01*
X-522274Y2104186D01*
X-516839Y2106066D01*
X-511911Y2109165D01*
X-507847Y2113280D01*
X-504748Y2118156D01*
X-502869Y2123592D01*
X-502158Y2129942D01*
X-502158Y2242058D01*
X-502869Y2248357D01*
X-504748Y2253843D01*
X-507847Y2258720D01*
X-511911Y2262835D01*
X-516839Y2265883D01*
X-522274Y2267813D01*
X-528624Y2268524D01*
X-665175Y2268524D01*
X-671525Y2267813D01*
X-676960Y2265883D01*
X-681888Y2262835D01*
X-685952Y2258720D01*
X-689051Y2253843D01*
X-690930Y2248408D01*
X-691692Y2241092D01*
X-692759Y2237536D01*
X-694994Y2234641D01*
X-698144Y2232710D01*
X-701751Y2231999D01*
X-711454Y2231948D01*
X-720140Y2230729D01*
X-728167Y2228037D01*
X-735584Y2223922D01*
X-742442Y2218182D01*
X-765403Y2195271D01*
X-768654Y2193086D01*
X-772566Y2192324D01*
X-890778Y2192274D01*
X-899515Y2191054D01*
X-907542Y2188362D01*
X-914958Y2184196D01*
X-921867Y2178507D01*
X-952246Y2148078D01*
X-957580Y2141016D01*
X-961136Y2133854D01*
X-963879Y2130450D01*
X-967740Y2128520D01*
X-972108Y2128367D01*
X-979474Y2129790D01*
X-987501Y2129790D01*
X-995375Y2128316D01*
X-1002792Y2125421D01*
X-1010615Y2120544D01*
X-1014120Y2119172D01*
X-1017879Y2119172D01*
X-1021384Y2120544D01*
X-1029208Y2125421D01*
X-1036624Y2128316D01*
X-1044498Y2129790D01*
X-1052525Y2129790D01*
X-1059891Y2128418D01*
X-1063498Y2128367D01*
X-1066901Y2129637D01*
X-1069644Y2131974D01*
X-1075588Y2142794D01*
X-1081328Y2149652D01*
X-1111758Y2180031D01*
X-1118819Y2185365D01*
X-1126388Y2189175D01*
X-1134567Y2191461D01*
X-1143457Y2192324D01*
X-1342898Y2192324D01*
X-1346758Y2193086D01*
X-1350060Y2195271D01*
X-1352245Y2198573D01*
X-1353058Y2202484D01*
X-1353058Y2242058D01*
X-1353769Y2248357D01*
X-1355648Y2253843D01*
X-1358747Y2258720D01*
X-1362811Y2262835D01*
X-1367739Y2265883D01*
X-1373174Y2267813D01*
X-1379524Y2268524D01*
X-1516075Y2268524D01*
X-1522425Y2267813D01*
X-1527860Y2265883D01*
X-1532788Y2262835D01*
X-1536852Y2258720D01*
X-1539951Y2253843D01*
X-1541830Y2248357D01*
X-1542542Y2242058D01*
X-1542542Y2129942D01*
X-1541830Y2123592D01*
X-1539951Y2118156D01*
X-1536852Y2113280D01*
X-1532788Y2109165D01*
X-1527860Y2106066D01*
X-1522425Y2104186D01*
X-1516075Y2103475D01*
X-1426210Y2103475D01*
X-1423416Y2103069D01*
X-1416558Y2101138D01*
X-1407414Y2100275D01*
X-1403248Y2098954D01*
X-1399997Y2095957D01*
X-1398320Y2091893D01*
X-1398524Y2087524D01*
X-1400556Y2083612D01*
X-1404061Y2080920D01*
X-1408328Y2080006D01*
X-1537919Y2080006D01*
X-1541830Y2080768D01*
X-1545132Y2082952D01*
X-1576120Y2113940D01*
X-1578305Y2117242D01*
X-1579067Y2121154D01*
X-1579067Y2458821D01*
X-1578305Y2462733D01*
X-1576120Y2466035D01*
X-1466037Y2576118D01*
X-1462735Y2578303D01*
X-1458823Y2579065D01*
X-1347774Y2579065D01*
X-1340713Y2577795D01*
X-1331061Y2577388D01*
X-1321511Y2578608D01*
X-1312316Y2581452D01*
X-1303121Y2586228D01*
X-1299057Y2588006D01*
X-1294587Y2587904D01*
X-1290624Y2585872D01*
X-1287881Y2582367D01*
X-1286916Y2578049D01*
X-1286916Y2562098D01*
X-1286103Y2553614D01*
X-1283919Y2545943D01*
X-1280363Y2538780D01*
X-1275537Y2532380D01*
X-1269644Y2526995D01*
X-1262837Y2522778D01*
X-1255369Y2519883D01*
X-1247495Y2518410D01*
X-1239520Y2518410D01*
X-1231646Y2519883D01*
X-1224178Y2522778D01*
X-1216406Y2527655D01*
X-1212900Y2529027D01*
X-1209090Y2529027D01*
X-1205585Y2527655D01*
X-1197813Y2522778D01*
X-1190345Y2519883D01*
X-1182522Y2518410D01*
X-1174496Y2518410D01*
X-1166622Y2519883D01*
X-1159205Y2522778D01*
X-1151382Y2527655D01*
X-1147876Y2529027D01*
X-1144117Y2529027D01*
X-1140612Y2527655D01*
X-1132789Y2522778D01*
X-1125372Y2519883D01*
X-1117498Y2518410D01*
X-1109522Y2518410D01*
X-1101648Y2519883D01*
X-1094181Y2522778D01*
X-1087374Y2526995D01*
X-1081430Y2532380D01*
X-1076655Y2538780D01*
X-1073048Y2545943D01*
X-1070864Y2553614D01*
X-1070102Y2562098D01*
X-1070102Y2593136D01*
X-1069695Y2595880D01*
X-1068374Y2600655D01*
X-1067511Y2609545D01*
X-1067562Y2765298D01*
X-1068781Y2774035D01*
X-1071473Y2782062D01*
X-1075639Y2789478D01*
X-1081328Y2796387D01*
X-1112774Y2827731D01*
X-1119835Y2833065D01*
X-1127404Y2836875D01*
X-1135583Y2839161D01*
X-1144473Y2840024D01*
X-1232509Y2840024D01*
X-1236421Y2840786D01*
X-1239672Y2842971D01*
X-1287932Y2891180D01*
X-1290116Y2894482D01*
X-1290878Y2898394D01*
X-1290878Y2992526D01*
X-1291590Y2998825D01*
X-1293520Y3004312D01*
X-1296619Y3009188D01*
X-1300683Y3013303D01*
X-1305610Y3016402D01*
X-1311046Y3018282D01*
X-1317345Y3018993D01*
X-1451254Y3018993D01*
X-1457553Y3018282D01*
X-1462989Y3016402D01*
X-1467916Y3013303D01*
X-1471980Y3009188D01*
X-1475079Y3004312D01*
X-1477010Y2998825D01*
X-1477721Y2992526D01*
X-1477721Y2852674D01*
X-1477010Y2846324D01*
X-1475079Y2840888D01*
X-1471980Y2835960D01*
X-1467916Y2831896D01*
X-1462989Y2828798D01*
X-1457553Y2826918D01*
X-1451254Y2826207D01*
X-1357223Y2826207D01*
X-1353362Y2825394D01*
X-1350060Y2823210D01*
X-1304340Y2777490D01*
X-1302054Y2774035D01*
X-1301343Y2769971D01*
X-1302308Y2765958D01*
X-1304798Y2762656D01*
X-1311046Y2757170D01*
X-1317142Y2749651D01*
X-1321816Y2741218D01*
X-1325016Y2732125D01*
X-1326642Y2722626D01*
X-1326642Y2712974D01*
X-1324914Y2702763D01*
X-1325118Y2698496D01*
X-1326997Y2694635D01*
X-1330350Y2691942D01*
X-1334516Y2690876D01*
X-1340713Y2690622D01*
X-1350162Y2688590D01*
X-1359103Y2684983D01*
X-1367332Y2679954D01*
X-1374546Y2673553D01*
X-1382877Y2663291D01*
X-1385976Y2661513D01*
X-1389481Y2660904D01*
X-1479499Y2660904D01*
X-1487982Y2660091D01*
X-1495653Y2657754D01*
X-1502714Y2653944D01*
X-1509268Y2648559D01*
X-1648561Y2509266D01*
X-1653946Y2502712D01*
X-1657756Y2495651D01*
X-1660093Y2487980D01*
X-1660906Y2479497D01*
X-1660906Y2100478D01*
X-1660093Y2092045D01*
X-1657756Y2084374D01*
X-1653946Y2077313D01*
X-1648561Y2070709D01*
X-1588414Y2010562D01*
X-1580692Y2004314D01*
X-1578000Y2000961D01*
X-1576933Y1996744D01*
X-1577695Y1992477D01*
X-1580184Y1988921D01*
X-1583944Y1986737D01*
X-1587804Y1985467D01*
X-1602435Y1978812D01*
X-1616202Y1970481D01*
X-1628952Y1960676D01*
X-1640484Y1949450D01*
X-1650695Y1937004D01*
X-1659382Y1923491D01*
X-1666493Y1909064D01*
X-1671878Y1893874D01*
X-1675536Y1878228D01*
X-1677365Y1862226D01*
X-1677365Y1846173D01*
X-1675536Y1830171D01*
X-1671878Y1814525D01*
X-1666493Y1799336D01*
X-1659382Y1784908D01*
X-1650695Y1771396D01*
X-1640484Y1758950D01*
X-1629460Y1748231D01*
X-1627225Y1744929D01*
X-1626412Y1741017D01*
X-1627124Y1737106D01*
X-1629359Y1733804D01*
X-1632661Y1731568D01*
X-1636572Y1730756D01*
X-1736496Y1730756D01*
X-1739696Y1731264D01*
X-1742541Y1732737D01*
X-1750212Y1738426D01*
X-1758797Y1742744D01*
X-1768043Y1745589D01*
X-1777949Y1746859D01*
X-1783334Y1747875D01*
X-1786686Y1750364D01*
X-1788718Y1754022D01*
X-1789125Y1758137D01*
X-1788464Y1764334D01*
X-1788261Y1770329D01*
X-1788261Y3639870D01*
X-1788464Y3645915D01*
X-1789074Y3651707D01*
X-1790090Y3657447D01*
X-1791563Y3663086D01*
X-1793392Y3668623D01*
X-1795627Y3674008D01*
X-1798218Y3679240D01*
X-1801215Y3684270D01*
X-1804517Y3689045D01*
X-1808225Y3693566D01*
X-1812289Y3697986D01*
X-2035200Y3920896D01*
X-2037384Y3924198D01*
X-2038197Y3928059D01*
X-2038197Y4881168D01*
X-2038400Y4887569D01*
X-2039010Y4892954D01*
X-2040128Y4899101D01*
X-2041499Y4904384D01*
X-2043480Y4910277D01*
X-2045563Y4915306D01*
X-2048510Y4921199D01*
X-2049475Y4924196D01*
X-2049475Y4927396D01*
X-2048459Y4930444D01*
X-2045716Y4935677D01*
X-2041601Y4946700D01*
X-2039162Y4958080D01*
X-2038299Y4969713D01*
X-2039162Y4981346D01*
X-2041601Y4992725D01*
X-2045716Y5003647D01*
X-2051304Y5013858D01*
X-2058263Y5023205D01*
X-2066493Y5031435D01*
X-2075840Y5038445D01*
X-2086051Y5044033D01*
X-2096973Y5048097D01*
X-2108352Y5050586D01*
X-2120341Y5051399D01*
X-2208885Y5051399D01*
X-2215235Y5051247D01*
X-2220671Y5050586D01*
X-2226767Y5049520D01*
X-2232050Y5048097D01*
X-2237943Y5046167D01*
X-2242972Y5044033D01*
X-2248509Y5041290D01*
X-2251811Y5039309D01*
X-2255774Y5037937D01*
X-2259939Y5038242D01*
X-2263597Y5040223D01*
X-2266188Y5043525D01*
X-2267204Y5047538D01*
X-2266543Y5051704D01*
X-2264257Y5055158D01*
X-2220569Y5098897D01*
X-2217420Y5100980D01*
X-2213762Y5101844D01*
X-2210003Y5101285D01*
X-2207107Y5100269D01*
X-2200757Y5099558D01*
X-2088642Y5099558D01*
X-2082342Y5100269D01*
X-2076856Y5102148D01*
X-2071979Y5105247D01*
X-2067864Y5109311D01*
X-2064816Y5114239D01*
X-2062886Y5119674D01*
X-2062175Y5126024D01*
X-2062175Y5166055D01*
X-2058822Y5181955D01*
X-2057907Y5194300D01*
X-2058822Y5206644D01*
X-2062175Y5222544D01*
X-2062175Y5262575D01*
X-2062886Y5268925D01*
X-2064816Y5274360D01*
X-2067864Y5279288D01*
X-2071979Y5283352D01*
X-2076856Y5286451D01*
X-2082342Y5288330D01*
X-2088642Y5289042D01*
X-2200757Y5289042D01*
X-2207107Y5288330D01*
X-2212543Y5286451D01*
X-2218486Y5282692D01*
X-2221077Y5281523D01*
X-2223922Y5281117D01*
X-2247696Y5281117D01*
X-2254097Y5280863D01*
X-2260244Y5280202D01*
X-2266340Y5279136D01*
X-2272334Y5277561D01*
X-2278227Y5275630D01*
X-2283968Y5273243D01*
X-2289505Y5270500D01*
X-2294839Y5267299D01*
X-2299919Y5263794D01*
X-2304745Y5259882D01*
X-2309418Y5255564D01*
X-2316734Y5248198D01*
X-2319985Y5246014D01*
X-2323795Y5245252D01*
X-2327605Y5245912D01*
X-2330907Y5247995D01*
X-2333142Y5251145D01*
X-2334107Y5254904D01*
X-2333548Y5258765D01*
X-2331923Y5263388D01*
X-2331212Y5269738D01*
X-2331212Y5349240D01*
X-2331923Y5355539D01*
X-2333802Y5361025D01*
X-2336901Y5365902D01*
X-2340965Y5370017D01*
X-2345893Y5373065D01*
X-2351328Y5374995D01*
X-2357678Y5375706D01*
X-2442921Y5375706D01*
X-2449271Y5374995D01*
X-2454706Y5373065D01*
X-2459634Y5370017D01*
X-2463698Y5365902D01*
X-2466797Y5361025D01*
X-2469032Y5354624D01*
X-2471166Y5351068D01*
X-2474569Y5348681D01*
X-2478633Y5347817D01*
X-2550007Y5347817D01*
X-2557983Y5347055D01*
X-2565196Y5344871D01*
X-2571800Y5341315D01*
X-2577998Y5336235D01*
X-2861208Y5053126D01*
X-2866542Y5051044D01*
X-2878836Y5045557D01*
X-2890316Y5038496D01*
X-2900730Y5029911D01*
X-2909925Y5020056D01*
X-2917698Y5009083D01*
X-2923946Y4997145D01*
X-2928569Y4984496D01*
X-2931414Y4971288D01*
X-2932531Y4957876D01*
X-2931820Y4944414D01*
X-2929331Y4931156D01*
X-2925114Y4918405D01*
X-2919171Y4906264D01*
X-2911703Y4895037D01*
X-2902813Y4884928D01*
X-2892653Y4876088D01*
X-2881426Y4868672D01*
X-2869285Y4862830D01*
X-2856484Y4858613D01*
X-2843225Y4856175D01*
X-2829763Y4855565D01*
X-2816301Y4856683D01*
X-2803194Y4859629D01*
X-2790545Y4864303D01*
X-2778607Y4870602D01*
X-2767634Y4878425D01*
X-2757830Y4887671D01*
X-2749346Y4898136D01*
X-2742285Y4909616D01*
X-2736850Y4921961D01*
X-2733090Y4934915D01*
X-2731109Y4948224D01*
X-2730906Y4961686D01*
X-2732532Y4975098D01*
X-2735884Y4988102D01*
X-2740964Y5000599D01*
X-2747670Y5012283D01*
X-2755849Y5023002D01*
X-2762097Y5029200D01*
X-2764332Y5032502D01*
X-2765094Y5036413D01*
X-2764332Y5040274D01*
X-2762148Y5043576D01*
X-2537612Y5268112D01*
X-2534310Y5270347D01*
X-2530398Y5271109D01*
X-2478582Y5271109D01*
X-2474518Y5270246D01*
X-2471166Y5267858D01*
X-2469032Y5264302D01*
X-2466797Y5257952D01*
X-2463698Y5253024D01*
X-2459634Y5248960D01*
X-2454706Y5245862D01*
X-2449271Y5243931D01*
X-2442921Y5243220D01*
X-2357678Y5243220D01*
X-2351328Y5243931D01*
X-2346706Y5245608D01*
X-2342845Y5246166D01*
X-2339086Y5245201D01*
X-2335936Y5242966D01*
X-2333853Y5239664D01*
X-2333193Y5235854D01*
X-2334006Y5232044D01*
X-2336139Y5228793D01*
X-2474264Y5090718D01*
X-2478582Y5086045D01*
X-2482494Y5081219D01*
X-2485999Y5076139D01*
X-2489200Y5070805D01*
X-2491943Y5065268D01*
X-2494280Y5059629D01*
X-2496870Y5051501D01*
X-2498699Y5048097D01*
X-2501646Y5045659D01*
X-2505354Y5044490D01*
X-2509215Y5044795D01*
X-2512669Y5046472D01*
X-2522524Y5053939D01*
X-2534208Y5060594D01*
X-2546705Y5065623D01*
X-2559812Y5068925D01*
X-2573172Y5070449D01*
X-2586634Y5070195D01*
X-2599944Y5068163D01*
X-2612898Y5064353D01*
X-2625191Y5058867D01*
X-2636672Y5051755D01*
X-2647086Y5043220D01*
X-2656281Y5033365D01*
X-2664053Y5022392D01*
X-2670302Y5010454D01*
X-2674924Y4997754D01*
X-2677769Y4984597D01*
X-2678887Y4971186D01*
X-2678176Y4957724D01*
X-2675686Y4944465D01*
X-2671419Y4931664D01*
X-2665526Y4919573D01*
X-2658059Y4908346D01*
X-2649169Y4898237D01*
X-2639009Y4889347D01*
X-2627782Y4881930D01*
X-2615641Y4876088D01*
X-2602788Y4871923D01*
X-2589580Y4869484D01*
X-2576118Y4868824D01*
X-2562656Y4869992D01*
X-2554528Y4871821D01*
X-2550210Y4871821D01*
X-2546299Y4870043D01*
X-2543454Y4866792D01*
X-2542184Y4862626D01*
X-2542794Y4858359D01*
X-2545130Y4854702D01*
X-2568092Y4831791D01*
X-2570683Y4829911D01*
X-2573731Y4828895D01*
X-2579166Y4828082D01*
X-2592120Y4824272D01*
X-2604414Y4818786D01*
X-2615895Y4811674D01*
X-2626309Y4803140D01*
X-2635453Y4793284D01*
X-2643276Y4782261D01*
X-2649524Y4770323D01*
X-2654096Y4757674D01*
X-2656992Y4744516D01*
X-2658059Y4731105D01*
X-2657398Y4717643D01*
X-2654858Y4704384D01*
X-2650642Y4691583D01*
X-2644749Y4679492D01*
X-2637282Y4668266D01*
X-2628392Y4658106D01*
X-2618232Y4649266D01*
X-2606954Y4641850D01*
X-2594813Y4636008D01*
X-2582011Y4631842D01*
X-2568752Y4629404D01*
X-2555290Y4628743D01*
X-2541879Y4629912D01*
X-2528722Y4632858D01*
X-2516073Y4637532D01*
X-2504186Y4643831D01*
X-2493213Y4651654D01*
X-2483408Y4660900D01*
X-2474874Y4671314D01*
X-2467864Y4682845D01*
X-2465730Y4687620D01*
X-2463596Y4690719D01*
X-2351735Y4802581D01*
X-2347417Y4807254D01*
X-2343505Y4812080D01*
X-2340000Y4817160D01*
X-2336800Y4822494D01*
X-2334056Y4828032D01*
X-2331669Y4833772D01*
X-2329738Y4839665D01*
X-2328164Y4845659D01*
X-2327097Y4851755D01*
X-2326436Y4857902D01*
X-2326182Y4864303D01*
X-2326182Y4989017D01*
X-2325420Y4992928D01*
X-2323236Y4996230D01*
X-2294483Y5024932D01*
X-2290978Y5027218D01*
X-2286863Y5027930D01*
X-2282850Y5026914D01*
X-2279548Y5024374D01*
X-2277567Y5020665D01*
X-2277211Y5016550D01*
X-2278532Y5012588D01*
X-2280920Y5008575D01*
X-2283358Y5003698D01*
X-2285695Y4997958D01*
X-2287422Y4992776D01*
X-2288946Y4986782D01*
X-2289911Y4981346D01*
X-2290572Y4975199D01*
X-2290775Y4969713D01*
X-2290521Y4963566D01*
X-2289911Y4958130D01*
X-2288794Y4952034D01*
X-2287473Y4946700D01*
X-2285441Y4940858D01*
X-2283358Y4935778D01*
X-2280564Y4930292D01*
X-2277821Y4925568D01*
X-2274214Y4920488D01*
X-2270810Y4916220D01*
X-2266442Y4911648D01*
X-2204618Y4850282D01*
X-2202383Y4846980D01*
X-2201570Y4843068D01*
X-2201570Y3890213D01*
X-2201367Y3884168D01*
X-2200757Y3878376D01*
X-2199741Y3872636D01*
X-2198268Y3866997D01*
X-2196439Y3861460D01*
X-2194204Y3856075D01*
X-2191613Y3850843D01*
X-2188616Y3845814D01*
X-2185314Y3841038D01*
X-2181606Y3836517D01*
X-2177542Y3832098D01*
X-1954631Y3609187D01*
X-1952447Y3605885D01*
X-1951634Y3602024D01*
X-1951634Y3511702D01*
X-1952599Y3507384D01*
X-1955292Y3503879D01*
X-1959254Y3501847D01*
X-1963623Y3501694D01*
X-1967687Y3503422D01*
X-1970684Y3506673D01*
X-1976983Y3517849D01*
X-1986432Y3530904D01*
X-1997303Y3542741D01*
X-2009444Y3553256D01*
X-2022754Y3562350D01*
X-2036978Y3569868D01*
X-2051964Y3575710D01*
X-2067509Y3579774D01*
X-2083460Y3582060D01*
X-2099513Y3582517D01*
X-2115566Y3581146D01*
X-2131314Y3577945D01*
X-2146604Y3572967D01*
X-2161235Y3566312D01*
X-2175002Y3557981D01*
X-2187752Y3548176D01*
X-2199284Y3536950D01*
X-2209495Y3524504D01*
X-2218182Y3510991D01*
X-2225294Y3496564D01*
X-2230678Y3481374D01*
X-2234336Y3465728D01*
X-2236165Y3449726D01*
X-2236165Y3433673D01*
X-2234336Y3417671D01*
X-2230678Y3402025D01*
X-2225294Y3386836D01*
X-2218182Y3372408D01*
X-2209495Y3358896D01*
X-2199284Y3346450D01*
X-2187752Y3335223D01*
X-2175002Y3325418D01*
X-2161235Y3317087D01*
X-2146604Y3310382D01*
X-2131314Y3305454D01*
X-2115566Y3302254D01*
X-2099513Y3300882D01*
X-2083460Y3301339D01*
X-2067509Y3303625D01*
X-2051964Y3307689D01*
X-2036978Y3313531D01*
X-2022754Y3321050D01*
X-2009444Y3330143D01*
X-1997303Y3340658D01*
X-1986432Y3352495D01*
X-1976983Y3365550D01*
X-1970684Y3376726D01*
X-1967687Y3379978D01*
X-1963623Y3381705D01*
X-1959254Y3381552D01*
X-1955292Y3379520D01*
X-1952599Y3376015D01*
X-1951634Y3371697D01*
X-1951634Y1878279D01*
X-1952498Y1874266D01*
X-1954834Y1870913D01*
X-1958339Y1868728D01*
X-1962454Y1868170D01*
X-1966417Y1869236D01*
X-1969617Y1871827D01*
X-1971548Y1875434D01*
X-1975510Y1888845D01*
X-1981758Y1903679D01*
X-1989683Y1917649D01*
X-1999132Y1930704D01*
X-2010003Y1942541D01*
X-2022144Y1953056D01*
X-2035454Y1962150D01*
X-2049678Y1969668D01*
X-2064664Y1975510D01*
X-2080209Y1979574D01*
X-2096160Y1981860D01*
X-2112213Y1982317D01*
X-2128266Y1980946D01*
X-2144014Y1977745D01*
X-2159304Y1972767D01*
X-2173935Y1966112D01*
X-2187702Y1957781D01*
X-2200452Y1947976D01*
X-2211984Y1936750D01*
X-2222195Y1924304D01*
X-2230882Y1910791D01*
X-2237994Y1896364D01*
X-2243378Y1881174D01*
X-2247036Y1865528D01*
X-2248865Y1849526D01*
X-2248865Y1833473D01*
X-2247036Y1817471D01*
X-2243378Y1801825D01*
X-2237994Y1786636D01*
X-2230882Y1772208D01*
X-2222195Y1758696D01*
X-2211984Y1746250D01*
X-2200452Y1735023D01*
X-2187702Y1725218D01*
X-2173935Y1716887D01*
X-2159304Y1710182D01*
X-2144014Y1705254D01*
X-2128266Y1702054D01*
X-2112213Y1700682D01*
X-2096160Y1701139D01*
X-2080209Y1703425D01*
X-2078329Y1703933D01*
X-2073960Y1704086D01*
X-2069896Y1702409D01*
X-2066950Y1699158D01*
X-2065629Y1694942D01*
X-2066188Y1690624D01*
X-2068575Y1686915D01*
X-2147570Y1607769D01*
X-2151634Y1603400D01*
X-2155342Y1598828D01*
X-2158644Y1594104D01*
X-2161641Y1589024D01*
X-2164232Y1583842D01*
X-2166467Y1578406D01*
X-2168296Y1572920D01*
X-2169769Y1567230D01*
X-2170785Y1561541D01*
X-2171395Y1555699D01*
X-2171598Y1549704D01*
X-2171496Y964082D01*
X-2170836Y958392D01*
X-2169820Y952652D01*
X-2168398Y946962D01*
X-2166518Y941425D01*
X-2164283Y936040D01*
X-2161692Y930859D01*
X-2158695Y925830D01*
X-2155393Y921054D01*
X-2151735Y916482D01*
X-2147620Y912114D01*
X-2088032Y852474D01*
X-2078939Y844600D01*
X-2069134Y838301D01*
X-2058517Y833475D01*
X-2047341Y830173D01*
X-2035810Y828548D01*
X-2024176Y828548D01*
X-2012645Y830173D01*
X-2001469Y833475D01*
X-1990852Y838301D01*
X-1981047Y844600D01*
X-1972259Y852271D01*
X-1964588Y861060D01*
X-1958289Y870864D01*
X-1953463Y881481D01*
X-1950161Y892657D01*
X-1948535Y904189D01*
X-1948535Y915822D01*
X-1950161Y927353D01*
X-1953463Y938530D01*
X-1958289Y949147D01*
X-1964588Y958951D01*
X-1972462Y968044D01*
X-2005228Y1000810D01*
X-2007412Y1004112D01*
X-2008225Y1007973D01*
X-2008225Y1511909D01*
X-2007412Y1515770D01*
X-2005228Y1519072D01*
X-1850034Y1674418D01*
X-1846630Y1676704D01*
X-1842617Y1677416D01*
X-1838655Y1676501D01*
X-1835353Y1674114D01*
X-1833270Y1670659D01*
X-1831848Y1666544D01*
X-1827123Y1658162D01*
X-1821078Y1650644D01*
X-1813814Y1644243D01*
X-1805635Y1639214D01*
X-1796643Y1635607D01*
X-1787245Y1633575D01*
X-1773072Y1633016D01*
X-1769668Y1631442D01*
X-1767027Y1628749D01*
X-1765604Y1625244D01*
X-1765554Y1621485D01*
X-1766671Y1614830D01*
X-1766671Y1605178D01*
X-1765046Y1595678D01*
X-1761845Y1586585D01*
X-1757121Y1578152D01*
X-1751075Y1570634D01*
X-1743811Y1564284D01*
X-1735632Y1559204D01*
X-1726641Y1555648D01*
X-1717243Y1553616D01*
X-1715160Y1553514D01*
X-1711502Y1552651D01*
X-1708404Y1550517D01*
X-1599488Y1441653D01*
X-1597304Y1438351D01*
X-1596542Y1434490D01*
X-1597304Y1430578D01*
X-1599488Y1427276D01*
X-1602790Y1425092D01*
X-1606702Y1424330D01*
X-1856333Y1424330D01*
X-1862632Y1423619D01*
X-1868119Y1421688D01*
X-1872996Y1418590D01*
X-1877110Y1414526D01*
X-1880158Y1409598D01*
X-1882089Y1404162D01*
X-1882800Y1397812D01*
X-1882800Y1298956D01*
X-1882089Y1292656D01*
X-1880158Y1287170D01*
X-1877110Y1282293D01*
X-1872996Y1278178D01*
X-1868119Y1275130D01*
X-1862632Y1273200D01*
X-1856333Y1272489D01*
X-1577492Y1272489D01*
X-1572006Y1272235D01*
X-1568297Y1270101D01*
X-1565808Y1266698D01*
X-1564894Y1262532D01*
X-1564894Y1084529D01*
X-1565503Y1081125D01*
X-1567180Y1078128D01*
X-1571142Y1073251D01*
X-1575816Y1064818D01*
X-1579016Y1055725D01*
X-1580642Y1046226D01*
X-1580642Y1036574D01*
X-1579016Y1027074D01*
X-1575816Y1017981D01*
X-1571142Y1009548D01*
X-1565046Y1002030D01*
X-1557832Y995680D01*
X-1549603Y990600D01*
X-1540662Y987044D01*
X-1531213Y985012D01*
X-1521561Y984554D01*
X-1512011Y985824D01*
X-1502816Y988618D01*
X-1497482Y991311D01*
X-1495247Y992124D01*
X-1491437Y992378D01*
X-1487525Y991616D01*
X-1484223Y989431D01*
X-1483004Y988212D01*
X-1478127Y985113D01*
X-1472641Y983183D01*
X-1466342Y982471D01*
X-1297482Y982471D01*
X-1291132Y983183D01*
X-1285697Y985113D01*
X-1280769Y988212D01*
X-1276705Y992276D01*
X-1273606Y997203D01*
X-1271676Y1002639D01*
X-1270965Y1008989D01*
X-1270965Y1067816D01*
X-1271676Y1074166D01*
X-1273606Y1079601D01*
X-1276705Y1084529D01*
X-1280769Y1088593D01*
X-1286662Y1092301D01*
X-1289608Y1095146D01*
X-1291183Y1098854D01*
X-1291183Y1102969D01*
X-1289608Y1106678D01*
X-1286662Y1109522D01*
X-1280769Y1113180D01*
X-1276705Y1117295D01*
X-1273606Y1122172D01*
X-1271676Y1127658D01*
X-1270965Y1133957D01*
X-1270965Y1192834D01*
X-1271676Y1199134D01*
X-1273606Y1204620D01*
X-1276705Y1209497D01*
X-1284528Y1216914D01*
X-1286154Y1220622D01*
X-1286154Y1224686D01*
X-1279855Y1238351D01*
X-1277467Y1247698D01*
X-1276604Y1257300D01*
X-1277467Y1266901D01*
X-1279855Y1276248D01*
X-1283868Y1285036D01*
X-1291844Y1296822D01*
X-1292606Y1300581D01*
X-1292606Y1442974D01*
X-1293418Y1451457D01*
X-1295755Y1459128D01*
X-1299514Y1466189D01*
X-1304950Y1472742D01*
X-1528978Y1696770D01*
X-1531315Y1700580D01*
X-1531874Y1705000D01*
X-1530451Y1709216D01*
X-1527403Y1712417D01*
X-1523238Y1714042D01*
X-1508709Y1716125D01*
X-1493164Y1720189D01*
X-1478178Y1726031D01*
X-1463954Y1733550D01*
X-1450644Y1742643D01*
X-1438503Y1753158D01*
X-1427632Y1764995D01*
X-1418183Y1778050D01*
X-1410258Y1792020D01*
X-1404010Y1806854D01*
X-1399489Y1822297D01*
X-1396746Y1838147D01*
X-1395831Y1854200D01*
X-1396746Y1870252D01*
X-1399489Y1886102D01*
X-1404010Y1901545D01*
X-1410258Y1916379D01*
X-1418183Y1930349D01*
X-1427632Y1943404D01*
X-1438503Y1955241D01*
X-1450644Y1965756D01*
X-1463954Y1974850D01*
X-1471879Y1979015D01*
X-1475232Y1981911D01*
X-1477060Y1986025D01*
X-1477010Y1990445D01*
X-1474978Y1994458D01*
X-1471472Y1997202D01*
X-1467104Y1998167D01*
X-1296720Y1998167D01*
X-1293063Y1997506D01*
X-1289913Y1995525D01*
X-1287627Y1992528D01*
X-1286611Y1988972D01*
X-1286103Y1983638D01*
X-1283919Y1975916D01*
X-1280363Y1968754D01*
X-1275537Y1962404D01*
X-1269644Y1956968D01*
X-1263446Y1953158D01*
X-1260754Y1950720D01*
X-1259078Y1947468D01*
X-1258671Y1943862D01*
X-1259535Y1940306D01*
X-1261618Y1937308D01*
X-1288135Y1910842D01*
X-1291945Y1906066D01*
X-1294434Y1900834D01*
X-1295704Y1895195D01*
X-1295908Y1891995D01*
X-1295908Y1867458D01*
X-1295196Y1861159D01*
X-1293266Y1855673D01*
X-1291031Y1851406D01*
X-1290675Y1848561D01*
X-1290675Y1778406D01*
X-1289812Y1768348D01*
X-1287424Y1758950D01*
X-1283563Y1750060D01*
X-1278178Y1741830D01*
X-1273200Y1736242D01*
X-1242822Y1705813D01*
X-1240637Y1702562D01*
X-1239875Y1698650D01*
X-1239875Y732332D01*
X-1240637Y728421D01*
X-1242822Y725119D01*
X-1246124Y722934D01*
X-1250035Y722172D01*
X-1272286Y722172D01*
X-1276197Y722934D01*
X-1279499Y725119D01*
X-1281684Y728421D01*
X-1282446Y732332D01*
X-1281684Y736193D01*
X-1279499Y739495D01*
X-1276705Y742289D01*
X-1273606Y747166D01*
X-1271676Y752652D01*
X-1270965Y758952D01*
X-1270965Y817829D01*
X-1271676Y824128D01*
X-1273606Y829614D01*
X-1276705Y834491D01*
X-1280769Y838606D01*
X-1285697Y841705D01*
X-1291132Y843584D01*
X-1297482Y844296D01*
X-1466342Y844296D01*
X-1472641Y843584D01*
X-1478127Y841705D01*
X-1486916Y835914D01*
X-1491081Y835253D01*
X-1495145Y836320D01*
X-1502816Y840181D01*
X-1512011Y842975D01*
X-1521561Y844245D01*
X-1531213Y843787D01*
X-1540662Y841756D01*
X-1549603Y838200D01*
X-1554886Y834898D01*
X-1557477Y833780D01*
X-1560220Y833424D01*
X-1754378Y833374D01*
X-1763115Y832154D01*
X-1771142Y829462D01*
X-1778558Y825296D01*
X-1785467Y819607D01*
X-1951431Y653542D01*
X-1956765Y646480D01*
X-1960575Y638911D01*
X-1962861Y630732D01*
X-1963724Y621842D01*
X-1963724Y201066D01*
X-1964486Y197154D01*
X-1966671Y193903D01*
X-1980946Y179628D01*
X-1984248Y177393D01*
X-1988108Y176631D01*
X-1992020Y177393D01*
X-1995322Y179628D01*
X-1997506Y182930D01*
X-1998268Y186791D01*
X-1998268Y356108D01*
X-1998980Y362458D01*
X-2000910Y367893D01*
X-2004009Y372821D01*
X-2008073Y376885D01*
X-2013000Y379984D01*
X-2018436Y381914D01*
X-2024786Y382625D01*
X-2153920Y382625D01*
X-2157831Y383387D01*
X-2161133Y385572D01*
X-2163318Y388874D01*
X-2164080Y392785D01*
X-2164080Y566775D01*
X-2163267Y570839D01*
X-2160828Y574243D01*
X-2156307Y576681D01*
X-2151430Y579780D01*
X-2147316Y583895D01*
X-2144268Y588772D01*
X-2142337Y594207D01*
X-2141626Y600557D01*
X-2141626Y699414D01*
X-2142337Y705713D01*
X-2144268Y711200D01*
X-2147316Y716076D01*
X-2151430Y720191D01*
X-2156307Y723290D01*
X-2160828Y725728D01*
X-2163267Y729132D01*
X-2164080Y733196D01*
X-2164080Y781456D01*
X-2163368Y785266D01*
X-2161286Y788517D01*
X-2155748Y794258D01*
X-2150364Y802284D01*
X-2146350Y811072D01*
X-2143963Y820369D01*
X-2143099Y829970D01*
X-2143963Y839622D01*
X-2146350Y848918D01*
X-2150364Y857707D01*
X-2155748Y865733D01*
X-2162403Y872693D01*
X-2170176Y878433D01*
X-2178812Y882751D01*
X-2188006Y885596D01*
X-2197557Y886815D01*
X-2207209Y886409D01*
X-2216658Y884377D01*
X-2225598Y880770D01*
X-2233828Y875741D01*
X-2241042Y869340D01*
X-2247138Y861821D01*
X-2251811Y853440D01*
X-2255012Y844346D01*
X-2256637Y834796D01*
X-2256637Y825195D01*
X-2255012Y815644D01*
X-2251811Y806551D01*
X-2247188Y798322D01*
X-2246223Y795883D01*
X-2245918Y793343D01*
X-2245918Y733247D01*
X-2246782Y729183D01*
X-2249170Y725779D01*
X-2253742Y723290D01*
X-2258669Y720191D01*
X-2262733Y716076D01*
X-2265832Y711200D01*
X-2267762Y705713D01*
X-2268474Y699414D01*
X-2268474Y600557D01*
X-2267762Y594207D01*
X-2265832Y588772D01*
X-2262733Y583895D01*
X-2258669Y579780D01*
X-2253742Y576681D01*
X-2249170Y574192D01*
X-2246782Y570788D01*
X-2245918Y566724D01*
X-2245918Y357987D01*
X-2245055Y349554D01*
X-2242769Y341884D01*
X-2239010Y334873D01*
X-2232456Y327101D01*
X-2230729Y324002D01*
X-2230120Y320548D01*
X-2230120Y177292D01*
X-2229459Y171602D01*
X-2229866Y167386D01*
X-2231999Y163677D01*
X-2235403Y161188D01*
X-2239568Y160324D01*
X-2688437Y160324D01*
X-2692349Y161086D01*
X-2695600Y163271D01*
X-2745333Y212953D01*
X-2747518Y216255D01*
X-2748280Y220167D01*
X-2748280Y356108D01*
X-2748991Y362458D01*
X-2750921Y367893D01*
X-2754020Y372821D01*
X-2758084Y376885D01*
X-2763012Y379984D01*
X-2768447Y381914D01*
X-2774746Y382625D01*
X-2953613Y382625D01*
X-2959963Y381914D01*
X-2965399Y379984D01*
X-2967837Y378460D01*
X-2971850Y376986D01*
X-2976168Y377342D01*
X-2979928Y379425D01*
X-2982468Y382879D01*
X-2983382Y387096D01*
X-2983382Y757123D01*
X-2982620Y761034D01*
X-2980436Y764336D01*
X-2977134Y766521D01*
X-2973222Y767283D01*
X-2309926Y767283D01*
X-2303424Y768096D01*
X-2297887Y770178D01*
X-2292756Y773734D01*
X-2289708Y776782D01*
X-2287066Y780338D01*
X-2284577Y785876D01*
X-2283409Y793343D01*
X-2283409Y4492599D01*
X-2284171Y4499102D01*
X-2286304Y4504639D01*
X-2289810Y4509770D01*
X-2292858Y4512767D01*
X-2296464Y4515408D01*
X-2302002Y4517898D01*
X-2309469Y4519117D01*
X-2973222Y4519117D01*
X-2977134Y4519879D01*
X-2980436Y4522063D01*
X-2982620Y4525365D01*
X-2983382Y4529277D01*
X-2983382Y5293106D01*
X-2982417Y5364276D01*
X-2979470Y5435142D01*
X-2974594Y5505907D01*
X-2967736Y5576519D01*
X-2958998Y5646877D01*
X-2948279Y5717032D01*
X-2935630Y5786831D01*
X-2921050Y5856224D01*
X-2904591Y5925261D01*
X-2886202Y5993739D01*
X-2865983Y6061760D01*
X-2843885Y6129121D01*
X-2819908Y6195923D01*
X-2794152Y6261963D01*
X-2766517Y6327343D01*
X-2737154Y6391910D01*
X-2705963Y6455613D01*
X-2673096Y6518452D01*
X-2638450Y6580378D01*
X-2602128Y6641287D01*
X-2564180Y6701231D01*
X-2524556Y6760057D01*
X-2483307Y6817766D01*
X-2440533Y6874357D01*
X-2396185Y6929729D01*
X-2350363Y6983831D01*
X-2303018Y7036663D01*
X-2254250Y7088225D01*
X-2204110Y7138365D01*
X-2152599Y7187133D01*
X-2099716Y7234428D01*
X-2045614Y7280249D01*
X-1990242Y7324598D01*
X-1933651Y7367371D01*
X-1875942Y7408621D01*
X-1817065Y7448194D01*
X-1757172Y7486192D01*
X-1696212Y7522514D01*
X-1634286Y7557109D01*
X-1571447Y7590028D01*
X-1507744Y7621168D01*
X-1443177Y7650530D01*
X-1377848Y7678115D01*
X-1311757Y7703921D01*
X-1244955Y7727848D01*
X-1177594Y7749946D01*
X-1109573Y7770215D01*
X-1041044Y7788554D01*
X-972058Y7805013D01*
X-902665Y7819593D01*
X-832866Y7832191D01*
X-762711Y7842910D01*
X-692353Y7851698D01*
X-621741Y7858506D01*
X-550976Y7863382D01*
X-480110Y7866329D01*
X-409041Y7867294D01*
X-338074Y7867294D01*
X-333705Y7866329D01*
X-330200Y7863586D01*
X-328218Y7859623D01*
X-328117Y7855153D01*
X-329895Y7851089D01*
X-333298Y7848193D01*
X-340207Y7844485D01*
X-346760Y7839049D01*
X-536549Y7649260D01*
X-541985Y7642707D01*
X-545744Y7635646D01*
X-548081Y7627975D01*
X-548894Y7619492D01*
X-548894Y7171944D01*
X-549656Y7168032D01*
X-551891Y7164781D01*
X-555193Y7162546D01*
X-559054Y7161784D01*
X-562965Y7162546D01*
X-566267Y7164781D01*
X-633476Y7231989D01*
X-635660Y7235240D01*
X-636422Y7239152D01*
X-636422Y7332522D01*
X-635609Y7336586D01*
X-633171Y7339939D01*
X-629615Y7342124D01*
X-625602Y7343495D01*
X-620674Y7346594D01*
X-616610Y7350709D01*
X-613511Y7355586D01*
X-611581Y7361072D01*
X-610870Y7367371D01*
X-610870Y7466228D01*
X-611581Y7472578D01*
X-613511Y7478014D01*
X-616610Y7482890D01*
X-620674Y7487005D01*
X-625602Y7490104D01*
X-631037Y7491984D01*
X-637387Y7492695D01*
X-711250Y7492695D01*
X-717550Y7491984D01*
X-723036Y7490104D01*
X-727913Y7487005D01*
X-732028Y7482890D01*
X-735076Y7478014D01*
X-737006Y7472578D01*
X-737717Y7466228D01*
X-737717Y7367371D01*
X-737006Y7361072D01*
X-735076Y7355586D01*
X-732028Y7350709D01*
X-727913Y7346594D01*
X-723036Y7343495D01*
X-718972Y7342073D01*
X-715416Y7339939D01*
X-712978Y7336586D01*
X-712165Y7332522D01*
X-712165Y7219746D01*
X-712571Y7215225D01*
X-714705Y7211618D01*
X-718108Y7209129D01*
X-722223Y7208266D01*
X-779526Y7208266D01*
X-787501Y7207503D01*
X-794715Y7205319D01*
X-801319Y7201763D01*
X-807516Y7196683D01*
X-913282Y7090918D01*
X-916533Y7088733D01*
X-920445Y7087971D01*
X-924356Y7088733D01*
X-927608Y7090918D01*
X-933653Y7096963D01*
X-935837Y7100265D01*
X-936650Y7104125D01*
X-936650Y7133793D01*
X-935888Y7137552D01*
X-933856Y7140803D01*
X-924763Y7150404D01*
X-916889Y7161326D01*
X-910539Y7173214D01*
X-905865Y7185812D01*
X-902868Y7198969D01*
X-901700Y7212380D01*
X-902258Y7225842D01*
X-904646Y7239152D01*
X-908812Y7251953D01*
X-914603Y7264095D01*
X-921969Y7275372D01*
X-930808Y7285583D01*
X-940917Y7294524D01*
X-952093Y7301992D01*
X-964184Y7307935D01*
X-976985Y7312253D01*
X-990193Y7314793D01*
X-1003655Y7315504D01*
X-1017066Y7314488D01*
X-1030274Y7311644D01*
X-1042924Y7307072D01*
X-1054912Y7300874D01*
X-1065936Y7293102D01*
X-1075842Y7283958D01*
X-1084427Y7273594D01*
X-1091539Y7262164D01*
X-1097076Y7249871D01*
X-1100937Y7236917D01*
X-1103020Y7223607D01*
X-1103325Y7210145D01*
X-1101801Y7196785D01*
X-1098550Y7183678D01*
X-1093571Y7171181D01*
X-1086967Y7159447D01*
X-1078839Y7148677D01*
X-1071372Y7141108D01*
X-1069187Y7137857D01*
X-1068425Y7133996D01*
X-1068425Y7093102D01*
X-1069289Y7089140D01*
X-1071626Y7085736D01*
X-1075080Y7083602D01*
X-1079144Y7082993D01*
X-1083106Y7084009D01*
X-1091184Y7087971D01*
X-1103985Y7092238D01*
X-1117193Y7094778D01*
X-1130655Y7095540D01*
X-1144066Y7094524D01*
X-1157274Y7091680D01*
X-1169924Y7087108D01*
X-1181912Y7080910D01*
X-1192936Y7073138D01*
X-1202842Y7063994D01*
X-1211427Y7053630D01*
X-1218539Y7042150D01*
X-1224076Y7029907D01*
X-1227937Y7016953D01*
X-1230020Y7003643D01*
X-1230325Y6990181D01*
X-1228801Y6976770D01*
X-1225550Y6963714D01*
X-1220571Y6951218D01*
X-1213967Y6939432D01*
X-1205839Y6928713D01*
X-1196340Y6919112D01*
X-1193241Y6916724D01*
X-1190548Y6913524D01*
X-1189329Y6909511D01*
X-1189837Y6905396D01*
X-1191971Y6901789D01*
X-1195374Y6899351D01*
X-1200404Y6898487D01*
X-1204264Y6899300D01*
X-1207566Y6901484D01*
X-1250035Y6943953D01*
X-1258214Y6950913D01*
X-1267002Y6956298D01*
X-1276553Y6960260D01*
X-1286611Y6962698D01*
X-1297330Y6963511D01*
X-1628190Y6963511D01*
X-1631543Y6964121D01*
X-1634540Y6965746D01*
X-1636776Y6968286D01*
X-1638147Y6970420D01*
X-1642211Y6974535D01*
X-1647139Y6977583D01*
X-1652574Y6979513D01*
X-1658924Y6980224D01*
X-1795475Y6980224D01*
X-1801825Y6979513D01*
X-1807260Y6977583D01*
X-1812188Y6974535D01*
X-1816252Y6970420D01*
X-1819351Y6965543D01*
X-1821230Y6960057D01*
X-1821942Y6953758D01*
X-1821942Y6841642D01*
X-1821230Y6835292D01*
X-1819351Y6829856D01*
X-1816252Y6824980D01*
X-1812188Y6820865D01*
X-1807260Y6817766D01*
X-1801825Y6815886D01*
X-1795475Y6815175D01*
X-1658924Y6815175D01*
X-1652574Y6815886D01*
X-1647139Y6817766D01*
X-1642211Y6820865D01*
X-1638147Y6824980D01*
X-1636877Y6826961D01*
X-1634591Y6829501D01*
X-1631645Y6831126D01*
X-1628292Y6831736D01*
X-1328420Y6831736D01*
X-1324559Y6830923D01*
X-1321257Y6828739D01*
X-1278788Y6786270D01*
X-1270609Y6779310D01*
X-1261821Y6773925D01*
X-1252270Y6769963D01*
X-1242212Y6767525D01*
X-1231493Y6766712D01*
X-1072032Y6766712D01*
X-1068171Y6765899D01*
X-1064869Y6763715D01*
X-1062634Y6760413D01*
X-1061872Y6756552D01*
X-1062634Y6752640D01*
X-1064869Y6749338D01*
X-1194257Y6619951D01*
X-1197559Y6617716D01*
X-1201470Y6616953D01*
X-1961083Y6616953D01*
X-1964994Y6617716D01*
X-1968296Y6619951D01*
X-2015540Y6667144D01*
X-2017623Y6670294D01*
X-2018487Y6673951D01*
X-2017928Y6677710D01*
X-2016404Y6682028D01*
X-2015693Y6688378D01*
X-2015693Y6773621D01*
X-2016404Y6779971D01*
X-2018334Y6785406D01*
X-2020214Y6789216D01*
X-2020620Y6792010D01*
X-2020620Y6886600D01*
X-2021128Y6894728D01*
X-2021433Y6896811D01*
X-2023872Y6906615D01*
X-2026970Y6914032D01*
X-2027936Y6915912D01*
X-2032507Y6923227D01*
X-2033676Y6925818D01*
X-2034082Y6928662D01*
X-2034082Y6961936D01*
X-2034793Y6968236D01*
X-2036724Y6973722D01*
X-2039772Y6978599D01*
X-2043887Y6982714D01*
X-2048764Y6985762D01*
X-2054250Y6987692D01*
X-2060549Y6988403D01*
X-2129434Y6988403D01*
X-2135733Y6987692D01*
X-2141220Y6985762D01*
X-2146096Y6982714D01*
X-2150211Y6978599D01*
X-2153259Y6973722D01*
X-2155190Y6968236D01*
X-2155901Y6961936D01*
X-2155901Y6905599D01*
X-2156206Y6902500D01*
X-2155901Y6894880D01*
X-2155901Y6838086D01*
X-2155190Y6831736D01*
X-2153259Y6826300D01*
X-2150211Y6821373D01*
X-2146198Y6817410D01*
X-2144014Y6814108D01*
X-2143252Y6810197D01*
X-2143252Y6791959D01*
X-2143658Y6789166D01*
X-2145538Y6785406D01*
X-2147468Y6779971D01*
X-2148179Y6773621D01*
X-2148179Y6688378D01*
X-2147468Y6682028D01*
X-2145538Y6676593D01*
X-2142439Y6671665D01*
X-2138375Y6667601D01*
X-2133447Y6664502D01*
X-2128012Y6662623D01*
X-2120696Y6661810D01*
X-2116937Y6660692D01*
X-2113889Y6658152D01*
X-2108809Y6651955D01*
X-2008682Y6551828D01*
X-2002485Y6546748D01*
X-1995881Y6543192D01*
X-1988667Y6541007D01*
X-1980692Y6540246D01*
X-1238504Y6540246D01*
X-1234592Y6539484D01*
X-1231290Y6537248D01*
X-1229106Y6533946D01*
X-1228344Y6530085D01*
X-1229106Y6526174D01*
X-1231290Y6522872D01*
X-1309471Y6444792D01*
X-1314551Y6438595D01*
X-1318107Y6431991D01*
X-1320292Y6424777D01*
X-1321054Y6416802D01*
X-1321054Y6205016D01*
X-1321816Y6201105D01*
X-1324051Y6197803D01*
X-1436928Y6084925D01*
X-1440484Y6082639D01*
X-1444650Y6081979D01*
X-1448765Y6083096D01*
X-1452016Y6085738D01*
X-1453946Y6089548D01*
X-1456385Y6098946D01*
X-1460347Y6107734D01*
X-1465732Y6115710D01*
X-1472438Y6122670D01*
X-1480210Y6128410D01*
X-1488795Y6132779D01*
X-1498041Y6135573D01*
X-1507591Y6136843D01*
X-1517243Y6136386D01*
X-1526641Y6134354D01*
X-1535633Y6130798D01*
X-1543812Y6125718D01*
X-1551076Y6119368D01*
X-1557121Y6111849D01*
X-1561846Y6103416D01*
X-1565046Y6094323D01*
X-1566672Y6084824D01*
X-1566672Y6081064D01*
X-1567434Y6077153D01*
X-1569669Y6073851D01*
X-1824228Y5819292D01*
X-1827530Y5817108D01*
X-1831441Y5816295D01*
X-1866950Y5816295D01*
X-1873250Y5815584D01*
X-1878736Y5813704D01*
X-1883613Y5810605D01*
X-1887728Y5806490D01*
X-1890775Y5801614D01*
X-1892706Y5796178D01*
X-1893417Y5789828D01*
X-1893417Y5690971D01*
X-1892706Y5684672D01*
X-1890775Y5679186D01*
X-1887728Y5674309D01*
X-1883613Y5670194D01*
X-1878736Y5667095D01*
X-1876348Y5666282D01*
X-1873046Y5664352D01*
X-1870659Y5661304D01*
X-1869592Y5657596D01*
X-1869998Y5653735D01*
X-1871827Y5650331D01*
X-1875942Y5645251D01*
X-1880616Y5636869D01*
X-1884172Y5626608D01*
X-1886305Y5623001D01*
X-1889709Y5620613D01*
X-1893773Y5619750D01*
X-1985467Y5619750D01*
X-1989531Y5620613D01*
X-1992884Y5623001D01*
X-1995424Y5627624D01*
X-1998472Y5632500D01*
X-2002586Y5636615D01*
X-2007463Y5639663D01*
X-2012950Y5641594D01*
X-2019249Y5642305D01*
X-2076551Y5642305D01*
X-2081631Y5642711D01*
X-2096414Y5642711D01*
X-2100681Y5643626D01*
X-2104136Y5646216D01*
X-2106168Y5650026D01*
X-2106472Y5654344D01*
X-2104948Y5658408D01*
X-2101850Y5661456D01*
X-2099716Y5662777D01*
X-2095601Y5666892D01*
X-2090216Y5675833D01*
X-2086813Y5678220D01*
X-2082749Y5679084D01*
X-2046325Y5679084D01*
X-2042972Y5678525D01*
X-2040026Y5676900D01*
X-2033625Y5670194D01*
X-2028698Y5667095D01*
X-2023262Y5665216D01*
X-2016912Y5664504D01*
X-1943049Y5664504D01*
X-1936750Y5665216D01*
X-1931263Y5667095D01*
X-1926386Y5670194D01*
X-1922272Y5674309D01*
X-1919224Y5679186D01*
X-1917293Y5684672D01*
X-1916582Y5690971D01*
X-1916582Y5789828D01*
X-1917293Y5796178D01*
X-1919224Y5801614D01*
X-1922272Y5806490D01*
X-1926386Y5810605D01*
X-1931263Y5813704D01*
X-1936750Y5815584D01*
X-1943049Y5816295D01*
X-2016912Y5816295D01*
X-2023262Y5815584D01*
X-2028698Y5813704D01*
X-2033625Y5810605D01*
X-2040026Y5803900D01*
X-2042972Y5802274D01*
X-2046325Y5801715D01*
X-2079752Y5801715D01*
X-2083663Y5802477D01*
X-2086914Y5804662D01*
X-2089150Y5807964D01*
X-2089912Y5811875D01*
X-2089912Y5822391D01*
X-2090623Y5828690D01*
X-2092553Y5834176D01*
X-2095601Y5839053D01*
X-2099716Y5843168D01*
X-2104593Y5846216D01*
X-2110079Y5848146D01*
X-2116378Y5848858D01*
X-2245309Y5848858D01*
X-2251608Y5848146D01*
X-2257094Y5846216D01*
X-2261971Y5843168D01*
X-2266086Y5839053D01*
X-2269134Y5834176D01*
X-2271064Y5828690D01*
X-2271776Y5822391D01*
X-2271776Y5683554D01*
X-2271064Y5677255D01*
X-2269134Y5671769D01*
X-2266086Y5666892D01*
X-2261971Y5662777D01*
X-2257094Y5659729D01*
X-2251608Y5657799D01*
X-2243734Y5657088D01*
X-2239873Y5656326D01*
X-2236622Y5654192D01*
X-2234387Y5650992D01*
X-2233574Y5647131D01*
X-2234234Y5643270D01*
X-2236317Y5639968D01*
X-2239467Y5637682D01*
X-2244648Y5635294D01*
X-2253386Y5629605D01*
X-2256028Y5628386D01*
X-2258923Y5627979D01*
X-2277821Y5627979D01*
X-2284171Y5627268D01*
X-2289606Y5625338D01*
X-2294534Y5622239D01*
X-2298598Y5618175D01*
X-2301697Y5613247D01*
X-2303576Y5607812D01*
X-2304288Y5601462D01*
X-2304288Y5521960D01*
X-2303576Y5515660D01*
X-2301697Y5510174D01*
X-2298598Y5505297D01*
X-2294534Y5501182D01*
X-2289606Y5498134D01*
X-2284171Y5496204D01*
X-2277821Y5495493D01*
X-2192578Y5495493D01*
X-2186228Y5496204D01*
X-2180793Y5498134D01*
X-2175865Y5501182D01*
X-2171801Y5505297D01*
X-2168702Y5510174D01*
X-2167636Y5513273D01*
X-2165502Y5516829D01*
X-2162098Y5519216D01*
X-2158034Y5520080D01*
X-2081631Y5520080D01*
X-2076145Y5520486D01*
X-2019249Y5520486D01*
X-2012950Y5521198D01*
X-2007463Y5523128D01*
X-2002586Y5526176D01*
X-1998472Y5530291D01*
X-1995424Y5535168D01*
X-1992884Y5539790D01*
X-1989531Y5542178D01*
X-1985467Y5543042D01*
X-1977643Y5543042D01*
X-1973884Y5542330D01*
X-1970633Y5540197D01*
X-1968398Y5537098D01*
X-1967534Y5533339D01*
X-1968093Y5529529D01*
X-1968906Y5527141D01*
X-1969617Y5520842D01*
X-1969617Y5451957D01*
X-1968906Y5445658D01*
X-1967992Y5441340D01*
X-1967992Y5410657D01*
X-1968754Y5406796D01*
X-1970989Y5403494D01*
X-2005939Y5368493D01*
X-2010308Y5363819D01*
X-2014169Y5358993D01*
X-2017725Y5353913D01*
X-2020874Y5348579D01*
X-2023668Y5343042D01*
X-2026005Y5337352D01*
X-2027986Y5331460D01*
X-2029510Y5325465D01*
X-2030628Y5319369D01*
X-2031288Y5313172D01*
X-2031492Y5306822D01*
X-2031492Y5194655D01*
X-2030577Y5181955D01*
X-2027224Y5166055D01*
X-2027224Y5126024D01*
X-2026513Y5119674D01*
X-2024583Y5114239D01*
X-2021535Y5109311D01*
X-2017420Y5105247D01*
X-2012543Y5102148D01*
X-2007057Y5100269D01*
X-2000757Y5099558D01*
X-1888642Y5099558D01*
X-1882292Y5100269D01*
X-1876856Y5102148D01*
X-1871980Y5105247D01*
X-1867865Y5109311D01*
X-1864766Y5114239D01*
X-1862886Y5119674D01*
X-1862175Y5126024D01*
X-1862175Y5166055D01*
X-1858822Y5181955D01*
X-1857908Y5194655D01*
X-1857908Y5266842D01*
X-1857095Y5270703D01*
X-1854911Y5274005D01*
X-1819910Y5309006D01*
X-1815592Y5313680D01*
X-1811680Y5318506D01*
X-1808175Y5323586D01*
X-1805025Y5328920D01*
X-1802231Y5334457D01*
X-1799843Y5340197D01*
X-1797913Y5346039D01*
X-1796389Y5352084D01*
X-1795272Y5358180D01*
X-1794611Y5364327D01*
X-1794357Y5370677D01*
X-1794357Y5441442D01*
X-1793493Y5445658D01*
X-1792782Y5451957D01*
X-1792782Y5520842D01*
X-1793493Y5527141D01*
X-1794357Y5529529D01*
X-1794916Y5533339D01*
X-1794002Y5537098D01*
X-1791766Y5540197D01*
X-1788515Y5542330D01*
X-1784756Y5543042D01*
X-1772412Y5543042D01*
X-1764436Y5543804D01*
X-1757222Y5545988D01*
X-1750618Y5549544D01*
X-1744421Y5554624D01*
X-1573428Y5725617D01*
X-1568348Y5731814D01*
X-1564792Y5738418D01*
X-1562608Y5745632D01*
X-1561846Y5753608D01*
X-1561846Y5847283D01*
X-1561084Y5851194D01*
X-1558848Y5854496D01*
X-1255928Y6157417D01*
X-1250848Y6163614D01*
X-1248968Y6167170D01*
X-1246276Y6170371D01*
X-1242568Y6172200D01*
X-1238453Y6172454D01*
X-1229055Y6168999D01*
X-1222705Y6168288D01*
X-1137462Y6168288D01*
X-1131112Y6168999D01*
X-1125677Y6170930D01*
X-1120749Y6174028D01*
X-1116685Y6178092D01*
X-1113586Y6183020D01*
X-1112215Y6186932D01*
X-1110081Y6190488D01*
X-1106678Y6192926D01*
X-1102614Y6193739D01*
X-1095806Y6193739D01*
X-1087374Y6194602D01*
X-1079703Y6196888D01*
X-1072642Y6200698D01*
X-1066038Y6206083D01*
X-1001420Y6270701D01*
X-996035Y6277305D01*
X-992225Y6284366D01*
X-989939Y6292037D01*
X-989076Y6300470D01*
X-989076Y6478828D01*
X-988314Y6482740D01*
X-986129Y6486042D01*
X-746048Y6726123D01*
X-742746Y6728307D01*
X-738835Y6729069D01*
X-711454Y6729069D01*
X-707339Y6728206D01*
X-703935Y6725716D01*
X-701802Y6722109D01*
X-701344Y6717944D01*
X-702005Y6711137D01*
X-701192Y6703161D01*
X-698906Y6695490D01*
X-694791Y6687820D01*
X-693623Y6683654D01*
X-694232Y6679438D01*
X-696569Y6675831D01*
X-700176Y6673494D01*
X-704392Y6672884D01*
X-708507Y6674053D01*
X-716229Y6678168D01*
X-723493Y6680352D01*
X-727913Y6682841D01*
X-733298Y6684975D01*
X-739038Y6685788D01*
X-744829Y6685381D01*
X-750366Y6683654D01*
X-755497Y6680657D01*
X-758596Y6678015D01*
X-787908Y6648703D01*
X-791870Y6643725D01*
X-794359Y6638594D01*
X-795832Y6631736D01*
X-800455Y6581495D01*
X-800404Y6575755D01*
X-799084Y6570065D01*
X-796594Y6564833D01*
X-792632Y6559854D01*
X-714705Y6481927D01*
X-712470Y6478625D01*
X-711708Y6474764D01*
X-711708Y6390335D01*
X-712470Y6386474D01*
X-714705Y6383172D01*
X-792835Y6305042D01*
X-796645Y6300266D01*
X-799134Y6295034D01*
X-800404Y6289395D01*
X-800608Y6286195D01*
X-800608Y6223304D01*
X-799947Y6217259D01*
X-798017Y6211773D01*
X-794918Y6206845D01*
X-792835Y6204458D01*
X-780592Y6192266D01*
X-777748Y6189878D01*
X-775208Y6186576D01*
X-774192Y6182512D01*
X-774852Y6178397D01*
X-777138Y6174892D01*
X-801217Y6150813D01*
X-804519Y6148628D01*
X-808431Y6147866D01*
X-963472Y6147866D01*
X-967435Y6148679D01*
X-970787Y6150965D01*
X-972413Y6152692D01*
X-980186Y6158433D01*
X-988821Y6162751D01*
X-998016Y6165596D01*
X-1007567Y6166815D01*
X-1017219Y6166408D01*
X-1026668Y6164376D01*
X-1035608Y6160770D01*
X-1043838Y6155740D01*
X-1051052Y6149340D01*
X-1057148Y6141821D01*
X-1061821Y6133439D01*
X-1065022Y6124346D01*
X-1066647Y6114796D01*
X-1066647Y6105194D01*
X-1065022Y6095644D01*
X-1061821Y6086551D01*
X-1057148Y6078169D01*
X-1051052Y6070650D01*
X-1043838Y6064250D01*
X-1035608Y6059220D01*
X-1026668Y6055614D01*
X-1017219Y6053582D01*
X-1007567Y6053175D01*
X-998016Y6054394D01*
X-988821Y6057239D01*
X-980186Y6061557D01*
X-972413Y6067298D01*
X-970787Y6069025D01*
X-967435Y6071311D01*
X-963472Y6072124D01*
X-789025Y6072124D01*
X-781151Y6072936D01*
X-774039Y6075070D01*
X-767537Y6078575D01*
X-761390Y6083554D01*
X-705713Y6139281D01*
X-702157Y6141567D01*
X-697992Y6142228D01*
X-693928Y6141161D01*
X-683818Y6132677D01*
X-676757Y6128918D01*
X-671830Y6127394D01*
X-668832Y6125972D01*
X-666496Y6123635D01*
X-665022Y6120638D01*
X-663549Y6115659D01*
X-659739Y6108598D01*
X-654710Y6102502D01*
X-652932Y6099251D01*
X-652424Y6095542D01*
X-653288Y6091936D01*
X-655370Y6088837D01*
X-756767Y5987491D01*
X-760069Y5985256D01*
X-763930Y5984494D01*
X-990092Y5984494D01*
X-994003Y5985256D01*
X-997305Y5987491D01*
X-1036015Y6026251D01*
X-1040993Y6030214D01*
X-1046226Y6032703D01*
X-1051864Y6034024D01*
X-1057656Y6034024D01*
X-1063294Y6032703D01*
X-1068527Y6030214D01*
X-1073505Y6026251D01*
X-1086459Y6013246D01*
X-1089761Y6011062D01*
X-1093622Y6010300D01*
X-1097534Y6011062D01*
X-1100836Y6013246D01*
X-1134668Y6047079D01*
X-1141222Y6052464D01*
X-1148283Y6056274D01*
X-1155954Y6058560D01*
X-1164437Y6059424D01*
X-1189431Y6059424D01*
X-1193292Y6060186D01*
X-1196594Y6062370D01*
X-1230731Y6096508D01*
X-1235710Y6100470D01*
X-1240891Y6103010D01*
X-1246530Y6104280D01*
X-1252321Y6104280D01*
X-1257960Y6103010D01*
X-1263192Y6100470D01*
X-1268171Y6096508D01*
X-1323949Y6040729D01*
X-1327912Y6035751D01*
X-1330401Y6030569D01*
X-1331671Y6024930D01*
X-1331671Y6019139D01*
X-1330401Y6013500D01*
X-1327912Y6008268D01*
X-1323949Y6003290D01*
X-1261110Y5940450D01*
X-1256131Y5936488D01*
X-1250899Y5933998D01*
X-1245260Y5932728D01*
X-1239469Y5932728D01*
X-1233830Y5933998D01*
X-1228648Y5936488D01*
X-1223670Y5940450D01*
X-1190904Y5973216D01*
X-1187602Y5975451D01*
X-1183690Y5976213D01*
X-1179830Y5975451D01*
X-1176528Y5973216D01*
X-1158697Y5955385D01*
X-1156462Y5952134D01*
X-1155700Y5948222D01*
X-1156462Y5944311D01*
X-1158697Y5941060D01*
X-1171651Y5928055D01*
X-1175613Y5923076D01*
X-1178153Y5917844D01*
X-1179423Y5912205D01*
X-1179423Y5906414D01*
X-1178153Y5900775D01*
X-1175613Y5895594D01*
X-1171651Y5890615D01*
X-1087628Y5806541D01*
X-1082649Y5802579D01*
X-1077417Y5800090D01*
X-1071778Y5798769D01*
X-1069390Y5798769D01*
X-1065479Y5798007D01*
X-1062228Y5795822D01*
X-1059992Y5792520D01*
X-1059230Y5788609D01*
X-1059230Y5786221D01*
X-1057960Y5780582D01*
X-1055420Y5775350D01*
X-1051458Y5770372D01*
X-979881Y5698845D01*
X-977696Y5695543D01*
X-976934Y5691632D01*
X-977696Y5687771D01*
X-979881Y5684469D01*
X-983183Y5682234D01*
X-987094Y5681472D01*
X-998219Y5681472D01*
X-1002080Y5682234D01*
X-1005382Y5684469D01*
X-1071372Y5750458D01*
X-1076350Y5754420D01*
X-1081582Y5756960D01*
X-1087221Y5758230D01*
X-1089609Y5758230D01*
X-1093520Y5758992D01*
X-1096822Y5761228D01*
X-1099007Y5764479D01*
X-1099769Y5768390D01*
X-1099769Y5770778D01*
X-1101090Y5776417D01*
X-1103579Y5781649D01*
X-1107541Y5786628D01*
X-1191615Y5870651D01*
X-1196594Y5874613D01*
X-1201775Y5877153D01*
X-1207414Y5878423D01*
X-1213205Y5878423D01*
X-1218844Y5877153D01*
X-1224076Y5874613D01*
X-1229055Y5870651D01*
X-1327251Y5772505D01*
X-1331214Y5767527D01*
X-1333703Y5762294D01*
X-1335024Y5756656D01*
X-1335024Y5750864D01*
X-1333703Y5745226D01*
X-1331214Y5739993D01*
X-1327251Y5735015D01*
X-1243177Y5650992D01*
X-1238199Y5647029D01*
X-1233017Y5644489D01*
X-1227378Y5643219D01*
X-1224940Y5643219D01*
X-1221079Y5642457D01*
X-1217777Y5640273D01*
X-1215542Y5636971D01*
X-1214780Y5633059D01*
X-1214780Y5630672D01*
X-1213510Y5625033D01*
X-1210970Y5619800D01*
X-1207008Y5614822D01*
X-1201115Y5608929D01*
X-1198930Y5605627D01*
X-1198118Y5601716D01*
X-1198930Y5597855D01*
X-1201115Y5594553D01*
X-1219606Y5576062D01*
X-1222908Y5573826D01*
X-1226769Y5573064D01*
X-1230680Y5573826D01*
X-1233982Y5576062D01*
X-1249070Y5591149D01*
X-1254048Y5595112D01*
X-1259230Y5597601D01*
X-1264869Y5598871D01*
X-1270660Y5598871D01*
X-1276299Y5597601D01*
X-1281531Y5595112D01*
X-1286510Y5591149D01*
X-1349349Y5528310D01*
X-1353312Y5523331D01*
X-1355801Y5518099D01*
X-1357071Y5512460D01*
X-1357071Y5506669D01*
X-1355801Y5501030D01*
X-1353312Y5495848D01*
X-1349349Y5490870D01*
X-1293571Y5435092D01*
X-1288592Y5431129D01*
X-1283360Y5428589D01*
X-1277721Y5427319D01*
X-1271930Y5427319D01*
X-1266291Y5428589D01*
X-1261110Y5431129D01*
X-1256131Y5435092D01*
X-1220622Y5470601D01*
X-1218641Y5472125D01*
X-1216406Y5473141D01*
X-1209090Y5475325D01*
X-1202029Y5479135D01*
X-1195425Y5484520D01*
X-1143254Y5536692D01*
X-1139952Y5538876D01*
X-1136091Y5539689D01*
X-1132179Y5538876D01*
X-1128877Y5536692D01*
X-1122984Y5530799D01*
X-1118006Y5526836D01*
X-1112774Y5524296D01*
X-1107135Y5523026D01*
X-1101344Y5523026D01*
X-1095705Y5524296D01*
X-1090523Y5526836D01*
X-1085545Y5530799D01*
X-1019606Y5596686D01*
X-1016304Y5598871D01*
X-1012444Y5599684D01*
X-949960Y5599684D01*
X-941476Y5600496D01*
X-933805Y5602833D01*
X-926744Y5606592D01*
X-920191Y5612028D01*
X-805281Y5726938D01*
X-801979Y5729122D01*
X-798068Y5729884D01*
X-794207Y5729122D01*
X-790905Y5726938D01*
X-788670Y5723636D01*
X-787908Y5719724D01*
X-787908Y5590540D01*
X-787146Y5582666D01*
X-785012Y5575554D01*
X-781507Y5569051D01*
X-776478Y5562904D01*
X-506374Y5292801D01*
X-504088Y5289397D01*
X-503377Y5285333D01*
X-504342Y5281371D01*
X-506730Y5278069D01*
X-510285Y5275986D01*
X-514350Y5275478D01*
X-520344Y5275935D01*
X-743915Y5275935D01*
X-747826Y5276748D01*
X-751128Y5278932D01*
X-753313Y5282234D01*
X-754075Y5286095D01*
X-754075Y5349443D01*
X-754786Y5355742D01*
X-756716Y5361178D01*
X-759815Y5366105D01*
X-763879Y5370169D01*
X-768807Y5373268D01*
X-774242Y5375198D01*
X-780592Y5375910D01*
X-979424Y5375910D01*
X-985774Y5375198D01*
X-991209Y5373268D01*
X-996086Y5370169D01*
X-1000201Y5366105D01*
X-1003300Y5361178D01*
X-1005179Y5355742D01*
X-1005890Y5349443D01*
X-1005890Y5150561D01*
X-1005179Y5144262D01*
X-1003300Y5138775D01*
X-1000201Y5133898D01*
X-996086Y5129784D01*
X-991209Y5126685D01*
X-985774Y5124805D01*
X-979424Y5124094D01*
X-780592Y5124094D01*
X-774242Y5124805D01*
X-768807Y5126685D01*
X-763879Y5129784D01*
X-759815Y5133898D01*
X-756310Y5139385D01*
X-754075Y5141925D01*
X-751078Y5143550D01*
X-747725Y5144160D01*
X-520344Y5144160D01*
X-509625Y5144973D01*
X-499567Y5147411D01*
X-490016Y5151374D01*
X-481228Y5156758D01*
X-473354Y5163464D01*
X-466648Y5171338D01*
X-461264Y5180126D01*
X-457301Y5189677D01*
X-454863Y5199735D01*
X-454050Y5210048D01*
X-454507Y5215636D01*
X-453999Y5219700D01*
X-451916Y5223256D01*
X-448614Y5225643D01*
X-444652Y5226608D01*
X-440588Y5225897D01*
X-437184Y5223611D01*
X-317195Y5103622D01*
X-311048Y5098592D01*
X-304546Y5095087D01*
X-297434Y5092954D01*
X-289560Y5092192D01*
X60096Y5092141D01*
X64008Y5091379D01*
X67310Y5089144D01*
X170332Y4986121D01*
X172567Y4982819D01*
X173329Y4978908D01*
X173329Y4975199D01*
X174853Y4966208D01*
X178155Y4956556D01*
X182880Y4948174D01*
X188925Y4940655D01*
X196189Y4934254D01*
X204368Y4929225D01*
X213360Y4925618D01*
X222758Y4923586D01*
X232410Y4923180D01*
X241960Y4924399D01*
X251206Y4927244D01*
X259791Y4931562D01*
X267563Y4937302D01*
X274269Y4944262D01*
X279654Y4952288D01*
X283616Y4961077D01*
X286054Y4970373D01*
X286867Y4979974D01*
X286054Y4989626D01*
X283616Y4998923D01*
X279654Y5007711D01*
X274269Y5015738D01*
X267563Y5022697D01*
X259791Y5028438D01*
X251206Y5032756D01*
X241960Y5035600D01*
X227279Y5037480D01*
X223774Y5039766D01*
X201218Y5062270D01*
X199085Y5065471D01*
X198272Y5069179D01*
X198882Y5072938D01*
X200812Y5076240D01*
X203860Y5078526D01*
X209804Y5081574D01*
X217576Y5087315D01*
X224282Y5094274D01*
X225958Y5096814D01*
X229057Y5099761D01*
X233121Y5101183D01*
X237388Y5100828D01*
X241096Y5098745D01*
X246176Y5094274D01*
X254406Y5089194D01*
X263347Y5085638D01*
X272796Y5083606D01*
X282448Y5083149D01*
X291998Y5084419D01*
X301294Y5087264D01*
X305003Y5087670D01*
X308660Y5086654D01*
X311708Y5084419D01*
X313690Y5081219D01*
X314401Y5077510D01*
X314401Y4933086D01*
X313639Y4929174D01*
X311454Y4925872D01*
X266598Y4880813D01*
X261315Y4873802D01*
X257556Y4866284D01*
X255270Y4858207D01*
X254457Y4849418D01*
X254508Y4228388D01*
X255727Y4219702D01*
X258368Y4211777D01*
X262483Y4204411D01*
X268122Y4197604D01*
X632510Y3833215D01*
X634847Y3829558D01*
X635457Y3825240D01*
X631342Y3813251D01*
X629208Y3809695D01*
X625805Y3807307D01*
X621741Y3806444D01*
X562610Y3806444D01*
X556310Y3805732D01*
X550824Y3803853D01*
X545947Y3800754D01*
X541832Y3796690D01*
X538784Y3791762D01*
X536854Y3786327D01*
X536143Y3779977D01*
X536143Y3694734D01*
X536854Y3688384D01*
X538784Y3682949D01*
X541832Y3678021D01*
X545947Y3673957D01*
X550824Y3670858D01*
X556310Y3668979D01*
X562610Y3668268D01*
X642112Y3668268D01*
X648462Y3668979D01*
X653897Y3670858D01*
X658825Y3673957D01*
X666343Y3681780D01*
X670458Y3683355D01*
X674776Y3683000D01*
X678637Y3680917D01*
X686155Y3674262D01*
X694385Y3669182D01*
X703326Y3665626D01*
X712774Y3663594D01*
X722426Y3663137D01*
X731977Y3664407D01*
X743356Y3667963D01*
X745642Y3668268D01*
X808990Y3668268D01*
X815289Y3668979D01*
X820775Y3670858D01*
X825652Y3673957D01*
X829767Y3678021D01*
X832815Y3682949D01*
X834948Y3688994D01*
X837082Y3692550D01*
X840486Y3694988D01*
X844550Y3695801D01*
X848614Y3694988D01*
X852017Y3692550D01*
X854151Y3688994D01*
X856284Y3682949D01*
X859332Y3678021D01*
X863447Y3673957D01*
X868324Y3670858D01*
X873810Y3668979D01*
X880110Y3668268D01*
X959612Y3668268D01*
X965962Y3668979D01*
X971397Y3670858D01*
X976325Y3673957D01*
X980389Y3678021D01*
X983487Y3682949D01*
X985418Y3688384D01*
X986129Y3694734D01*
X986129Y3779977D01*
X985418Y3786327D01*
X983487Y3791762D01*
X980389Y3796690D01*
X976325Y3800754D01*
X971448Y3803802D01*
X964590Y3806139D01*
X961034Y3808272D01*
X958596Y3811676D01*
X957732Y3815740D01*
X957732Y3879697D01*
X958596Y3883761D01*
X960983Y3887165D01*
X964590Y3889298D01*
X968705Y3889806D01*
X972718Y3888638D01*
X975868Y3885946D01*
X977747Y3882186D01*
X978916Y3877513D01*
X981354Y3872433D01*
X985164Y3867658D01*
X1076655Y3776167D01*
X1078788Y3773119D01*
X1079652Y3769461D01*
X1083360Y3685692D01*
X1082852Y3682085D01*
X1081125Y3678885D01*
X1057808Y3649726D01*
X1054252Y3646881D01*
X1049883Y3645915D01*
X870407Y3645915D01*
X857859Y3644696D01*
X852373Y3642766D01*
X847496Y3639718D01*
X843432Y3635654D01*
X839622Y3629456D01*
X837184Y3626764D01*
X833983Y3625087D01*
X830326Y3624681D01*
X826820Y3625545D01*
X823823Y3627628D01*
X819302Y3632098D01*
X814425Y3635197D01*
X808939Y3637076D01*
X802640Y3637787D01*
X723138Y3637787D01*
X716788Y3637076D01*
X711352Y3635197D01*
X706424Y3632098D01*
X702360Y3628034D01*
X699262Y3623106D01*
X698703Y3621532D01*
X696569Y3617976D01*
X693166Y3615537D01*
X689102Y3614724D01*
X669798Y3614724D01*
X665734Y3615537D01*
X662330Y3617976D01*
X660196Y3621532D01*
X659638Y3623106D01*
X656539Y3628034D01*
X652475Y3632098D01*
X647547Y3635197D01*
X642112Y3637076D01*
X635762Y3637787D01*
X556260Y3637787D01*
X549960Y3637076D01*
X544474Y3635197D01*
X539597Y3632098D01*
X535482Y3628034D01*
X532434Y3623106D01*
X530504Y3617671D01*
X529793Y3611321D01*
X529793Y3526078D01*
X530504Y3519728D01*
X532434Y3514293D01*
X535482Y3509365D01*
X539597Y3505301D01*
X544474Y3502202D01*
X549960Y3500323D01*
X556260Y3499612D01*
X620725Y3499612D01*
X624179Y3498951D01*
X627227Y3497224D01*
X629513Y3494481D01*
X633984Y3481781D01*
X638657Y3473348D01*
X644753Y3465829D01*
X649274Y3461816D01*
X651764Y3458565D01*
X652729Y3454603D01*
X652068Y3450590D01*
X649884Y3447135D01*
X646531Y3444849D01*
X642518Y3444036D01*
X294640Y3446932D01*
X290322Y3447948D01*
X286867Y3450691D01*
X284886Y3454654D01*
X284734Y3459073D01*
X286512Y3463137D01*
X289864Y3466033D01*
X295554Y3469132D01*
X305155Y3476345D01*
X313690Y3484829D01*
X320852Y3494481D01*
X326644Y3504996D01*
X330809Y3516274D01*
X333400Y3528009D01*
X334264Y3540353D01*
X334264Y3599637D01*
X333400Y3611981D01*
X330809Y3623716D01*
X326644Y3634994D01*
X320852Y3645509D01*
X313690Y3655161D01*
X305155Y3663645D01*
X295554Y3670858D01*
X284988Y3676599D01*
X273761Y3680815D01*
X261975Y3683355D01*
X249631Y3684270D01*
X160172Y3684270D01*
X153974Y3684015D01*
X148031Y3683406D01*
X142087Y3682339D01*
X136245Y3680815D01*
X130556Y3678936D01*
X120599Y3674567D01*
X118059Y3674262D01*
X-1249629Y3674262D01*
X-1261973Y3673348D01*
X-1273708Y3670808D01*
X-1284986Y3666591D01*
X-1295501Y3660851D01*
X-1305153Y3653637D01*
X-1313637Y3645154D01*
X-1320850Y3635501D01*
X-1326591Y3624986D01*
X-1330807Y3613708D01*
X-1333347Y3601974D01*
X-1334211Y3589985D01*
X-1333347Y3577996D01*
X-1330807Y3566261D01*
X-1326591Y3554984D01*
X-1320850Y3544468D01*
X-1313637Y3534816D01*
X-1305153Y3526332D01*
X-1295501Y3519119D01*
X-1289558Y3515868D01*
X-1286713Y3513582D01*
X-1284884Y3510483D01*
X-1284274Y3506927D01*
X-1284274Y3500170D01*
X-1284020Y3493973D01*
X-1283411Y3487978D01*
X-1282344Y3482086D01*
X-1280820Y3476244D01*
X-1278940Y3470554D01*
X-1276654Y3465017D01*
X-1273962Y3459632D01*
X-1270863Y3454450D01*
X-1267460Y3449523D01*
X-1263650Y3444798D01*
X-1259586Y3440429D01*
X-1255166Y3436315D01*
X-1250492Y3432556D01*
X-1245565Y3429101D01*
X-1240383Y3426053D01*
X-1234998Y3423361D01*
X-1229461Y3421075D01*
X-1223721Y3419144D01*
X-1217930Y3417671D01*
X-1211986Y3416604D01*
X-1205992Y3415944D01*
X-1199997Y3415741D01*
X-1194003Y3415944D01*
X-1188008Y3416604D01*
X-1182065Y3417671D01*
X-1176274Y3419144D01*
X-1170533Y3421075D01*
X-1164996Y3423361D01*
X-1159611Y3426053D01*
X-1154430Y3429101D01*
X-1149502Y3432556D01*
X-1144828Y3436315D01*
X-1140307Y3440531D01*
X-1098092Y3482746D01*
X-1094790Y3484981D01*
X-1090879Y3485743D01*
X-840587Y3485743D01*
X-828243Y3486607D01*
X-816508Y3489147D01*
X-805230Y3493363D01*
X-794664Y3499154D01*
X-788568Y3503676D01*
X-785723Y3505200D01*
X-782472Y3505708D01*
X106933Y3505708D01*
X110489Y3505098D01*
X113588Y3503218D01*
X115874Y3500424D01*
X119126Y3494481D01*
X126339Y3484829D01*
X134823Y3476345D01*
X144475Y3469132D01*
X147828Y3467303D01*
X151180Y3464356D01*
X152958Y3460292D01*
X152806Y3455822D01*
X150774Y3451860D01*
X147218Y3449167D01*
X142900Y3448202D01*
X-659942Y3454908D01*
X-665988Y3454298D01*
X-671474Y3452418D01*
X-676402Y3449320D01*
X-678535Y3447491D01*
X-1020876Y3117850D01*
X-1024940Y3112973D01*
X-1027531Y3107791D01*
X-1029004Y3101949D01*
X-1029208Y3098444D01*
X-1029208Y2565908D01*
X-1028598Y2560066D01*
X-1026769Y2554528D01*
X-1025702Y2552090D01*
X-1023924Y2545943D01*
X-1020368Y2538780D01*
X-1015542Y2532380D01*
X-1009650Y2526995D01*
X-1002842Y2522778D01*
X-995375Y2519883D01*
X-987501Y2518410D01*
X-979474Y2518410D01*
X-971651Y2519883D01*
X-964184Y2522778D01*
X-956411Y2527655D01*
X-952906Y2529027D01*
X-949096Y2529027D01*
X-945591Y2527655D01*
X-937818Y2522778D01*
X-930351Y2519883D01*
X-922477Y2518410D01*
X-914501Y2518410D01*
X-906627Y2519883D01*
X-899210Y2522778D01*
X-891387Y2527655D01*
X-887882Y2529027D01*
X-884123Y2529027D01*
X-880618Y2527655D01*
X-872794Y2522778D01*
X-865378Y2519883D01*
X-857503Y2518410D01*
X-849477Y2518410D01*
X-841654Y2519883D01*
X-834186Y2522778D01*
X-826414Y2527655D01*
X-822909Y2529027D01*
X-819099Y2529027D01*
X-815594Y2527655D01*
X-807821Y2522778D01*
X-800354Y2519883D01*
X-792480Y2518410D01*
X-784504Y2518410D01*
X-776630Y2519883D01*
X-769162Y2522778D01*
X-762355Y2526995D01*
X-756462Y2532380D01*
X-751636Y2538780D01*
X-748080Y2545943D01*
X-745896Y2553614D01*
X-745083Y2562098D01*
X-745083Y2592984D01*
X-744728Y2595727D01*
X-743305Y2600655D01*
X-742492Y2609545D01*
X-742492Y2657906D01*
X-741781Y2661564D01*
X-739851Y2664764D01*
X-736904Y2667000D01*
X-732180Y2669387D01*
X-724408Y2675128D01*
X-717753Y2682087D01*
X-712368Y2690063D01*
X-708355Y2698851D01*
X-705967Y2708198D01*
X-705104Y2717800D01*
X-705967Y2727401D01*
X-708355Y2736748D01*
X-708609Y2740507D01*
X-707491Y2744165D01*
X-705053Y2747111D01*
X-701751Y2748940D01*
X-692607Y2751937D01*
X-685241Y2756103D01*
X-678332Y2761792D01*
X-639368Y2800858D01*
X-633933Y2808020D01*
X-631088Y2813405D01*
X-629158Y2819247D01*
X-627024Y2822854D01*
X-623620Y2825343D01*
X-619506Y2826207D01*
X-606145Y2826207D01*
X-599846Y2826918D01*
X-594410Y2828798D01*
X-589483Y2831896D01*
X-585419Y2835960D01*
X-582320Y2840888D01*
X-580390Y2846324D01*
X-579678Y2852674D01*
X-579678Y2992526D01*
X-580339Y2998114D01*
X-579882Y3002330D01*
X-577799Y3005988D01*
X-574395Y3008528D01*
X-570230Y3009392D01*
X-228904Y3009392D01*
X-222859Y3010052D01*
X-217373Y3011982D01*
X-212445Y3015081D01*
X-210058Y3017164D01*
X-157327Y3069894D01*
X-154025Y3072130D01*
X-150164Y3072892D01*
X75895Y3072892D01*
X81940Y3073552D01*
X87426Y3075482D01*
X92354Y3078581D01*
X94742Y3080664D01*
X160172Y3146094D01*
X163474Y3148330D01*
X167335Y3149092D01*
X688086Y3149092D01*
X692200Y3148228D01*
X695655Y3145688D01*
X697738Y3142030D01*
X698144Y3137814D01*
X697992Y3136341D01*
X697992Y3099104D01*
X698652Y3093059D01*
X700582Y3087573D01*
X703681Y3082645D01*
X705764Y3080258D01*
X758494Y3027527D01*
X760730Y3024225D01*
X761492Y3020364D01*
X761492Y2877667D01*
X760730Y2873806D01*
X758494Y2870504D01*
X755243Y2868269D01*
X751332Y2867507D01*
X747420Y2868269D01*
X742340Y2870047D01*
X736295Y2870708D01*
X522935Y2870708D01*
X519226Y2871419D01*
X515975Y2873451D01*
X511352Y2877820D01*
X506526Y2880817D01*
X501040Y2882747D01*
X494995Y2883408D01*
X114604Y2883408D01*
X108559Y2882747D01*
X103073Y2880817D01*
X98145Y2877718D01*
X95758Y2875635D01*
X-18135Y2761742D01*
X-21945Y2756966D01*
X-24434Y2751734D01*
X-25704Y2746095D01*
X-25908Y2742895D01*
X-25908Y2603804D01*
X-25247Y2597759D01*
X-23317Y2592273D01*
X-20218Y2587345D01*
X-18135Y2584958D01*
X32258Y2534564D01*
X37033Y2530754D01*
X42265Y2528265D01*
X47904Y2526995D01*
X51104Y2526792D01*
X188264Y2526792D01*
X191973Y2526080D01*
X195224Y2524048D01*
X199847Y2519680D01*
X204673Y2516682D01*
X210159Y2514752D01*
X216204Y2514092D01*
X317195Y2514092D01*
X323240Y2514752D01*
X328726Y2516682D01*
X333654Y2519781D01*
X336042Y2521864D01*
X348335Y2534158D01*
X350316Y2536393D01*
X353314Y2541066D01*
X356057Y2543860D01*
X359664Y2545435D01*
X363575Y2545537D01*
X367233Y2544114D01*
X369163Y2542895D01*
X374650Y2541016D01*
X380949Y2540304D01*
X454812Y2540304D01*
X461162Y2541016D01*
X466598Y2542895D01*
X471525Y2545994D01*
X475589Y2550109D01*
X478688Y2554986D01*
X481787Y2564841D01*
X484124Y2567787D01*
X487375Y2569718D01*
X500329Y2571496D01*
X506323Y2573324D01*
X509524Y2574848D01*
X513842Y2575814D01*
X530047Y2575814D01*
X534365Y2574848D01*
X537870Y2572156D01*
X539902Y2568194D01*
X540054Y2563774D01*
X539445Y2560777D01*
X539445Y2552852D01*
X540918Y2545029D01*
X543763Y2537663D01*
X548792Y2529738D01*
X550214Y2526182D01*
X550214Y2522423D01*
X548792Y2518867D01*
X543763Y2510942D01*
X540918Y2503576D01*
X539445Y2495753D01*
X539445Y2487828D01*
X540918Y2480005D01*
X543814Y2472639D01*
X547979Y2465882D01*
X553313Y2459990D01*
X559663Y2455214D01*
X566775Y2451709D01*
X574395Y2449525D01*
X582777Y2448763D01*
X722172Y2448763D01*
X730554Y2449525D01*
X738174Y2451709D01*
X749350Y2457043D01*
X753821Y2456891D01*
X757783Y2454910D01*
X760526Y2451404D01*
X761492Y2447036D01*
X761492Y2313635D01*
X760730Y2309774D01*
X758494Y2306472D01*
X693064Y2241042D01*
X689254Y2236266D01*
X686765Y2231034D01*
X685495Y2225395D01*
X685292Y2222195D01*
X685292Y2057958D01*
X686003Y2051659D01*
X687933Y2046173D01*
X690981Y2041296D01*
X695096Y2037181D01*
X699973Y2034133D01*
X705459Y2032203D01*
X711758Y2031492D01*
X1167841Y2031492D01*
X1174140Y2032203D01*
X1179626Y2034133D01*
X1184503Y2037181D01*
X1188618Y2041296D01*
X1191666Y2046173D01*
X1193596Y2051659D01*
X1194308Y2057958D01*
X1194308Y2222195D01*
X1193647Y2228240D01*
X1191717Y2233726D01*
X1188618Y2238654D01*
X1186535Y2241042D01*
X1121105Y2306472D01*
X1118870Y2309774D01*
X1118108Y2313635D01*
X1118108Y2488895D01*
X1117447Y2494838D01*
X1116177Y2499004D01*
X1115720Y2502001D01*
X1115720Y2513888D01*
X1116685Y2518206D01*
X1119428Y2521762D01*
X1123442Y2523744D01*
X1127912Y2523794D01*
X1131976Y2521966D01*
X1134313Y2520238D01*
X1141425Y2516682D01*
X1149045Y2514498D01*
X1157427Y2513736D01*
X1296822Y2513736D01*
X1305204Y2514498D01*
X1312824Y2516682D01*
X1319936Y2520238D01*
X1326286Y2525014D01*
X1331620Y2530856D01*
X1335786Y2537612D01*
X1338681Y2545029D01*
X1340154Y2552852D01*
X1340154Y2560777D01*
X1338681Y2568549D01*
X1335786Y2575966D01*
X1331620Y2582722D01*
X1326286Y2588564D01*
X1319936Y2593390D01*
X1312824Y2596896D01*
X1305204Y2599080D01*
X1296822Y2599842D01*
X1157427Y2599842D01*
X1149045Y2599080D01*
X1141425Y2596896D01*
X1134313Y2593390D01*
X1131976Y2591612D01*
X1127912Y2589784D01*
X1123442Y2589885D01*
X1119428Y2591866D01*
X1116685Y2595372D01*
X1115720Y2599740D01*
X1115720Y2634386D01*
X1116584Y2638552D01*
X1119073Y2641955D01*
X1122781Y2644089D01*
X1126998Y2644495D01*
X1130554Y2644089D01*
X1154176Y2644038D01*
X1157427Y2643733D01*
X1296822Y2643733D01*
X1301038Y2644089D01*
X1502054Y2644190D01*
X1508048Y2645460D01*
X1513332Y2647848D01*
X1518361Y2651709D01*
X1897176Y3016250D01*
X1901189Y3021126D01*
X1903831Y3026308D01*
X1905254Y3032150D01*
X1905507Y3035655D01*
X1905507Y3962095D01*
X1904847Y3968140D01*
X1902917Y3973626D01*
X1899818Y3978554D01*
X1897735Y3980942D01*
X1796542Y4082135D01*
X1791766Y4085945D01*
X1789379Y4087266D01*
X1784857Y4088942D01*
X1781302Y4091279D01*
X1778965Y4094835D01*
X1778304Y4099051D01*
X1778507Y4102404D01*
X1778507Y4457395D01*
X1777847Y4463440D01*
X1775917Y4468926D01*
X1772818Y4473854D01*
X1770735Y4476242D01*
X1415542Y4831435D01*
X1410766Y4835245D01*
X1405534Y4837734D01*
X1399895Y4839004D01*
X1396695Y4839208D01*
X597204Y4839208D01*
X591159Y4838547D01*
X585673Y4836617D01*
X580745Y4833518D01*
X578358Y4831435D01*
X482955Y4735982D01*
X479653Y4733798D01*
X475792Y4733036D01*
X471881Y4733798D01*
X468579Y4735982D01*
X466394Y4739284D01*
X465632Y4743196D01*
X465632Y4901133D01*
X466445Y4905095D01*
X468731Y4908448D01*
X472135Y4910632D01*
X476097Y4911293D01*
X480009Y4910378D01*
X483311Y4907991D01*
X485343Y4904536D01*
X488188Y4896561D01*
X492861Y4888128D01*
X498957Y4880610D01*
X506171Y4874260D01*
X514400Y4869180D01*
X523341Y4865624D01*
X532790Y4863592D01*
X542442Y4863134D01*
X551992Y4864404D01*
X561187Y4867198D01*
X569823Y4871567D01*
X577596Y4877308D01*
X579221Y4878984D01*
X582574Y4881321D01*
X586536Y4882134D01*
X1359509Y4882134D01*
X1367383Y4882896D01*
X1374444Y4885029D01*
X1380998Y4888534D01*
X1387094Y4893564D01*
X1653793Y5160213D01*
X1657299Y5162499D01*
X1671980Y5164378D01*
X1681175Y5167223D01*
X1689811Y5171541D01*
X1697583Y5177282D01*
X1704238Y5184241D01*
X1706473Y5187543D01*
X1709115Y5190236D01*
X1712569Y5191760D01*
X1716328Y5191912D01*
X1719935Y5190693D01*
X1722780Y5188254D01*
X1728927Y5180634D01*
X1736191Y5174234D01*
X1744370Y5169204D01*
X1753362Y5165598D01*
X1762760Y5163566D01*
X1772412Y5163159D01*
X1781962Y5164378D01*
X1789226Y5166614D01*
X1792986Y5167020D01*
X1796643Y5166055D01*
X1799691Y5163820D01*
X1801672Y5160619D01*
X1802384Y5156911D01*
X1802384Y5094833D01*
X1801520Y5090769D01*
X1799132Y5087416D01*
X1795576Y5085232D01*
X1789074Y5082997D01*
X1784197Y5079898D01*
X1780082Y5075834D01*
X1777034Y5070906D01*
X1775104Y5065471D01*
X1774393Y5059121D01*
X1774393Y4973878D01*
X1775104Y4967528D01*
X1776222Y4964379D01*
X1776780Y4961026D01*
X1776780Y4882489D01*
X1777288Y4874056D01*
X1779524Y4863744D01*
X1780184Y4861610D01*
X1783384Y4853940D01*
X1784400Y4851958D01*
X1788769Y4844897D01*
X1790090Y4843119D01*
X1796796Y4835652D01*
X1798726Y4832502D01*
X1799386Y4828895D01*
X1799386Y4800549D01*
X1800047Y4794707D01*
X1799843Y4791202D01*
X1798421Y4787950D01*
X1795983Y4785410D01*
X1792782Y4783836D01*
X1787499Y4782312D01*
X1779371Y4778908D01*
X1777187Y4777790D01*
X1769465Y4773168D01*
X1767484Y4771745D01*
X1760626Y4766056D01*
X1748332Y4753864D01*
X1745030Y4751679D01*
X1741170Y4750917D01*
X1730857Y4750917D01*
X1724558Y4750206D01*
X1719072Y4748276D01*
X1714195Y4745228D01*
X1710080Y4741113D01*
X1707032Y4736236D01*
X1705102Y4730750D01*
X1704390Y4724450D01*
X1704390Y4712004D01*
X1703984Y4709210D01*
X1702816Y4706620D01*
X1697583Y4698288D01*
X1693011Y4687773D01*
X1690065Y4676749D01*
X1688795Y4665370D01*
X1689201Y4653940D01*
X1691335Y4642662D01*
X1695094Y4631893D01*
X1700479Y4621733D01*
X1702409Y4619142D01*
X1703882Y4616246D01*
X1704390Y4613097D01*
X1704390Y4600600D01*
X1705102Y4594250D01*
X1707032Y4588814D01*
X1710080Y4583887D01*
X1714195Y4579823D01*
X1719072Y4576724D01*
X1724558Y4574794D01*
X1730857Y4574082D01*
X1799742Y4574082D01*
X1806041Y4574794D01*
X1811528Y4576724D01*
X1816404Y4579823D01*
X1820519Y4583887D01*
X1823567Y4588814D01*
X1825498Y4594250D01*
X1826209Y4600600D01*
X1826209Y4610862D01*
X1826971Y4614722D01*
X1829206Y4618024D01*
X1841550Y4630420D01*
X1844852Y4632604D01*
X1848713Y4633366D01*
X1952294Y4633366D01*
X1955647Y4632807D01*
X1958644Y4631182D01*
X1960880Y4628642D01*
X1963166Y4625035D01*
X1967230Y4620920D01*
X1972157Y4617872D01*
X1977593Y4615942D01*
X1983943Y4615230D01*
X2096058Y4615230D01*
X2102358Y4615942D01*
X2107844Y4617872D01*
X2112721Y4620920D01*
X2116836Y4625035D01*
X2119884Y4629912D01*
X2121814Y4635398D01*
X2122525Y4641697D01*
X2122525Y4778248D01*
X2121814Y4784598D01*
X2119884Y4790033D01*
X2116836Y4794961D01*
X2112721Y4799025D01*
X2107844Y4802124D01*
X2102358Y4804054D01*
X2096058Y4804765D01*
X1983943Y4804765D01*
X1977593Y4804054D01*
X1972157Y4802124D01*
X1967230Y4799025D01*
X1963166Y4794961D01*
X1960880Y4791354D01*
X1958644Y4788814D01*
X1955647Y4787188D01*
X1952294Y4786630D01*
X1931009Y4786630D01*
X1926843Y4787493D01*
X1923440Y4789982D01*
X1921306Y4793691D01*
X1920900Y4797907D01*
X1921205Y4800549D01*
X1921205Y4842713D01*
X1921611Y4845608D01*
X1922780Y4849418D01*
X1924050Y4859883D01*
X1923643Y4870399D01*
X1921408Y4880914D01*
X1921205Y4882997D01*
X1921205Y4924399D01*
X1920493Y4930749D01*
X1918563Y4936185D01*
X1915515Y4941112D01*
X1911400Y4945176D01*
X1909267Y4946548D01*
X1906727Y4948834D01*
X1905050Y4951831D01*
X1904492Y4955184D01*
X1904492Y4961128D01*
X1905050Y4964480D01*
X1906168Y4967528D01*
X1906879Y4973878D01*
X1906879Y5059121D01*
X1906168Y5065471D01*
X1904238Y5070906D01*
X1901139Y5075834D01*
X1897075Y5079898D01*
X1892147Y5082997D01*
X1885899Y5085181D01*
X1882343Y5087315D01*
X1879955Y5090718D01*
X1879092Y5094782D01*
X1879092Y5958840D01*
X1878330Y5966815D01*
X1876247Y5973673D01*
X1875840Y5977432D01*
X1876806Y5981090D01*
X1879041Y5984087D01*
X1882241Y5986068D01*
X1885950Y5986780D01*
X2057907Y5986780D01*
X2064257Y5987491D01*
X2069693Y5989421D01*
X2074621Y5992520D01*
X2078685Y5996584D01*
X2081784Y6001512D01*
X2083714Y6006947D01*
X2084425Y6013246D01*
X2084425Y6192113D01*
X2083714Y6198463D01*
X2081784Y6203899D01*
X2078685Y6208826D01*
X2074621Y6212890D01*
X2069693Y6215989D01*
X2064257Y6217920D01*
X2057907Y6218631D01*
X2034286Y6218631D01*
X2030069Y6219494D01*
X2026615Y6222085D01*
X2024583Y6225844D01*
X2024227Y6230112D01*
X2025700Y6234176D01*
X2028088Y6237986D01*
X2030018Y6243421D01*
X2030730Y6249771D01*
X2030730Y6348628D01*
X2030018Y6354927D01*
X2028088Y6360414D01*
X2024989Y6365290D01*
X2020925Y6369405D01*
X2015998Y6372504D01*
X2010562Y6374384D01*
X2004212Y6375095D01*
X1930349Y6375095D01*
X1924050Y6374384D01*
X1918563Y6372504D01*
X1913686Y6369405D01*
X1909572Y6365290D01*
X1906524Y6360414D01*
X1904593Y6354927D01*
X1903882Y6348628D01*
X1903882Y6249771D01*
X1904593Y6243421D01*
X1906524Y6237986D01*
X1908911Y6234176D01*
X1910384Y6230112D01*
X1910029Y6225844D01*
X1907946Y6222085D01*
X1904492Y6219494D01*
X1900326Y6218631D01*
X1884273Y6218631D01*
X1880107Y6219494D01*
X1876653Y6222085D01*
X1874570Y6225844D01*
X1874215Y6230112D01*
X1875688Y6234176D01*
X1878075Y6237986D01*
X1880006Y6243421D01*
X1880717Y6249771D01*
X1880717Y6348628D01*
X1880006Y6354927D01*
X1878075Y6360414D01*
X1875028Y6365290D01*
X1870913Y6369405D01*
X1867560Y6371488D01*
X1865020Y6373774D01*
X1863394Y6376771D01*
X1862785Y6380124D01*
X1862785Y6424218D01*
X1863598Y6428130D01*
X1865782Y6431432D01*
X1945893Y6511493D01*
X1949145Y6513728D01*
X1953056Y6514490D01*
X2362809Y6514490D01*
X2369870Y6515049D01*
X2377338Y6514896D01*
X2386990Y6516166D01*
X2396236Y6518960D01*
X2404821Y6523329D01*
X2412593Y6529070D01*
X2419299Y6536029D01*
X2424684Y6544005D01*
X2428646Y6552793D01*
X2431084Y6562140D01*
X2431897Y6571742D01*
X2431084Y6581343D01*
X2428646Y6590690D01*
X2424684Y6599478D01*
X2419299Y6607454D01*
X2412593Y6614414D01*
X2404821Y6620154D01*
X2396236Y6624523D01*
X2386990Y6627317D01*
X2377440Y6628587D01*
X2367788Y6628130D01*
X2358390Y6626098D01*
X2349398Y6622542D01*
X2341219Y6617462D01*
X2333955Y6611112D01*
X2332482Y6609283D01*
X2328976Y6606489D01*
X2324608Y6605473D01*
X1928266Y6605473D01*
X1919579Y6604253D01*
X1911654Y6601561D01*
X1904288Y6597497D01*
X1897481Y6591858D01*
X1783892Y6478219D01*
X1778660Y6471208D01*
X1774901Y6463690D01*
X1772615Y6455613D01*
X1771802Y6446824D01*
X1771802Y6380124D01*
X1771192Y6376771D01*
X1769567Y6373774D01*
X1767027Y6371488D01*
X1763674Y6369405D01*
X1759610Y6365290D01*
X1756511Y6360414D01*
X1754581Y6354927D01*
X1753870Y6348628D01*
X1753870Y6249771D01*
X1754581Y6243421D01*
X1756511Y6237986D01*
X1759610Y6233109D01*
X1763674Y6228994D01*
X1768602Y6225895D01*
X1774037Y6224016D01*
X1780387Y6223304D01*
X1849018Y6223304D01*
X1853184Y6222390D01*
X1856638Y6219799D01*
X1858721Y6216040D01*
X1859076Y6211773D01*
X1857603Y6207709D01*
X1855216Y6203899D01*
X1853285Y6198463D01*
X1852574Y6192113D01*
X1852574Y6150711D01*
X1851812Y6146850D01*
X1849628Y6143548D01*
X1846325Y6141313D01*
X1842414Y6140551D01*
X1835607Y6140856D01*
X1831187Y6142736D01*
X1821992Y6145580D01*
X1812442Y6146800D01*
X1802790Y6146393D01*
X1793341Y6144361D01*
X1784400Y6140754D01*
X1776171Y6135725D01*
X1768957Y6129324D01*
X1762861Y6121806D01*
X1758543Y6114084D01*
X1756156Y6111189D01*
X1752904Y6109360D01*
X1749196Y6108852D01*
X1745589Y6109716D01*
X1742490Y6111849D01*
X1280109Y6574231D01*
X1277924Y6577482D01*
X1277162Y6581394D01*
X1277924Y6585254D01*
X1280109Y6588556D01*
X1283411Y6590792D01*
X1287322Y6591553D01*
X1819402Y6591553D01*
X1827377Y6592316D01*
X1834591Y6594500D01*
X1841195Y6598056D01*
X1847392Y6603136D01*
X1903171Y6658914D01*
X1906473Y6661099D01*
X1910334Y6661912D01*
X1945639Y6661912D01*
X1951939Y6662623D01*
X1957425Y6664502D01*
X1962302Y6667601D01*
X1966417Y6671665D01*
X1969465Y6676593D01*
X1971395Y6682028D01*
X1972106Y6688378D01*
X1972106Y6773621D01*
X1971395Y6779971D01*
X1970278Y6783120D01*
X1969719Y6786473D01*
X1969719Y6898792D01*
X1969211Y6907225D01*
X1965909Y6922414D01*
X1965909Y6961936D01*
X1965198Y6968236D01*
X1963267Y6973722D01*
X1960219Y6978599D01*
X1956104Y6982714D01*
X1951228Y6985762D01*
X1945741Y6987692D01*
X1939442Y6988403D01*
X1870557Y6988403D01*
X1864258Y6987692D01*
X1858772Y6985762D01*
X1853895Y6982714D01*
X1849780Y6978599D01*
X1846732Y6973722D01*
X1844802Y6968236D01*
X1844090Y6961936D01*
X1844090Y6919772D01*
X1843684Y6916877D01*
X1842516Y6913067D01*
X1842211Y6910425D01*
X1840738Y6906310D01*
X1837740Y6903161D01*
X1833676Y6901637D01*
X1829358Y6901891D01*
X1825498Y6903923D01*
X1822907Y6907428D01*
X1821942Y6911644D01*
X1821942Y6953758D01*
X1821230Y6960057D01*
X1819351Y6965543D01*
X1816252Y6970420D01*
X1812188Y6974535D01*
X1807260Y6977583D01*
X1801825Y6979513D01*
X1795475Y6980224D01*
X1658924Y6980224D01*
X1652574Y6979513D01*
X1647139Y6977583D01*
X1638655Y6972046D01*
X1634744Y6971233D01*
X1562252Y6971233D01*
X1557883Y6972249D01*
X1554378Y6975043D01*
X1552397Y6979056D01*
X1552346Y6983577D01*
X1554226Y6987641D01*
X1557680Y6990486D01*
X1559814Y6991553D01*
X1567586Y6997293D01*
X1574241Y7004253D01*
X1579626Y7012279D01*
X1583639Y7021068D01*
X1586026Y7030364D01*
X1586890Y7039965D01*
X1586026Y7049617D01*
X1583639Y7058914D01*
X1579626Y7067702D01*
X1574241Y7075728D01*
X1567586Y7082688D01*
X1562455Y7086447D01*
X1560271Y7088682D01*
X1558848Y7091527D01*
X1558340Y7094626D01*
X1558340Y7139482D01*
X1557578Y7147458D01*
X1555394Y7154621D01*
X1551838Y7161275D01*
X1546758Y7167473D01*
X1376832Y7337348D01*
X1370685Y7342479D01*
X1364030Y7345984D01*
X1356868Y7348169D01*
X1348892Y7348981D01*
X1298143Y7348981D01*
X1294536Y7349591D01*
X1291437Y7351471D01*
X1289151Y7354316D01*
X1284071Y7363917D01*
X1276197Y7374839D01*
X1266901Y7384643D01*
X1256436Y7393127D01*
X1244904Y7400137D01*
X1232560Y7405522D01*
X1214882Y7410450D01*
X1212240Y7412329D01*
X1160018Y7464552D01*
X1157833Y7467853D01*
X1157020Y7471765D01*
X1157020Y7489647D01*
X1156208Y7501585D01*
X1153718Y7513015D01*
X1149654Y7523937D01*
X1144066Y7534148D01*
X1142136Y7536738D01*
X1140663Y7539481D01*
X1138936Y7544409D01*
X1135837Y7549286D01*
X1131773Y7553401D01*
X1126845Y7556449D01*
X1118006Y7559548D01*
X1109268Y7564272D01*
X1098346Y7568336D01*
X1086967Y7570825D01*
X1075334Y7571689D01*
X1063701Y7570825D01*
X1052322Y7568336D01*
X1041400Y7564272D01*
X1032713Y7559548D01*
X1023772Y7556449D01*
X1018895Y7553401D01*
X1014780Y7549286D01*
X1011732Y7544409D01*
X1009954Y7539380D01*
X1008532Y7536688D01*
X1006602Y7534148D01*
X1001014Y7523937D01*
X996950Y7513015D01*
X994460Y7501585D01*
X993648Y7489647D01*
X993648Y7433868D01*
X993851Y7427874D01*
X994460Y7422083D01*
X995476Y7416342D01*
X996950Y7410653D01*
X998778Y7405116D01*
X1001014Y7399731D01*
X1003604Y7394549D01*
X1006602Y7389520D01*
X1009903Y7384745D01*
X1013612Y7380173D01*
X1017676Y7375804D01*
X1096721Y7296708D01*
X1098600Y7294168D01*
X1099616Y7291120D01*
X1100023Y7288275D01*
X1103884Y7275372D01*
X1109421Y7263079D01*
X1116533Y7251649D01*
X1125118Y7241286D01*
X1135024Y7232142D01*
X1146048Y7224369D01*
X1157986Y7218172D01*
X1170686Y7213600D01*
X1183843Y7210755D01*
X1197305Y7209739D01*
X1210767Y7210450D01*
X1223975Y7212990D01*
X1236776Y7217308D01*
X1248867Y7223252D01*
X1260043Y7230719D01*
X1270152Y7239660D01*
X1278991Y7249871D01*
X1286357Y7261148D01*
X1288897Y7266482D01*
X1291132Y7269530D01*
X1294333Y7271562D01*
X1298041Y7272223D01*
X1329283Y7272223D01*
X1333195Y7271461D01*
X1336446Y7269276D01*
X1478686Y7127087D01*
X1480870Y7123785D01*
X1481632Y7119874D01*
X1481632Y7072274D01*
X1481328Y7069734D01*
X1480362Y7067296D01*
X1478178Y7063435D01*
X1474978Y7054342D01*
X1473352Y7044791D01*
X1473352Y7035190D01*
X1474978Y7025640D01*
X1478178Y7016546D01*
X1482852Y7008164D01*
X1488948Y7000646D01*
X1496161Y6994245D01*
X1502968Y6990080D01*
X1506118Y6987031D01*
X1507693Y6983018D01*
X1507439Y6978650D01*
X1505407Y6974840D01*
X1501902Y6972198D01*
X1497685Y6971233D01*
X1344371Y6971233D01*
X1340205Y6972147D01*
X1336751Y6974687D01*
X1334668Y6978345D01*
X1334262Y6982612D01*
X1335633Y6986625D01*
X1338529Y6989724D01*
X1342440Y6991400D01*
X1350975Y6993026D01*
X1363776Y6997293D01*
X1375867Y7003237D01*
X1387043Y7010755D01*
X1397152Y7019696D01*
X1405991Y7029856D01*
X1413357Y7041134D01*
X1419148Y7053325D01*
X1423314Y7066127D01*
X1425702Y7079386D01*
X1426260Y7092848D01*
X1425092Y7106310D01*
X1422095Y7119416D01*
X1417421Y7132066D01*
X1411071Y7143953D01*
X1403197Y7154875D01*
X1393901Y7164679D01*
X1383436Y7173163D01*
X1371904Y7180122D01*
X1359560Y7185558D01*
X1346606Y7189266D01*
X1333296Y7191197D01*
X1319784Y7191349D01*
X1306423Y7189673D01*
X1293418Y7186269D01*
X1280922Y7181138D01*
X1269288Y7174433D01*
X1258570Y7166203D01*
X1249121Y7156602D01*
X1240993Y7145832D01*
X1234389Y7134098D01*
X1229410Y7121601D01*
X1226159Y7108494D01*
X1224635Y7095134D01*
X1224940Y7081621D01*
X1227023Y7068312D01*
X1230884Y7055408D01*
X1236421Y7043115D01*
X1243533Y7031685D01*
X1252118Y7021322D01*
X1262024Y7012127D01*
X1273048Y7004405D01*
X1284986Y6998208D01*
X1297686Y6993636D01*
X1308303Y6991350D01*
X1312164Y6989622D01*
X1314958Y6986473D01*
X1316278Y6982459D01*
X1315821Y6978294D01*
X1313688Y6974636D01*
X1310284Y6972147D01*
X1306169Y6971233D01*
X1250696Y6971233D01*
X1246835Y6972046D01*
X1243533Y6974230D01*
X1228953Y6988759D01*
X1226972Y6991654D01*
X1226058Y6995058D01*
X1225245Y7003796D01*
X1222298Y7016953D01*
X1217574Y7029551D01*
X1211224Y7041438D01*
X1203350Y7052411D01*
X1194104Y7062165D01*
X1183589Y7070648D01*
X1172108Y7077659D01*
X1159764Y7083044D01*
X1146810Y7086752D01*
X1133449Y7088682D01*
X1119987Y7088835D01*
X1106627Y7087209D01*
X1093571Y7083806D01*
X1081125Y7078675D01*
X1069441Y7071918D01*
X1058773Y7063689D01*
X1049274Y7054088D01*
X1041196Y7043369D01*
X1034643Y7031786D01*
X1031951Y7028688D01*
X1028293Y7026909D01*
X1024178Y7026706D01*
X1020318Y7028180D01*
X1017371Y7031075D01*
X1014272Y7035698D01*
X1007567Y7042658D01*
X999794Y7048398D01*
X991209Y7052767D01*
X981964Y7055561D01*
X967282Y7057440D01*
X963777Y7059726D01*
X750824Y7272680D01*
X748639Y7275982D01*
X747877Y7279894D01*
X747877Y7329474D01*
X747064Y7337348D01*
X744931Y7344460D01*
X741426Y7350963D01*
X736396Y7357109D01*
X720852Y7372705D01*
X718616Y7376007D01*
X717854Y7379868D01*
X717854Y7577277D01*
X718261Y7580071D01*
X721004Y7585202D01*
X722884Y7590637D01*
X723595Y7596987D01*
X723595Y7670850D01*
X722884Y7677150D01*
X721004Y7682636D01*
X717905Y7687513D01*
X713790Y7691628D01*
X708914Y7694675D01*
X703478Y7696606D01*
X697128Y7697317D01*
X598271Y7697317D01*
X591972Y7696606D01*
X586486Y7694675D01*
X581609Y7691628D01*
X577494Y7687513D01*
X574395Y7682636D01*
X572516Y7677150D01*
X571804Y7670850D01*
X571804Y7596987D01*
X572516Y7590637D01*
X574395Y7585202D01*
X577494Y7580274D01*
X581609Y7576210D01*
X586486Y7573111D01*
X591972Y7571181D01*
X598271Y7570470D01*
X632002Y7570470D01*
X635863Y7569708D01*
X639165Y7567523D01*
X641350Y7564221D01*
X642162Y7560309D01*
X642162Y7501077D01*
X641350Y7497165D01*
X639165Y7493863D01*
X635863Y7491679D01*
X632002Y7490917D01*
X570585Y7490917D01*
X564235Y7490206D01*
X558800Y7488275D01*
X553872Y7485176D01*
X549808Y7481112D01*
X546709Y7476185D01*
X544830Y7470749D01*
X544372Y7466838D01*
X543306Y7463332D01*
X541070Y7460437D01*
X537921Y7458506D01*
X534263Y7457846D01*
X531368Y7457846D01*
X527456Y7458608D01*
X524205Y7460792D01*
X521970Y7464094D01*
X521208Y7468006D01*
X521258Y7492187D01*
X525729Y7536891D01*
X525678Y7542834D01*
X524408Y7548524D01*
X521868Y7553756D01*
X517906Y7558684D01*
X498500Y7578090D01*
X493776Y7581900D01*
X488543Y7584440D01*
X482904Y7585709D01*
X479704Y7585913D01*
X220573Y7585913D01*
X214223Y7585202D01*
X208330Y7583119D01*
X196037Y7576972D01*
X191465Y7575905D01*
X175971Y7575905D01*
X171754Y7576820D01*
X168300Y7579410D01*
X166217Y7583220D01*
X165912Y7587589D01*
X167487Y7591602D01*
X170586Y7594650D01*
X176072Y7598105D01*
X180136Y7602169D01*
X183235Y7607096D01*
X185115Y7612532D01*
X185826Y7618882D01*
X185826Y7645755D01*
X185115Y7652054D01*
X183235Y7657490D01*
X180136Y7662418D01*
X176072Y7666481D01*
X171145Y7669580D01*
X165709Y7671511D01*
X159359Y7672222D01*
X100076Y7672222D01*
X96164Y7672984D01*
X92862Y7675168D01*
X90678Y7678470D01*
X89916Y7682382D01*
X89966Y7699451D01*
X90932Y7709052D01*
X90932Y7836204D01*
X90068Y7844637D01*
X86563Y7856321D01*
X87122Y7860436D01*
X89255Y7864043D01*
X92659Y7866430D01*
X96723Y7867294D01*
X390601Y7867294D01*
X461772Y7866329D01*
X532638Y7863382D01*
X576834Y7860334D01*
X580898Y7859166D01*
X584149Y7856474D01*
X585978Y7852664D01*
X586181Y7848447D01*
X584606Y7844536D01*
X577494Y7837525D01*
X574395Y7832598D01*
X572516Y7827162D01*
X571804Y7820812D01*
X571804Y7746949D01*
X572516Y7740650D01*
X574395Y7735163D01*
X577494Y7730286D01*
X581609Y7726172D01*
X586486Y7723124D01*
X591972Y7721193D01*
X598271Y7720482D01*
X642162Y7720482D01*
X648665Y7719974D01*
X769620Y7720990D01*
X773531Y7720228D01*
X776884Y7717993D01*
X791768Y7703108D01*
X794004Y7699806D01*
X794766Y7695895D01*
X794766Y7588554D01*
X795477Y7582255D01*
X797407Y7576769D01*
X800455Y7571892D01*
X804570Y7567777D01*
X809447Y7564729D01*
X814933Y7562799D01*
X821232Y7562088D01*
X950163Y7562088D01*
X956462Y7562799D01*
X961948Y7564729D01*
X966825Y7567777D01*
X970940Y7571892D01*
X973988Y7576769D01*
X975918Y7582255D01*
X976630Y7588554D01*
X976630Y7727391D01*
X975918Y7733690D01*
X973988Y7739176D01*
X970940Y7744053D01*
X966825Y7748168D01*
X961948Y7751216D01*
X956462Y7753146D01*
X950163Y7753858D01*
X925880Y7753858D01*
X921969Y7754620D01*
X918667Y7756855D01*
X872693Y7802829D01*
X870407Y7806385D01*
X869746Y7810601D01*
X870864Y7814716D01*
X873607Y7817967D01*
X877417Y7819847D01*
X881684Y7819999D01*
X953719Y7804962D01*
X1022756Y7788503D01*
X1091234Y7770114D01*
X1159256Y7749895D01*
X1226616Y7727746D01*
X1293418Y7703820D01*
X1359458Y7678013D01*
X1424838Y7650429D01*
X1489405Y7621016D01*
X1553108Y7589875D01*
X1615948Y7556957D01*
X1677873Y7522362D01*
X1738782Y7486040D01*
X1798726Y7448042D01*
X1857552Y7408468D01*
X1915261Y7367219D01*
X1971852Y7324445D01*
X2027224Y7280097D01*
X2081326Y7234224D01*
X2134158Y7186930D01*
X2185720Y7138162D01*
X2235860Y7088022D01*
X2284628Y7036460D01*
X2331923Y6983628D01*
X2377744Y6929475D01*
X2422093Y6874103D01*
X2464866Y6817563D01*
X2506116Y6759803D01*
X2545689Y6700977D01*
X2583688Y6641084D01*
X2620010Y6580124D01*
X2654604Y6518198D01*
X2687523Y6455359D01*
X2718663Y6391656D01*
X2748026Y6327089D01*
X2775610Y6261709D01*
X2801416Y6195618D01*
X2825343Y6128867D01*
X2847441Y6061456D01*
X2867710Y5993485D01*
X2886049Y5924956D01*
X2902508Y5855970D01*
X2917088Y5786526D01*
X2929686Y5716727D01*
X2940405Y5646623D01*
X2949194Y5576214D01*
X2956001Y5505602D01*
X2960878Y5434838D01*
X2963824Y5363972D01*
X2964789Y5292953D01*
X2964789Y4529277D01*
X2964027Y4525365D01*
X2961792Y4522063D01*
X2958541Y4519879D01*
X2954629Y4519117D01*
X2772359Y4519117D01*
X2768498Y4519879D01*
X2765196Y4522063D01*
X2763012Y4525365D01*
X2762199Y4529277D01*
X2763012Y4533138D01*
X2765196Y4536440D01*
X2845917Y4617262D01*
X2851658Y4624171D01*
X2853080Y4626203D01*
X2857703Y4633874D01*
X2858820Y4636109D01*
X2861716Y4643120D01*
X2863951Y4646472D01*
X2865729Y4648250D01*
X2873908Y4658918D01*
X2880614Y4670602D01*
X2885694Y4683099D01*
X2889046Y4696155D01*
X2890672Y4709515D01*
X2890469Y4723028D01*
X2888488Y4736338D01*
X2884728Y4749292D01*
X2879293Y4761636D01*
X2872232Y4773117D01*
X2863748Y4783582D01*
X2853944Y4792776D01*
X2842971Y4800600D01*
X2831033Y4806950D01*
X2818434Y4811572D01*
X2805277Y4814519D01*
X2791815Y4815687D01*
X2778353Y4815027D01*
X2765094Y4812588D01*
X2752293Y4808423D01*
X2740152Y4802581D01*
X2728925Y4795164D01*
X2718765Y4786325D01*
X2709875Y4776165D01*
X2702407Y4764938D01*
X2696464Y4752848D01*
X2692247Y4740046D01*
X2689758Y4726787D01*
X2689047Y4713376D01*
X2690164Y4699914D01*
X2692857Y4687417D01*
X2693060Y4684064D01*
X2692095Y4680813D01*
X2690114Y4678070D01*
X2650947Y4638903D01*
X2647645Y4636668D01*
X2643733Y4635906D01*
X2610916Y4635906D01*
X2607056Y4636668D01*
X2603754Y4638903D01*
X2601518Y4642205D01*
X2600756Y4646066D01*
X2601569Y4649978D01*
X2603754Y4653280D01*
X2612085Y4661509D01*
X2620264Y4672228D01*
X2626969Y4683912D01*
X2632049Y4696409D01*
X2635402Y4709464D01*
X2637028Y4722825D01*
X2636824Y4736287D01*
X2634843Y4749647D01*
X2631084Y4762601D01*
X2625648Y4774895D01*
X2618587Y4786376D01*
X2610104Y4796840D01*
X2600299Y4806086D01*
X2589326Y4813909D01*
X2577388Y4820208D01*
X2564739Y4824882D01*
X2551633Y4827828D01*
X2538171Y4828946D01*
X2524709Y4828336D01*
X2511450Y4825898D01*
X2498648Y4821732D01*
X2486507Y4815840D01*
X2475280Y4808474D01*
X2465120Y4799584D01*
X2456180Y4789474D01*
X2448763Y4778248D01*
X2442819Y4766157D01*
X2438603Y4753356D01*
X2436114Y4740097D01*
X2435402Y4726635D01*
X2436520Y4713224D01*
X2439365Y4700066D01*
X2443988Y4687366D01*
X2450236Y4675428D01*
X2458008Y4664456D01*
X2467203Y4654600D01*
X2470607Y4650689D01*
X2471724Y4646726D01*
X2471115Y4642662D01*
X2468981Y4639106D01*
X2465628Y4636770D01*
X2461564Y4635906D01*
X2426614Y4635906D01*
X2422753Y4636668D01*
X2419451Y4638903D01*
X2325522Y4732832D01*
X2323287Y4736134D01*
X2322525Y4739995D01*
X2322525Y4778248D01*
X2321814Y4784598D01*
X2319934Y4790033D01*
X2316835Y4794961D01*
X2312720Y4799025D01*
X2307844Y4802124D01*
X2302357Y4804054D01*
X2296058Y4804765D01*
X2183942Y4804765D01*
X2177643Y4804054D01*
X2172157Y4802124D01*
X2167280Y4799025D01*
X2163165Y4794961D01*
X2160066Y4790033D01*
X2158187Y4784598D01*
X2157476Y4778248D01*
X2157476Y4641697D01*
X2158187Y4635398D01*
X2160066Y4629912D01*
X2163165Y4625035D01*
X2167280Y4620920D01*
X2172157Y4617872D01*
X2177643Y4615942D01*
X2183942Y4615230D01*
X2222195Y4615230D01*
X2226106Y4614468D01*
X2229408Y4612233D01*
X2305202Y4536440D01*
X2307386Y4533138D01*
X2308199Y4529277D01*
X2307386Y4525365D01*
X2305202Y4522063D01*
X2301900Y4519879D01*
X2298039Y4519117D01*
X2291334Y4519117D01*
X2284831Y4518304D01*
X2279294Y4516221D01*
X2274163Y4512665D01*
X2271115Y4509617D01*
X2268474Y4506061D01*
X2265984Y4500524D01*
X2264816Y4493056D01*
X2264816Y793800D01*
X2265578Y787349D01*
X2267661Y781812D01*
X2271217Y776681D01*
X2274265Y773633D01*
X2277872Y770991D01*
X2283409Y768502D01*
X2290876Y767283D01*
X2954629Y767283D01*
X2958541Y766521D01*
X2961792Y764336D01*
X2964027Y761034D01*
X2964789Y757123D01*
X2964789Y29260D01*
X2964027Y25400D01*
X2961792Y22098D01*
X2958541Y19862D01*
X2954629Y19100D01*
G37*

%LPC*%
G36*
X-619607Y264769D02*
G01*
X-340766Y264769D01*
X-334467Y265480D01*
X-328980Y267411D01*
X-324104Y270510D01*
X-319989Y274574D01*
X-316941Y279501D01*
X-315010Y284937D01*
X-314299Y291287D01*
X-314299Y390144D01*
X-315010Y396443D01*
X-316941Y401929D01*
X-319989Y406806D01*
X-324104Y410921D01*
X-328980Y413969D01*
X-334467Y415899D01*
X-340766Y416610D01*
X-619607Y416610D01*
X-625957Y415899D01*
X-631393Y413969D01*
X-636320Y410921D01*
X-640384Y406806D01*
X-643483Y401929D01*
X-645414Y396443D01*
X-646125Y390144D01*
X-646125Y291287D01*
X-645414Y284937D01*
X-643483Y279501D01*
X-640384Y274574D01*
X-636320Y270510D01*
X-631393Y267411D01*
X-625957Y265480D01*
G37*
G36*
X-619607Y1259789D02*
G01*
X-340766Y1259789D01*
X-334467Y1260500D01*
X-328980Y1262430D01*
X-324104Y1265478D01*
X-319989Y1269593D01*
X-316941Y1274470D01*
X-315010Y1279956D01*
X-314299Y1286256D01*
X-314299Y1385112D01*
X-315010Y1391462D01*
X-316941Y1396898D01*
X-319989Y1401826D01*
X-324104Y1405890D01*
X-328980Y1408988D01*
X-334467Y1410868D01*
X-340766Y1411579D01*
X-619607Y1411579D01*
X-625957Y1410868D01*
X-631393Y1408988D01*
X-636320Y1405890D01*
X-640384Y1401826D01*
X-643483Y1396898D01*
X-645414Y1391462D01*
X-646125Y1385112D01*
X-646125Y1286256D01*
X-645414Y1279956D01*
X-643483Y1274470D01*
X-640384Y1269593D01*
X-636320Y1265478D01*
X-631393Y1262430D01*
X-625957Y1260500D01*
G37*
G36*
X1634286Y1611782D02*
G01*
X1650339Y1612239D01*
X1666290Y1614525D01*
X1681835Y1618589D01*
X1696821Y1624431D01*
X1711045Y1631950D01*
X1724355Y1641043D01*
X1736496Y1651558D01*
X1747367Y1663395D01*
X1756816Y1676450D01*
X1764741Y1690420D01*
X1770989Y1705254D01*
X1775510Y1720697D01*
X1778254Y1736547D01*
X1779168Y1752600D01*
X1778254Y1768652D01*
X1775510Y1784502D01*
X1770989Y1799945D01*
X1764741Y1814779D01*
X1756816Y1828749D01*
X1747367Y1841804D01*
X1736496Y1853641D01*
X1724355Y1864156D01*
X1711045Y1873250D01*
X1696821Y1880768D01*
X1681835Y1886610D01*
X1666290Y1890674D01*
X1650339Y1892960D01*
X1634286Y1893417D01*
X1618234Y1892046D01*
X1602486Y1888845D01*
X1587195Y1883867D01*
X1572564Y1877212D01*
X1558798Y1868881D01*
X1546047Y1859076D01*
X1534515Y1847850D01*
X1524304Y1835404D01*
X1515618Y1821891D01*
X1508506Y1807464D01*
X1503121Y1792274D01*
X1499463Y1776628D01*
X1497634Y1760626D01*
X1497634Y1744573D01*
X1499463Y1728571D01*
X1503121Y1712925D01*
X1508506Y1697736D01*
X1515618Y1683308D01*
X1524304Y1669796D01*
X1534515Y1657350D01*
X1546047Y1646123D01*
X1558798Y1636318D01*
X1572564Y1627987D01*
X1587195Y1621282D01*
X1602486Y1616354D01*
X1618234Y1613154D01*
G37*
G36*
X2066086Y1700682D02*
G01*
X2082139Y1701139D01*
X2098090Y1703425D01*
X2113635Y1707489D01*
X2128621Y1713331D01*
X2142845Y1720850D01*
X2156155Y1729943D01*
X2168296Y1740458D01*
X2179167Y1752295D01*
X2188616Y1765350D01*
X2196541Y1779320D01*
X2202789Y1794154D01*
X2207310Y1809597D01*
X2210054Y1825447D01*
X2210968Y1841500D01*
X2210054Y1857552D01*
X2207310Y1873402D01*
X2202789Y1888845D01*
X2196541Y1903679D01*
X2188616Y1917649D01*
X2179167Y1930704D01*
X2168296Y1942541D01*
X2156155Y1953056D01*
X2142845Y1962150D01*
X2128621Y1969668D01*
X2113635Y1975510D01*
X2098090Y1979574D01*
X2082139Y1981860D01*
X2066086Y1982317D01*
X2050034Y1980946D01*
X2034286Y1977745D01*
X2018995Y1972767D01*
X2004364Y1966112D01*
X1990598Y1957781D01*
X1977847Y1947976D01*
X1966315Y1936750D01*
X1956104Y1924304D01*
X1947418Y1910791D01*
X1940306Y1896364D01*
X1934921Y1881174D01*
X1931263Y1865528D01*
X1929434Y1849526D01*
X1929434Y1833473D01*
X1931263Y1817471D01*
X1934921Y1801825D01*
X1940306Y1786636D01*
X1947418Y1772208D01*
X1956104Y1758696D01*
X1966315Y1746250D01*
X1977847Y1735023D01*
X1990598Y1725218D01*
X2004364Y1716887D01*
X2018995Y1710182D01*
X2034286Y1705254D01*
X2050034Y1702054D01*
G37*
G36*
X2078786Y3300882D02*
G01*
X2094839Y3301339D01*
X2110790Y3303625D01*
X2126335Y3307689D01*
X2141321Y3313531D01*
X2155545Y3321050D01*
X2168855Y3330143D01*
X2180996Y3340658D01*
X2191867Y3352495D01*
X2201316Y3365550D01*
X2209241Y3379520D01*
X2215489Y3394354D01*
X2220010Y3409797D01*
X2222754Y3425647D01*
X2223668Y3441700D01*
X2222754Y3457752D01*
X2220010Y3473602D01*
X2215489Y3489045D01*
X2209241Y3503879D01*
X2201316Y3517849D01*
X2191867Y3530904D01*
X2180996Y3542741D01*
X2168855Y3553256D01*
X2155545Y3562350D01*
X2141321Y3569868D01*
X2126335Y3575710D01*
X2110790Y3579774D01*
X2094839Y3582060D01*
X2078786Y3582517D01*
X2062734Y3581146D01*
X2046986Y3577945D01*
X2031695Y3572967D01*
X2017064Y3566312D01*
X2003298Y3557981D01*
X1990547Y3548176D01*
X1979015Y3536950D01*
X1968804Y3524504D01*
X1960118Y3510991D01*
X1953006Y3496564D01*
X1947621Y3481374D01*
X1943963Y3465728D01*
X1942134Y3449726D01*
X1942134Y3433673D01*
X1943963Y3417671D01*
X1947621Y3402025D01*
X1953006Y3386836D01*
X1960118Y3372408D01*
X1968804Y3358896D01*
X1979015Y3346450D01*
X1990547Y3335223D01*
X2003298Y3325418D01*
X2017064Y3317087D01*
X2031695Y3310382D01*
X2046986Y3305454D01*
X2062734Y3302254D01*
G37*
G36*
X-1477213Y3300882D02*
G01*
X-1461160Y3301339D01*
X-1445209Y3303625D01*
X-1429664Y3307689D01*
X-1414678Y3313531D01*
X-1400454Y3321050D01*
X-1387144Y3330143D01*
X-1375003Y3340658D01*
X-1364132Y3352495D01*
X-1354683Y3365550D01*
X-1346758Y3379520D01*
X-1340510Y3394354D01*
X-1335989Y3409797D01*
X-1333246Y3425647D01*
X-1332331Y3441700D01*
X-1333246Y3457752D01*
X-1335989Y3473602D01*
X-1340510Y3489045D01*
X-1346758Y3503879D01*
X-1354683Y3517849D01*
X-1364132Y3530904D01*
X-1375003Y3542741D01*
X-1387144Y3553256D01*
X-1400454Y3562350D01*
X-1414678Y3569868D01*
X-1429664Y3575710D01*
X-1445209Y3579774D01*
X-1461160Y3582060D01*
X-1477213Y3582517D01*
X-1493266Y3581146D01*
X-1509014Y3577945D01*
X-1524304Y3572967D01*
X-1538935Y3566312D01*
X-1552702Y3557981D01*
X-1565452Y3548176D01*
X-1576984Y3536950D01*
X-1587195Y3524504D01*
X-1595882Y3510991D01*
X-1602994Y3496564D01*
X-1608378Y3481374D01*
X-1612036Y3465728D01*
X-1613865Y3449726D01*
X-1613865Y3433673D01*
X-1612036Y3417671D01*
X-1608378Y3402025D01*
X-1602994Y3386836D01*
X-1595882Y3372408D01*
X-1587195Y3358896D01*
X-1576984Y3346450D01*
X-1565452Y3335223D01*
X-1552702Y3325418D01*
X-1538935Y3317087D01*
X-1524304Y3310382D01*
X-1509014Y3305454D01*
X-1493266Y3302254D01*
G37*
G36*
X-2808935Y4615484D02*
G01*
X-2795524Y4616602D01*
X-2782366Y4619548D01*
X-2769717Y4624222D01*
X-2757830Y4630521D01*
X-2746857Y4638344D01*
X-2737053Y4647590D01*
X-2728518Y4658055D01*
X-2721508Y4669536D01*
X-2716072Y4681880D01*
X-2712313Y4694783D01*
X-2710332Y4708144D01*
X-2710129Y4721606D01*
X-2711704Y4734966D01*
X-2715107Y4748022D01*
X-2720187Y4760518D01*
X-2726893Y4772202D01*
X-2735072Y4782921D01*
X-2744622Y4792421D01*
X-2755341Y4800549D01*
X-2767076Y4807204D01*
X-2779572Y4812233D01*
X-2792628Y4815535D01*
X-2806039Y4817110D01*
X-2819501Y4816856D01*
X-2832811Y4814773D01*
X-2845765Y4810963D01*
X-2858058Y4805476D01*
X-2869539Y4798415D01*
X-2879953Y4789830D01*
X-2889097Y4779975D01*
X-2896920Y4769002D01*
X-2903169Y4757064D01*
X-2907741Y4744364D01*
X-2910636Y4731207D01*
X-2911754Y4717796D01*
X-2911043Y4704334D01*
X-2908554Y4691075D01*
X-2904286Y4678273D01*
X-2898394Y4666183D01*
X-2890926Y4654956D01*
X-2882036Y4644847D01*
X-2871876Y4636008D01*
X-2860598Y4628591D01*
X-2848457Y4622749D01*
X-2835656Y4618532D01*
X-2822397Y4616094D01*
G37*
G36*
X2810662Y4842357D02*
G01*
X2824022Y4843881D01*
X2837078Y4847234D01*
X2849626Y4852263D01*
X2861310Y4858867D01*
X2872079Y4867046D01*
X2881630Y4876546D01*
X2889808Y4887264D01*
X2896514Y4898948D01*
X2901594Y4911394D01*
X2904947Y4924450D01*
X2906572Y4937861D01*
X2906369Y4951323D01*
X2904388Y4964633D01*
X2900629Y4977587D01*
X2895193Y4989931D01*
X2888132Y5001412D01*
X2879648Y5011877D01*
X2869844Y5021072D01*
X2858871Y5028946D01*
X2846933Y5035245D01*
X2834284Y5039918D01*
X2821178Y5042814D01*
X2807716Y5043982D01*
X2794254Y5043322D01*
X2780995Y5040884D01*
X2768193Y5036718D01*
X2756052Y5030876D01*
X2744825Y5023459D01*
X2734665Y5014620D01*
X2725775Y5004511D01*
X2718308Y4993284D01*
X2712364Y4981143D01*
X2708148Y4968341D01*
X2705658Y4955133D01*
X2704947Y4941671D01*
X2706065Y4928209D01*
X2708910Y4915052D01*
X2713532Y4902403D01*
X2719781Y4890465D01*
X2727553Y4879441D01*
X2736748Y4869586D01*
X2747162Y4861052D01*
X2758643Y4853990D01*
X2770936Y4848453D01*
X2783840Y4844643D01*
X2797200Y4842611D01*
G37*
G36*
X2156460Y4845812D02*
G01*
X2235962Y4845812D01*
X2242312Y4846523D01*
X2247747Y4848402D01*
X2252675Y4851501D01*
X2256739Y4855565D01*
X2259838Y4860493D01*
X2261768Y4865928D01*
X2262479Y4872278D01*
X2262479Y4882388D01*
X2263241Y4886299D01*
X2265426Y4889601D01*
X2268728Y4891786D01*
X2272639Y4892548D01*
X2469642Y4892548D01*
X2473706Y4891735D01*
X2477109Y4889347D01*
X2483104Y4882896D01*
X2493518Y4874361D01*
X2504998Y4867249D01*
X2517292Y4861763D01*
X2530195Y4857953D01*
X2543505Y4855921D01*
X2557018Y4855667D01*
X2570378Y4857191D01*
X2583434Y4860493D01*
X2595930Y4865522D01*
X2607665Y4872177D01*
X2618384Y4880356D01*
X2627934Y4889855D01*
X2636164Y4900523D01*
X2642870Y4912207D01*
X2647950Y4924704D01*
X2651302Y4937760D01*
X2652928Y4951120D01*
X2652725Y4964633D01*
X2650744Y4977942D01*
X2646984Y4990896D01*
X2641549Y5003190D01*
X2634488Y5014722D01*
X2626004Y5025186D01*
X2616200Y5034381D01*
X2605227Y5042204D01*
X2593289Y5048554D01*
X2580640Y5053177D01*
X2567482Y5056124D01*
X2554071Y5057292D01*
X2540609Y5056632D01*
X2527350Y5054193D01*
X2514549Y5050028D01*
X2502408Y5044186D01*
X2491181Y5036769D01*
X2480970Y5027930D01*
X2477312Y5023764D01*
X2473909Y5021173D01*
X2469692Y5020310D01*
X2238095Y5020310D01*
X2227478Y5019446D01*
X2219350Y5017566D01*
X2217216Y5016906D01*
X2209546Y5013706D01*
X2207564Y5012690D01*
X2200503Y5008270D01*
X2198725Y5006949D01*
X2192375Y5001361D01*
X2177999Y4986985D01*
X2174697Y4984800D01*
X2170836Y4983988D01*
X2156460Y4983988D01*
X2150160Y4983276D01*
X2144674Y4981397D01*
X2139797Y4978298D01*
X2135682Y4974234D01*
X2132634Y4969306D01*
X2130704Y4963871D01*
X2129993Y4957521D01*
X2129993Y4872278D01*
X2130704Y4865928D01*
X2132634Y4860493D01*
X2135682Y4855565D01*
X2139797Y4851501D01*
X2144674Y4848402D01*
X2150160Y4846523D01*
G37*
G36*
X-1642008Y5124094D02*
G01*
X-1626819Y5125008D01*
X-1611884Y5127752D01*
X-1597355Y5132273D01*
X-1583486Y5138521D01*
X-1570482Y5146395D01*
X-1558493Y5155742D01*
X-1547774Y5166512D01*
X-1538376Y5178501D01*
X-1530553Y5191506D01*
X-1524254Y5205425D01*
X-1522018Y5208574D01*
X-1518767Y5210657D01*
X-1515008Y5211419D01*
X-1511198Y5210657D01*
X-1507947Y5208574D01*
X-1505712Y5205425D01*
X-1499463Y5191506D01*
X-1491589Y5178501D01*
X-1482242Y5166512D01*
X-1471472Y5155742D01*
X-1459534Y5146395D01*
X-1446479Y5138521D01*
X-1432661Y5132273D01*
X-1418132Y5127752D01*
X-1403197Y5125008D01*
X-1388008Y5124094D01*
X-1372819Y5125008D01*
X-1357884Y5127752D01*
X-1343355Y5132273D01*
X-1329486Y5138521D01*
X-1316482Y5146395D01*
X-1304493Y5155742D01*
X-1293774Y5166512D01*
X-1284376Y5178501D01*
X-1276553Y5191506D01*
X-1270304Y5205323D01*
X-1265783Y5219852D01*
X-1263040Y5234838D01*
X-1262126Y5249976D01*
X-1263040Y5265166D01*
X-1265783Y5280101D01*
X-1270304Y5294630D01*
X-1276553Y5308498D01*
X-1284376Y5321503D01*
X-1293774Y5333492D01*
X-1304493Y5344210D01*
X-1316482Y5353608D01*
X-1329486Y5361482D01*
X-1343355Y5367680D01*
X-1357884Y5372201D01*
X-1372819Y5374944D01*
X-1388008Y5375859D01*
X-1403197Y5374944D01*
X-1418132Y5372201D01*
X-1432661Y5367680D01*
X-1446479Y5361482D01*
X-1459534Y5353608D01*
X-1471472Y5344210D01*
X-1482242Y5333492D01*
X-1491589Y5321503D01*
X-1499463Y5308498D01*
X-1505712Y5294579D01*
X-1507947Y5291429D01*
X-1511198Y5289296D01*
X-1515008Y5288584D01*
X-1518767Y5289296D01*
X-1522018Y5291429D01*
X-1524254Y5294579D01*
X-1530553Y5308498D01*
X-1538376Y5321503D01*
X-1547774Y5333492D01*
X-1558493Y5344210D01*
X-1570482Y5353608D01*
X-1583486Y5361482D01*
X-1597355Y5367680D01*
X-1611884Y5372201D01*
X-1626819Y5374944D01*
X-1642008Y5375859D01*
X-1657197Y5374944D01*
X-1672132Y5372201D01*
X-1686661Y5367680D01*
X-1700479Y5361482D01*
X-1713534Y5353608D01*
X-1725472Y5344210D01*
X-1736242Y5333492D01*
X-1745589Y5321503D01*
X-1753463Y5308498D01*
X-1759712Y5294630D01*
X-1764233Y5280101D01*
X-1766976Y5265166D01*
X-1767890Y5249976D01*
X-1766976Y5234838D01*
X-1764233Y5219852D01*
X-1759712Y5205323D01*
X-1753463Y5191506D01*
X-1745589Y5178501D01*
X-1736242Y5166512D01*
X-1725472Y5155742D01*
X-1713534Y5146395D01*
X-1700479Y5138521D01*
X-1686661Y5132273D01*
X-1672132Y5127752D01*
X-1657197Y5125008D01*
G37*
G36*
X2229408Y5665470D02*
G01*
X2368245Y5665470D01*
X2374544Y5666181D01*
X2380030Y5668111D01*
X2384907Y5671159D01*
X2389022Y5675274D01*
X2392070Y5680151D01*
X2394000Y5685637D01*
X2394712Y5691936D01*
X2394712Y5820867D01*
X2394000Y5827166D01*
X2392070Y5832652D01*
X2389022Y5837529D01*
X2384907Y5841644D01*
X2380030Y5844692D01*
X2374544Y5846622D01*
X2368245Y5847334D01*
X2356916Y5847334D01*
X2353005Y5848096D01*
X2349754Y5850331D01*
X2347518Y5853582D01*
X2346756Y5857494D01*
X2346756Y5884926D01*
X2347620Y5888990D01*
X2350008Y5892342D01*
X2353564Y5894476D01*
X2359914Y5896711D01*
X2364790Y5899810D01*
X2368905Y5903874D01*
X2372004Y5908802D01*
X2373884Y5914237D01*
X2374595Y5920587D01*
X2374595Y5994450D01*
X2373884Y6000750D01*
X2372004Y6006236D01*
X2368905Y6011113D01*
X2364790Y6015228D01*
X2359914Y6018276D01*
X2354427Y6020206D01*
X2348128Y6020917D01*
X2249271Y6020917D01*
X2242921Y6020206D01*
X2237486Y6018276D01*
X2232609Y6015228D01*
X2228494Y6011113D01*
X2225395Y6006236D01*
X2223516Y6000750D01*
X2222804Y5994450D01*
X2222804Y5920587D01*
X2223516Y5914237D01*
X2225395Y5908802D01*
X2228494Y5903874D01*
X2232609Y5899810D01*
X2237486Y5896711D01*
X2243836Y5894476D01*
X2247392Y5892342D01*
X2249779Y5888990D01*
X2250643Y5884926D01*
X2250643Y5857494D01*
X2249881Y5853582D01*
X2247646Y5850331D01*
X2244394Y5848096D01*
X2240483Y5847334D01*
X2229408Y5847334D01*
X2223109Y5846622D01*
X2217623Y5844692D01*
X2212746Y5841644D01*
X2208631Y5837529D01*
X2205583Y5832652D01*
X2203653Y5827166D01*
X2202942Y5820867D01*
X2202942Y5691936D01*
X2203653Y5685637D01*
X2205583Y5680151D01*
X2208631Y5675274D01*
X2212746Y5671159D01*
X2217623Y5668111D01*
X2223109Y5666181D01*
G37*
G36*
X-2334412Y5905804D02*
G01*
X-2260549Y5905804D01*
X-2254250Y5906516D01*
X-2248763Y5908395D01*
X-2243886Y5911494D01*
X-2239772Y5915609D01*
X-2236724Y5920486D01*
X-2234793Y5925921D01*
X-2234082Y5932271D01*
X-2234082Y5954217D01*
X-2233320Y5958078D01*
X-2231136Y5961380D01*
X-2211476Y5981039D01*
X-2204821Y5988812D01*
X-2200605Y5995619D01*
X-2199640Y5997498D01*
X-2196541Y6004915D01*
X-2194102Y6014720D01*
X-2193798Y6016802D01*
X-2193290Y6024930D01*
X-2193290Y6147714D01*
X-2192528Y6151626D01*
X-2190343Y6154928D01*
X-2187041Y6157112D01*
X-2183130Y6157874D01*
X-2165146Y6157874D01*
X-2158847Y6158585D01*
X-2153412Y6160516D01*
X-2148484Y6163614D01*
X-2144420Y6167678D01*
X-2141321Y6172606D01*
X-2139391Y6178042D01*
X-2138680Y6184392D01*
X-2138680Y6363208D01*
X-2139391Y6369558D01*
X-2141321Y6374993D01*
X-2144420Y6379921D01*
X-2148484Y6383985D01*
X-2153412Y6387084D01*
X-2158847Y6389014D01*
X-2165146Y6389725D01*
X-2185466Y6389725D01*
X-2189327Y6390487D01*
X-2192578Y6392621D01*
X-2194814Y6395872D01*
X-2195626Y6399733D01*
X-2194915Y6403594D01*
X-2192782Y6406896D01*
X-2185720Y6414262D01*
X-2180336Y6422237D01*
X-2176373Y6431026D01*
X-2173935Y6440373D01*
X-2173122Y6449974D01*
X-2173935Y6459575D01*
X-2176373Y6468922D01*
X-2182571Y6482689D01*
X-2182317Y6487058D01*
X-2180285Y6490919D01*
X-2176830Y6493560D01*
X-2172563Y6494475D01*
X-2153056Y6494475D01*
X-2149144Y6493713D01*
X-2145893Y6491478D01*
X-1894738Y6240424D01*
X-1887728Y6235141D01*
X-1880209Y6231382D01*
X-1872183Y6229096D01*
X-1863343Y6228283D01*
X-1630680Y6228283D01*
X-1626768Y6227521D01*
X-1623466Y6225336D01*
X-1621282Y6222034D01*
X-1620520Y6218123D01*
X-1620520Y6184392D01*
X-1619808Y6178042D01*
X-1617878Y6172606D01*
X-1614779Y6167678D01*
X-1610715Y6163614D01*
X-1605788Y6160516D01*
X-1600352Y6158585D01*
X-1594053Y6157874D01*
X-1415186Y6157874D01*
X-1408836Y6158585D01*
X-1403400Y6160516D01*
X-1398473Y6163614D01*
X-1394409Y6167678D01*
X-1391310Y6172606D01*
X-1389380Y6178042D01*
X-1388668Y6184392D01*
X-1388668Y6363208D01*
X-1389380Y6369558D01*
X-1391310Y6374993D01*
X-1394409Y6379921D01*
X-1398473Y6383985D01*
X-1403400Y6387084D01*
X-1408836Y6389014D01*
X-1415186Y6389725D01*
X-1594053Y6389725D01*
X-1600352Y6389014D01*
X-1605788Y6387084D01*
X-1610715Y6383985D01*
X-1614779Y6379921D01*
X-1617878Y6374993D01*
X-1619808Y6369558D01*
X-1620520Y6363208D01*
X-1620520Y6329476D01*
X-1621282Y6325565D01*
X-1623466Y6322263D01*
X-1626768Y6320078D01*
X-1630680Y6319316D01*
X-1840738Y6319316D01*
X-1844649Y6320078D01*
X-1847951Y6322263D01*
X-2099106Y6573367D01*
X-2106066Y6578650D01*
X-2113584Y6582359D01*
X-2121662Y6584696D01*
X-2130450Y6585508D01*
X-2316937Y6585508D01*
X-2320848Y6586270D01*
X-2324100Y6588455D01*
X-2391511Y6655866D01*
X-2393137Y6658000D01*
X-2394153Y6660489D01*
X-2396337Y6668922D01*
X-2400350Y6677710D01*
X-2405735Y6685686D01*
X-2412390Y6692646D01*
X-2420162Y6698386D01*
X-2428798Y6702755D01*
X-2437993Y6705549D01*
X-2447544Y6706819D01*
X-2457196Y6706362D01*
X-2466644Y6704330D01*
X-2475585Y6700774D01*
X-2483815Y6695694D01*
X-2491028Y6689344D01*
X-2497124Y6681825D01*
X-2501798Y6673392D01*
X-2504998Y6664299D01*
X-2506624Y6654800D01*
X-2506624Y6645148D01*
X-2504998Y6635648D01*
X-2501798Y6626555D01*
X-2497124Y6618122D01*
X-2491028Y6610603D01*
X-2483815Y6604253D01*
X-2475585Y6599174D01*
X-2466644Y6595618D01*
X-2461056Y6594398D01*
X-2458313Y6593382D01*
X-2456027Y6591655D01*
X-2370886Y6506616D01*
X-2363927Y6501333D01*
X-2356408Y6497574D01*
X-2348331Y6495288D01*
X-2339543Y6494475D01*
X-2287371Y6494475D01*
X-2283256Y6493611D01*
X-2279853Y6491173D01*
X-2277719Y6487515D01*
X-2277262Y6483350D01*
X-2278481Y6479387D01*
X-2281834Y6473393D01*
X-2285034Y6464300D01*
X-2286965Y6451549D01*
X-2287879Y6449161D01*
X-2292350Y6440982D01*
X-2294686Y6433312D01*
X-2295499Y6424879D01*
X-2295499Y6399885D01*
X-2296261Y6395974D01*
X-2298496Y6392672D01*
X-2301798Y6390487D01*
X-2305659Y6389725D01*
X-2344013Y6389725D01*
X-2350363Y6389014D01*
X-2355799Y6387084D01*
X-2360726Y6383985D01*
X-2364790Y6379921D01*
X-2367889Y6374993D01*
X-2369820Y6369558D01*
X-2370531Y6363208D01*
X-2370531Y6184392D01*
X-2369820Y6178042D01*
X-2367889Y6172606D01*
X-2364790Y6167678D01*
X-2360726Y6163614D01*
X-2355799Y6160516D01*
X-2350363Y6158585D01*
X-2344013Y6157874D01*
X-2326081Y6157874D01*
X-2322169Y6157112D01*
X-2318867Y6154928D01*
X-2316683Y6151626D01*
X-2315921Y6147714D01*
X-2315921Y6067755D01*
X-2316683Y6063894D01*
X-2318867Y6060592D01*
X-2322169Y6058357D01*
X-2326081Y6057595D01*
X-2334412Y6057595D01*
X-2340762Y6056884D01*
X-2346198Y6055004D01*
X-2351125Y6051905D01*
X-2355189Y6047790D01*
X-2358288Y6042914D01*
X-2360218Y6037427D01*
X-2360930Y6031128D01*
X-2360930Y5932271D01*
X-2360218Y5925921D01*
X-2358288Y5920486D01*
X-2355189Y5915609D01*
X-2351125Y5911494D01*
X-2346198Y5908395D01*
X-2340762Y5906516D01*
G37*
G36*
X2249271Y6044082D02*
G01*
X2348128Y6044082D01*
X2354427Y6044793D01*
X2359914Y6046724D01*
X2364790Y6049772D01*
X2368905Y6053886D01*
X2372004Y6058763D01*
X2373884Y6064250D01*
X2374595Y6070549D01*
X2374595Y6144412D01*
X2373884Y6150762D01*
X2372004Y6156198D01*
X2368905Y6161125D01*
X2364790Y6165189D01*
X2359914Y6168288D01*
X2354427Y6170218D01*
X2352802Y6170371D01*
X2348738Y6171742D01*
X2345588Y6174740D01*
X2343962Y6178702D01*
X2344115Y6183020D01*
X2346045Y6190386D01*
X2346858Y6199987D01*
X2346045Y6209588D01*
X2343607Y6218936D01*
X2339644Y6227724D01*
X2334260Y6235700D01*
X2327554Y6242659D01*
X2319782Y6248400D01*
X2311196Y6252768D01*
X2301951Y6255562D01*
X2292400Y6256832D01*
X2282748Y6256375D01*
X2273350Y6254343D01*
X2264359Y6250787D01*
X2256180Y6245707D01*
X2248916Y6239357D01*
X2242870Y6231839D01*
X2238146Y6223406D01*
X2234946Y6214313D01*
X2233320Y6204813D01*
X2233320Y6195161D01*
X2234946Y6185662D01*
X2237740Y6177788D01*
X2238298Y6174435D01*
X2237740Y6171082D01*
X2236114Y6168085D01*
X2232609Y6165189D01*
X2228494Y6161125D01*
X2225395Y6156198D01*
X2223516Y6150762D01*
X2222804Y6144412D01*
X2222804Y6070549D01*
X2223516Y6064250D01*
X2225395Y6058763D01*
X2228494Y6053886D01*
X2232609Y6049772D01*
X2237486Y6046724D01*
X2242921Y6044793D01*
G37*
G36*
X-1653539Y6649212D02*
G01*
X-1574038Y6649212D01*
X-1567738Y6649923D01*
X-1560931Y6652361D01*
X-1557578Y6652971D01*
X-1439672Y6654190D01*
X-1428953Y6655104D01*
X-1418945Y6657644D01*
X-1409395Y6661708D01*
X-1400657Y6667195D01*
X-1392885Y6673951D01*
X-1386230Y6681927D01*
X-1380947Y6690766D01*
X-1377086Y6700367D01*
X-1374749Y6710425D01*
X-1374038Y6720738D01*
X-1374952Y6731050D01*
X-1377492Y6741058D01*
X-1381556Y6750608D01*
X-1387043Y6759346D01*
X-1393799Y6767118D01*
X-1401775Y6773773D01*
X-1410614Y6779056D01*
X-1420215Y6782917D01*
X-1430274Y6785254D01*
X-1440992Y6785965D01*
X-1560322Y6784746D01*
X-1563776Y6785305D01*
X-1567688Y6786676D01*
X-1574038Y6787388D01*
X-1653539Y6787388D01*
X-1659839Y6786676D01*
X-1665325Y6784797D01*
X-1670202Y6781698D01*
X-1674317Y6777634D01*
X-1677365Y6772706D01*
X-1679295Y6767271D01*
X-1680006Y6760921D01*
X-1680006Y6675678D01*
X-1679295Y6669328D01*
X-1677365Y6663893D01*
X-1674317Y6658965D01*
X-1670202Y6654901D01*
X-1665325Y6651802D01*
X-1659839Y6649923D01*
G37*
G36*
X-1331112Y7006590D02*
G01*
X-1317599Y7006742D01*
X-1304290Y7008672D01*
X-1291336Y7012381D01*
X-1278991Y7017766D01*
X-1267460Y7024776D01*
X-1256995Y7033259D01*
X-1247698Y7043064D01*
X-1239824Y7053986D01*
X-1233474Y7065873D01*
X-1228801Y7078522D01*
X-1225804Y7091629D01*
X-1224635Y7105040D01*
X-1225194Y7118502D01*
X-1227582Y7131812D01*
X-1231747Y7144613D01*
X-1237538Y7156754D01*
X-1244904Y7168032D01*
X-1253744Y7178243D01*
X-1263853Y7187184D01*
X-1275029Y7194651D01*
X-1287119Y7200595D01*
X-1299921Y7204913D01*
X-1313129Y7207453D01*
X-1326591Y7208164D01*
X-1340053Y7207148D01*
X-1353210Y7204303D01*
X-1365910Y7199731D01*
X-1377848Y7193534D01*
X-1388872Y7185761D01*
X-1398778Y7176617D01*
X-1407363Y7166254D01*
X-1414475Y7154824D01*
X-1420012Y7142530D01*
X-1423873Y7129627D01*
X-1425956Y7116267D01*
X-1426260Y7102805D01*
X-1424736Y7089444D01*
X-1421485Y7076338D01*
X-1416507Y7063841D01*
X-1409903Y7052106D01*
X-1401775Y7041337D01*
X-1392326Y7031736D01*
X-1381607Y7023506D01*
X-1369974Y7016750D01*
X-1357477Y7011670D01*
X-1344472Y7008215D01*
G37*
G36*
X-1728317Y7008418D02*
G01*
X-1715211Y7009231D01*
X-1702765Y7011873D01*
X-1695297Y7014565D01*
X-1691843Y7015175D01*
X-1658924Y7015175D01*
X-1652574Y7015886D01*
X-1647139Y7017816D01*
X-1642211Y7020864D01*
X-1638147Y7024979D01*
X-1635048Y7029856D01*
X-1633169Y7035342D01*
X-1632457Y7041642D01*
X-1632457Y7153757D01*
X-1633169Y7160107D01*
X-1635048Y7165543D01*
X-1638147Y7170420D01*
X-1642211Y7174534D01*
X-1647139Y7177633D01*
X-1652574Y7179513D01*
X-1658924Y7180224D01*
X-1691487Y7180224D01*
X-1695145Y7180884D01*
X-1701292Y7183272D01*
X-1713738Y7186066D01*
X-1726793Y7187133D01*
X-1998878Y7189419D01*
X-2013966Y7188403D01*
X-2034438Y7188403D01*
X-2040737Y7187692D01*
X-2046224Y7185761D01*
X-2051100Y7182662D01*
X-2055215Y7178598D01*
X-2058263Y7173671D01*
X-2060549Y7167168D01*
X-2062835Y7163460D01*
X-2066950Y7159244D01*
X-2074722Y7148982D01*
X-2080920Y7137857D01*
X-2085492Y7125970D01*
X-2088286Y7113524D01*
X-2089302Y7100824D01*
X-2088540Y7088073D01*
X-2085898Y7075627D01*
X-2081580Y7063638D01*
X-2075535Y7052411D01*
X-2068017Y7042150D01*
X-2062988Y7037019D01*
X-2060600Y7033158D01*
X-2058263Y7026198D01*
X-2055215Y7021372D01*
X-2051100Y7017258D01*
X-2046224Y7014209D01*
X-2040737Y7012279D01*
X-2034438Y7011568D01*
X-2010816Y7011517D01*
X-2000402Y7010704D01*
G37*
G36*
X1720850Y7008571D02*
G01*
X1733550Y7008571D01*
X1748383Y7010653D01*
X1999640Y7010653D01*
X2013153Y7011568D01*
X2034438Y7011568D01*
X2040737Y7012279D01*
X2046224Y7014209D01*
X2051100Y7017258D01*
X2055215Y7021372D01*
X2058263Y7026249D01*
X2060600Y7033056D01*
X2063038Y7036968D01*
X2067509Y7041489D01*
X2075129Y7051700D01*
X2081275Y7062876D01*
X2085695Y7074814D01*
X2088438Y7087260D01*
X2089353Y7100011D01*
X2088438Y7112711D01*
X2085695Y7125157D01*
X2081275Y7137095D01*
X2075129Y7148271D01*
X2067509Y7158481D01*
X2062988Y7163003D01*
X2060600Y7166914D01*
X2058263Y7173722D01*
X2055215Y7178598D01*
X2051100Y7182662D01*
X2046224Y7185761D01*
X2040737Y7187692D01*
X2034438Y7188403D01*
X2012645Y7188403D01*
X1999640Y7189368D01*
X1729689Y7189368D01*
X1723136Y7189114D01*
X1716786Y7188453D01*
X1710486Y7187285D01*
X1704339Y7185710D01*
X1698294Y7183729D01*
X1691843Y7181037D01*
X1687931Y7180224D01*
X1658924Y7180224D01*
X1652574Y7179513D01*
X1647139Y7177633D01*
X1642211Y7174534D01*
X1638147Y7170420D01*
X1635048Y7165543D01*
X1633169Y7160107D01*
X1632457Y7153757D01*
X1632457Y7041642D01*
X1633169Y7035342D01*
X1635048Y7029856D01*
X1638147Y7024979D01*
X1642211Y7020864D01*
X1647139Y7017816D01*
X1652574Y7015886D01*
X1658924Y7015175D01*
X1691233Y7015175D01*
X1695957Y7014006D01*
X1708200Y7010400D01*
G37*
G36*
X997458Y7107224D02*
G01*
X1010919Y7107986D01*
X1024178Y7110526D01*
X1036929Y7114794D01*
X1049020Y7120737D01*
X1060246Y7128256D01*
X1070305Y7137146D01*
X1079144Y7147356D01*
X1086510Y7158634D01*
X1092301Y7170775D01*
X1096467Y7183628D01*
X1098854Y7196886D01*
X1099464Y7210348D01*
X1098245Y7223759D01*
X1095298Y7236917D01*
X1090574Y7249515D01*
X1084224Y7261402D01*
X1076350Y7272375D01*
X1067104Y7282180D01*
X1056589Y7290612D01*
X1045108Y7297623D01*
X1032764Y7303008D01*
X1019810Y7306716D01*
X1006449Y7308646D01*
X992987Y7308799D01*
X979627Y7307173D01*
X966571Y7303770D01*
X954125Y7298639D01*
X942441Y7291882D01*
X931773Y7283653D01*
X922274Y7274102D01*
X914196Y7263333D01*
X907592Y7251598D01*
X902563Y7239050D01*
X899312Y7225995D01*
X897839Y7212584D01*
X898144Y7199122D01*
X900226Y7185812D01*
X904087Y7172909D01*
X909574Y7160615D01*
X916736Y7149185D01*
X925321Y7138771D01*
X935177Y7129627D01*
X946200Y7121855D01*
X958189Y7115657D01*
X970889Y7111085D01*
X984046Y7108291D01*
G37*
G36*
X-1204112Y7226553D02*
G01*
X-1190599Y7226706D01*
X-1177290Y7228636D01*
X-1164336Y7232345D01*
X-1151991Y7237780D01*
X-1140460Y7244740D01*
X-1129995Y7253224D01*
X-1120698Y7263028D01*
X-1112824Y7273950D01*
X-1106474Y7285837D01*
X-1101801Y7298486D01*
X-1098804Y7311593D01*
X-1097635Y7325055D01*
X-1098194Y7338517D01*
X-1100582Y7351775D01*
X-1104747Y7364577D01*
X-1110538Y7376769D01*
X-1117904Y7388047D01*
X-1126744Y7398207D01*
X-1136853Y7407148D01*
X-1148029Y7414666D01*
X-1160119Y7420609D01*
X-1172921Y7424877D01*
X-1186129Y7427417D01*
X-1199591Y7428179D01*
X-1213053Y7427112D01*
X-1226210Y7424267D01*
X-1238910Y7419695D01*
X-1250848Y7413498D01*
X-1261872Y7405725D01*
X-1271778Y7396581D01*
X-1280363Y7386218D01*
X-1287475Y7374788D01*
X-1293012Y7362494D01*
X-1296873Y7349591D01*
X-1298956Y7336281D01*
X-1299260Y7322769D01*
X-1297736Y7309408D01*
X-1294485Y7296302D01*
X-1289507Y7283805D01*
X-1282903Y7272070D01*
X-1274775Y7261301D01*
X-1265326Y7251700D01*
X-1254607Y7243470D01*
X-1242974Y7236764D01*
X-1230477Y7231634D01*
X-1217472Y7228230D01*
G37*
G36*
X-861212Y7340904D02*
G01*
X-787349Y7340904D01*
X-781050Y7341616D01*
X-775563Y7343495D01*
X-770686Y7346594D01*
X-766572Y7350709D01*
X-763524Y7355586D01*
X-761593Y7361072D01*
X-760882Y7367371D01*
X-760882Y7466228D01*
X-761593Y7472578D01*
X-763524Y7478014D01*
X-766572Y7482890D01*
X-770686Y7487005D01*
X-775563Y7490104D01*
X-781050Y7491984D01*
X-787349Y7492695D01*
X-824433Y7492695D01*
X-828344Y7493508D01*
X-831646Y7495692D01*
X-925372Y7589469D01*
X-927608Y7592771D01*
X-928369Y7596631D01*
X-928369Y7714691D01*
X-929081Y7720990D01*
X-931011Y7726476D01*
X-934059Y7731353D01*
X-938174Y7735468D01*
X-943051Y7738516D01*
X-948537Y7740446D01*
X-954836Y7741158D01*
X-1083767Y7741158D01*
X-1090066Y7740446D01*
X-1095552Y7738516D01*
X-1100429Y7735468D01*
X-1104544Y7731353D01*
X-1107592Y7726476D01*
X-1109522Y7720990D01*
X-1110234Y7714691D01*
X-1110234Y7575854D01*
X-1109522Y7569555D01*
X-1107592Y7564069D01*
X-1104544Y7559192D01*
X-1100429Y7555077D01*
X-1095552Y7552029D01*
X-1090066Y7550099D01*
X-1083767Y7549388D01*
X-1032662Y7549388D01*
X-1028801Y7548625D01*
X-1025499Y7546390D01*
X-890676Y7411618D01*
X-888492Y7408316D01*
X-887730Y7404404D01*
X-887730Y7367371D01*
X-887018Y7361072D01*
X-885088Y7355586D01*
X-881989Y7350709D01*
X-877925Y7346594D01*
X-872998Y7343495D01*
X-867562Y7341616D01*
G37*

%LPD*%
G36*
X723900Y3136900D02*
G01*
X723900Y3098800D01*
X787400Y3035300D01*
X787400Y2667000D01*
X800100Y2654300D01*
X939800Y2654300D01*
X1092200Y2806700D01*
X1092200Y3035300D01*
X1155700Y3098800D01*
X1155700Y3136900D01*
G37*
D10*
X494944Y6757085D02*
G01*
X597844Y6859986D01*
X679998Y6859986D01*
X839998Y6699986D01*
X929998Y6699986D01*
X-459486Y6085331D02*
G01*
X-750062Y5795010D01*
X-750062Y5590031D01*
X-290068Y5130037D01*
X9905Y5130037D01*
D11*
X-670052Y5640070D02*
G01*
X-670052Y5690107D01*
X-530097Y5830062D01*
X-530097Y5873495D01*
X-388873Y6014720D01*
X282955Y6969252D02*
G01*
X533654Y7219950D01*
X580136Y7219950D01*
X1840737Y5959347D01*
X1840737Y5016500D01*
D12*
X1320037Y5349999D02*
G01*
X1639978Y5349999D01*
X1769998Y5219979D01*
D13*
X141478Y5767070D02*
G01*
X70104Y5695695D01*
X70104Y5579871D01*
X420115Y5230113D01*
X420115Y4249928D01*
X400050Y4249928D01*
X-141478Y5767070D02*
G01*
X-141478Y5601462D01*
X59944Y5400039D01*
X150113Y5400039D01*
X359918Y5189981D01*
X359918Y4910073D01*
X299973Y4849876D01*
X299973Y4230115D01*
X685800Y3844289D01*
X685800Y3797300D01*
D14*
X1125601Y6988124D02*
G01*
X1216025Y6897700D01*
X1727200Y6897700D01*
D15*
X-824306Y7416800D02*
G01*
X-1019302Y7611795D01*
X-1019302Y7645272D01*
D16*
X2298700Y5957570D02*
G01*
X2298700Y5756402D01*
D17*
X-2180844Y5752972D02*
G01*
X-2168270Y5740400D01*
X-1980006Y5740400D01*
D18*
X459486Y6792468D02*
G01*
X587247Y6919976D01*
X729995Y6919976D01*
D19*
X647700Y7783829D02*
G01*
X800100Y7785100D01*
X803655Y7781544D01*
X885697Y7699502D01*
X885697Y7658100D01*
D18*
X424179Y6827773D02*
G01*
X596392Y6999986D01*
X670052Y6999986D01*
D20*
X-1113536Y2609087D02*
G01*
X-1113536Y2763520D01*
X-1144015Y2794000D01*
X-1255776Y2794000D01*
X-1384300Y2922523D01*
D21*
X-1727200Y6897623D02*
G01*
X-1296923Y6897623D01*
X-1231900Y6832600D01*
X-1057402Y6832600D01*
X-970026Y6919976D01*
X-970026Y7040118D01*
X-1002537Y7072629D01*
X-1002537Y7214615D01*
D22*
X-212117Y5837857D02*
G01*
X-299999Y5749975D01*
X-299999Y5579988D01*
X149999Y5129987D01*
X180009Y5129987D01*
X-1709996Y1609996D02*
G01*
X-1509996Y1409997D01*
X-1509996Y1329997D01*
X-1524000Y1315994D01*
X-1524000Y1041400D01*
X-1780031Y1689862D02*
G01*
X-1579879Y1689862D01*
X-1333500Y1443481D01*
X-1333500Y1257300D01*
D23*
X-2209037Y4969763D02*
G01*
X-2119884Y4881371D01*
X-2119884Y3890010D01*
X-1869947Y3640073D01*
X-1869947Y1770126D01*
X-2089912Y1549907D01*
X-2089912Y970026D01*
D22*
X-1243507Y2039086D02*
G01*
X-1559087Y2039086D01*
X-1619996Y2099995D01*
X-1619996Y2479995D01*
X-1479997Y2619994D01*
X-1347706Y2619994D01*
X-1333500Y2634200D01*
X388899Y6863153D02*
G01*
X595736Y7069988D01*
X610006Y7069988D01*
X353540Y6898512D02*
G01*
X540004Y7084974D01*
X540004Y7129983D01*
D23*
X1075334Y7489985D02*
G01*
X1075334Y7433690D01*
X1198422Y7310602D01*
D24*
X-1249982Y3589982D02*
G01*
X149984Y3589982D01*
X159994Y3599992D01*
D23*
X-2089988Y970000D02*
G01*
X-2089988Y970000D01*
X-2029993Y910005D01*
X-2209058Y4969713D02*
G01*
X-2119995Y4969713D01*
D22*
X-2054989Y649998D02*
G01*
X-2054989Y715004D01*
X-1856585Y913409D01*
X-1381887Y913409D01*
X-2205001Y649998D02*
G01*
X-2205001Y357507D01*
X-2114194Y266700D01*
X-2199995Y829998D02*
G01*
X-2205001Y824992D01*
X-2205001Y649998D01*
X671753Y6580299D02*
G01*
X750011Y6502041D01*
X750011Y6419977D01*
X-2229993Y6449974D02*
G01*
X-2254603Y6425364D01*
X-2254603Y6273800D01*
X-565657Y6686369D02*
G01*
X-649274Y6769986D01*
X-759995Y6769986D01*
X-1029995Y6499987D01*
X-1029995Y6299987D01*
X-1095324Y6234658D01*
X-1180007Y6234658D01*
X-530352Y6721855D02*
G01*
X-628395Y6819900D01*
X-790194Y6819900D01*
X-1130045Y6480047D01*
X-1129995Y6479994D02*
G01*
X-1180007Y6429984D01*
X-1180007Y6385305D01*
D11*
X-2081276Y5581395D02*
G01*
X-1771904Y5581395D01*
X-1600200Y5753100D01*
X-1600200Y5867400D01*
X-1282700Y6184900D01*
X-1282700Y6417310D01*
X-849884Y6849871D01*
X-849884Y7039863D01*
X-769873Y7119873D01*
X-716279Y7119873D01*
X-424179Y6827773D01*
X-2082037Y6731000D02*
G01*
X-2082037Y6679437D01*
X-1981200Y6578600D01*
X-1181354Y6578600D01*
X-899921Y6860031D01*
X-899921Y7050023D01*
X-780034Y7169912D01*
X-695705Y7169912D01*
X-388873Y6863079D01*
D24*
X-1199997Y3499993D02*
G01*
X-1130000Y3569990D01*
X-840221Y3569990D01*
X159994Y3599992D02*
G01*
X159997Y3599990D01*
X250012Y3599990D01*
X250012Y3599990D02*
G01*
X250012Y3539997D01*
X189992Y3539997D01*
X-1249982Y3589982D02*
G01*
X-1149982Y3589982D01*
X-1140005Y3580005D01*
X-1199997Y3520010D01*
X-1199997Y3499993D01*
D11*
X459486Y6085331D02*
G01*
X558800Y5986271D01*
X558800Y5951220D01*
X605028Y5904992D01*
X667765Y5911850D01*
X750062Y5839968D01*
X-424253Y6050000D02*
G01*
X-640003Y5834247D01*
X-640003Y5819978D01*
X-2831668Y4956403D02*
G01*
X-2831668Y5028316D01*
X-2550520Y5309463D01*
X-2400300Y5309463D01*
X1198422Y7310602D02*
G01*
X1349380Y7310602D01*
X1519996Y7139985D01*
X1519996Y7049985D01*
X1529996Y7039985D01*
X247469Y5873242D02*
G01*
X390723Y5729988D01*
X889998Y5729988D01*
X919993Y5759983D01*
X1059992Y5759983D01*
X282829Y5908575D02*
G01*
X412904Y5778500D01*
X876300Y5778500D01*
X927785Y5829985D01*
X1119987Y5829985D01*
X318188Y5943953D02*
G01*
X420141Y5842000D01*
X482600Y5842000D01*
X353540Y5979287D02*
G01*
X427329Y5905500D01*
X520700Y5905500D01*
X571500Y5854700D01*
X494946Y6120711D02*
G01*
X622300Y5993358D01*
X622300Y5981700D01*
X530326Y6156070D02*
G01*
X641197Y6045200D01*
X685800Y6045200D01*
X-459612Y6792440D02*
G01*
X-677163Y7009993D01*
X-710006Y7009993D01*
D25*
X1380997Y5139994D02*
G01*
X1228879Y5292112D01*
X1228879Y5645404D01*
D11*
X-494946Y6757088D02*
G01*
X-667842Y6929983D01*
X-710006Y6929983D01*
D19*
X2196236Y4914900D02*
G01*
X2237765Y4956429D01*
X2552166Y4956429D01*
X1860295Y4862499D02*
G01*
X1840636Y4882159D01*
X1840636Y5016500D01*
D26*
X1765300Y4662500D02*
G01*
X1812797Y4709998D01*
X2040000Y4709998D01*
X2240000Y4709998D02*
G01*
X2390698Y4559300D01*
X2679700Y4559300D01*
X2789908Y4669513D01*
X2789908Y4714801D01*
D19*
X1905000Y6899988D02*
G01*
X1905863Y6899125D01*
X1905863Y6731000D01*
D27*
X1727200Y7097699D02*
G01*
X1729488Y7099988D01*
X2000001Y7099988D01*
X-1999995Y7100062D02*
G01*
X-1727200Y7097776D01*
D17*
X-2094992Y6899986D02*
G01*
X-2081936Y6886930D01*
X-2081936Y6731000D01*
X-2297506Y5981700D02*
G01*
X-2254605Y6024600D01*
X-2254605Y6273800D01*
X-2235200Y5561736D02*
G01*
X-2215553Y5581383D01*
X-2081187Y5581383D01*
D28*
X-1944700Y5194300D02*
G01*
X-1944700Y5306999D01*
X-1881187Y5370512D01*
X-1881187Y5486412D01*
X-2557221Y4729606D02*
G01*
X-2547493Y4729606D01*
X-2413000Y4864100D01*
X-2413000Y5029200D01*
X-2247900Y5194300D01*
X-2144699Y5194300D01*
D20*
X685800Y3505200D02*
G01*
X685800Y3568700D01*
X685800Y3797300D02*
G01*
X685800Y3737355D01*
X762863Y3568700D02*
G01*
X596036Y3568700D01*
X769213Y3737355D02*
G01*
X602361Y3737355D01*
X652475Y2621813D02*
G01*
X495300Y2621813D01*
X489686Y2616200D01*
X417906Y2616200D01*
X-2864104Y266700D02*
G01*
X-2711704Y114300D01*
X-1981200Y114300D01*
X-1917700Y177800D01*
X-1917700Y622300D01*
X-1752600Y787400D01*
X-1524000Y787400D01*
X-815212Y525703D02*
G01*
X-947496Y525703D01*
X-952500Y520700D01*
X-952500Y647700D02*
G01*
X-949502Y650697D01*
X-815212Y650697D01*
X-952500Y901700D02*
G01*
X-815086Y900684D01*
X-1381887Y1163396D02*
G01*
X-1381887Y1208912D01*
X-1333500Y1257300D01*
X-1524000Y787400D02*
G01*
X-1382013Y788415D01*
X-1524000Y1041400D02*
G01*
X-1521002Y1038402D01*
X-1381887Y1038402D01*
X-1243507Y2609087D02*
G01*
X-1243507Y2691307D01*
X-1270000Y2717800D01*
X-1178509Y2609087D02*
G01*
X-1178509Y2715209D01*
X-1181100Y2717800D01*
X-788492Y2609087D02*
G01*
X-788492Y2691307D01*
X-762000Y2717800D01*
X-853490Y2609087D02*
G01*
X-853490Y2715209D01*
X-850900Y2717800D01*
X-918463Y2609087D02*
G01*
X-918463Y2751836D01*
X-876300Y2794000D01*
X-711200Y2794000D01*
X-673100Y2832100D01*
X-673100Y2922523D01*
X-1113510Y2039086D02*
G01*
X-1113510Y2116810D01*
X-1143000Y2146300D01*
X-1408099Y2146300D01*
X-1447800Y2186000D01*
X-918489Y2039086D02*
G01*
X-918489Y2116810D01*
X-889000Y2146300D01*
X-749300Y2146300D01*
X-709599Y2186000D01*
X-596900Y2186000D01*
D29*
X-1079500Y1778000D02*
G01*
X-1079500Y1879600D01*
X-800100Y1778000D02*
G01*
X-800100Y1866900D01*
X-1381887Y663397D02*
G01*
X-1203502Y663397D01*
X-1181100Y685800D01*
X-1181100Y1727200D01*
X-1231900Y1778000D01*
X-1231900Y1778000D02*
G01*
X-1231900Y1879600D01*
X-952500Y1765300D02*
G01*
X-952500Y1879600D01*
X-1381887Y538403D02*
G01*
X-1163396Y538403D01*
X-1079500Y622300D01*
X-1079500Y1778000D01*
X-815212Y1025702D02*
G01*
X-911402Y1025702D01*
X-952500Y1066800D01*
X-952500Y1765300D01*
X-815212Y1150696D02*
G01*
X-800100Y1165809D01*
X-800100Y1778000D01*
D22*
X-1370304Y5612104D02*
G01*
X-1370304Y5894095D01*
X-1344904Y5919495D01*
X-1271295Y5513095D02*
G01*
X-1224711Y5513095D01*
X-1097178Y5640628D01*
X-1245895Y6018504D02*
G01*
X-1163929Y6018504D01*
X-1061821Y5916396D01*
X-1061821Y5916396D02*
G01*
X-1034618Y5943600D01*
X-742797Y5943600D01*
X-530326Y6156070D01*
X-12700Y7797800D02*
G01*
X-25Y7785125D01*
X-25Y7708544D01*
X-141399Y7110628D02*
G01*
X-219989Y7189221D01*
X-219989Y7249972D01*
X-212117Y7039942D02*
G01*
X-342900Y7170724D01*
X-342900Y7527061D01*
X-249986Y7619974D01*
X-176758Y7075271D02*
G01*
X-292100Y7190612D01*
X-292100Y7416800D01*
X-176606Y7532293D01*
X-126212Y7532293D01*
X-247472Y7004558D02*
G01*
X-393700Y7150785D01*
X-393700Y7569200D01*
X-280593Y7682306D01*
X-126212Y7682306D01*
X-282829Y6969226D02*
G01*
X-444500Y7130897D01*
X-444500Y7594600D01*
X-279400Y7759700D01*
X-101142Y7759700D01*
X-49987Y7708544D01*
X636270Y6262115D02*
G01*
X854710Y6043929D01*
X862329Y6043929D01*
D26*
X1079500Y5645404D02*
G01*
X1228852Y5645404D01*
X430504Y5624804D02*
G01*
X451004Y5645304D01*
X1079500Y5645304D01*
D13*
X1817293Y6299200D02*
G01*
X1817293Y6447284D01*
X1929996Y6559986D01*
X2363271Y6559986D01*
X2375037Y6571752D01*
X-1504594Y6273800D02*
G01*
X-1863808Y6273800D01*
X-2129995Y6539986D01*
X-2339995Y6539986D01*
X-2449995Y6649986D01*
D22*
X-495045Y6120637D02*
G01*
X-810005Y5805678D01*
X-810005Y5780023D01*
X-949452Y5640578D01*
X-1097279Y5640578D01*
X-176784Y5802629D02*
G01*
X-249938Y5729226D01*
X-249938Y5629907D01*
X139979Y5239989D01*
X229903Y5239989D01*
X280009Y5189882D01*
X280009Y5139994D01*
D10*
X10002Y5129987D02*
G01*
X80002Y5129987D01*
X110002Y5099992D01*
X110004Y5099992D01*
X229996Y4980000D01*
X540004Y4919979D02*
G01*
X1359984Y4919979D01*
X1549994Y5109989D01*
X1550001Y5109989D01*
X1659991Y5219979D01*
X1809996Y6089987D02*
G01*
X1822714Y6102705D01*
X1968500Y6102705D01*
X2289995Y6199987D02*
G01*
X2298700Y6191283D01*
X2298700Y6107506D01*
D22*
X-318185Y6933844D02*
G01*
X-508000Y7123658D01*
X-508000Y7620000D01*
X-317500Y7810500D01*
X-88900Y7810500D01*
X-38100Y7861300D01*
X25400Y7861300D01*
X50012Y7836687D01*
X50012Y7708544D01*
D16*
X1968500Y6102604D02*
G01*
X1967229Y6299200D01*
D22*
X212117Y7039942D02*
G01*
X492163Y7319987D01*
X640003Y7319987D01*
X640003Y7309993D01*
D10*
X176758Y7075271D02*
G01*
X521462Y7419975D01*
X610006Y7419975D01*
X637209Y4352315D02*
G01*
X819998Y4169526D01*
X819998Y4089991D01*
X919861Y3990129D01*
X919861Y3737355D01*
D21*
X-879982Y5249976D02*
G01*
X-840054Y5210047D01*
X-519937Y5210047D01*
X-1613662Y6718300D02*
G01*
X-1439926Y6720078D01*
D10*
X-674293Y7416800D02*
G01*
X-674293Y7219264D01*
X-353542Y6898512D01*
X-1829993Y5740400D02*
G01*
X-1829993Y5759991D01*
X-1509996Y6079987D01*
X-636371Y6262141D02*
G01*
X-788517Y6109995D01*
X-1010005Y6109995D01*
X647700Y7633893D02*
G01*
X679998Y7601595D01*
X679998Y7389985D01*
X679996Y7402207D02*
G01*
X679996Y7359985D01*
X709996Y7329982D01*
X709996Y7259990D01*
X970000Y6999986D01*
D11*
X247395Y7004558D02*
G01*
X512826Y7269987D01*
X590042Y7269987D01*
X1230121Y6629908D01*
X1819910Y6629908D01*
X1905762Y6715760D01*
X1905762Y6794500D01*
D10*
X530352Y6721855D02*
G01*
X629920Y6819900D01*
X649986Y6819900D01*
X890015Y6579870D01*
X1119886Y6579870D01*
X1189989Y6510020D01*
X1189989Y6379971D01*
X1370076Y6199886D01*
X1510029Y6199886D01*
X1228877Y5835395D02*
G01*
X1213002Y5851270D01*
X1213002Y6007100D01*
X176758Y5802528D02*
G01*
X269999Y5709287D01*
X269999Y5659988D01*
X-282829Y5908573D02*
G01*
X-381414Y5809988D01*
X-409999Y5809988D01*
X1227124Y2621813D02*
G01*
X1372184Y2621813D01*
X1422400Y2571597D01*
X1227124Y2491790D02*
G01*
X1342593Y2491790D01*
X1422400Y2571597D01*
X126237Y7582408D02*
G01*
X189992Y7582408D01*
X260095Y7649971D01*
X924661Y7489977D02*
G01*
X1092657Y7657972D01*
X1095755Y7657972D01*
D30*
G01*
X417906Y2616200D03*
G01*
X267893Y2616200D03*
D31*
G01*
X-2114194Y266700D03*
G01*
X-2864205Y266700D03*
G01*
X1968500Y5352694D03*
G01*
X1968500Y6102705D03*
D32*
G01*
X-2180844Y5752972D03*
G01*
X-2390902Y5752972D03*
G01*
X-1019302Y7645272D03*
G01*
X-809244Y7645272D03*
G01*
X885697Y7657972D03*
G01*
X1095755Y7657972D03*
D33*
G01*
X2298827Y5756402D03*
G01*
X2298827Y5546344D03*
D30*
G01*
X-2055037Y649986D03*
G01*
X-2205050Y649986D03*
G01*
X-1980006Y5740400D03*
G01*
X-1829993Y5740400D03*
G01*
X-824306Y7416800D03*
G01*
X-674293Y7416800D03*
D34*
G01*
X647700Y7783906D03*
G01*
X647700Y7633893D03*
G01*
X2298700Y5957493D03*
G01*
X2298700Y6107506D03*
D35*
G01*
X-1180084Y6385192D03*
D36*
G01*
X-1180084Y6234531D03*
D37*
G01*
X913524Y3568700D03*
G01*
X762875Y3568700D03*
G01*
X919874Y3737355D03*
G01*
X769225Y3737355D03*
G01*
X596024Y3568700D03*
G01*
X445375Y3568700D03*
G01*
X602374Y3737355D03*
G01*
X451725Y3737355D03*
D38*
G01*
X-1097184Y5640622D03*
G01*
X-941622Y5796184D03*
D39*
G01*
X-1061833Y5916395D03*
G01*
X-1217395Y5760833D03*
D40*
G01*
X610006Y7419975D03*
G01*
X750011Y7419975D03*
D41*
G01*
X763303Y5944903D03*
G01*
X862296Y6043896D03*
G01*
X-1344896Y5919503D03*
G01*
X-1245903Y6018496D03*
D42*
G01*
X-1370296Y5612096D03*
G01*
X-1271303Y5513103D03*
D43*
G01*
X430496Y5624796D03*
G01*
X331503Y5525803D03*
D40*
G01*
X950010Y6449974D03*
G01*
X1089990Y6449974D03*
D44*
G01*
X-433103Y5576603D03*
G01*
X-532096Y5675596D03*
D45*
G01*
X1422400Y2571597D03*
G01*
X1422400Y2711602D03*
G01*
X431800Y2940202D03*
G01*
X431800Y2800197D03*
G01*
X1651000Y5746597D03*
G01*
X1651000Y5886602D03*
D40*
G01*
X1072997Y6007100D03*
G01*
X1213002Y6007100D03*
D45*
G01*
X1079500Y5505297D03*
G01*
X1079500Y5645302D03*
G01*
X419100Y7511897D03*
G01*
X419100Y7651902D03*
G01*
X259994Y7509992D03*
G01*
X259994Y7649971D03*
D40*
G01*
X-108102Y7378700D03*
G01*
X31902Y7378700D03*
D31*
G01*
X-2254605Y6273800D03*
G01*
X-1504594Y6273800D03*
D46*
G01*
X-1716897Y353402D03*
D47*
G01*
X-1381893Y1163401D03*
G01*
X-1381893Y1038400D03*
G01*
X-1381893Y913401D03*
G01*
X-1381893Y788400D03*
G01*
X-1381893Y663402D03*
G01*
X-1381893Y538401D03*
D46*
G01*
X-1716897Y1348402D03*
D48*
G01*
X-480202Y1335697D03*
D49*
G01*
X-815206Y525698D03*
G01*
X-815206Y650699D03*
G01*
X-815206Y775698D03*
G01*
X-815206Y900699D03*
G01*
X-815206Y1025697D03*
G01*
X-815206Y1150698D03*
D48*
G01*
X-480202Y340697D03*
D50*
G01*
X-671728Y6580301D03*
G01*
X-636371Y6615658D03*
G01*
X-601040Y6651015D03*
G01*
X-565657Y6686372D03*
G01*
X-530326Y6721728D03*
G01*
X-494944Y6757085D03*
G01*
X-459613Y6792442D03*
G01*
X-424256Y6827799D03*
G01*
X-388899Y6863156D03*
G01*
X-353542Y6898513D03*
G01*
X-318185Y6933844D03*
G01*
X-282828Y6969226D03*
G01*
X-247472Y7004558D03*
G01*
X-212115Y7039940D03*
G01*
X-176758Y7075271D03*
G01*
X-141401Y7110628D03*
D51*
G01*
X141401Y7110628D03*
G01*
X176758Y7075271D03*
G01*
X212115Y7039940D03*
G01*
X247472Y7004558D03*
G01*
X282828Y6969226D03*
G01*
X318185Y6933844D03*
G01*
X353542Y6898513D03*
G01*
X388899Y6863156D03*
G01*
X424256Y6827799D03*
G01*
X459613Y6792442D03*
G01*
X494944Y6757085D03*
G01*
X530326Y6721728D03*
G01*
X565657Y6686372D03*
G01*
X601040Y6651015D03*
G01*
X636371Y6615658D03*
G01*
X671753Y6580301D03*
D50*
G01*
X671753Y6297498D03*
G01*
X636371Y6262141D03*
G01*
X601040Y6226784D03*
G01*
X565657Y6191427D03*
G01*
X530326Y6156071D03*
G01*
X494944Y6120714D03*
G01*
X459613Y6085357D03*
G01*
X424256Y6050000D03*
G01*
X388899Y6014643D03*
G01*
X353542Y5979287D03*
G01*
X318185Y5943955D03*
G01*
X282828Y5908573D03*
G01*
X247472Y5873242D03*
G01*
X212115Y5837859D03*
G01*
X176758Y5802528D03*
G01*
X141401Y5767146D03*
D51*
G01*
X-141401Y5767146D03*
G01*
X-176758Y5802528D03*
G01*
X-212115Y5837859D03*
G01*
X-247472Y5873242D03*
G01*
X-282828Y5908573D03*
G01*
X-318185Y5943955D03*
G01*
X-353542Y5979287D03*
G01*
X-388899Y6014643D03*
G01*
X-424256Y6050000D03*
G01*
X-459613Y6085357D03*
G01*
X-494944Y6120714D03*
G01*
X-530326Y6156071D03*
G01*
X-565657Y6191427D03*
G01*
X-601040Y6226784D03*
G01*
X-636371Y6262141D03*
G01*
X-671728Y6297498D03*
D52*
G01*
X1227124Y2361793D03*
G01*
X1227124Y2426792D03*
G01*
X1227124Y2491790D03*
G01*
X1227124Y2556789D03*
G01*
X1227124Y2621813D03*
G01*
X1227124Y2686812D03*
G01*
X1227124Y2751810D03*
G01*
X1227124Y2816809D03*
G01*
X1227124Y2881807D03*
G01*
X1227124Y2946806D03*
G01*
X652475Y2361793D03*
G01*
X652475Y2426792D03*
G01*
X652475Y2491790D03*
G01*
X652475Y2556789D03*
G01*
X652475Y2621813D03*
G01*
X652475Y2686812D03*
G01*
X652475Y2751810D03*
G01*
X652475Y2816809D03*
G01*
X652475Y2881807D03*
G01*
X652475Y2946806D03*
D53*
G01*
X939800Y2654300D03*
D54*
G01*
X1228877Y5645404D03*
G01*
X1228877Y5835395D03*
G01*
X1488922Y5835395D03*
G01*
X1488922Y5740400D03*
G01*
X1488922Y5645404D03*
D55*
G01*
X-126212Y7682306D03*
G01*
X-126212Y7632293D03*
G01*
X-126212Y7582306D03*
G01*
X-126212Y7532293D03*
D56*
G01*
X-49987Y7506055D03*
G01*
X-25Y7506055D03*
G01*
X50012Y7506055D03*
D55*
G01*
X126187Y7532293D03*
G01*
X126187Y7582306D03*
G01*
X126187Y7632293D03*
G01*
X126187Y7682306D03*
D56*
G01*
X50012Y7708544D03*
G01*
X-25Y7708544D03*
G01*
X-49987Y7708544D03*
D57*
G01*
X-673100Y2922597D03*
D58*
G01*
X-673100Y3122599D03*
D59*
G01*
X-896010Y2921000D03*
G01*
X-1135989Y2921000D03*
D57*
G01*
X-1384300Y2922597D03*
D58*
G01*
X-1384300Y3122599D03*
D60*
G01*
X-2144704Y5194300D03*
G01*
X-1944695Y5194300D03*
D61*
G01*
X-1727200Y6897695D03*
D62*
G01*
X-1727200Y7097699D03*
D61*
G01*
X1727200Y6897695D03*
D62*
G01*
X1727200Y7097699D03*
D63*
G01*
X2240000Y4709990D03*
G01*
X2039990Y4709990D03*
D35*
G01*
X-2235200Y5561724D03*
D36*
G01*
X-2235200Y5411063D03*
D64*
G01*
X-2081924Y6731000D03*
G01*
X-1931275Y6731000D03*
G01*
X1905875Y6731000D03*
G01*
X2056524Y6731000D03*
D37*
G01*
X1840624Y5016500D03*
G01*
X1689975Y5016500D03*
D35*
G01*
X-2400300Y5309475D03*
D36*
G01*
X-2400300Y5460136D03*
D37*
G01*
X-1613775Y6718300D03*
G01*
X-1764424Y6718300D03*
G01*
X1075322Y7489985D03*
G01*
X924673Y7489985D03*
G01*
X2196224Y4914900D03*
G01*
X2045575Y4914900D03*
D61*
G01*
X-1447800Y2185995D03*
D62*
G01*
X-1447800Y2385999D03*
D61*
G01*
X-596900Y2185995D03*
D62*
G01*
X-596900Y2385999D03*
D65*
G01*
X-2081199Y5581395D03*
G01*
X-2081199Y5391404D03*
G01*
X-1881200Y5486400D03*
D66*
G01*
X-2094992Y6899986D03*
G01*
X-1905000Y6899986D03*
G01*
X-1999995Y7099985D03*
G01*
X1905000Y6899986D03*
G01*
X2094991Y6899986D03*
G01*
X1999995Y7099985D03*
D67*
G01*
X-1243507Y2039086D03*
G01*
X-1178509Y2039086D03*
G01*
X-1113510Y2039086D03*
G01*
X-1048486Y2039086D03*
G01*
X-983487Y2039086D03*
G01*
X-918489Y2039086D03*
G01*
X-853490Y2039086D03*
G01*
X-788492Y2039086D03*
G01*
X-1243507Y2609087D03*
G01*
X-1178509Y2609087D03*
G01*
X-1113510Y2609087D03*
G01*
X-1048486Y2609087D03*
G01*
X-983487Y2609087D03*
G01*
X-918489Y2609087D03*
G01*
X-853490Y2609087D03*
G01*
X-788492Y2609087D03*
D68*
G01*
X-1016000Y2324100D03*
D30*
G01*
X1967306Y6299200D03*
G01*
X1817293Y6299200D03*
G01*
X-2147493Y5981700D03*
G01*
X-2297506Y5981700D03*
D66*
G01*
X1860295Y4862499D03*
G01*
X1670304Y4862499D03*
G01*
X1765300Y4662500D03*
D69*
G01*
X1172108Y3952951D03*
G01*
X1172108Y4152950D03*
G01*
X1172108Y4352950D03*
G01*
X1622094Y4352950D03*
G01*
X1622094Y4152950D03*
G01*
X1622094Y3952951D03*
D70*
G01*
X618997Y5139994D03*
D71*
G01*
X872997Y5139994D03*
G01*
X1126997Y5139994D03*
G01*
X1380997Y5139994D03*
D72*
G01*
X-879982Y5249976D03*
D73*
G01*
X-1134008Y5249976D03*
G01*
X-1388008Y5249976D03*
G01*
X-1642008Y5249976D03*
D74*
G01*
X-1002512Y7214641D03*
G01*
X-1129512Y6994677D03*
G01*
X-2557221Y4729606D03*
G01*
X-2810865Y4716322D03*
G01*
X1125601Y6988124D03*
G01*
X998601Y7208088D03*
G01*
X2789910Y4714798D03*
G01*
X2536266Y4728108D03*
G01*
X-2577998Y4969713D03*
G01*
X-2831668Y4956403D03*
G01*
X-1198473Y7327264D03*
G01*
X-1325473Y7107301D03*
G01*
X1325422Y7090613D03*
G01*
X1198422Y7310602D03*
G01*
X2805811Y4943119D03*
G01*
X2552166Y4956429D03*
D75*
G01*
X637209Y4352315D03*
G01*
X637209Y4606315D03*
G01*
X637006Y4101464D03*
D76*
G01*
X879805Y2714294D03*
G01*
X879805Y2594305D03*
G01*
X999794Y2594305D03*
G01*
X999794Y2714294D03*
G01*
X-965987Y2374087D03*
G01*
X-1065987Y2374087D03*
G01*
X-1065987Y2274087D03*
G01*
X-965987Y2274087D03*
D77*
G01*
X76200Y2628900D03*
G01*
X76200Y2717800D03*
G01*
X165100Y2628900D03*
G01*
X165100Y2717800D03*
G01*
X165100Y2806700D03*
G01*
X254000Y2717800D03*
G01*
X254000Y2806700D03*
G01*
X1473200Y6070600D03*
G01*
X1562100Y6070600D03*
G01*
X1447800Y6007100D03*
G01*
X1524000Y6007100D03*
G01*
X1600200Y6007100D03*
G01*
X280009Y7389977D03*
G01*
X380009Y7389977D03*
G01*
X-12700Y7797800D03*
G01*
X-249986Y7619974D03*
G01*
X-219989Y7249972D03*
G01*
X180009Y4859985D03*
G01*
X-10007Y3789984D03*
G01*
X-1866900Y3911600D03*
G01*
X-1866900Y5003800D03*
G01*
X0Y254000D03*
G01*
X70002Y1459992D03*
G01*
X1866900Y1358900D03*
G01*
X1866900Y266700D03*
G01*
X640003Y7309993D03*
G01*
X1168400Y3022600D03*
G01*
X1270000Y3022600D03*
G01*
X596900Y3035300D03*
G01*
X698500Y3035300D03*
G01*
X-850900Y2717800D03*
G01*
X-762000Y2717800D03*
G01*
X-1181100Y2717800D03*
G01*
X-1270000Y2717800D03*
G01*
X-1524000Y787400D03*
G01*
X-1524000Y1041400D03*
G01*
X-1333500Y1257300D03*
G01*
X-952500Y901700D03*
G01*
X-952500Y647700D03*
G01*
X-952500Y520700D03*
G01*
X-2199995Y829995D03*
G01*
X685800Y3797300D03*
G01*
X685800Y3505200D03*
G01*
X-710006Y7009993D03*
G01*
X-710006Y6929983D03*
G01*
X-1828800Y5613400D03*
G01*
X571500Y5854700D03*
G01*
X482600Y5842000D03*
G01*
X622300Y5981700D03*
G01*
X750011Y5839993D03*
G01*
X685800Y6045200D03*
G01*
X1119987Y5829985D03*
G01*
X1059992Y5759983D03*
G01*
X1529994Y7039990D03*
G01*
X1319987Y5349976D03*
G01*
X-1440002Y6719976D03*
G01*
X-670001Y5639993D03*
G01*
X-640003Y5819978D03*
G01*
X840003Y5529986D03*
G01*
X919987Y5529986D03*
G01*
X840003Y5439994D03*
G01*
X919987Y5439994D03*
G01*
X-1199997Y3499993D03*
G01*
X-1140002Y3580003D03*
G01*
X-1249984Y3589985D03*
G01*
X189992Y3539997D03*
G01*
X250012Y3599992D03*
G01*
X159994Y3599992D03*
G01*
X-1129995Y6479997D03*
G01*
X-2229993Y6449974D03*
G01*
X750011Y6419977D03*
G01*
X-2119985Y4969713D03*
G01*
X-2209063Y4969713D03*
G01*
X-2029993Y910005D03*
G01*
X-2089988Y970000D03*
G01*
X540004Y7129983D03*
G01*
X610006Y7069988D03*
G01*
X670001Y6999986D03*
G01*
X929995Y6699986D03*
G01*
X1510004Y6199987D03*
G01*
X-1780006Y1689988D03*
G01*
X-1333500Y2634208D03*
G01*
X-1710004Y1610004D03*
G01*
X180009Y5129987D03*
G01*
X280009Y5139994D03*
G01*
X2375027Y6571742D03*
G01*
X-2449982Y6649973D03*
G01*
X399999Y4249978D03*
G01*
X229996Y4980000D03*
G01*
X540004Y4919979D03*
G01*
X1659991Y5219979D03*
G01*
X1810004Y6089980D03*
G01*
X2289987Y6199987D03*
G01*
X-519937Y5210047D03*
G01*
X-1010005Y6109995D03*
G01*
X-1510004Y6079997D03*
G01*
X970000Y6999986D03*
G01*
X-180009Y5319979D03*
G01*
X150012Y5649976D03*
G01*
X1080007Y5349976D03*
G01*
X1340002Y5529986D03*
G01*
X1399997Y5459984D03*
G01*
X1419987Y5529986D03*
G01*
X999997Y5309996D03*
G01*
X1019987Y5399989D03*
G01*
X470001Y3899992D03*
G01*
X470001Y3829989D03*
G01*
X340004Y3719982D03*
G01*
X310006Y3799992D03*
G01*
X1559991Y2569997D03*
G01*
X1559991Y2480005D03*
G01*
X1480007Y2419985D03*
G01*
X1389989Y2419985D03*
G01*
X1389989Y2340000D03*
G01*
X489991Y2429992D03*
G01*
X489991Y2349982D03*
G01*
X-649986Y2519984D03*
G01*
X-559993Y2519984D03*
G01*
X-1359992Y2519984D03*
G01*
X-1299997Y2459989D03*
G01*
X-2059990Y540004D03*
G01*
X1719986Y5149977D03*
G01*
X2119985Y5339994D03*
G01*
X2199995Y5379999D03*
G01*
X1229995Y7479995D03*
G01*
X1369999Y7409992D03*
G01*
X1599996Y7239990D03*
G01*
X1640001Y6729984D03*
G01*
X1759991Y6729984D03*
G01*
X2169998Y6649973D03*
G01*
X-910005Y5499988D03*
G01*
X1040003Y4199991D03*
G01*
X1669999Y5599988D03*
G01*
X1669999Y5499988D03*
G01*
X1089990Y6329984D03*
G01*
X-910005Y6419977D03*
G01*
X-910005Y6339992D03*
G01*
X-799998Y7799984D03*
G01*
X-2589987Y5749975D03*
G01*
X170002Y7299985D03*
G01*
X529996Y7659979D03*
G01*
X840003Y7299985D03*
G01*
X1769998Y5219979D03*
G01*
X729995Y6919976D03*
G01*
X310006Y3889984D03*
G01*
X310006Y3969994D03*
G01*
X310006Y4059986D03*
G01*
X-1810004Y3810000D03*
G01*
X-1759991Y3909999D03*
G01*
X1669999Y5499988D03*
G01*
X719988Y3719982D03*
G01*
X910005Y4089984D03*
G01*
X1880006Y4480001D03*
G01*
X1969998Y4480001D03*
G01*
X1919986Y4399991D03*
G01*
X1669999Y5080000D03*
G01*
X1750009Y5080000D03*
G01*
X2010003Y5119979D03*
G01*
X2089988Y5119979D03*
G01*
X2040000Y5049977D03*
G01*
X2110003Y6439992D03*
G01*
X2199995Y6439992D03*
G01*
X2149983Y6369989D03*
G01*
X289991Y3110001D03*
G01*
X-610006Y2599994D03*
G01*
X459994Y5359984D03*
G01*
X540004Y5359984D03*
G01*
X499998Y5289981D03*
G01*
X610006Y5459984D03*
G01*
X-29997Y5649976D03*
G01*
X-780008Y4389983D03*
G01*
X-670001Y4389983D03*
G01*
X-729995Y4299991D03*
G01*
X-1599996Y5519978D03*
G01*
X-1529994Y5569991D03*
G01*
X-1489989Y7319975D03*
G01*
X1650009Y6449974D03*
M02*
