G04 Layer: BottomLayer*
G04 EasyEDA v6.5.46, 2025-06-12 16:27:01*
G04 6984151e568f4603bee7606f082ae18e,f8d66010605f41bc84f108214e51d488,10*
G04 Gerber Generator version 0.2*
G04 Scale: 100 percent, Rotated: No, Reflected: No *
G04 Dimensions in millimeters *
G04 leading zeros omitted , absolute positions ,4 integer and 5 decimal *
%FSLAX45Y45*%
%MOMM*%

%ADD10C,0.8000*%
%ADD11C,0.3000*%
%ADD12C,1.1670*%
%ADD13C,0.2490*%
%ADD14C,1.1160*%
%ADD15C,0.4020*%
%ADD16C,0.3920*%
%ADD17C,0.9020*%
%ADD18C,0.2390*%
%ADD19C,1.0040*%
%ADD20C,0.3410*%
%ADD21C,0.9530*%
%ADD22C,1.6000*%
%ADD23R,1.7000X1.7000*%
%ADD24C,1.7000*%
%ADD25R,2.0000X2.0000*%
%ADD26C,2.0000*%
%ADD27C,1.4999*%
%ADD28C,1.7780*%
%ADD29C,0.6096*%
%ADD30C,0.6200*%
%ADD31C,0.0188*%

%LPD*%
G36*
X-315417Y7599375D02*
G01*
X-319633Y7600035D01*
X-323189Y7602372D01*
X-420370Y7699502D01*
X-424891Y7703718D01*
X-429564Y7707528D01*
X-434492Y7710931D01*
X-439674Y7714030D01*
X-445058Y7716723D01*
X-450596Y7719009D01*
X-456336Y7720888D01*
X-462127Y7722412D01*
X-468071Y7723479D01*
X-474065Y7724089D01*
X-480263Y7724343D01*
X-939698Y7724343D01*
X-992784Y7723276D01*
X-1045514Y7720279D01*
X-1098092Y7715351D01*
X-1150467Y7708493D01*
X-1202537Y7699603D01*
X-1254201Y7688834D01*
X-1305458Y7676134D01*
X-1356207Y7661503D01*
X-1396238Y7648346D01*
X-1400657Y7647889D01*
X-1404772Y7649362D01*
X-1407922Y7652410D01*
X-1409496Y7656575D01*
X-1409141Y7660944D01*
X-1406956Y7664805D01*
X-1403400Y7667345D01*
X-1377848Y7678115D01*
X-1311757Y7703921D01*
X-1244955Y7727848D01*
X-1177594Y7749946D01*
X-1109573Y7770215D01*
X-1041044Y7788554D01*
X-972058Y7805013D01*
X-902665Y7819593D01*
X-832866Y7832191D01*
X-762711Y7842910D01*
X-692353Y7851698D01*
X-621741Y7858506D01*
X-550976Y7863382D01*
X-480110Y7866329D01*
X-409041Y7867294D01*
X-43789Y7867294D01*
X-39522Y7866380D01*
X-36068Y7863738D01*
X-34036Y7859877D01*
X-33782Y7855559D01*
X-35356Y7851495D01*
X-38455Y7848498D01*
X-46532Y7843520D01*
X-49123Y7841234D01*
X-52222Y7839354D01*
X-55829Y7838694D01*
X-121666Y7838694D01*
X-130149Y7837881D01*
X-137820Y7835544D01*
X-144881Y7831785D01*
X-151434Y7826349D01*
X-278485Y7699298D01*
X-283921Y7692745D01*
X-287680Y7685684D01*
X-290017Y7678013D01*
X-290830Y7669530D01*
X-290830Y7663180D01*
X-291439Y7659776D01*
X-293116Y7656779D01*
X-297129Y7651800D01*
X-301802Y7643418D01*
X-305003Y7634325D01*
X-306628Y7624775D01*
X-306628Y7615174D01*
X-305968Y7611262D01*
X-306171Y7606995D01*
X-308051Y7603185D01*
X-311353Y7600492D01*
G37*

%LPD*%
G36*
X908558Y6070396D02*
G01*
X904697Y6071158D01*
X901395Y6073343D01*
X899160Y6076645D01*
X898398Y6080556D01*
X898398Y6636562D01*
X899160Y6640423D01*
X901344Y6643725D01*
X904595Y6645960D01*
X908456Y6646722D01*
X922782Y6643573D01*
X932434Y6643166D01*
X941984Y6644386D01*
X951179Y6647230D01*
X959815Y6651548D01*
X967587Y6657289D01*
X974242Y6664248D01*
X979627Y6672275D01*
X983640Y6681063D01*
X986028Y6690359D01*
X986840Y6699910D01*
X987755Y6703364D01*
X989787Y6706260D01*
X996391Y6712864D01*
X1001420Y6718960D01*
X1004925Y6725513D01*
X1007059Y6732625D01*
X1007871Y6740499D01*
X1007871Y6953503D01*
X1008583Y6957314D01*
X1010666Y6960514D01*
X1012393Y6962343D01*
X1015898Y6964730D01*
X1020013Y6965492D01*
X1024128Y6964476D01*
X1027480Y6961936D01*
X1029462Y6958228D01*
X1031087Y6952894D01*
X1036574Y6940651D01*
X1043736Y6929170D01*
X1052322Y6918807D01*
X1062177Y6909663D01*
X1073200Y6901891D01*
X1085189Y6895693D01*
X1097889Y6891121D01*
X1111046Y6888327D01*
X1124458Y6887260D01*
X1137920Y6888022D01*
X1151178Y6890562D01*
X1163929Y6894830D01*
X1176020Y6900773D01*
X1187246Y6908241D01*
X1197305Y6917181D01*
X1206144Y6927392D01*
X1213510Y6938670D01*
X1219301Y6950811D01*
X1223467Y6963664D01*
X1225854Y6976922D01*
X1226464Y6990384D01*
X1225245Y7003796D01*
X1222298Y7016953D01*
X1217574Y7029551D01*
X1211224Y7041438D01*
X1203350Y7052411D01*
X1194104Y7062165D01*
X1183589Y7070648D01*
X1172108Y7077659D01*
X1159764Y7083044D01*
X1146810Y7086752D01*
X1133449Y7088682D01*
X1119987Y7088835D01*
X1106627Y7087209D01*
X1093571Y7083806D01*
X1081125Y7078675D01*
X1069441Y7071918D01*
X1058773Y7063689D01*
X1049274Y7054088D01*
X1041196Y7043369D01*
X1034643Y7031786D01*
X1031951Y7028688D01*
X1028293Y7026909D01*
X1024178Y7026706D01*
X1020318Y7028180D01*
X1017371Y7031075D01*
X1014272Y7035698D01*
X1007567Y7042658D01*
X999794Y7048398D01*
X991209Y7052767D01*
X981964Y7055561D01*
X972413Y7056831D01*
X962761Y7056374D01*
X953363Y7054342D01*
X944371Y7050786D01*
X936193Y7045706D01*
X928928Y7039356D01*
X922883Y7031837D01*
X918159Y7023404D01*
X915669Y7018477D01*
X912571Y7016140D01*
X908761Y7015124D01*
X904900Y7015581D01*
X901496Y7017461D01*
X899058Y7020509D01*
X897940Y7024268D01*
X897636Y7027519D01*
X895451Y7034733D01*
X891895Y7041337D01*
X886815Y7047534D01*
X681431Y7252919D01*
X679196Y7256221D01*
X678434Y7260132D01*
X678434Y7264095D01*
X679145Y7267905D01*
X681278Y7271156D01*
X684276Y7274255D01*
X689660Y7282281D01*
X693623Y7291070D01*
X696061Y7300366D01*
X696874Y7309967D01*
X696061Y7319619D01*
X693623Y7328916D01*
X689660Y7337704D01*
X684276Y7345730D01*
X677570Y7352690D01*
X669798Y7358430D01*
X661212Y7362748D01*
X651967Y7365593D01*
X642416Y7366812D01*
X632764Y7366406D01*
X623366Y7364374D01*
X614375Y7360767D01*
X606196Y7355738D01*
X598932Y7349337D01*
X592886Y7341819D01*
X588162Y7333437D01*
X584962Y7324344D01*
X583336Y7314793D01*
X583336Y7305192D01*
X584962Y7295642D01*
X588162Y7286548D01*
X592886Y7278166D01*
X599490Y7269988D01*
X601167Y7266990D01*
X601726Y7263587D01*
X601726Y7247026D01*
X600964Y7243165D01*
X598728Y7239863D01*
X595426Y7237628D01*
X591566Y7236866D01*
X587654Y7237628D01*
X584403Y7239863D01*
X567334Y7256881D01*
X561136Y7261961D01*
X554532Y7265517D01*
X547370Y7267702D01*
X539394Y7268464D01*
X47955Y7268464D01*
X43637Y7269429D01*
X40182Y7272070D01*
X38150Y7275931D01*
X37896Y7280300D01*
X39573Y7284364D01*
X42722Y7287361D01*
X45567Y7289038D01*
X50546Y7292492D01*
X55168Y7296251D01*
X59740Y7300518D01*
X201879Y7442860D01*
X205181Y7445044D01*
X209092Y7445806D01*
X230987Y7445806D01*
X234746Y7445095D01*
X237947Y7443114D01*
X240182Y7440066D01*
X241147Y7436408D01*
X240690Y7432598D01*
X238912Y7429296D01*
X232867Y7421829D01*
X228193Y7413396D01*
X224993Y7404303D01*
X223367Y7394803D01*
X223367Y7385151D01*
X224993Y7375652D01*
X228193Y7366558D01*
X232867Y7358125D01*
X238963Y7350607D01*
X246176Y7344257D01*
X254406Y7339177D01*
X263347Y7335621D01*
X272796Y7333589D01*
X282448Y7333132D01*
X291998Y7334402D01*
X301193Y7337196D01*
X309829Y7341565D01*
X317601Y7347305D01*
X322681Y7352588D01*
X326186Y7354976D01*
X330403Y7355687D01*
X334568Y7354620D01*
X337921Y7351928D01*
X338937Y7350607D01*
X346202Y7344257D01*
X354380Y7339177D01*
X363372Y7335621D01*
X372770Y7333589D01*
X382422Y7333132D01*
X391972Y7334402D01*
X401218Y7337196D01*
X409803Y7341565D01*
X417576Y7347305D01*
X424281Y7354265D01*
X429666Y7362240D01*
X433628Y7371029D01*
X436067Y7380376D01*
X436880Y7389977D01*
X436067Y7399578D01*
X433628Y7408925D01*
X429666Y7417714D01*
X424281Y7425690D01*
X421436Y7428636D01*
X419354Y7431938D01*
X418642Y7435799D01*
X419455Y7439659D01*
X421640Y7442911D01*
X424942Y7445044D01*
X428802Y7445806D01*
X760730Y7445806D01*
X764641Y7445044D01*
X767943Y7442860D01*
X911250Y7299553D01*
X913434Y7296251D01*
X914196Y7292340D01*
X914196Y7266025D01*
X913892Y7263485D01*
X912926Y7261047D01*
X907592Y7251598D01*
X902563Y7239050D01*
X899312Y7225995D01*
X897839Y7212584D01*
X898144Y7199122D01*
X900226Y7185812D01*
X904087Y7172909D01*
X909574Y7160615D01*
X916736Y7149185D01*
X925321Y7138771D01*
X935177Y7129627D01*
X946200Y7121855D01*
X958189Y7115657D01*
X970889Y7111085D01*
X984046Y7108291D01*
X997458Y7107224D01*
X1010919Y7107986D01*
X1024178Y7110526D01*
X1036929Y7114794D01*
X1049020Y7120737D01*
X1060246Y7128256D01*
X1070305Y7137146D01*
X1079144Y7147356D01*
X1086510Y7158634D01*
X1092301Y7170775D01*
X1096467Y7183628D01*
X1098854Y7196886D01*
X1099464Y7210348D01*
X1098245Y7223759D01*
X1095298Y7236917D01*
X1090574Y7249515D01*
X1083919Y7262012D01*
X1083056Y7264298D01*
X1082751Y7266787D01*
X1082751Y7276693D01*
X1083564Y7280757D01*
X1085900Y7284110D01*
X1089406Y7286244D01*
X1093470Y7286853D01*
X1097483Y7285786D01*
X1100683Y7283246D01*
X1102614Y7279640D01*
X1103884Y7275372D01*
X1109421Y7263079D01*
X1116533Y7251649D01*
X1125118Y7241286D01*
X1135024Y7232142D01*
X1146048Y7224369D01*
X1157986Y7218172D01*
X1170686Y7213600D01*
X1183843Y7210755D01*
X1197305Y7209739D01*
X1210767Y7210450D01*
X1223975Y7212990D01*
X1236776Y7217308D01*
X1248867Y7223252D01*
X1260043Y7230719D01*
X1270152Y7239660D01*
X1278991Y7249871D01*
X1286357Y7261148D01*
X1292148Y7273290D01*
X1296314Y7286091D01*
X1298702Y7299401D01*
X1299260Y7312863D01*
X1298092Y7326274D01*
X1295095Y7339380D01*
X1290421Y7352030D01*
X1284071Y7363917D01*
X1276197Y7374839D01*
X1266901Y7384643D01*
X1256436Y7393127D01*
X1244904Y7400137D01*
X1232560Y7405522D01*
X1219606Y7409230D01*
X1206296Y7411161D01*
X1192784Y7411313D01*
X1179423Y7409688D01*
X1166418Y7406233D01*
X1153922Y7401153D01*
X1142288Y7394397D01*
X1131570Y7386167D01*
X1122121Y7376566D01*
X1113993Y7365796D01*
X1107389Y7354062D01*
X1100378Y7336485D01*
X1097432Y7333843D01*
X1093724Y7332472D01*
X1089812Y7332675D01*
X1086205Y7334300D01*
X1083513Y7337196D01*
X1082141Y7340904D01*
X1080770Y7349439D01*
X1079296Y7355179D01*
X1077417Y7360920D01*
X1075131Y7366457D01*
X1072438Y7371842D01*
X1069340Y7377023D01*
X1065936Y7381951D01*
X1062126Y7386624D01*
X1057910Y7391146D01*
X859536Y7589520D01*
X855014Y7593736D01*
X850341Y7597546D01*
X845413Y7600950D01*
X840232Y7604048D01*
X834847Y7606741D01*
X829310Y7609027D01*
X823569Y7610906D01*
X817778Y7612430D01*
X811834Y7613497D01*
X805840Y7614107D01*
X799642Y7614361D01*
X170129Y7614361D01*
X163830Y7614107D01*
X157937Y7613497D01*
X151942Y7612380D01*
X146202Y7610906D01*
X140411Y7608976D01*
X134924Y7606741D01*
X129489Y7603998D01*
X124358Y7600950D01*
X119380Y7597495D01*
X114757Y7593736D01*
X110185Y7589469D01*
X-31953Y7447127D01*
X-35255Y7444943D01*
X-39166Y7444181D01*
X-42062Y7444181D01*
X-45923Y7444943D01*
X-49225Y7447127D01*
X-51460Y7450429D01*
X-52222Y7454341D01*
X-51460Y7458202D01*
X-49225Y7461503D01*
X191922Y7702702D01*
X195224Y7704886D01*
X199136Y7705648D01*
X361543Y7705699D01*
X425399Y7704734D01*
X489813Y7701838D01*
X554126Y7696962D01*
X618236Y7690154D01*
X682142Y7681417D01*
X745744Y7670749D01*
X808990Y7658150D01*
X871829Y7643672D01*
X934212Y7627264D01*
X996086Y7609027D01*
X1057351Y7588910D01*
X1117955Y7566914D01*
X1177899Y7543139D01*
X1237132Y7517587D01*
X1295501Y7490206D01*
X1353058Y7461097D01*
X1409700Y7430262D01*
X1465376Y7397750D01*
X1468983Y7394752D01*
X1470660Y7391501D01*
X1471066Y7387894D01*
X1470152Y7384389D01*
X1468120Y7381392D01*
X1275486Y7188758D01*
X1268018Y7180021D01*
X1261770Y7169810D01*
X1260348Y7167981D01*
X1249121Y7156602D01*
X1240993Y7145832D01*
X1234389Y7134098D01*
X1229410Y7121601D01*
X1226159Y7108494D01*
X1224635Y7095134D01*
X1224940Y7081621D01*
X1227023Y7068312D01*
X1230884Y7055408D01*
X1236421Y7043115D01*
X1243533Y7031685D01*
X1246987Y7027519D01*
X1248714Y7024522D01*
X1249324Y7021068D01*
X1249324Y6411163D01*
X1248562Y6407251D01*
X1246327Y6403949D01*
X915720Y6073343D01*
X912469Y6071158D01*
G37*

%LPD*%
G36*
X1627581Y5267604D02*
G01*
X1623314Y5267960D01*
X1619554Y5270042D01*
X1617014Y5273497D01*
X1616100Y5277713D01*
X1616100Y5945378D01*
X1616811Y5949035D01*
X1618742Y5952236D01*
X1621688Y5954471D01*
X1630019Y5958687D01*
X1637792Y5964428D01*
X1644446Y5971387D01*
X1649831Y5979363D01*
X1653844Y5988151D01*
X1656232Y5997498D01*
X1657096Y6007100D01*
X1656232Y6016701D01*
X1653844Y6026048D01*
X1649831Y6034836D01*
X1644446Y6042812D01*
X1637792Y6049772D01*
X1630019Y6055512D01*
X1624330Y6058408D01*
X1621180Y6060846D01*
X1619250Y6064351D01*
X1618792Y6068314D01*
X1618996Y6070600D01*
X1618132Y6080201D01*
X1615744Y6089548D01*
X1611731Y6098336D01*
X1606346Y6106312D01*
X1599692Y6113272D01*
X1591919Y6119012D01*
X1583283Y6123381D01*
X1574088Y6126175D01*
X1564538Y6127445D01*
X1554886Y6126988D01*
X1545437Y6124956D01*
X1538122Y6122060D01*
X1534515Y6121298D01*
X1530858Y6121908D01*
X1527708Y6123787D01*
X1522476Y6128258D01*
X1519885Y6131712D01*
X1518970Y6135878D01*
X1519885Y6140094D01*
X1522425Y6143548D01*
X1526184Y6145682D01*
X1531213Y6147206D01*
X1539798Y6151575D01*
X1547571Y6157315D01*
X1549196Y6158992D01*
X1552549Y6161328D01*
X1556562Y6162141D01*
X1785061Y6162141D01*
X1788922Y6161328D01*
X1792224Y6159144D01*
X1794459Y6155791D01*
X1795221Y6151930D01*
X1794408Y6148019D01*
X1792173Y6144717D01*
X1788820Y6142532D01*
X1784400Y6140754D01*
X1776171Y6135725D01*
X1768957Y6129324D01*
X1762861Y6121806D01*
X1758188Y6113424D01*
X1754987Y6104331D01*
X1753362Y6094780D01*
X1753362Y6085179D01*
X1754987Y6075629D01*
X1758188Y6066536D01*
X1762861Y6058154D01*
X1769821Y6049670D01*
X1771548Y6046622D01*
X1772157Y6043218D01*
X1772157Y5389880D01*
X1771345Y5385968D01*
X1769160Y5382717D01*
X1666087Y5279644D01*
X1662988Y5277510D01*
X1659382Y5276646D01*
X1652778Y5276392D01*
X1643329Y5274360D01*
X1634388Y5270754D01*
X1631594Y5269026D01*
G37*

%LPD*%
G36*
X-1310081Y5128361D02*
G01*
X-1314145Y5129225D01*
X-1317548Y5131612D01*
X-1319682Y5135168D01*
X-1320190Y5139334D01*
X-1319022Y5143296D01*
X-1316329Y5146497D01*
X-1304493Y5155742D01*
X-1293774Y5166512D01*
X-1284376Y5178501D01*
X-1276553Y5191506D01*
X-1270304Y5205323D01*
X-1265783Y5219852D01*
X-1263040Y5234838D01*
X-1262126Y5249976D01*
X-1263040Y5265166D01*
X-1265783Y5280101D01*
X-1270304Y5294630D01*
X-1273251Y5301234D01*
X-1274165Y5305196D01*
X-1273403Y5309158D01*
X-1271168Y5312562D01*
X-685698Y5898032D01*
X-682396Y5900267D01*
X-678535Y5901029D01*
X-674624Y5900267D01*
X-671322Y5898032D01*
X-669137Y5894730D01*
X-668375Y5890869D01*
X-668375Y5874766D01*
X-668934Y5871362D01*
X-670610Y5868365D01*
X-681075Y5859322D01*
X-687120Y5851804D01*
X-691845Y5843422D01*
X-695045Y5834329D01*
X-696671Y5824778D01*
X-696671Y5815177D01*
X-695045Y5805627D01*
X-691845Y5796534D01*
X-687120Y5788152D01*
X-681075Y5780633D01*
X-673811Y5774232D01*
X-665632Y5769203D01*
X-656640Y5765596D01*
X-647242Y5763564D01*
X-637590Y5763158D01*
X-628040Y5764377D01*
X-618794Y5767222D01*
X-614832Y5768238D01*
X-610819Y5767578D01*
X-607364Y5765444D01*
X-605028Y5762091D01*
X-604215Y5758078D01*
X-604215Y5677001D01*
X-605078Y5672836D01*
X-607618Y5669381D01*
X-611378Y5667298D01*
X-615645Y5666943D01*
X-619658Y5668365D01*
X-622757Y5671312D01*
X-625754Y5675731D01*
X-632409Y5682691D01*
X-640181Y5688431D01*
X-648817Y5692749D01*
X-658012Y5695594D01*
X-667562Y5696813D01*
X-677214Y5696407D01*
X-686663Y5694375D01*
X-695604Y5690768D01*
X-703834Y5685739D01*
X-711047Y5679338D01*
X-717143Y5671820D01*
X-721817Y5663438D01*
X-725017Y5654344D01*
X-726643Y5644794D01*
X-726643Y5641797D01*
X-727456Y5637885D01*
X-729640Y5634583D01*
X-766775Y5597448D01*
X-771855Y5591302D01*
X-775411Y5584647D01*
X-777595Y5577484D01*
X-778357Y5569508D01*
X-778357Y5386070D01*
X-779119Y5382158D01*
X-781354Y5378856D01*
X-784606Y5376672D01*
X-788517Y5375910D01*
X-979424Y5375910D01*
X-985774Y5375198D01*
X-991209Y5373268D01*
X-996086Y5370169D01*
X-1000201Y5366105D01*
X-1003300Y5361178D01*
X-1005179Y5355742D01*
X-1005890Y5349443D01*
X-1005890Y5150561D01*
X-1005179Y5144262D01*
X-1004366Y5141874D01*
X-1003808Y5138064D01*
X-1004722Y5134305D01*
X-1006906Y5131155D01*
X-1010158Y5129072D01*
X-1013968Y5128361D01*
G37*

%LPD*%
G36*
X-2062225Y4888331D02*
G01*
X-2066289Y4889195D01*
X-2069744Y4891684D01*
X-2071827Y4895291D01*
X-2072335Y4899456D01*
X-2071065Y4903470D01*
X-2068271Y4906619D01*
X-2066493Y4907991D01*
X-2058263Y4916220D01*
X-2051304Y4925568D01*
X-2045716Y4935778D01*
X-2041601Y4946700D01*
X-2039162Y4958080D01*
X-2038299Y4969713D01*
X-2039162Y4981346D01*
X-2041601Y4992725D01*
X-2045716Y5003647D01*
X-2051304Y5013858D01*
X-2058263Y5023205D01*
X-2066493Y5031435D01*
X-2075840Y5038445D01*
X-2086051Y5044033D01*
X-2096973Y5048097D01*
X-2108352Y5050586D01*
X-2120341Y5051399D01*
X-2515768Y5051399D01*
X-2519019Y5051958D01*
X-2534208Y5060594D01*
X-2546705Y5065623D01*
X-2554732Y5067655D01*
X-2557272Y5068671D01*
X-2559456Y5070297D01*
X-2811830Y5322722D01*
X-2814066Y5326075D01*
X-2814828Y5330088D01*
X-2814726Y5337606D01*
X-2811627Y5404967D01*
X-2806547Y5472277D01*
X-2799435Y5539333D01*
X-2790291Y5606186D01*
X-2779115Y5672734D01*
X-2765958Y5738876D01*
X-2750820Y5804611D01*
X-2733649Y5869889D01*
X-2714548Y5934557D01*
X-2693517Y5998667D01*
X-2670556Y6062116D01*
X-2645664Y6124803D01*
X-2618892Y6186728D01*
X-2590292Y6247841D01*
X-2559862Y6308039D01*
X-2527604Y6367272D01*
X-2493568Y6425539D01*
X-2457805Y6482740D01*
X-2420315Y6538823D01*
X-2381148Y6593738D01*
X-2340356Y6647484D01*
X-2297938Y6699961D01*
X-2253945Y6751116D01*
X-2208479Y6800900D01*
X-2161590Y6849211D01*
X-1819198Y7191654D01*
X-1783994Y7225487D01*
X-1747469Y7257897D01*
X-1709724Y7288885D01*
X-1670761Y7318349D01*
X-1630730Y7346238D01*
X-1589582Y7372603D01*
X-1547469Y7397242D01*
X-1504391Y7420254D01*
X-1460449Y7441590D01*
X-1415694Y7461148D01*
X-1370228Y7478928D01*
X-1324102Y7494930D01*
X-1277366Y7509103D01*
X-1230122Y7521397D01*
X-1182420Y7531862D01*
X-1134313Y7540447D01*
X-1099515Y7545273D01*
X-1095349Y7544968D01*
X-1091641Y7542987D01*
X-1088999Y7539736D01*
X-1087983Y7535672D01*
X-1088644Y7531506D01*
X-1090930Y7528001D01*
X-1188059Y7430922D01*
X-1191615Y7428585D01*
X-1195781Y7427925D01*
X-1199591Y7428179D01*
X-1213053Y7427112D01*
X-1226210Y7424267D01*
X-1238910Y7419695D01*
X-1250848Y7413498D01*
X-1261872Y7405725D01*
X-1271778Y7396581D01*
X-1280363Y7386218D01*
X-1287475Y7374788D01*
X-1293012Y7362494D01*
X-1296873Y7349591D01*
X-1298956Y7336281D01*
X-1299260Y7322769D01*
X-1297736Y7309408D01*
X-1294485Y7296302D01*
X-1289507Y7283805D01*
X-1282903Y7272070D01*
X-1274775Y7261301D01*
X-1265326Y7251700D01*
X-1254607Y7243470D01*
X-1242974Y7236764D01*
X-1230477Y7231634D01*
X-1217472Y7228230D01*
X-1204112Y7226553D01*
X-1190599Y7226706D01*
X-1177290Y7228636D01*
X-1164336Y7232345D01*
X-1151991Y7237780D01*
X-1140460Y7244740D01*
X-1129995Y7253224D01*
X-1120698Y7263028D01*
X-1112824Y7273950D01*
X-1106474Y7285837D01*
X-1101801Y7298486D01*
X-1098804Y7311593D01*
X-1097635Y7325055D01*
X-1097838Y7330033D01*
X-1097178Y7334148D01*
X-1094892Y7337653D01*
X-879703Y7552842D01*
X-876401Y7555026D01*
X-872490Y7555788D01*
X-519176Y7555788D01*
X-515264Y7555026D01*
X-511962Y7552842D01*
X-420674Y7461503D01*
X-418439Y7458202D01*
X-417677Y7454341D01*
X-418439Y7450429D01*
X-420674Y7447127D01*
X-423976Y7444943D01*
X-427837Y7444181D01*
X-589838Y7444181D01*
X-596036Y7443927D01*
X-602030Y7443317D01*
X-607974Y7442250D01*
X-613765Y7440726D01*
X-619506Y7438847D01*
X-625043Y7436561D01*
X-630428Y7433868D01*
X-635609Y7430770D01*
X-640537Y7427366D01*
X-645210Y7423556D01*
X-649732Y7419340D01*
X-887628Y7181494D01*
X-891235Y7179157D01*
X-895553Y7178548D01*
X-899718Y7179767D01*
X-902969Y7182612D01*
X-904748Y7186574D01*
X-904697Y7190943D01*
X-902868Y7198969D01*
X-901700Y7212380D01*
X-902258Y7225842D01*
X-904646Y7239152D01*
X-908812Y7251953D01*
X-914603Y7264095D01*
X-921969Y7275372D01*
X-930808Y7285583D01*
X-940917Y7294524D01*
X-952093Y7301992D01*
X-964184Y7307935D01*
X-976985Y7312253D01*
X-990193Y7314793D01*
X-1003655Y7315504D01*
X-1017066Y7314488D01*
X-1030274Y7311644D01*
X-1042924Y7307072D01*
X-1054912Y7300874D01*
X-1065936Y7293102D01*
X-1075842Y7283958D01*
X-1084427Y7273594D01*
X-1091539Y7262164D01*
X-1097076Y7249871D01*
X-1100937Y7236917D01*
X-1103020Y7223607D01*
X-1103325Y7210145D01*
X-1101801Y7196785D01*
X-1098550Y7183678D01*
X-1093571Y7171181D01*
X-1086967Y7159447D01*
X-1078839Y7148677D01*
X-1069340Y7139076D01*
X-1058672Y7130846D01*
X-1047038Y7124090D01*
X-1034542Y7119010D01*
X-1021537Y7115556D01*
X-1008126Y7113930D01*
X-994664Y7114082D01*
X-981354Y7116013D01*
X-979474Y7116572D01*
X-975055Y7116825D01*
X-970940Y7115149D01*
X-967943Y7111949D01*
X-966571Y7107732D01*
X-967130Y7103313D01*
X-969518Y7099604D01*
X-987196Y7081875D01*
X-990498Y7079691D01*
X-994410Y7078929D01*
X-1071321Y7078929D01*
X-1074267Y7079335D01*
X-1079093Y7082028D01*
X-1091184Y7087971D01*
X-1103985Y7092238D01*
X-1117193Y7094778D01*
X-1130655Y7095540D01*
X-1144066Y7094524D01*
X-1157274Y7091680D01*
X-1169924Y7087108D01*
X-1181912Y7080910D01*
X-1192936Y7073138D01*
X-1202842Y7063994D01*
X-1211427Y7053630D01*
X-1218539Y7042150D01*
X-1224076Y7029907D01*
X-1227937Y7016953D01*
X-1230020Y7003643D01*
X-1230325Y6990181D01*
X-1228801Y6976770D01*
X-1225550Y6963714D01*
X-1220571Y6951218D01*
X-1213967Y6939432D01*
X-1205839Y6928713D01*
X-1196340Y6919112D01*
X-1185672Y6910882D01*
X-1179322Y6907174D01*
X-1176070Y6904228D01*
X-1174394Y6900164D01*
X-1174546Y6895744D01*
X-1176578Y6891832D01*
X-1180084Y6889191D01*
X-1184402Y6888225D01*
X-1276959Y6888225D01*
X-1280820Y6888988D01*
X-1284122Y6891223D01*
X-1286357Y6894474D01*
X-1287119Y6898386D01*
X-1287119Y7007606D01*
X-1286357Y7011416D01*
X-1284224Y7014667D01*
X-1281023Y7016902D01*
X-1278991Y7017766D01*
X-1267460Y7024776D01*
X-1256995Y7033259D01*
X-1247698Y7043064D01*
X-1239824Y7053986D01*
X-1233474Y7065873D01*
X-1228801Y7078522D01*
X-1225804Y7091629D01*
X-1224635Y7105040D01*
X-1225194Y7118502D01*
X-1227582Y7131812D01*
X-1231747Y7144613D01*
X-1237538Y7156754D01*
X-1244904Y7168032D01*
X-1253744Y7178243D01*
X-1263853Y7187184D01*
X-1275029Y7194651D01*
X-1287119Y7200595D01*
X-1299921Y7204913D01*
X-1313129Y7207453D01*
X-1326591Y7208164D01*
X-1340053Y7207148D01*
X-1353210Y7204303D01*
X-1365910Y7199731D01*
X-1377848Y7193534D01*
X-1388872Y7185761D01*
X-1398778Y7176617D01*
X-1407363Y7166254D01*
X-1414475Y7154824D01*
X-1420012Y7142530D01*
X-1423873Y7129627D01*
X-1425956Y7116267D01*
X-1426260Y7102805D01*
X-1424736Y7089444D01*
X-1421485Y7076338D01*
X-1416507Y7063841D01*
X-1409903Y7052106D01*
X-1401775Y7041337D01*
X-1392326Y7031736D01*
X-1381658Y7023506D01*
X-1368958Y7016242D01*
X-1366215Y7014006D01*
X-1364437Y7010958D01*
X-1363827Y7007453D01*
X-1363827Y6854596D01*
X-1364589Y6850735D01*
X-1366824Y6847433D01*
X-1434642Y6779615D01*
X-1437741Y6777481D01*
X-1441399Y6776618D01*
X-1447241Y6776364D01*
X-1456639Y6774332D01*
X-1465630Y6770776D01*
X-1473809Y6765696D01*
X-1481074Y6759346D01*
X-1487119Y6751828D01*
X-1491843Y6743395D01*
X-1495044Y6734302D01*
X-1496669Y6724802D01*
X-1496669Y6715150D01*
X-1495044Y6705650D01*
X-1491843Y6696557D01*
X-1487119Y6688124D01*
X-1481074Y6680606D01*
X-1473809Y6674256D01*
X-1465630Y6669176D01*
X-1456639Y6665620D01*
X-1447241Y6663588D01*
X-1437589Y6663131D01*
X-1428038Y6664401D01*
X-1418793Y6667195D01*
X-1410208Y6671564D01*
X-1402435Y6677304D01*
X-1395730Y6684264D01*
X-1390345Y6692239D01*
X-1386382Y6701028D01*
X-1383944Y6710375D01*
X-1383182Y6719163D01*
X-1382268Y6722567D01*
X-1380236Y6725462D01*
X-1297178Y6808520D01*
X-1293926Y6810756D01*
X-1290015Y6811518D01*
X-970635Y6811518D01*
X-962660Y6812280D01*
X-955446Y6814464D01*
X-948842Y6818020D01*
X-942644Y6823100D01*
X-835710Y6930034D01*
X-832408Y6932218D01*
X-828497Y6933031D01*
X-824636Y6932218D01*
X-821334Y6930034D01*
X-819150Y6926732D01*
X-818337Y6922871D01*
X-818337Y6132068D01*
X-819150Y6128207D01*
X-821334Y6124905D01*
X-1579422Y5366816D01*
X-1582826Y5364581D01*
X-1586788Y5363819D01*
X-1590751Y5364734D01*
X-1597355Y5367680D01*
X-1611884Y5372201D01*
X-1626819Y5374944D01*
X-1642008Y5375859D01*
X-1657197Y5374944D01*
X-1672132Y5372201D01*
X-1686661Y5367680D01*
X-1700479Y5361482D01*
X-1713534Y5353608D01*
X-1725472Y5344210D01*
X-1736242Y5333492D01*
X-1745589Y5321503D01*
X-1753463Y5308498D01*
X-1759712Y5294630D01*
X-1764233Y5280101D01*
X-1766976Y5265166D01*
X-1767890Y5249976D01*
X-1766976Y5234838D01*
X-1764233Y5219852D01*
X-1759712Y5205323D01*
X-1753463Y5191506D01*
X-1745589Y5178501D01*
X-1736242Y5166512D01*
X-1725472Y5155742D01*
X-1713534Y5146395D01*
X-1700479Y5138521D01*
X-1686661Y5132273D01*
X-1672132Y5127752D01*
X-1657197Y5125008D01*
X-1642008Y5124094D01*
X-1626819Y5125008D01*
X-1611884Y5127752D01*
X-1597355Y5132273D01*
X-1583486Y5138521D01*
X-1570482Y5146395D01*
X-1558493Y5155742D01*
X-1547774Y5166512D01*
X-1538376Y5178501D01*
X-1530553Y5191506D01*
X-1524254Y5205425D01*
X-1522018Y5208574D01*
X-1518767Y5210657D01*
X-1515008Y5211419D01*
X-1511198Y5210657D01*
X-1507947Y5208574D01*
X-1505712Y5205425D01*
X-1499463Y5191506D01*
X-1491589Y5178501D01*
X-1482242Y5166512D01*
X-1471472Y5155742D01*
X-1459534Y5146395D01*
X-1446479Y5138521D01*
X-1432661Y5132273D01*
X-1418132Y5127752D01*
X-1403197Y5125008D01*
X-1388008Y5124094D01*
X-1385112Y5124297D01*
X-1381099Y5123688D01*
X-1377645Y5121605D01*
X-1375257Y5118303D01*
X-1374343Y5114340D01*
X-1375105Y5110327D01*
X-1377340Y5106924D01*
X-1592935Y4891328D01*
X-1596237Y4889144D01*
X-1600149Y4888331D01*
G37*

%LPC*%
G36*
X-1826361Y5556554D02*
G01*
X-1816811Y5557824D01*
X-1807616Y5560618D01*
X-1798980Y5564987D01*
X-1791207Y5570728D01*
X-1784553Y5577687D01*
X-1779168Y5585663D01*
X-1775155Y5594451D01*
X-1772767Y5603798D01*
X-1771904Y5613400D01*
X-1772767Y5623001D01*
X-1775155Y5632348D01*
X-1779168Y5641136D01*
X-1784553Y5649112D01*
X-1791207Y5656072D01*
X-1798980Y5661812D01*
X-1807616Y5666181D01*
X-1816811Y5668975D01*
X-1826361Y5670245D01*
X-1836013Y5669788D01*
X-1845462Y5667756D01*
X-1854403Y5664200D01*
X-1862632Y5659120D01*
X-1869846Y5652770D01*
X-1875942Y5645251D01*
X-1880616Y5636818D01*
X-1883816Y5627725D01*
X-1885442Y5618226D01*
X-1885442Y5608574D01*
X-1883816Y5599074D01*
X-1880616Y5589981D01*
X-1875942Y5581548D01*
X-1869846Y5574030D01*
X-1862632Y5567680D01*
X-1854403Y5562600D01*
X-1845462Y5559044D01*
X-1836013Y5557012D01*
G37*
G36*
X-1507591Y6023152D02*
G01*
X-1498041Y6024422D01*
X-1488795Y6027216D01*
X-1480210Y6031585D01*
X-1472438Y6037326D01*
X-1465732Y6044285D01*
X-1460347Y6052261D01*
X-1456385Y6061049D01*
X-1455470Y6064554D01*
X-1453438Y6068466D01*
X-1449933Y6071158D01*
X-1445666Y6072124D01*
X-1056589Y6072124D01*
X-1053033Y6071463D01*
X-1049883Y6069584D01*
X-1043838Y6064250D01*
X-1035608Y6059220D01*
X-1026668Y6055614D01*
X-1017219Y6053582D01*
X-1007567Y6053175D01*
X-998016Y6054394D01*
X-988821Y6057239D01*
X-980186Y6061557D01*
X-972413Y6067298D01*
X-965758Y6074257D01*
X-960374Y6082284D01*
X-956360Y6091072D01*
X-953973Y6100368D01*
X-953109Y6109970D01*
X-953973Y6119622D01*
X-956360Y6128918D01*
X-960374Y6137706D01*
X-965758Y6145733D01*
X-972413Y6152692D01*
X-980186Y6158433D01*
X-988821Y6162751D01*
X-998016Y6165596D01*
X-1007567Y6166815D01*
X-1017219Y6166408D01*
X-1026668Y6164376D01*
X-1035608Y6160770D01*
X-1043838Y6155740D01*
X-1049883Y6150406D01*
X-1053033Y6148527D01*
X-1056589Y6147866D01*
X-1479499Y6147866D01*
X-1487373Y6147054D01*
X-1494485Y6144920D01*
X-1500987Y6141415D01*
X-1503883Y6139078D01*
X-1506626Y6137452D01*
X-1509776Y6136792D01*
X-1517192Y6136436D01*
X-1526641Y6134354D01*
X-1535633Y6130798D01*
X-1543812Y6125718D01*
X-1551076Y6119368D01*
X-1557121Y6111849D01*
X-1561846Y6103416D01*
X-1565046Y6094323D01*
X-1566672Y6084824D01*
X-1566672Y6075172D01*
X-1565046Y6065672D01*
X-1561846Y6056579D01*
X-1557121Y6048146D01*
X-1551076Y6040628D01*
X-1543812Y6034278D01*
X-1535633Y6029198D01*
X-1526641Y6025642D01*
X-1517243Y6023610D01*
G37*
G36*
X-2227580Y6393129D02*
G01*
X-2218029Y6394399D01*
X-2208784Y6397193D01*
X-2200198Y6401562D01*
X-2192680Y6407099D01*
X-2189835Y6408572D01*
X-2186635Y6409080D01*
X-1160526Y6409080D01*
X-1152042Y6409893D01*
X-1144371Y6412230D01*
X-1137310Y6415989D01*
X-1131011Y6421170D01*
X-1128572Y6422644D01*
X-1125829Y6423406D01*
X-1118006Y6424422D01*
X-1108811Y6427216D01*
X-1100175Y6431584D01*
X-1092403Y6437325D01*
X-1085748Y6444284D01*
X-1080363Y6452260D01*
X-1076350Y6461048D01*
X-1073962Y6470396D01*
X-1073099Y6479997D01*
X-1073962Y6489598D01*
X-1076350Y6498945D01*
X-1080363Y6507734D01*
X-1085748Y6515709D01*
X-1092403Y6522669D01*
X-1100175Y6528409D01*
X-1108811Y6532778D01*
X-1118006Y6535572D01*
X-1127556Y6536842D01*
X-1137208Y6536385D01*
X-1146657Y6534353D01*
X-1155598Y6530797D01*
X-1163828Y6525717D01*
X-1171041Y6519367D01*
X-1177137Y6511848D01*
X-1181811Y6503416D01*
X-1183843Y6497675D01*
X-1185976Y6494119D01*
X-1189380Y6491732D01*
X-1193444Y6490868D01*
X-2186635Y6490868D01*
X-2189835Y6491376D01*
X-2192680Y6492849D01*
X-2200198Y6498386D01*
X-2208784Y6502755D01*
X-2218029Y6505549D01*
X-2227580Y6506819D01*
X-2237232Y6506362D01*
X-2246630Y6504330D01*
X-2255621Y6500774D01*
X-2263800Y6495694D01*
X-2271064Y6489344D01*
X-2277110Y6481826D01*
X-2281834Y6473393D01*
X-2285034Y6464300D01*
X-2286660Y6454800D01*
X-2286660Y6445148D01*
X-2285034Y6435648D01*
X-2281834Y6426555D01*
X-2277110Y6418122D01*
X-2271064Y6410604D01*
X-2263800Y6404254D01*
X-2255621Y6399174D01*
X-2246630Y6395618D01*
X-2237232Y6393586D01*
G37*

%LPD*%
G36*
X590600Y4866030D02*
G01*
X586740Y4866792D01*
X583488Y4868976D01*
X581253Y4872228D01*
X580440Y4876038D01*
X581152Y4879898D01*
X589635Y4892243D01*
X593648Y4901031D01*
X596036Y4910378D01*
X596900Y4919980D01*
X596036Y4929581D01*
X593648Y4938928D01*
X589635Y4947716D01*
X584250Y4955692D01*
X577596Y4962652D01*
X569823Y4968392D01*
X561187Y4972761D01*
X551992Y4975555D01*
X537311Y4977434D01*
X533806Y4979720D01*
X507085Y5006441D01*
X500989Y5011420D01*
X494436Y5014925D01*
X487375Y5017058D01*
X479501Y5017871D01*
X276555Y5017871D01*
X272542Y5018684D01*
X269189Y5020970D01*
X267563Y5022697D01*
X259842Y5028387D01*
X250088Y5033264D01*
X247040Y5035600D01*
X245059Y5038852D01*
X244449Y5042611D01*
X245262Y5046370D01*
X247396Y5049520D01*
X278384Y5080508D01*
X281076Y5082438D01*
X284276Y5083403D01*
X291998Y5084419D01*
X301193Y5087213D01*
X309829Y5091582D01*
X317601Y5097322D01*
X324256Y5104282D01*
X329641Y5112258D01*
X333654Y5121046D01*
X336042Y5130393D01*
X336905Y5139994D01*
X336042Y5149596D01*
X333654Y5158943D01*
X329641Y5167731D01*
X324256Y5175707D01*
X317601Y5182666D01*
X309829Y5188407D01*
X301193Y5192776D01*
X291998Y5195570D01*
X282448Y5196840D01*
X272796Y5196382D01*
X263347Y5194350D01*
X254406Y5190794D01*
X246176Y5185714D01*
X238963Y5179364D01*
X233527Y5172608D01*
X230174Y5169916D01*
X226060Y5168849D01*
X221792Y5169560D01*
X209499Y5178653D01*
X206654Y5181904D01*
X205435Y5186070D01*
X206044Y5190337D01*
X208381Y5193995D01*
X644347Y5629960D01*
X647598Y5632145D01*
X651510Y5632907D01*
X655421Y5632145D01*
X658672Y5629960D01*
X660908Y5626658D01*
X661670Y5622747D01*
X661670Y5313426D01*
X662432Y5305450D01*
X664616Y5298236D01*
X668172Y5291632D01*
X673252Y5285435D01*
X767638Y5191099D01*
X769823Y5187797D01*
X770585Y5183936D01*
X769823Y5180076D01*
X767740Y5174945D01*
X764133Y5161178D01*
X762355Y5147106D01*
X762355Y5132882D01*
X764133Y5118811D01*
X767740Y5105044D01*
X773074Y5091887D01*
X780084Y5079492D01*
X788568Y5068112D01*
X798423Y5057902D01*
X809548Y5049062D01*
X821690Y5041696D01*
X834694Y5035905D01*
X848309Y5031892D01*
X862330Y5029606D01*
X876553Y5029149D01*
X890676Y5030520D01*
X904544Y5033670D01*
X917905Y5038598D01*
X930503Y5045151D01*
X942136Y5053279D01*
X952652Y5062829D01*
X961847Y5073650D01*
X969619Y5085588D01*
X975766Y5098389D01*
X980236Y5111851D01*
X982980Y5125821D01*
X983894Y5139994D01*
X983437Y5147157D01*
X983996Y5151170D01*
X986078Y5154676D01*
X989380Y5157063D01*
X993343Y5157978D01*
X997356Y5157216D01*
X1000760Y5154980D01*
X1013358Y5142382D01*
X1015542Y5139080D01*
X1016355Y5135219D01*
X1016355Y5132882D01*
X1018133Y5118811D01*
X1021740Y5105044D01*
X1027074Y5091887D01*
X1034084Y5079492D01*
X1042568Y5068112D01*
X1052423Y5057902D01*
X1063548Y5049062D01*
X1075690Y5041696D01*
X1088694Y5035905D01*
X1102309Y5031892D01*
X1116330Y5029606D01*
X1130554Y5029149D01*
X1144676Y5030520D01*
X1158544Y5033670D01*
X1171905Y5038598D01*
X1184503Y5045151D01*
X1196136Y5053279D01*
X1206652Y5062829D01*
X1215847Y5073650D01*
X1223619Y5085588D01*
X1229766Y5098389D01*
X1234236Y5111851D01*
X1236980Y5125821D01*
X1237894Y5139994D01*
X1236980Y5154168D01*
X1234236Y5168138D01*
X1229766Y5181600D01*
X1223619Y5194401D01*
X1215847Y5206288D01*
X1206652Y5217109D01*
X1196136Y5226659D01*
X1184503Y5234838D01*
X1171905Y5241391D01*
X1158544Y5246268D01*
X1144676Y5249468D01*
X1130554Y5250840D01*
X1116330Y5250383D01*
X1102309Y5248097D01*
X1088694Y5244033D01*
X1075690Y5238292D01*
X1063548Y5230926D01*
X1053795Y5223154D01*
X1050544Y5221427D01*
X1046886Y5220970D01*
X1043330Y5221833D01*
X1040282Y5223916D01*
X927353Y5336641D01*
X921207Y5341721D01*
X914603Y5345277D01*
X910336Y5346547D01*
X906729Y5348528D01*
X904189Y5351729D01*
X903122Y5355691D01*
X903732Y5359755D01*
X905916Y5363260D01*
X909269Y5365597D01*
X913282Y5366410D01*
X919784Y5366410D01*
X925474Y5366664D01*
X930960Y5367274D01*
X936345Y5368290D01*
X941679Y5369712D01*
X946861Y5371541D01*
X951890Y5373725D01*
X956767Y5376316D01*
X961440Y5379212D01*
X965860Y5382514D01*
X970026Y5386070D01*
X973886Y5389981D01*
X977493Y5394147D01*
X980744Y5398566D01*
X983691Y5403240D01*
X986231Y5408066D01*
X988466Y5413146D01*
X990295Y5418328D01*
X991717Y5423611D01*
X992733Y5429046D01*
X993343Y5434482D01*
X993546Y5440172D01*
X993546Y5491683D01*
X994308Y5495594D01*
X996492Y5498846D01*
X1005687Y5508142D01*
X1011326Y5514949D01*
X1017371Y5524601D01*
X1018489Y5526786D01*
X1021892Y5535015D01*
X1022654Y5537403D01*
X1025245Y5548477D01*
X1026058Y5557316D01*
X1026109Y5697474D01*
X1026871Y5701385D01*
X1029055Y5704636D01*
X1032306Y5706872D01*
X1036167Y5707634D01*
X1040028Y5706922D01*
X1043330Y5705602D01*
X1052779Y5703570D01*
X1062431Y5703163D01*
X1070203Y5704179D01*
X1074420Y5703773D01*
X1078179Y5701690D01*
X1080719Y5698286D01*
X1081633Y5694070D01*
X1081633Y5550458D01*
X1082395Y5542483D01*
X1084580Y5535320D01*
X1088136Y5528716D01*
X1093216Y5522518D01*
X1260348Y5355386D01*
X1262532Y5352084D01*
X1263345Y5348173D01*
X1263345Y5345176D01*
X1264970Y5335625D01*
X1268171Y5326532D01*
X1272844Y5318150D01*
X1278940Y5310632D01*
X1286154Y5304231D01*
X1294384Y5299202D01*
X1303324Y5295595D01*
X1312773Y5293563D01*
X1322425Y5293156D01*
X1331976Y5294376D01*
X1341170Y5297220D01*
X1349806Y5301538D01*
X1357579Y5307279D01*
X1364234Y5314238D01*
X1369618Y5322265D01*
X1373632Y5331053D01*
X1376019Y5340350D01*
X1376883Y5349951D01*
X1376019Y5359603D01*
X1373632Y5368899D01*
X1369618Y5377688D01*
X1364234Y5385714D01*
X1357579Y5392674D01*
X1349806Y5398414D01*
X1341170Y5402732D01*
X1331976Y5405577D01*
X1317955Y5407456D01*
X1314450Y5409742D01*
X1161338Y5562904D01*
X1159103Y5566206D01*
X1158341Y5570067D01*
X1158341Y5784037D01*
X1159052Y5787796D01*
X1161186Y5791047D01*
X1164234Y5794248D01*
X1169619Y5802274D01*
X1173632Y5811062D01*
X1176020Y5820359D01*
X1176883Y5829960D01*
X1176020Y5839612D01*
X1173632Y5848908D01*
X1169619Y5857697D01*
X1164234Y5865723D01*
X1157579Y5872683D01*
X1149807Y5878423D01*
X1141171Y5882741D01*
X1138834Y5883452D01*
X1135176Y5885484D01*
X1132687Y5888786D01*
X1131671Y5892800D01*
X1132332Y5896914D01*
X1134618Y5900369D01*
X1436014Y6201714D01*
X1439722Y6204102D01*
X1444091Y6204661D01*
X1448308Y6203340D01*
X1451559Y6200343D01*
X1453184Y6196228D01*
X1454962Y6185662D01*
X1458163Y6176568D01*
X1462887Y6168136D01*
X1467815Y6162040D01*
X1469745Y6158331D01*
X1469948Y6154166D01*
X1468526Y6150254D01*
X1465630Y6147257D01*
X1461820Y6145631D01*
X1453489Y6144107D01*
X1442770Y6140348D01*
X1432712Y6135014D01*
X1423568Y6128258D01*
X1415542Y6120231D01*
X1408785Y6111087D01*
X1403451Y6101029D01*
X1399692Y6090310D01*
X1397609Y6079134D01*
X1397152Y6067755D01*
X1398422Y6056477D01*
X1401267Y6045911D01*
X1401521Y6041999D01*
X1400352Y6038342D01*
X1395984Y6030518D01*
X1392783Y6021425D01*
X1391158Y6011926D01*
X1391158Y6002274D01*
X1392783Y5992774D01*
X1395984Y5983681D01*
X1400657Y5975248D01*
X1406753Y5967730D01*
X1413967Y5961380D01*
X1422196Y5956300D01*
X1431137Y5952744D01*
X1440586Y5950712D01*
X1450238Y5950254D01*
X1452422Y5950559D01*
X1456690Y5950204D01*
X1460449Y5948121D01*
X1462989Y5944666D01*
X1463903Y5940501D01*
X1463903Y5236565D01*
X1462938Y5232247D01*
X1460246Y5228793D01*
X1456385Y5226761D01*
X1451965Y5226558D01*
X1447901Y5228234D01*
X1438503Y5234838D01*
X1425905Y5241391D01*
X1412544Y5246268D01*
X1398676Y5249468D01*
X1384554Y5250840D01*
X1370330Y5250383D01*
X1356309Y5248097D01*
X1342694Y5244033D01*
X1329690Y5238292D01*
X1317548Y5230926D01*
X1306423Y5222087D01*
X1296568Y5211876D01*
X1288084Y5200497D01*
X1281074Y5188102D01*
X1275740Y5174945D01*
X1272133Y5161178D01*
X1270355Y5147106D01*
X1270355Y5132882D01*
X1272133Y5118811D01*
X1275740Y5105044D01*
X1281074Y5091887D01*
X1288084Y5079492D01*
X1296568Y5068112D01*
X1306423Y5057902D01*
X1317548Y5049062D01*
X1329690Y5041696D01*
X1342694Y5035905D01*
X1356309Y5031892D01*
X1370330Y5029606D01*
X1384554Y5029149D01*
X1398676Y5030520D01*
X1412544Y5033670D01*
X1425905Y5038598D01*
X1438503Y5045151D01*
X1447901Y5051755D01*
X1451965Y5053431D01*
X1456385Y5053228D01*
X1460246Y5051196D01*
X1462938Y5047691D01*
X1463903Y5043424D01*
X1463903Y4935626D01*
X1463141Y4931765D01*
X1460906Y4928463D01*
X1401470Y4869027D01*
X1398168Y4866792D01*
X1394307Y4866030D01*
G37*

%LPD*%
G36*
X259537Y3024479D02*
G01*
X255625Y3025241D01*
X252323Y3027476D01*
X250139Y3030778D01*
X249377Y3034639D01*
X249377Y3475990D01*
X250139Y3479850D01*
X252323Y3483152D01*
X309473Y3540302D01*
X313690Y3544824D01*
X317449Y3549497D01*
X320903Y3554425D01*
X323951Y3559606D01*
X326644Y3564991D01*
X328930Y3570528D01*
X330860Y3576269D01*
X332333Y3582060D01*
X333400Y3588004D01*
X334060Y3593998D01*
X334264Y3599992D01*
X334060Y3605987D01*
X333400Y3611981D01*
X332333Y3617874D01*
X330860Y3623716D01*
X328930Y3629456D01*
X326644Y3634994D01*
X323951Y3640378D01*
X320903Y3645560D01*
X317449Y3650487D01*
X313690Y3655161D01*
X309575Y3659581D01*
X305206Y3663645D01*
X300482Y3667455D01*
X295554Y3670858D01*
X290372Y3673957D01*
X284988Y3676650D01*
X279450Y3678936D01*
X273761Y3680815D01*
X267919Y3682339D01*
X262026Y3683406D01*
X256082Y3684015D01*
X251104Y3684168D01*
X247294Y3684981D01*
X244094Y3687216D01*
X241960Y3690467D01*
X241198Y3694328D01*
X241198Y4459325D01*
X241960Y4463186D01*
X244195Y4466488D01*
X488543Y4710836D01*
X491845Y4713071D01*
X495706Y4713833D01*
X559003Y4713833D01*
X563118Y4712970D01*
X566521Y4710480D01*
X568655Y4706823D01*
X569112Y4702606D01*
X567791Y4698593D01*
X564032Y4694783D01*
X553516Y4684928D01*
X544322Y4673803D01*
X536600Y4661611D01*
X530453Y4648606D01*
X526034Y4634890D01*
X523341Y4620717D01*
X522427Y4606340D01*
X523341Y4591964D01*
X526034Y4577791D01*
X530453Y4564075D01*
X536600Y4551019D01*
X544322Y4538878D01*
X553516Y4527753D01*
X564032Y4517898D01*
X575716Y4509414D01*
X588314Y4502454D01*
X601726Y4497171D01*
X615696Y4493564D01*
X629970Y4491786D01*
X644398Y4491786D01*
X658723Y4493564D01*
X672693Y4497171D01*
X686054Y4502454D01*
X698703Y4509414D01*
X710387Y4517898D01*
X720902Y4527753D01*
X730046Y4538878D01*
X737768Y4551019D01*
X743915Y4564075D01*
X748385Y4577791D01*
X751078Y4591964D01*
X751992Y4606340D01*
X751078Y4620717D01*
X748385Y4634890D01*
X743915Y4648606D01*
X737768Y4661611D01*
X730046Y4673803D01*
X720902Y4684928D01*
X710387Y4694783D01*
X706628Y4698593D01*
X705307Y4702606D01*
X705764Y4706823D01*
X707847Y4710480D01*
X711301Y4712970D01*
X715416Y4713833D01*
X1432661Y4713884D01*
X1441551Y4714697D01*
X1443990Y4715103D01*
X1452626Y4717288D01*
X1454962Y4718050D01*
X1463192Y4721453D01*
X1465427Y4722571D01*
X1473047Y4727143D01*
X1475079Y4728565D01*
X1481937Y4734255D01*
X1595678Y4847996D01*
X1601368Y4854854D01*
X1602790Y4856886D01*
X1607362Y4864506D01*
X1608480Y4866741D01*
X1611884Y4874971D01*
X1612646Y4877308D01*
X1614830Y4885944D01*
X1615236Y4888382D01*
X1616049Y4897272D01*
X1616100Y5162245D01*
X1617014Y5166461D01*
X1619554Y5169916D01*
X1623314Y5171998D01*
X1627581Y5172354D01*
X1631594Y5170932D01*
X1634388Y5169204D01*
X1643329Y5165598D01*
X1652778Y5163566D01*
X1662430Y5163159D01*
X1671980Y5164378D01*
X1681175Y5167223D01*
X1689811Y5171541D01*
X1697583Y5177282D01*
X1704238Y5184241D01*
X1706473Y5187543D01*
X1709115Y5190236D01*
X1712569Y5191760D01*
X1716328Y5191912D01*
X1719935Y5190693D01*
X1722780Y5188254D01*
X1728927Y5180634D01*
X1736191Y5174234D01*
X1744370Y5169204D01*
X1753362Y5165598D01*
X1762760Y5163566D01*
X1772412Y5163159D01*
X1781962Y5164378D01*
X1791207Y5167223D01*
X1799793Y5171541D01*
X1804517Y5175046D01*
X1807362Y5176520D01*
X1810562Y5177028D01*
X2266594Y5177028D01*
X2270506Y5176266D01*
X2273808Y5174030D01*
X2452979Y4994859D01*
X2455062Y4991811D01*
X2455926Y4988153D01*
X2455418Y4984496D01*
X2454503Y4981651D01*
X2452014Y4968392D01*
X2451303Y4954981D01*
X2452370Y4941519D01*
X2455265Y4928362D01*
X2459888Y4915712D01*
X2466136Y4903774D01*
X2473909Y4892751D01*
X2483104Y4882896D01*
X2493518Y4874361D01*
X2504998Y4867249D01*
X2517292Y4861763D01*
X2530195Y4857953D01*
X2543505Y4855921D01*
X2557018Y4855667D01*
X2570378Y4857191D01*
X2583434Y4860493D01*
X2595930Y4865522D01*
X2607665Y4872177D01*
X2618384Y4880356D01*
X2627934Y4889855D01*
X2636164Y4900523D01*
X2642870Y4912207D01*
X2647950Y4924704D01*
X2651302Y4937760D01*
X2652928Y4951120D01*
X2652725Y4964633D01*
X2650744Y4977942D01*
X2646984Y4990896D01*
X2641549Y5003190D01*
X2634488Y5014722D01*
X2626004Y5025186D01*
X2616200Y5034381D01*
X2605227Y5042204D01*
X2593289Y5048554D01*
X2580640Y5053177D01*
X2567482Y5056124D01*
X2554071Y5057292D01*
X2540609Y5056632D01*
X2527350Y5054193D01*
X2524099Y5053126D01*
X2520391Y5052618D01*
X2516784Y5053482D01*
X2513736Y5055616D01*
X2317800Y5251500D01*
X2311196Y5256479D01*
X2304135Y5259984D01*
X2296515Y5262168D01*
X2288133Y5262930D01*
X1810562Y5262930D01*
X1807362Y5263438D01*
X1804517Y5264912D01*
X1799793Y5268417D01*
X1791207Y5272735D01*
X1788312Y5273649D01*
X1784654Y5275630D01*
X1782114Y5278932D01*
X1781098Y5282946D01*
X1781810Y5287060D01*
X1784096Y5290515D01*
X1836420Y5342839D01*
X1841449Y5348986D01*
X1844954Y5355539D01*
X1847088Y5362600D01*
X1847850Y5370474D01*
X1847850Y6043472D01*
X1848612Y6047282D01*
X1850694Y6050534D01*
X1854250Y6054242D01*
X1859635Y6062268D01*
X1863648Y6071057D01*
X1866036Y6080353D01*
X1866900Y6089954D01*
X1866036Y6099606D01*
X1863648Y6108903D01*
X1859635Y6117691D01*
X1854250Y6125718D01*
X1847596Y6132677D01*
X1839823Y6138418D01*
X1830933Y6142888D01*
X1827428Y6145733D01*
X1825548Y6149848D01*
X1825599Y6154318D01*
X1827580Y6158331D01*
X1831086Y6161125D01*
X1835505Y6162141D01*
X2243378Y6162141D01*
X2246985Y6161481D01*
X2250084Y6159601D01*
X2256180Y6154267D01*
X2264359Y6149187D01*
X2273350Y6145631D01*
X2282748Y6143599D01*
X2292400Y6143142D01*
X2301951Y6144412D01*
X2311196Y6147206D01*
X2319782Y6151575D01*
X2327554Y6157315D01*
X2334260Y6164275D01*
X2339644Y6172250D01*
X2343607Y6181039D01*
X2346045Y6190386D01*
X2346858Y6199987D01*
X2346045Y6209588D01*
X2343607Y6218936D01*
X2339644Y6227724D01*
X2334260Y6235700D01*
X2327554Y6242659D01*
X2319782Y6248400D01*
X2311196Y6252768D01*
X2301951Y6255562D01*
X2292400Y6256832D01*
X2282748Y6256375D01*
X2273350Y6254343D01*
X2264359Y6250787D01*
X2256180Y6245707D01*
X2250084Y6240373D01*
X2246985Y6238494D01*
X2243378Y6237833D01*
X1556562Y6237833D01*
X1552549Y6238646D01*
X1549196Y6240983D01*
X1547571Y6242659D01*
X1539798Y6248400D01*
X1531213Y6252768D01*
X1521968Y6255562D01*
X1513992Y6256578D01*
X1509776Y6258153D01*
X1506677Y6261354D01*
X1505204Y6265621D01*
X1505712Y6270091D01*
X1508099Y6273850D01*
X1536750Y6302502D01*
X1541830Y6308699D01*
X1545386Y6315354D01*
X1547571Y6322517D01*
X1548333Y6330492D01*
X1548333Y6979513D01*
X1549044Y6983171D01*
X1550974Y6986371D01*
X1553921Y6988606D01*
X1559814Y6991553D01*
X1567586Y6997293D01*
X1574241Y7004253D01*
X1579626Y7012279D01*
X1583639Y7021068D01*
X1586026Y7030364D01*
X1586890Y7039965D01*
X1586026Y7049617D01*
X1583639Y7058914D01*
X1579626Y7067702D01*
X1574241Y7075728D01*
X1567586Y7082688D01*
X1559814Y7088428D01*
X1551178Y7092746D01*
X1541983Y7095591D01*
X1532432Y7096810D01*
X1522780Y7096404D01*
X1513332Y7094372D01*
X1504391Y7090765D01*
X1496161Y7085736D01*
X1488948Y7079335D01*
X1482852Y7071817D01*
X1478178Y7063435D01*
X1474978Y7054342D01*
X1473352Y7044791D01*
X1473555Y7032142D01*
X1472438Y7027468D01*
X1471625Y7019493D01*
X1471625Y6350101D01*
X1470863Y6346190D01*
X1468678Y6342888D01*
X1043432Y5917692D01*
X1040130Y5915507D01*
X1036269Y5914694D01*
X1032357Y5915507D01*
X1029106Y5917692D01*
X1026871Y5920994D01*
X1026109Y5924854D01*
X1026109Y5964275D01*
X1026871Y5968136D01*
X1029106Y5971438D01*
X1381099Y6323533D01*
X1386789Y6330391D01*
X1388211Y6332372D01*
X1393901Y6342227D01*
X1397304Y6350457D01*
X1398066Y6352794D01*
X1400251Y6361430D01*
X1400657Y6363868D01*
X1401470Y6372758D01*
X1401521Y7020966D01*
X1402181Y7024522D01*
X1404010Y7027621D01*
X1405991Y7029856D01*
X1413357Y7041134D01*
X1419148Y7053325D01*
X1423314Y7066127D01*
X1425702Y7079386D01*
X1426260Y7092848D01*
X1425092Y7106310D01*
X1422095Y7119416D01*
X1420266Y7124344D01*
X1419656Y7128103D01*
X1420469Y7131862D01*
X1422603Y7135063D01*
X1591868Y7304328D01*
X1594815Y7306360D01*
X1598218Y7307275D01*
X1601774Y7306919D01*
X1604975Y7305395D01*
X1626209Y7290257D01*
X1677568Y7251293D01*
X1727707Y7210755D01*
X1776628Y7168692D01*
X1824228Y7125208D01*
X1870506Y7080300D01*
X1923592Y7025792D01*
X1975205Y6969963D01*
X2025396Y6912762D01*
X2074011Y6854240D01*
X2121103Y6794500D01*
X2166620Y6733540D01*
X2210562Y6671411D01*
X2252827Y6608165D01*
X2293416Y6543852D01*
X2332278Y6478422D01*
X2369464Y6412077D01*
X2404872Y6344716D01*
X2438501Y6276492D01*
X2470353Y6207404D01*
X2500376Y6137503D01*
X2528570Y6066840D01*
X2554935Y5995466D01*
X2579370Y5923432D01*
X2601925Y5850788D01*
X2622550Y5777585D01*
X2641295Y5703824D01*
X2658059Y5629656D01*
X2672892Y5555030D01*
X2685796Y5480050D01*
X2696718Y5404764D01*
X2705658Y5329224D01*
X2712618Y5253431D01*
X2717596Y5177536D01*
X2720543Y5101539D01*
X2721559Y5025593D01*
X2721559Y5001260D01*
X2721102Y4998313D01*
X2718308Y4993284D01*
X2712364Y4981143D01*
X2708148Y4968341D01*
X2705658Y4955133D01*
X2704947Y4941671D01*
X2706065Y4928209D01*
X2708910Y4915052D01*
X2713532Y4902403D01*
X2719781Y4890465D01*
X2727553Y4879441D01*
X2736748Y4869586D01*
X2747162Y4861052D01*
X2758643Y4853990D01*
X2770936Y4848453D01*
X2783840Y4844643D01*
X2797200Y4842611D01*
X2810662Y4842357D01*
X2824022Y4843881D01*
X2837078Y4847234D01*
X2849626Y4852263D01*
X2861310Y4858867D01*
X2872079Y4867046D01*
X2881630Y4876546D01*
X2889808Y4887264D01*
X2896514Y4898948D01*
X2901594Y4911394D01*
X2904947Y4924450D01*
X2906572Y4937861D01*
X2906369Y4951323D01*
X2904388Y4964633D01*
X2900629Y4977587D01*
X2895193Y4989931D01*
X2891586Y4995824D01*
X2890469Y4998415D01*
X2890062Y5001158D01*
X2890062Y5025491D01*
X2889097Y5103469D01*
X2886100Y5181295D01*
X2881172Y5259019D01*
X2874314Y5336641D01*
X2865424Y5414010D01*
X2854604Y5491124D01*
X2841853Y5567984D01*
X2827121Y5644489D01*
X2810510Y5720537D01*
X2791917Y5796229D01*
X2771444Y5871362D01*
X2749092Y5945987D01*
X2724810Y6020003D01*
X2698699Y6093358D01*
X2670708Y6166053D01*
X2640888Y6238036D01*
X2609291Y6309207D01*
X2575864Y6379565D01*
X2540660Y6449060D01*
X2503728Y6517640D01*
X2465070Y6585254D01*
X2424734Y6651853D01*
X2382672Y6717436D01*
X2338984Y6781952D01*
X2293721Y6845300D01*
X2246833Y6907479D01*
X2198370Y6968490D01*
X2148382Y7028230D01*
X2096871Y7086650D01*
X2043938Y7143800D01*
X1989582Y7199579D01*
X1941525Y7246264D01*
X1892096Y7291527D01*
X1841398Y7335316D01*
X1789480Y7377633D01*
X1736293Y7418425D01*
X1681988Y7457643D01*
X1626565Y7495286D01*
X1570024Y7531303D01*
X1512519Y7565644D01*
X1453997Y7598308D01*
X1394561Y7629245D01*
X1334262Y7658404D01*
X1273149Y7685836D01*
X1211427Y7711389D01*
X1207820Y7713929D01*
X1205636Y7717739D01*
X1205280Y7722158D01*
X1206804Y7726324D01*
X1209954Y7729423D01*
X1214120Y7730896D01*
X1218488Y7730439D01*
X1226616Y7727746D01*
X1293418Y7703820D01*
X1359458Y7678013D01*
X1424838Y7650429D01*
X1489405Y7621016D01*
X1553108Y7589875D01*
X1615948Y7556957D01*
X1677873Y7522362D01*
X1738782Y7486040D01*
X1798726Y7448042D01*
X1857552Y7408468D01*
X1915261Y7367219D01*
X1971852Y7324445D01*
X2027224Y7280097D01*
X2081326Y7234224D01*
X2134158Y7186930D01*
X2185720Y7138162D01*
X2235860Y7088022D01*
X2284628Y7036460D01*
X2331923Y6983628D01*
X2377744Y6929475D01*
X2422093Y6874103D01*
X2464866Y6817563D01*
X2506116Y6759803D01*
X2545689Y6700977D01*
X2583688Y6641084D01*
X2620010Y6580124D01*
X2654604Y6518198D01*
X2687523Y6455359D01*
X2718663Y6391656D01*
X2748026Y6327089D01*
X2775610Y6261709D01*
X2801416Y6195618D01*
X2825343Y6128867D01*
X2847441Y6061456D01*
X2867710Y5993485D01*
X2886049Y5924956D01*
X2902508Y5855970D01*
X2917088Y5786526D01*
X2929686Y5716727D01*
X2940405Y5646623D01*
X2949194Y5576214D01*
X2956001Y5505602D01*
X2960878Y5434838D01*
X2963824Y5363972D01*
X2964789Y5292953D01*
X2964789Y4529277D01*
X2964027Y4525365D01*
X2961792Y4522063D01*
X2958541Y4519879D01*
X2954629Y4519117D01*
X2342794Y4519117D01*
X2338933Y4519879D01*
X2335631Y4522063D01*
X2333396Y4525365D01*
X2332634Y4529277D01*
X2333396Y4533138D01*
X2335631Y4536440D01*
X2440025Y4640884D01*
X2443327Y4643069D01*
X2447239Y4643831D01*
X2478278Y4643831D01*
X2481021Y4643475D01*
X2483612Y4642307D01*
X2489098Y4638954D01*
X2501392Y4633468D01*
X2514295Y4629658D01*
X2527604Y4627626D01*
X2541117Y4627372D01*
X2554478Y4628896D01*
X2567533Y4632198D01*
X2580030Y4637227D01*
X2591765Y4643882D01*
X2602534Y4652010D01*
X2612085Y4661509D01*
X2620264Y4672228D01*
X2626969Y4683912D01*
X2632049Y4696409D01*
X2635402Y4709464D01*
X2637028Y4722825D01*
X2636824Y4736287D01*
X2634843Y4749647D01*
X2631084Y4762601D01*
X2625648Y4774895D01*
X2618587Y4786376D01*
X2610104Y4796840D01*
X2600299Y4806086D01*
X2589326Y4813909D01*
X2577388Y4820208D01*
X2564739Y4824882D01*
X2551633Y4827828D01*
X2538171Y4828946D01*
X2524709Y4828336D01*
X2511450Y4825898D01*
X2498648Y4821732D01*
X2486507Y4815840D01*
X2483764Y4814062D01*
X2481072Y4812792D01*
X2478176Y4812385D01*
X2408275Y4812385D01*
X2402078Y4812131D01*
X2396134Y4811522D01*
X2390190Y4810455D01*
X2384399Y4808931D01*
X2378659Y4807051D01*
X2373122Y4804765D01*
X2367737Y4802073D01*
X2362555Y4798974D01*
X2357628Y4795570D01*
X2352954Y4791760D01*
X2348382Y4787544D01*
X2070557Y4509719D01*
X2066340Y4505147D01*
X2062530Y4500473D01*
X2059127Y4495546D01*
X2056028Y4490364D01*
X2053336Y4484979D01*
X2051050Y4479442D01*
X2049170Y4473702D01*
X2047646Y4467910D01*
X2046579Y4461967D01*
X2045970Y4456023D01*
X2045716Y4449826D01*
X2045716Y4019092D01*
X2044954Y4015232D01*
X2042769Y4011929D01*
X1858060Y3827221D01*
X1854758Y3825036D01*
X1850898Y3824274D01*
X1470202Y3824274D01*
X1464005Y3824020D01*
X1458010Y3823411D01*
X1452067Y3822293D01*
X1446276Y3820820D01*
X1440535Y3818940D01*
X1434998Y3816654D01*
X1429613Y3813962D01*
X1424432Y3810863D01*
X1419504Y3807460D01*
X1414830Y3803650D01*
X1410309Y3799433D01*
X1008075Y3397250D01*
X1004773Y3395014D01*
X1000912Y3394252D01*
X668578Y3394252D01*
X662381Y3394049D01*
X656386Y3393389D01*
X650494Y3392322D01*
X644652Y3390849D01*
X638962Y3388918D01*
X633374Y3386632D01*
X628040Y3383940D01*
X622858Y3380892D01*
X617880Y3377437D01*
X613206Y3373678D01*
X608685Y3369462D01*
X266700Y3027476D01*
X263398Y3025241D01*
G37*

%LPC*%
G36*
X688238Y3448354D02*
G01*
X697788Y3449624D01*
X706983Y3452418D01*
X715619Y3456787D01*
X723392Y3462528D01*
X730046Y3469487D01*
X735431Y3477463D01*
X739444Y3486251D01*
X741832Y3495598D01*
X742696Y3505200D01*
X741832Y3514801D01*
X739444Y3524148D01*
X735431Y3532936D01*
X730046Y3540912D01*
X723392Y3547872D01*
X715619Y3553612D01*
X706983Y3557981D01*
X694334Y3561791D01*
X691642Y3563721D01*
X448462Y3806850D01*
X446278Y3810152D01*
X445516Y3814064D01*
X445516Y4212996D01*
X445973Y4215993D01*
X447243Y4218686D01*
X449630Y4222242D01*
X453643Y4231030D01*
X456031Y4240377D01*
X456895Y4249978D01*
X456031Y4259580D01*
X453643Y4268927D01*
X449630Y4277715D01*
X444246Y4285691D01*
X437591Y4292650D01*
X429818Y4298391D01*
X421182Y4302760D01*
X411988Y4305554D01*
X402437Y4306824D01*
X392785Y4306366D01*
X383336Y4304334D01*
X374396Y4300778D01*
X366166Y4295698D01*
X358952Y4289348D01*
X352856Y4281830D01*
X348183Y4273397D01*
X344982Y4264304D01*
X343357Y4254804D01*
X343357Y4245152D01*
X344982Y4235653D01*
X348183Y4226560D01*
X353212Y4217568D01*
X354177Y4215180D01*
X354482Y4212590D01*
X354533Y3789273D01*
X355752Y3780586D01*
X358394Y3772662D01*
X362508Y3765296D01*
X368147Y3758488D01*
X627430Y3499205D01*
X629259Y3496665D01*
X630275Y3493719D01*
X630783Y3490874D01*
X633984Y3481781D01*
X638657Y3473348D01*
X644753Y3465829D01*
X651967Y3459479D01*
X660196Y3454400D01*
X669137Y3450844D01*
X678586Y3448812D01*
G37*
G36*
X722426Y3663137D02*
G01*
X731977Y3664407D01*
X741172Y3667201D01*
X749808Y3671570D01*
X757580Y3677310D01*
X764235Y3684270D01*
X769620Y3692245D01*
X773633Y3701034D01*
X776020Y3710381D01*
X776884Y3719982D01*
X776020Y3729583D01*
X773633Y3738930D01*
X769620Y3747719D01*
X764235Y3755694D01*
X757580Y3762654D01*
X749808Y3768394D01*
X745642Y3770477D01*
X742899Y3772560D01*
X740968Y3775405D01*
X740105Y3778707D01*
X740410Y3782110D01*
X741832Y3787698D01*
X742696Y3797300D01*
X741832Y3806901D01*
X739444Y3816248D01*
X735431Y3825036D01*
X730046Y3833012D01*
X723392Y3839972D01*
X715619Y3845712D01*
X706983Y3850081D01*
X697788Y3852875D01*
X688238Y3854145D01*
X678586Y3853687D01*
X669137Y3851656D01*
X660196Y3848100D01*
X651967Y3843020D01*
X644753Y3836670D01*
X638657Y3829151D01*
X633984Y3820718D01*
X630783Y3811625D01*
X629158Y3802126D01*
X629158Y3792474D01*
X630783Y3782974D01*
X633984Y3773881D01*
X638657Y3765448D01*
X644753Y3757929D01*
X651967Y3751579D01*
X660654Y3746246D01*
X663194Y3744010D01*
X664870Y3741013D01*
X665480Y3737660D01*
X663346Y3724808D01*
X663346Y3715156D01*
X664972Y3705656D01*
X668172Y3696563D01*
X672846Y3688130D01*
X678942Y3680612D01*
X686155Y3674262D01*
X694385Y3669182D01*
X703326Y3665626D01*
X712774Y3663594D01*
G37*
G36*
X1622094Y3847084D02*
G01*
X1635912Y3847947D01*
X1649475Y3850690D01*
X1662633Y3855110D01*
X1675028Y3861257D01*
X1686560Y3868928D01*
X1696974Y3878072D01*
X1706067Y3888486D01*
X1713788Y3900017D01*
X1719935Y3912412D01*
X1724355Y3925519D01*
X1727047Y3939133D01*
X1727962Y3952951D01*
X1727047Y3966768D01*
X1724355Y3980332D01*
X1719935Y3993489D01*
X1713788Y4005884D01*
X1706067Y4017416D01*
X1696974Y4027830D01*
X1686560Y4036974D01*
X1675231Y4044492D01*
X1672437Y4047286D01*
X1670913Y4050944D01*
X1670913Y4054906D01*
X1672437Y4058615D01*
X1675231Y4061409D01*
X1686560Y4068927D01*
X1696974Y4078071D01*
X1706067Y4088485D01*
X1713788Y4100017D01*
X1719935Y4112412D01*
X1724355Y4125518D01*
X1727047Y4139133D01*
X1727962Y4152950D01*
X1727047Y4166768D01*
X1724355Y4180332D01*
X1719935Y4193489D01*
X1713788Y4205884D01*
X1706067Y4217416D01*
X1696974Y4227830D01*
X1686560Y4236974D01*
X1675231Y4244492D01*
X1672437Y4247286D01*
X1670913Y4250944D01*
X1670913Y4254906D01*
X1672437Y4258614D01*
X1675231Y4261408D01*
X1686560Y4268927D01*
X1696974Y4278071D01*
X1706067Y4288485D01*
X1713788Y4300016D01*
X1719935Y4312412D01*
X1724355Y4325518D01*
X1727047Y4339132D01*
X1727962Y4352950D01*
X1727047Y4366768D01*
X1724355Y4380331D01*
X1719935Y4393488D01*
X1713788Y4405884D01*
X1706067Y4417415D01*
X1696974Y4427829D01*
X1686560Y4436973D01*
X1675028Y4444644D01*
X1662633Y4450791D01*
X1649475Y4455210D01*
X1635912Y4457903D01*
X1622094Y4458817D01*
X1608277Y4457903D01*
X1594662Y4455210D01*
X1581556Y4450791D01*
X1569161Y4444644D01*
X1557629Y4436973D01*
X1547215Y4427829D01*
X1538071Y4417415D01*
X1530400Y4405884D01*
X1524254Y4393488D01*
X1519834Y4380331D01*
X1517091Y4366768D01*
X1516176Y4352950D01*
X1517091Y4339132D01*
X1519834Y4325518D01*
X1524254Y4312412D01*
X1530400Y4300016D01*
X1538071Y4288485D01*
X1547215Y4278071D01*
X1557629Y4268927D01*
X1568907Y4261408D01*
X1571701Y4258614D01*
X1573225Y4254906D01*
X1573225Y4250944D01*
X1571701Y4247286D01*
X1568907Y4244492D01*
X1557629Y4236974D01*
X1547215Y4227830D01*
X1538071Y4217416D01*
X1530400Y4205884D01*
X1524254Y4193489D01*
X1519834Y4180332D01*
X1517091Y4166768D01*
X1516176Y4152950D01*
X1517091Y4139133D01*
X1519834Y4125518D01*
X1524254Y4112412D01*
X1530400Y4100017D01*
X1538071Y4088485D01*
X1547215Y4078071D01*
X1557629Y4068927D01*
X1568907Y4061409D01*
X1571701Y4058615D01*
X1573225Y4054906D01*
X1573225Y4050944D01*
X1571701Y4047286D01*
X1568907Y4044492D01*
X1557629Y4036974D01*
X1547215Y4027830D01*
X1538071Y4017416D01*
X1530400Y4005884D01*
X1524254Y3993489D01*
X1519834Y3980332D01*
X1517091Y3966768D01*
X1516176Y3952951D01*
X1517091Y3939133D01*
X1519834Y3925519D01*
X1524254Y3912412D01*
X1530400Y3900017D01*
X1538071Y3888486D01*
X1547215Y3878072D01*
X1557629Y3868928D01*
X1569161Y3861257D01*
X1581556Y3855110D01*
X1594662Y3850690D01*
X1608277Y3847947D01*
G37*
G36*
X1172108Y3847084D02*
G01*
X1185926Y3847947D01*
X1199489Y3850690D01*
X1212646Y3855110D01*
X1225042Y3861257D01*
X1236573Y3868928D01*
X1246987Y3878072D01*
X1256080Y3888486D01*
X1263802Y3900017D01*
X1269949Y3912412D01*
X1274368Y3925519D01*
X1277061Y3939133D01*
X1277975Y3952951D01*
X1277061Y3966768D01*
X1274368Y3980332D01*
X1269949Y3993489D01*
X1263802Y4005884D01*
X1256080Y4017416D01*
X1246987Y4027830D01*
X1236573Y4036974D01*
X1225245Y4044492D01*
X1222451Y4047286D01*
X1220927Y4050944D01*
X1220927Y4054906D01*
X1222451Y4058615D01*
X1225245Y4061409D01*
X1236573Y4068927D01*
X1246987Y4078071D01*
X1256080Y4088485D01*
X1263802Y4100017D01*
X1269949Y4112412D01*
X1274368Y4125518D01*
X1277061Y4139133D01*
X1277975Y4152950D01*
X1277061Y4166768D01*
X1274368Y4180332D01*
X1269949Y4193489D01*
X1263802Y4205884D01*
X1256080Y4217416D01*
X1246987Y4227830D01*
X1236573Y4236974D01*
X1225245Y4244492D01*
X1222451Y4247286D01*
X1220927Y4250944D01*
X1220927Y4254906D01*
X1222451Y4258614D01*
X1225245Y4261408D01*
X1236573Y4268927D01*
X1246987Y4278071D01*
X1256080Y4288485D01*
X1263802Y4300016D01*
X1269949Y4312412D01*
X1274368Y4325518D01*
X1277061Y4339132D01*
X1277975Y4352950D01*
X1277061Y4366768D01*
X1274368Y4380331D01*
X1269949Y4393488D01*
X1263802Y4405884D01*
X1256080Y4417415D01*
X1246987Y4427829D01*
X1236573Y4436973D01*
X1225042Y4444644D01*
X1212646Y4450791D01*
X1199489Y4455210D01*
X1185926Y4457903D01*
X1172108Y4458817D01*
X1158290Y4457903D01*
X1144676Y4455210D01*
X1131570Y4450791D01*
X1119174Y4444644D01*
X1107643Y4436973D01*
X1097229Y4427829D01*
X1088085Y4417415D01*
X1080414Y4405884D01*
X1074267Y4393488D01*
X1069848Y4380331D01*
X1067104Y4366768D01*
X1066190Y4352950D01*
X1067104Y4339132D01*
X1069848Y4325518D01*
X1074267Y4312412D01*
X1080414Y4300016D01*
X1088085Y4288485D01*
X1097229Y4278071D01*
X1107643Y4268927D01*
X1118920Y4261408D01*
X1121714Y4258614D01*
X1123238Y4254906D01*
X1123238Y4250944D01*
X1121714Y4247286D01*
X1118920Y4244492D01*
X1107643Y4236974D01*
X1097229Y4227830D01*
X1088085Y4217416D01*
X1080414Y4205884D01*
X1074267Y4193489D01*
X1069848Y4180332D01*
X1067104Y4166768D01*
X1066190Y4152950D01*
X1067104Y4139133D01*
X1069848Y4125518D01*
X1074267Y4112412D01*
X1080414Y4100017D01*
X1088085Y4088485D01*
X1097229Y4078071D01*
X1107643Y4068927D01*
X1118920Y4061409D01*
X1121714Y4058615D01*
X1123238Y4054906D01*
X1123238Y4050944D01*
X1121714Y4047286D01*
X1118920Y4044492D01*
X1107643Y4036974D01*
X1097229Y4027830D01*
X1088085Y4017416D01*
X1080414Y4005884D01*
X1074267Y3993489D01*
X1069848Y3980332D01*
X1067104Y3966768D01*
X1066190Y3952951D01*
X1067104Y3939133D01*
X1069848Y3925519D01*
X1074267Y3912412D01*
X1080414Y3900017D01*
X1088085Y3888486D01*
X1097229Y3878072D01*
X1107643Y3868928D01*
X1119174Y3861257D01*
X1131570Y3855110D01*
X1144676Y3850690D01*
X1158290Y3847947D01*
G37*
G36*
X629970Y4237786D02*
G01*
X644398Y4237786D01*
X658723Y4239564D01*
X672693Y4243171D01*
X686054Y4248454D01*
X698703Y4255414D01*
X710387Y4263898D01*
X720902Y4273753D01*
X730046Y4284878D01*
X737768Y4297019D01*
X743915Y4310075D01*
X748385Y4323791D01*
X751078Y4337964D01*
X751992Y4352340D01*
X751078Y4366717D01*
X748385Y4380890D01*
X743915Y4394606D01*
X737768Y4407611D01*
X730046Y4419803D01*
X720902Y4430928D01*
X710387Y4440783D01*
X698703Y4449267D01*
X686054Y4456176D01*
X672693Y4461510D01*
X658723Y4465066D01*
X644398Y4466894D01*
X629970Y4466894D01*
X615696Y4465066D01*
X601726Y4461510D01*
X588314Y4456176D01*
X575716Y4449267D01*
X564032Y4440783D01*
X553516Y4430928D01*
X544322Y4419803D01*
X536600Y4407611D01*
X530453Y4394606D01*
X526034Y4380890D01*
X523341Y4366717D01*
X522427Y4352340D01*
X523341Y4337964D01*
X526034Y4323791D01*
X530453Y4310075D01*
X536600Y4297019D01*
X544322Y4284878D01*
X553516Y4273753D01*
X564032Y4263898D01*
X575716Y4255414D01*
X588314Y4248454D01*
X601726Y4243171D01*
X615696Y4239564D01*
G37*
G36*
X2794762Y4614062D02*
G01*
X2808122Y4615586D01*
X2821228Y4618888D01*
X2833725Y4623917D01*
X2845409Y4630572D01*
X2856179Y4638751D01*
X2865729Y4648250D01*
X2873908Y4658918D01*
X2880614Y4670602D01*
X2885694Y4683099D01*
X2889046Y4696155D01*
X2890672Y4709515D01*
X2890469Y4723028D01*
X2888488Y4736338D01*
X2884728Y4749292D01*
X2879293Y4761636D01*
X2872232Y4773117D01*
X2863748Y4783582D01*
X2853944Y4792776D01*
X2842971Y4800600D01*
X2831033Y4806950D01*
X2818434Y4811572D01*
X2805277Y4814519D01*
X2791815Y4815687D01*
X2778353Y4815027D01*
X2765094Y4812588D01*
X2752293Y4808423D01*
X2740152Y4802581D01*
X2728925Y4795164D01*
X2718765Y4786325D01*
X2709875Y4776165D01*
X2702407Y4764938D01*
X2696464Y4752848D01*
X2692247Y4740046D01*
X2689758Y4726787D01*
X2689047Y4713376D01*
X2690164Y4699914D01*
X2693009Y4686757D01*
X2697632Y4674108D01*
X2703880Y4662170D01*
X2711653Y4651146D01*
X2720848Y4641291D01*
X2731262Y4632756D01*
X2742742Y4625644D01*
X2755036Y4620158D01*
X2767939Y4616348D01*
X2781300Y4614316D01*
G37*

%LPD*%
G36*
X-2973222Y19100D02*
G01*
X-2977134Y19862D01*
X-2980436Y22098D01*
X-2982620Y25400D01*
X-2983382Y29260D01*
X-2983382Y757123D01*
X-2982620Y761034D01*
X-2980436Y764336D01*
X-2977134Y766521D01*
X-2973222Y767283D01*
X-2309926Y767283D01*
X-2303424Y768096D01*
X-2297887Y770178D01*
X-2292756Y773734D01*
X-2289708Y776782D01*
X-2287066Y780338D01*
X-2284577Y785876D01*
X-2283409Y793343D01*
X-2283409Y4479696D01*
X-2282647Y4483608D01*
X-2280412Y4486910D01*
X-2277110Y4489094D01*
X-2273249Y4489856D01*
X-2269337Y4489094D01*
X-2266035Y4486910D01*
X-1309674Y3530549D01*
X-1305153Y3526332D01*
X-1300480Y3522522D01*
X-1295603Y3519170D01*
X-1289253Y3515512D01*
X-1286560Y3513277D01*
X-1284782Y3510229D01*
X-1284173Y3506825D01*
X-1284020Y3493922D01*
X-1283309Y3487877D01*
X-1282293Y3482086D01*
X-1280718Y3476142D01*
X-1278940Y3470554D01*
X-1276553Y3464864D01*
X-1273962Y3459632D01*
X-1270762Y3454298D01*
X-1267460Y3449472D01*
X-1263599Y3444697D01*
X-1259586Y3440429D01*
X-1255064Y3436213D01*
X-1250492Y3432556D01*
X-1245463Y3429000D01*
X-1240383Y3426053D01*
X-1234897Y3423259D01*
X-1229461Y3421024D01*
X-1223721Y3419094D01*
X-1221486Y3418586D01*
X-1217523Y3416808D01*
X-1214729Y3413506D01*
X-1213510Y3409391D01*
X-1214120Y3405124D01*
X-1216456Y3401466D01*
X-1808581Y2809341D01*
X-1813966Y2802737D01*
X-1817776Y2795676D01*
X-1820062Y2788005D01*
X-1820925Y2779572D01*
X-1820925Y1733092D01*
X-1821484Y1729739D01*
X-1823161Y1726742D01*
X-1827123Y1721815D01*
X-1831848Y1713433D01*
X-1835048Y1704339D01*
X-1836674Y1694789D01*
X-1836674Y1685188D01*
X-1835048Y1675638D01*
X-1831848Y1666544D01*
X-1827123Y1658162D01*
X-1821078Y1650644D01*
X-1813814Y1644243D01*
X-1805635Y1639214D01*
X-1796643Y1635607D01*
X-1787245Y1633575D01*
X-1773072Y1633016D01*
X-1769668Y1631442D01*
X-1767027Y1628749D01*
X-1765604Y1625244D01*
X-1765554Y1621485D01*
X-1766671Y1614830D01*
X-1766671Y1605178D01*
X-1765046Y1595678D01*
X-1761845Y1586585D01*
X-1757121Y1578152D01*
X-1751075Y1570634D01*
X-1743811Y1564284D01*
X-1735632Y1559204D01*
X-1726641Y1555648D01*
X-1717243Y1553616D01*
X-1707591Y1553159D01*
X-1698040Y1554429D01*
X-1688795Y1557223D01*
X-1680210Y1561592D01*
X-1672437Y1567332D01*
X-1665732Y1574292D01*
X-1660347Y1582267D01*
X-1656384Y1591056D01*
X-1653946Y1600403D01*
X-1653133Y1610004D01*
X-1653946Y1619605D01*
X-1656384Y1628952D01*
X-1660347Y1637741D01*
X-1668373Y1649526D01*
X-1669084Y1653286D01*
X-1669084Y1765401D01*
X-1668221Y1769465D01*
X-1665833Y1772818D01*
X-1662328Y1774952D01*
X-1658264Y1775561D01*
X-1654251Y1774443D01*
X-1651050Y1771853D01*
X-1640484Y1758950D01*
X-1628952Y1747723D01*
X-1616202Y1737918D01*
X-1602435Y1729587D01*
X-1587804Y1722882D01*
X-1572514Y1717954D01*
X-1556766Y1714754D01*
X-1540713Y1713382D01*
X-1524660Y1713839D01*
X-1508709Y1716125D01*
X-1493164Y1720189D01*
X-1478178Y1726031D01*
X-1463954Y1733550D01*
X-1450644Y1742643D01*
X-1438503Y1753158D01*
X-1427632Y1764995D01*
X-1418183Y1778050D01*
X-1410258Y1792020D01*
X-1404010Y1806854D01*
X-1399489Y1822297D01*
X-1396746Y1838147D01*
X-1395831Y1854200D01*
X-1396746Y1870252D01*
X-1399489Y1886102D01*
X-1404010Y1901545D01*
X-1410258Y1916379D01*
X-1418183Y1930349D01*
X-1427632Y1943404D01*
X-1438503Y1955241D01*
X-1450644Y1965756D01*
X-1463954Y1974850D01*
X-1478178Y1982368D01*
X-1493164Y1988210D01*
X-1508709Y1992274D01*
X-1524660Y1994560D01*
X-1540713Y1995017D01*
X-1556766Y1993646D01*
X-1572514Y1990445D01*
X-1587804Y1985467D01*
X-1602435Y1978812D01*
X-1616202Y1970481D01*
X-1628952Y1960676D01*
X-1640484Y1949450D01*
X-1651050Y1936546D01*
X-1654251Y1933956D01*
X-1658264Y1932838D01*
X-1662328Y1933397D01*
X-1665884Y1935581D01*
X-1668272Y1938934D01*
X-1669084Y1942998D01*
X-1669084Y2748889D01*
X-1668322Y2752801D01*
X-1666087Y2756103D01*
X-941425Y3480765D01*
X-936040Y3487318D01*
X-932281Y3494379D01*
X-929944Y3502050D01*
X-929132Y3510534D01*
X-929132Y4538929D01*
X-928319Y4542790D01*
X-926134Y4546092D01*
X-241401Y5230825D01*
X-236016Y5237378D01*
X-232257Y5244439D01*
X-229920Y5252110D01*
X-229108Y5260594D01*
X-229108Y6168847D01*
X-228295Y6172708D01*
X-226110Y6176010D01*
X596493Y6998614D01*
X600202Y7001002D01*
X604570Y7001560D01*
X608787Y7000189D01*
X611987Y6997242D01*
X613664Y6993128D01*
X614984Y6985660D01*
X618185Y6976567D01*
X622858Y6968134D01*
X628954Y6960616D01*
X636168Y6954266D01*
X644398Y6949186D01*
X653338Y6945630D01*
X662787Y6943598D01*
X664921Y6943496D01*
X669036Y6942429D01*
X672388Y6939737D01*
X674319Y6935876D01*
X674522Y6931609D01*
X673354Y6924802D01*
X673354Y6915150D01*
X674979Y6905650D01*
X678180Y6896557D01*
X682853Y6888124D01*
X688949Y6880606D01*
X696163Y6874256D01*
X704392Y6869175D01*
X713333Y6865620D01*
X722782Y6863588D01*
X732434Y6863130D01*
X741984Y6864400D01*
X751179Y6867194D01*
X759815Y6871563D01*
X765454Y6875729D01*
X769518Y6877507D01*
X773938Y6877405D01*
X777951Y6875373D01*
X780643Y6871868D01*
X781659Y6867550D01*
X781659Y6483299D01*
X780948Y6479590D01*
X778916Y6476390D01*
X775919Y6474155D01*
X772261Y6473139D01*
X768502Y6473596D01*
X762000Y6475577D01*
X752449Y6476796D01*
X742797Y6476390D01*
X733348Y6474358D01*
X724408Y6470751D01*
X716178Y6465722D01*
X708964Y6459321D01*
X702868Y6451803D01*
X698195Y6443421D01*
X694994Y6434328D01*
X693216Y6423710D01*
X692200Y6420713D01*
X690372Y6418173D01*
X341528Y6069330D01*
X336092Y6062726D01*
X332333Y6055664D01*
X329996Y6047994D01*
X329184Y6039561D01*
X329184Y5751372D01*
X328422Y5747512D01*
X326186Y5744210D01*
X-478637Y4939334D01*
X-484073Y4932781D01*
X-487832Y4925720D01*
X-490169Y4918049D01*
X-490982Y4909566D01*
X-490982Y3761028D01*
X-491743Y3757168D01*
X-493979Y3753865D01*
X-1478686Y2769158D01*
X-1484071Y2762605D01*
X-1487830Y2755544D01*
X-1490167Y2747873D01*
X-1490980Y2739390D01*
X-1490980Y2060448D01*
X-1490167Y2051964D01*
X-1487830Y2044293D01*
X-1484071Y2037232D01*
X-1478686Y2030679D01*
X-1353769Y1906016D01*
X-1351584Y1902714D01*
X-1350772Y1898802D01*
X-1350772Y1711248D01*
X-1351584Y1707388D01*
X-1353769Y1704086D01*
X-1894078Y1163777D01*
X-1897380Y1161592D01*
X-1901240Y1160780D01*
X-2109470Y1160780D01*
X-2117953Y1159967D01*
X-2125624Y1157630D01*
X-2132685Y1153871D01*
X-2139238Y1148486D01*
X-2228494Y1059230D01*
X-2233879Y1052677D01*
X-2237638Y1045616D01*
X-2239975Y1037945D01*
X-2240788Y1029462D01*
X-2240788Y873252D01*
X-2241397Y869848D01*
X-2243074Y866851D01*
X-2247138Y861821D01*
X-2251811Y853440D01*
X-2255012Y844346D01*
X-2256637Y834796D01*
X-2256637Y825195D01*
X-2255012Y815644D01*
X-2251811Y806551D01*
X-2247138Y798169D01*
X-2241042Y790651D01*
X-2233828Y784250D01*
X-2225598Y779221D01*
X-2216658Y775614D01*
X-2207209Y773582D01*
X-2197557Y773176D01*
X-2188006Y774395D01*
X-2178812Y777240D01*
X-2170176Y781558D01*
X-2162403Y787298D01*
X-2155748Y794258D01*
X-2150364Y802284D01*
X-2146350Y811072D01*
X-2143963Y820369D01*
X-2143099Y829970D01*
X-2143963Y839622D01*
X-2146350Y848918D01*
X-2150364Y857707D01*
X-2158238Y869391D01*
X-2159000Y873201D01*
X-2159000Y898906D01*
X-2158238Y902817D01*
X-2156002Y906119D01*
X-2152700Y908303D01*
X-2148840Y909066D01*
X-2144928Y908303D01*
X-2141626Y906119D01*
X-1967890Y732332D01*
X-1963470Y728268D01*
X-1958949Y724611D01*
X-1954174Y721258D01*
X-1949145Y718312D01*
X-1943912Y715670D01*
X-1938528Y713435D01*
X-1932990Y711606D01*
X-1927352Y710184D01*
X-1921611Y709117D01*
X-1915820Y708507D01*
X-1909825Y708304D01*
X-1545234Y708304D01*
X-1529842Y705916D01*
X-1518158Y705916D01*
X-1506626Y707593D01*
X-1495450Y710844D01*
X-1484833Y715721D01*
X-1475028Y722020D01*
X-1466240Y729640D01*
X-1459077Y737870D01*
X-1455623Y740460D01*
X-1451406Y741375D01*
X-1242822Y741426D01*
X-1234084Y742645D01*
X-1226058Y745337D01*
X-1218641Y749503D01*
X-1211732Y755192D01*
X-1114196Y852728D01*
X-1110945Y854913D01*
X-1107033Y855675D01*
X-988720Y855675D01*
X-985977Y855319D01*
X-983386Y854202D01*
X-978103Y850900D01*
X-969162Y847344D01*
X-959713Y845312D01*
X-950061Y844854D01*
X-940511Y846124D01*
X-931316Y848918D01*
X-922680Y853287D01*
X-914908Y859028D01*
X-908253Y865987D01*
X-902868Y873963D01*
X-898855Y882751D01*
X-896467Y892098D01*
X-895603Y901700D01*
X-896467Y911301D01*
X-898855Y920648D01*
X-902868Y929436D01*
X-908253Y937412D01*
X-914908Y944371D01*
X-922680Y950112D01*
X-931316Y954481D01*
X-940511Y957275D01*
X-950061Y958545D01*
X-959713Y958087D01*
X-969162Y956056D01*
X-978103Y952500D01*
X-983386Y949198D01*
X-985977Y948080D01*
X-988720Y947724D01*
X-1132078Y947674D01*
X-1140815Y946454D01*
X-1148842Y943762D01*
X-1156258Y939596D01*
X-1163167Y933907D01*
X-1260703Y836371D01*
X-1263954Y834186D01*
X-1267866Y833424D01*
X-1451406Y833424D01*
X-1455623Y834339D01*
X-1459077Y836930D01*
X-1466392Y845362D01*
X-1473149Y851763D01*
X-1477619Y855421D01*
X-1482445Y858723D01*
X-1487424Y861720D01*
X-1492656Y864311D01*
X-1498041Y866546D01*
X-1503578Y868375D01*
X-1509217Y869848D01*
X-1514957Y870864D01*
X-1520748Y871474D01*
X-1526794Y871728D01*
X-1871929Y871728D01*
X-1875840Y872490D01*
X-1879092Y874674D01*
X-2031949Y1027531D01*
X-2041042Y1035405D01*
X-2050846Y1041704D01*
X-2061464Y1046530D01*
X-2072639Y1049832D01*
X-2084171Y1051458D01*
X-2096007Y1051458D01*
X-2099919Y1052271D01*
X-2103221Y1054455D01*
X-2105406Y1057757D01*
X-2106168Y1061618D01*
X-2105406Y1065530D01*
X-2103221Y1068832D01*
X-2096007Y1075994D01*
X-2092706Y1078230D01*
X-2088845Y1078992D01*
X-1880616Y1078992D01*
X-1872132Y1079804D01*
X-1864461Y1082141D01*
X-1857400Y1085900D01*
X-1850847Y1091336D01*
X-1281328Y1660855D01*
X-1275892Y1667408D01*
X-1272133Y1674469D01*
X-1269796Y1682140D01*
X-1268984Y1690624D01*
X-1268984Y1919478D01*
X-1269796Y1927961D01*
X-1272133Y1935632D01*
X-1275892Y1942693D01*
X-1281328Y1949246D01*
X-1406194Y2073910D01*
X-1408430Y2077212D01*
X-1409192Y2081123D01*
X-1409192Y2620924D01*
X-1408277Y2625090D01*
X-1405737Y2628544D01*
X-1401978Y2630627D01*
X-1397711Y2630982D01*
X-1393698Y2629560D01*
X-1390599Y2626614D01*
X-1389024Y2622600D01*
X-1388516Y2619857D01*
X-1385316Y2610764D01*
X-1380642Y2602382D01*
X-1374546Y2594864D01*
X-1367332Y2588463D01*
X-1359103Y2583434D01*
X-1350162Y2579827D01*
X-1340713Y2577795D01*
X-1331061Y2577388D01*
X-1321511Y2578608D01*
X-1312316Y2581452D01*
X-1303680Y2585770D01*
X-1295908Y2591511D01*
X-1289253Y2598470D01*
X-1283868Y2606497D01*
X-1279855Y2615285D01*
X-1277467Y2624582D01*
X-1276604Y2634183D01*
X-1277467Y2643835D01*
X-1278636Y2648305D01*
X-1278890Y2652064D01*
X-1277721Y2655671D01*
X-1275384Y2658618D01*
X-1272082Y2660446D01*
X-1258011Y2662224D01*
X-1248816Y2665018D01*
X-1240231Y2669336D01*
X-1231493Y2675890D01*
X-1228394Y2677464D01*
X-1224991Y2677922D01*
X-1221638Y2677210D01*
X-1218692Y2675382D01*
X-1214932Y2672080D01*
X-1206703Y2667000D01*
X-1197762Y2663444D01*
X-1188313Y2661412D01*
X-1178661Y2660954D01*
X-1169111Y2662224D01*
X-1159916Y2665018D01*
X-1151280Y2669387D01*
X-1143508Y2675128D01*
X-1136853Y2682087D01*
X-1131468Y2690063D01*
X-1127455Y2698851D01*
X-1125067Y2708198D01*
X-1124305Y2716987D01*
X-1123391Y2720390D01*
X-1121359Y2723286D01*
X-325678Y3518966D01*
X-322427Y3521151D01*
X-318516Y3521913D01*
X-314655Y3521151D01*
X-311353Y3518966D01*
X-309118Y3515664D01*
X-308356Y3511753D01*
X-308356Y3318814D01*
X-309118Y3314903D01*
X-311353Y3311601D01*
X-845515Y2777439D01*
X-848614Y2775305D01*
X-852271Y2774442D01*
X-858113Y2774188D01*
X-867562Y2772156D01*
X-876503Y2768600D01*
X-884732Y2763520D01*
X-891946Y2757170D01*
X-898042Y2749651D01*
X-902716Y2741218D01*
X-905916Y2732125D01*
X-907542Y2722626D01*
X-907542Y2712974D01*
X-905916Y2703474D01*
X-902716Y2694381D01*
X-898042Y2685948D01*
X-891946Y2678430D01*
X-884732Y2672080D01*
X-876503Y2667000D01*
X-867562Y2663444D01*
X-858113Y2661412D01*
X-848461Y2660954D01*
X-838911Y2662224D01*
X-829716Y2665018D01*
X-821131Y2669336D01*
X-812393Y2675890D01*
X-809294Y2677464D01*
X-805891Y2677922D01*
X-802538Y2677210D01*
X-799592Y2675382D01*
X-795832Y2672080D01*
X-787603Y2667000D01*
X-778662Y2663444D01*
X-769213Y2661412D01*
X-759561Y2660954D01*
X-750011Y2662224D01*
X-740816Y2665018D01*
X-732180Y2669387D01*
X-724408Y2675128D01*
X-717753Y2682087D01*
X-712368Y2690063D01*
X-708355Y2698851D01*
X-705967Y2708198D01*
X-705205Y2716987D01*
X-704291Y2720390D01*
X-702259Y2723286D01*
X-228244Y3197301D01*
X-224942Y3199485D01*
X-221081Y3200298D01*
X-217170Y3199485D01*
X-213867Y3197301D01*
X-211683Y3193999D01*
X-210921Y3190138D01*
X-210921Y801166D01*
X-211683Y797255D01*
X-213867Y793953D01*
X-316280Y691591D01*
X-319582Y689356D01*
X-323443Y688594D01*
X-909167Y688594D01*
X-912368Y689102D01*
X-915212Y690575D01*
X-922680Y696112D01*
X-931316Y700481D01*
X-940511Y703275D01*
X-950061Y704545D01*
X-959713Y704088D01*
X-969162Y702056D01*
X-978103Y698500D01*
X-986332Y693420D01*
X-993546Y687070D01*
X-999642Y679551D01*
X-1004316Y671118D01*
X-1007516Y662025D01*
X-1009142Y652526D01*
X-1009142Y642874D01*
X-1007516Y633374D01*
X-1004316Y624281D01*
X-999642Y615848D01*
X-993546Y608330D01*
X-986332Y601980D01*
X-978103Y596900D01*
X-969924Y593648D01*
X-966571Y591413D01*
X-964336Y588111D01*
X-963523Y584200D01*
X-964336Y580288D01*
X-966571Y576986D01*
X-969924Y574751D01*
X-978103Y571500D01*
X-986332Y566420D01*
X-993546Y560070D01*
X-999642Y552551D01*
X-1004316Y544118D01*
X-1007516Y535025D01*
X-1009142Y525526D01*
X-1009142Y515874D01*
X-1007516Y506374D01*
X-1004316Y497281D01*
X-999642Y488848D01*
X-993546Y481330D01*
X-986332Y474980D01*
X-978103Y469900D01*
X-969162Y466343D01*
X-959713Y464312D01*
X-950061Y463854D01*
X-940511Y465124D01*
X-931316Y467918D01*
X-922680Y472287D01*
X-915212Y477824D01*
X-912368Y479298D01*
X-909167Y479806D01*
X-215900Y479806D01*
X-207416Y480618D01*
X-199745Y482955D01*
X-192684Y486714D01*
X-186131Y492150D01*
X-91338Y586943D01*
X-85902Y593496D01*
X-82143Y600557D01*
X-79806Y608228D01*
X-78994Y616712D01*
X-78994Y4718964D01*
X-78181Y4722825D01*
X-75996Y4726127D01*
X160578Y4962702D01*
X163982Y4964938D01*
X167995Y4965700D01*
X171958Y4964785D01*
X175260Y4962398D01*
X177342Y4958892D01*
X178155Y4956556D01*
X182880Y4948174D01*
X188925Y4940655D01*
X196189Y4934254D01*
X204368Y4929225D01*
X213360Y4925618D01*
X222758Y4923586D01*
X232410Y4923180D01*
X241960Y4924399D01*
X251206Y4927244D01*
X259791Y4931562D01*
X267563Y4937302D01*
X269189Y4939030D01*
X272542Y4941316D01*
X276555Y4942128D01*
X460095Y4942128D01*
X464007Y4941366D01*
X467258Y4939182D01*
X480364Y4926076D01*
X482549Y4922774D01*
X483362Y4918913D01*
X483362Y4915154D01*
X484987Y4905654D01*
X488188Y4896561D01*
X492861Y4888128D01*
X497382Y4882591D01*
X499160Y4879238D01*
X499618Y4875479D01*
X498652Y4871821D01*
X496366Y4868773D01*
X493166Y4866741D01*
X489458Y4866030D01*
X457352Y4865979D01*
X448462Y4865166D01*
X446024Y4864760D01*
X437388Y4862576D01*
X435051Y4861814D01*
X426821Y4858410D01*
X424586Y4857292D01*
X416966Y4852720D01*
X414934Y4851298D01*
X408076Y4845608D01*
X109423Y4546955D01*
X103733Y4540097D01*
X102311Y4538065D01*
X97739Y4530445D01*
X96621Y4528210D01*
X93218Y4519980D01*
X92456Y4517644D01*
X90271Y4509008D01*
X89865Y4506569D01*
X89052Y4497679D01*
X89001Y3652367D01*
X88239Y3648456D01*
X86004Y3645154D01*
X16764Y3575913D01*
X12547Y3571392D01*
X8737Y3566668D01*
X5334Y3561740D01*
X2235Y3556558D01*
X-457Y3551174D01*
X-2743Y3545636D01*
X-4622Y3539947D01*
X-6146Y3534105D01*
X-7213Y3528212D01*
X-7823Y3522218D01*
X-8077Y3516020D01*
X-8077Y2629255D01*
X-7162Y2616911D01*
X-4622Y2605176D01*
X-406Y2593898D01*
X5334Y2583383D01*
X12547Y2573731D01*
X21031Y2565247D01*
X30683Y2558034D01*
X41198Y2552293D01*
X52476Y2548077D01*
X64211Y2545537D01*
X76200Y2544673D01*
X88188Y2545537D01*
X99923Y2548077D01*
X111201Y2552293D01*
X121716Y2558034D01*
X131368Y2565247D01*
X138125Y2572004D01*
X140868Y2573985D01*
X144119Y2574899D01*
X147472Y2574747D01*
X157886Y2572512D01*
X167538Y2572054D01*
X177088Y2573324D01*
X186283Y2576118D01*
X194919Y2580487D01*
X202692Y2586228D01*
X209346Y2593187D01*
X214731Y2601163D01*
X218744Y2609951D01*
X221132Y2619298D01*
X221996Y2628900D01*
X221132Y2638501D01*
X219202Y2645968D01*
X218948Y2649524D01*
X219913Y2652979D01*
X221996Y2655874D01*
X227329Y2661005D01*
X230022Y2662885D01*
X233222Y2663748D01*
X236524Y2663596D01*
X246786Y2661412D01*
X256438Y2660954D01*
X265988Y2662224D01*
X275183Y2665018D01*
X283819Y2669387D01*
X291592Y2675128D01*
X298246Y2682087D01*
X303631Y2690063D01*
X307644Y2698851D01*
X310032Y2708198D01*
X310896Y2717800D01*
X310032Y2727401D01*
X307644Y2736748D01*
X303631Y2745536D01*
X298246Y2753512D01*
X296621Y2755239D01*
X294538Y2758440D01*
X293827Y2762250D01*
X294538Y2766060D01*
X296621Y2769260D01*
X298246Y2770987D01*
X303631Y2778963D01*
X307644Y2787751D01*
X310032Y2797098D01*
X310896Y2806700D01*
X310032Y2816301D01*
X308152Y2823514D01*
X307898Y2827020D01*
X308813Y2830372D01*
X310845Y2833268D01*
X700328Y3222752D01*
X703630Y3224987D01*
X707491Y3225749D01*
X1039825Y3225749D01*
X1046022Y3225952D01*
X1051966Y3226612D01*
X1057910Y3227679D01*
X1063752Y3229152D01*
X1069441Y3231032D01*
X1074978Y3233369D01*
X1080363Y3236061D01*
X1085545Y3239109D01*
X1090472Y3242564D01*
X1095146Y3246323D01*
X1099718Y3250539D01*
X1501902Y3652774D01*
X1505204Y3654958D01*
X1509115Y3655720D01*
X1889810Y3655720D01*
X1896008Y3655974D01*
X1902002Y3656584D01*
X1907895Y3657650D01*
X1913737Y3659174D01*
X1919427Y3661054D01*
X1925015Y3663340D01*
X1930349Y3666032D01*
X1935530Y3669131D01*
X1940509Y3672535D01*
X1945182Y3676294D01*
X1949704Y3680561D01*
X2189429Y3920286D01*
X2193645Y3924808D01*
X2197455Y3929481D01*
X2200859Y3934460D01*
X2203958Y3939590D01*
X2206650Y3944975D01*
X2208936Y3950563D01*
X2210816Y3956253D01*
X2212340Y3962095D01*
X2213406Y3967987D01*
X2214016Y3973982D01*
X2214270Y3980179D01*
X2214270Y4410862D01*
X2215032Y4414774D01*
X2217216Y4418076D01*
X2247442Y4448302D01*
X2250744Y4450486D01*
X2254656Y4451248D01*
X2258517Y4450486D01*
X2261819Y4448302D01*
X2264003Y4445000D01*
X2264816Y4441088D01*
X2264816Y793800D01*
X2265578Y787349D01*
X2267661Y781812D01*
X2271217Y776681D01*
X2274265Y773633D01*
X2277872Y770991D01*
X2283409Y768502D01*
X2290876Y767283D01*
X2954629Y767283D01*
X2958541Y766521D01*
X2961792Y764336D01*
X2964027Y761034D01*
X2964789Y757123D01*
X2964789Y29260D01*
X2964027Y25400D01*
X2961792Y22098D01*
X2958541Y19862D01*
X2954629Y19100D01*
G37*

%LPC*%
G36*
X-1521561Y984554D02*
G01*
X-1512011Y985824D01*
X-1502816Y988618D01*
X-1494180Y992987D01*
X-1486408Y998728D01*
X-1479753Y1005687D01*
X-1474368Y1013663D01*
X-1470355Y1022451D01*
X-1467967Y1031798D01*
X-1467104Y1041400D01*
X-1467967Y1051001D01*
X-1470355Y1060348D01*
X-1474368Y1069136D01*
X-1479753Y1077112D01*
X-1486408Y1084072D01*
X-1494180Y1089812D01*
X-1502816Y1094181D01*
X-1512011Y1096975D01*
X-1521561Y1098245D01*
X-1531213Y1097788D01*
X-1540662Y1095756D01*
X-1549603Y1092200D01*
X-1557832Y1087120D01*
X-1565046Y1080770D01*
X-1571142Y1073251D01*
X-1575816Y1064818D01*
X-1579016Y1055725D01*
X-1580642Y1046226D01*
X-1580642Y1036574D01*
X-1579016Y1027074D01*
X-1575816Y1017981D01*
X-1571142Y1009548D01*
X-1565046Y1002030D01*
X-1557832Y995680D01*
X-1549603Y990600D01*
X-1540662Y987044D01*
X-1531213Y985012D01*
G37*
G36*
X-1331061Y1200454D02*
G01*
X-1321511Y1201724D01*
X-1312316Y1204518D01*
X-1303680Y1208887D01*
X-1295908Y1214628D01*
X-1289253Y1221587D01*
X-1283868Y1229563D01*
X-1279855Y1238351D01*
X-1277467Y1247698D01*
X-1276604Y1257300D01*
X-1277467Y1266901D01*
X-1279855Y1276248D01*
X-1283868Y1285036D01*
X-1289253Y1293012D01*
X-1295908Y1299972D01*
X-1303680Y1305712D01*
X-1312316Y1310081D01*
X-1321511Y1312875D01*
X-1331061Y1314145D01*
X-1340713Y1313688D01*
X-1350162Y1311656D01*
X-1359103Y1308100D01*
X-1367332Y1303020D01*
X-1374546Y1296670D01*
X-1380642Y1289151D01*
X-1385316Y1280718D01*
X-1388516Y1271625D01*
X-1390142Y1262126D01*
X-1390142Y1252474D01*
X-1388516Y1242974D01*
X-1385316Y1233881D01*
X-1380642Y1225448D01*
X-1374546Y1217930D01*
X-1367332Y1211580D01*
X-1359103Y1206500D01*
X-1350162Y1202944D01*
X-1340713Y1200912D01*
G37*
G36*
X1634286Y1611782D02*
G01*
X1650339Y1612239D01*
X1666290Y1614525D01*
X1681835Y1618589D01*
X1696821Y1624431D01*
X1711045Y1631950D01*
X1724355Y1641043D01*
X1736496Y1651558D01*
X1747367Y1663395D01*
X1756816Y1676450D01*
X1764741Y1690420D01*
X1770989Y1705254D01*
X1775510Y1720697D01*
X1778254Y1736547D01*
X1779168Y1752600D01*
X1778254Y1768652D01*
X1775510Y1784502D01*
X1770989Y1799945D01*
X1764741Y1814779D01*
X1756816Y1828749D01*
X1747367Y1841804D01*
X1736496Y1853641D01*
X1724355Y1864156D01*
X1711045Y1873250D01*
X1696821Y1880768D01*
X1681835Y1886610D01*
X1666290Y1890674D01*
X1650339Y1892960D01*
X1634286Y1893417D01*
X1618234Y1892046D01*
X1602486Y1888845D01*
X1587195Y1883867D01*
X1572564Y1877212D01*
X1558798Y1868881D01*
X1546047Y1859076D01*
X1534515Y1847850D01*
X1524304Y1835404D01*
X1515618Y1821891D01*
X1508506Y1807464D01*
X1503121Y1792274D01*
X1499463Y1776628D01*
X1497634Y1760626D01*
X1497634Y1744573D01*
X1499463Y1728571D01*
X1503121Y1712925D01*
X1508506Y1697736D01*
X1515618Y1683308D01*
X1524304Y1669796D01*
X1534515Y1657350D01*
X1546047Y1646123D01*
X1558798Y1636318D01*
X1572564Y1627987D01*
X1587195Y1621282D01*
X1602486Y1616354D01*
X1618234Y1613154D01*
G37*
G36*
X2066086Y1700682D02*
G01*
X2082139Y1701139D01*
X2098090Y1703425D01*
X2113635Y1707489D01*
X2128621Y1713331D01*
X2142845Y1720850D01*
X2156155Y1729943D01*
X2168296Y1740458D01*
X2179167Y1752295D01*
X2188616Y1765350D01*
X2196541Y1779320D01*
X2202789Y1794154D01*
X2207310Y1809597D01*
X2210054Y1825447D01*
X2210968Y1841500D01*
X2210054Y1857552D01*
X2207310Y1873402D01*
X2202789Y1888845D01*
X2196541Y1903679D01*
X2188616Y1917649D01*
X2179167Y1930704D01*
X2168296Y1942541D01*
X2156155Y1953056D01*
X2142845Y1962150D01*
X2128621Y1969668D01*
X2113635Y1975510D01*
X2098090Y1979574D01*
X2082139Y1981860D01*
X2066086Y1982317D01*
X2050034Y1980946D01*
X2034286Y1977745D01*
X2018995Y1972767D01*
X2004364Y1966112D01*
X1990598Y1957781D01*
X1977847Y1947976D01*
X1966315Y1936750D01*
X1956104Y1924304D01*
X1947418Y1910791D01*
X1940306Y1896364D01*
X1934921Y1881174D01*
X1931263Y1865528D01*
X1929434Y1849526D01*
X1929434Y1833473D01*
X1931263Y1817471D01*
X1934921Y1801825D01*
X1940306Y1786636D01*
X1947418Y1772208D01*
X1956104Y1758696D01*
X1966315Y1746250D01*
X1977847Y1735023D01*
X1990598Y1725218D01*
X2004364Y1716887D01*
X2018995Y1710182D01*
X2034286Y1705254D01*
X2050034Y1702054D01*
G37*
G36*
X-2112213Y1700682D02*
G01*
X-2096160Y1701139D01*
X-2080209Y1703425D01*
X-2064664Y1707489D01*
X-2049678Y1713331D01*
X-2035454Y1720850D01*
X-2022144Y1729943D01*
X-2010003Y1740458D01*
X-1999132Y1752295D01*
X-1989683Y1765350D01*
X-1981758Y1779320D01*
X-1975510Y1794154D01*
X-1970989Y1809597D01*
X-1968246Y1825447D01*
X-1967331Y1841500D01*
X-1968246Y1857552D01*
X-1970989Y1873402D01*
X-1975510Y1888845D01*
X-1981758Y1903679D01*
X-1989683Y1917649D01*
X-1999132Y1930704D01*
X-2010003Y1942541D01*
X-2022144Y1953056D01*
X-2035454Y1962150D01*
X-2049678Y1969668D01*
X-2064664Y1975510D01*
X-2080209Y1979574D01*
X-2096160Y1981860D01*
X-2112213Y1982317D01*
X-2128266Y1980946D01*
X-2144014Y1977745D01*
X-2159304Y1972767D01*
X-2173935Y1966112D01*
X-2187702Y1957781D01*
X-2200452Y1947976D01*
X-2211984Y1936750D01*
X-2222195Y1924304D01*
X-2230882Y1910791D01*
X-2237994Y1896364D01*
X-2243378Y1881174D01*
X-2247036Y1865528D01*
X-2248865Y1849526D01*
X-2248865Y1833473D01*
X-2247036Y1817471D01*
X-2243378Y1801825D01*
X-2237994Y1786636D01*
X-2230882Y1772208D01*
X-2222195Y1758696D01*
X-2211984Y1746250D01*
X-2200452Y1735023D01*
X-2187702Y1725218D01*
X-2173935Y1716887D01*
X-2159304Y1710182D01*
X-2144014Y1705254D01*
X-2128266Y1702054D01*
G37*
G36*
X879805Y2537968D02*
G01*
X889609Y2538831D01*
X899058Y2541371D01*
X907999Y2545486D01*
X916025Y2551125D01*
X922985Y2558084D01*
X928624Y2566111D01*
X930605Y2570378D01*
X932840Y2573477D01*
X936040Y2575560D01*
X939800Y2576271D01*
X943559Y2575560D01*
X946759Y2573477D01*
X948994Y2570378D01*
X950976Y2566111D01*
X956614Y2558084D01*
X963574Y2551125D01*
X971600Y2545486D01*
X980541Y2541371D01*
X989990Y2538831D01*
X999794Y2537968D01*
X1009599Y2538831D01*
X1019048Y2541371D01*
X1027988Y2545486D01*
X1036015Y2551125D01*
X1042974Y2558084D01*
X1048613Y2566111D01*
X1052728Y2575052D01*
X1055268Y2584500D01*
X1056132Y2594305D01*
X1055268Y2604109D01*
X1052728Y2613558D01*
X1048613Y2622499D01*
X1042974Y2630525D01*
X1036015Y2637485D01*
X1027988Y2643124D01*
X1023721Y2645105D01*
X1020622Y2647340D01*
X1018540Y2650540D01*
X1017828Y2654300D01*
X1018540Y2658059D01*
X1020622Y2661259D01*
X1023721Y2663494D01*
X1027988Y2665476D01*
X1036015Y2671114D01*
X1042974Y2678074D01*
X1048613Y2686100D01*
X1052728Y2695041D01*
X1055268Y2704490D01*
X1056132Y2714294D01*
X1055268Y2724099D01*
X1052728Y2733548D01*
X1048613Y2742488D01*
X1042974Y2750515D01*
X1036015Y2757474D01*
X1027988Y2763113D01*
X1019048Y2767228D01*
X1009599Y2769768D01*
X999794Y2770632D01*
X989990Y2769768D01*
X980541Y2767228D01*
X971600Y2763113D01*
X963574Y2757474D01*
X956614Y2750515D01*
X950976Y2742488D01*
X948994Y2738221D01*
X946759Y2735122D01*
X943559Y2733040D01*
X939800Y2732328D01*
X936040Y2733040D01*
X932840Y2735122D01*
X930605Y2738221D01*
X928624Y2742488D01*
X922985Y2750515D01*
X916025Y2757474D01*
X907999Y2763113D01*
X899058Y2767228D01*
X889609Y2769768D01*
X879805Y2770632D01*
X870000Y2769768D01*
X860552Y2767228D01*
X851611Y2763113D01*
X843584Y2757474D01*
X836625Y2750515D01*
X830986Y2742488D01*
X826871Y2733548D01*
X824331Y2724099D01*
X823468Y2714294D01*
X824331Y2704490D01*
X826871Y2695041D01*
X830986Y2686100D01*
X836625Y2678074D01*
X843584Y2671114D01*
X851611Y2665476D01*
X855878Y2663494D01*
X858977Y2661259D01*
X861060Y2658059D01*
X861771Y2654300D01*
X861060Y2650540D01*
X858977Y2647340D01*
X855878Y2645105D01*
X851611Y2643124D01*
X843584Y2637485D01*
X836625Y2630525D01*
X830986Y2622499D01*
X826871Y2613558D01*
X824331Y2604109D01*
X823468Y2594305D01*
X824331Y2584500D01*
X826871Y2575052D01*
X830986Y2566111D01*
X836625Y2558084D01*
X843584Y2551125D01*
X851611Y2545486D01*
X860552Y2541371D01*
X870000Y2538831D01*
G37*
G36*
X2078786Y3300882D02*
G01*
X2094839Y3301339D01*
X2110790Y3303625D01*
X2126335Y3307689D01*
X2141321Y3313531D01*
X2155545Y3321050D01*
X2168855Y3330143D01*
X2180996Y3340658D01*
X2191867Y3352495D01*
X2201316Y3365550D01*
X2209241Y3379520D01*
X2215489Y3394354D01*
X2220010Y3409797D01*
X2222754Y3425647D01*
X2223668Y3441700D01*
X2222754Y3457752D01*
X2220010Y3473602D01*
X2215489Y3489045D01*
X2209241Y3503879D01*
X2201316Y3517849D01*
X2191867Y3530904D01*
X2180996Y3542741D01*
X2168855Y3553256D01*
X2155545Y3562350D01*
X2141321Y3569868D01*
X2126335Y3575710D01*
X2110790Y3579774D01*
X2094839Y3582060D01*
X2078786Y3582517D01*
X2062734Y3581146D01*
X2046986Y3577945D01*
X2031695Y3572967D01*
X2017064Y3566312D01*
X2003298Y3557981D01*
X1990547Y3548176D01*
X1979015Y3536950D01*
X1968804Y3524504D01*
X1960118Y3510991D01*
X1953006Y3496564D01*
X1947621Y3481374D01*
X1943963Y3465728D01*
X1942134Y3449726D01*
X1942134Y3433673D01*
X1943963Y3417671D01*
X1947621Y3402025D01*
X1953006Y3386836D01*
X1960118Y3372408D01*
X1968804Y3358896D01*
X1979015Y3346450D01*
X1990547Y3335223D01*
X2003298Y3325418D01*
X2017064Y3317087D01*
X2031695Y3310382D01*
X2046986Y3305454D01*
X2062734Y3302254D01*
G37*
G36*
X-1477213Y3300882D02*
G01*
X-1461160Y3301339D01*
X-1445209Y3303625D01*
X-1429664Y3307689D01*
X-1414678Y3313531D01*
X-1400454Y3321050D01*
X-1387144Y3330143D01*
X-1375003Y3340658D01*
X-1364132Y3352495D01*
X-1354683Y3365550D01*
X-1346758Y3379520D01*
X-1340510Y3394354D01*
X-1335989Y3409797D01*
X-1333246Y3425647D01*
X-1332331Y3441700D01*
X-1333246Y3457752D01*
X-1335989Y3473602D01*
X-1340510Y3489045D01*
X-1346758Y3503879D01*
X-1354683Y3517849D01*
X-1364132Y3530904D01*
X-1375003Y3542741D01*
X-1387144Y3553256D01*
X-1400454Y3562350D01*
X-1414678Y3569868D01*
X-1429664Y3575710D01*
X-1445209Y3579774D01*
X-1461160Y3582060D01*
X-1477213Y3582517D01*
X-1493266Y3581146D01*
X-1509014Y3577945D01*
X-1524304Y3572967D01*
X-1538935Y3566312D01*
X-1552702Y3557981D01*
X-1565452Y3548176D01*
X-1576984Y3536950D01*
X-1587195Y3524504D01*
X-1595882Y3510991D01*
X-1602994Y3496564D01*
X-1608378Y3481374D01*
X-1612036Y3465728D01*
X-1613865Y3449726D01*
X-1613865Y3433673D01*
X-1612036Y3417671D01*
X-1608378Y3402025D01*
X-1602994Y3386836D01*
X-1595882Y3372408D01*
X-1587195Y3358896D01*
X-1576984Y3346450D01*
X-1565452Y3335223D01*
X-1552702Y3325418D01*
X-1538935Y3317087D01*
X-1524304Y3310382D01*
X-1509014Y3305454D01*
X-1493266Y3302254D01*
G37*
G36*
X-2099513Y3300882D02*
G01*
X-2083460Y3301339D01*
X-2067509Y3303625D01*
X-2051964Y3307689D01*
X-2036978Y3313531D01*
X-2022754Y3321050D01*
X-2009444Y3330143D01*
X-1997303Y3340658D01*
X-1986432Y3352495D01*
X-1976983Y3365550D01*
X-1969058Y3379520D01*
X-1962810Y3394354D01*
X-1958289Y3409797D01*
X-1955546Y3425647D01*
X-1954631Y3441700D01*
X-1955546Y3457752D01*
X-1958289Y3473602D01*
X-1962810Y3489045D01*
X-1969058Y3503879D01*
X-1976983Y3517849D01*
X-1986432Y3530904D01*
X-1997303Y3542741D01*
X-2009444Y3553256D01*
X-2022754Y3562350D01*
X-2036978Y3569868D01*
X-2051964Y3575710D01*
X-2067509Y3579774D01*
X-2083460Y3582060D01*
X-2099513Y3582517D01*
X-2115566Y3581146D01*
X-2131314Y3577945D01*
X-2146604Y3572967D01*
X-2161235Y3566312D01*
X-2175002Y3557981D01*
X-2187752Y3548176D01*
X-2199284Y3536950D01*
X-2209495Y3524504D01*
X-2218182Y3510991D01*
X-2225294Y3496564D01*
X-2230678Y3481374D01*
X-2234336Y3465728D01*
X-2236165Y3449726D01*
X-2236165Y3433673D01*
X-2234336Y3417671D01*
X-2230678Y3402025D01*
X-2225294Y3386836D01*
X-2218182Y3372408D01*
X-2209495Y3358896D01*
X-2199284Y3346450D01*
X-2187752Y3335223D01*
X-2175002Y3325418D01*
X-2161235Y3317087D01*
X-2146604Y3310382D01*
X-2131314Y3305454D01*
X-2115566Y3302254D01*
G37*
G36*
X1558086Y3313582D02*
G01*
X1574139Y3314039D01*
X1590090Y3316325D01*
X1605635Y3320389D01*
X1620621Y3326231D01*
X1634845Y3333750D01*
X1648155Y3342843D01*
X1660296Y3353358D01*
X1671167Y3365195D01*
X1680616Y3378250D01*
X1688541Y3392220D01*
X1694789Y3407054D01*
X1699310Y3422497D01*
X1702054Y3438347D01*
X1702968Y3454400D01*
X1702054Y3470452D01*
X1699310Y3486302D01*
X1694789Y3501745D01*
X1688541Y3516579D01*
X1680616Y3530549D01*
X1671167Y3543604D01*
X1660296Y3555441D01*
X1648155Y3565956D01*
X1634845Y3575050D01*
X1620621Y3582568D01*
X1605635Y3588410D01*
X1590090Y3592474D01*
X1574139Y3594760D01*
X1558086Y3595217D01*
X1542034Y3593846D01*
X1526286Y3590645D01*
X1510995Y3585667D01*
X1496364Y3579012D01*
X1482598Y3570681D01*
X1469847Y3560876D01*
X1458315Y3549650D01*
X1448104Y3537204D01*
X1439418Y3523691D01*
X1432306Y3509264D01*
X1426921Y3494074D01*
X1423263Y3478428D01*
X1421434Y3462426D01*
X1421434Y3446373D01*
X1423263Y3430371D01*
X1426921Y3414725D01*
X1432306Y3399536D01*
X1439418Y3385108D01*
X1448104Y3371596D01*
X1458315Y3359150D01*
X1469847Y3347923D01*
X1482598Y3338118D01*
X1496364Y3329787D01*
X1510995Y3323082D01*
X1526286Y3318154D01*
X1542034Y3314954D01*
G37*

%LPD*%
D10*
X-1198473Y7327264D02*
G01*
X-885672Y7640065D01*
X-809711Y7640065D01*
D11*
X750011Y6419977D02*
G01*
X370080Y6040046D01*
X370080Y5730242D01*
X-450087Y4910076D01*
X-450087Y3739895D01*
X-1450088Y2739900D01*
X-1450088Y2059942D01*
X-1309880Y1919988D01*
X-1309880Y1690115D01*
X-1880107Y1119888D01*
X-2109980Y1119888D01*
X-2199896Y1029970D01*
X-2199896Y830069D01*
D12*
X-1878904Y7251077D02*
G01*
X-2219995Y6909986D01*
D11*
X-169999Y3229383D02*
G01*
X-169999Y779998D01*
X-302298Y647700D01*
X-952500Y647700D01*
X180009Y5129987D02*
G01*
X-169999Y4779977D01*
X-169999Y3199991D01*
X-1649984Y2830068D02*
G01*
X-1709996Y2770055D01*
X-1709996Y1609996D01*
D13*
X-1333500Y2634200D02*
G01*
X-1333500Y2746502D01*
X-400050Y3679952D01*
X-400050Y4890007D01*
X420115Y5709920D01*
X420115Y5899912D01*
X565150Y6045200D01*
X685800Y6045200D01*
D11*
X610006Y7069988D02*
G01*
X-269999Y6189982D01*
X-269999Y5260088D01*
X-970023Y4560062D01*
X-970023Y3510023D01*
X-1649984Y2830065D01*
X540004Y7129983D02*
G01*
X-329945Y6260033D01*
X-329945Y5269992D01*
X-1020061Y4579876D01*
X-1020061Y3540000D01*
X-1780009Y2780052D01*
X-1780009Y1689986D01*
D13*
X-2831592Y4956299D02*
G01*
X-2725285Y4849992D01*
X-1580040Y4849992D01*
X-1340043Y5089989D01*
X-779995Y5089989D01*
X-739998Y5129987D01*
X-739998Y5569996D01*
X-670001Y5639993D01*
X-762000Y2717800D02*
G01*
X-219963Y3259836D01*
X-219963Y4819904D01*
X750062Y5789929D01*
X750062Y5839968D01*
X-1270000Y2717800D02*
G01*
X-359918Y3627881D01*
X-359918Y4869942D01*
X482600Y5712713D01*
X482600Y5842000D01*
X-850900Y2717800D02*
G01*
X-270002Y3298697D01*
X-270002Y4830063D01*
X679957Y5780023D01*
X679957Y5924042D01*
X622300Y5981700D01*
D14*
X-2089988Y970000D02*
G01*
X-1909986Y789998D01*
X-1526598Y789998D01*
X-1524000Y787400D01*
X-2577998Y4969713D02*
G01*
X-2209058Y4969713D01*
X-2209058Y4969713D02*
G01*
X-2119995Y4969713D01*
D11*
X-1129995Y6479989D02*
G01*
X-1160010Y6449974D01*
X-2229993Y6449974D01*
D13*
X-1642008Y5249976D02*
G01*
X-779995Y6111989D01*
X-779995Y6959991D01*
X-729988Y7009991D01*
X-710003Y7009991D01*
D12*
X159997Y3599990D02*
G01*
X209976Y3599990D01*
X209976Y3599990D01*
X250012Y3599990D01*
X190019Y3539997D01*
X189992Y3539997D01*
X-2810761Y4716269D02*
G01*
X-2674620Y4579876D01*
X-2239876Y4579876D01*
X-1249984Y3589985D01*
X-1249982Y3589982D02*
G01*
X-1149982Y3589982D01*
X-1140002Y3580003D01*
X-1140005Y3580005D02*
G01*
X-1140005Y3559985D01*
X-1199997Y3499993D01*
D11*
X-249936Y7620000D02*
G01*
X-249936Y7670037D01*
X-122173Y7797800D01*
X-12700Y7797800D01*
D12*
X-2899994Y5269989D02*
G01*
X-2878274Y5269989D01*
X-2577998Y4969713D01*
D13*
X-1439997Y6719986D02*
G01*
X-1325473Y6834510D01*
X-1325473Y7107301D01*
X1319987Y5349976D02*
G01*
X1119987Y5549976D01*
X1119987Y5829988D01*
X-1388008Y5249976D02*
G01*
X-710003Y5927981D01*
X-710003Y6929983D01*
D15*
X-952500Y901700D02*
G01*
X-1130300Y901700D01*
X-1244600Y787400D01*
X-1524000Y787400D01*
D12*
X2805811Y4943119D02*
G01*
X2805811Y5025580D01*
X-2219995Y6909986D02*
G01*
X-2221174Y6908807D01*
D16*
X399999Y4249991D02*
G01*
X399999Y3791000D01*
X685800Y3505200D01*
D17*
X1325422Y7090613D02*
G01*
X1325422Y7138283D01*
X1599336Y7412197D01*
D18*
X229994Y4980000D02*
G01*
X479983Y4980000D01*
X540004Y4919979D01*
X1659991Y5219979D02*
G01*
X1809998Y5369986D01*
X1809998Y6089985D01*
X1510004Y6199987D02*
G01*
X1510004Y6199987D01*
X2289992Y6199987D01*
D19*
X1473200Y6070600D02*
G01*
X1540002Y6003797D01*
X1540002Y4899913D01*
X1430020Y4789931D01*
X459994Y4789931D01*
X459994Y4789931D02*
G01*
X165100Y4495037D01*
X165100Y2717800D01*
D13*
X1059992Y5759983D02*
G01*
X1059992Y5879983D01*
X1509996Y6329989D01*
X1509996Y7019985D01*
X1529996Y7039985D01*
D12*
X-1199895Y3499865D02*
G01*
X-1199895Y4530089D01*
X-519937Y5210047D01*
X-519937Y5210047D02*
G01*
X-519937Y5210047D01*
X-519937Y7309865D01*
X-470154Y7359904D01*
X0Y7359904D01*
D18*
X-1509996Y6079987D02*
G01*
X-1479991Y6109995D01*
X-1010005Y6109995D01*
X929995Y6699989D02*
G01*
X970000Y6739991D01*
X970000Y6999986D01*
D12*
X189992Y3539997D02*
G01*
X165100Y3515105D01*
X165100Y2717800D01*
X159994Y3599992D02*
G01*
X76200Y3516198D01*
X76200Y2628900D01*
D11*
X280009Y5139994D02*
G01*
X-119887Y4740097D01*
X-119887Y616204D01*
X-215392Y520700D01*
X-952500Y520700D01*
D12*
X-940054Y7640065D02*
G01*
X-480060Y7640065D01*
X-350012Y7510018D01*
X-119887Y7510018D01*
X160020Y7789926D01*
X360679Y7789926D01*
X998473Y7208012D02*
G01*
X998473Y7331455D01*
X799845Y7530084D01*
X169926Y7530084D01*
X0Y7359904D01*
X-590042Y7359904D01*
X-955294Y6994652D01*
X-1129537Y6994652D01*
D16*
X169999Y7299985D02*
G01*
X489999Y7299985D01*
X589998Y7399985D01*
X739998Y7399985D01*
X739998Y7399985D01*
X839998Y7299985D01*
D13*
X873000Y5139946D02*
G01*
X700026Y5312915D01*
X700026Y5679950D01*
X819998Y5799924D01*
X819998Y6949981D01*
X539874Y7230107D01*
X-219989Y7230107D01*
X-219989Y7249972D01*
X-1325369Y6834634D02*
G01*
X-1309880Y6849869D01*
X-970112Y6849869D01*
X-749993Y7069985D01*
X-659996Y7069985D01*
X-629996Y7039985D01*
X-629996Y5829985D01*
X-640003Y5819978D01*
D20*
X1769998Y5219979D02*
G01*
X2288616Y5219979D01*
X2552166Y4956429D01*
D19*
X919987Y5529986D02*
G01*
X949998Y5559996D01*
X949998Y5999987D01*
X1325422Y6375412D01*
X1325422Y7090613D01*
D12*
X165100Y2806700D02*
G01*
X668393Y3309993D01*
X1039997Y3309993D01*
X1469997Y3739992D01*
X1889996Y3739992D01*
X2129995Y3979992D01*
X2129995Y4449991D01*
X2408113Y4728108D01*
X2536266Y4728108D01*
D21*
X840003Y5529986D02*
G01*
X919987Y5529986D01*
X919987Y5439994D02*
G01*
X840003Y5439994D01*
X840003Y5439994D02*
G01*
X840003Y5529986D01*
X919987Y5439994D02*
G01*
X919987Y5529986D01*
D13*
X1126997Y5139944D02*
G01*
X1070102Y5139944D01*
X899921Y5309870D01*
X839978Y5309870D01*
X750062Y5400039D01*
X750062Y5659881D01*
X860044Y5770118D01*
X860044Y7020052D01*
X640079Y7240015D01*
X640079Y7309865D01*
X-1181100Y2717800D02*
G01*
X-317500Y3581400D01*
X-317500Y4842510D01*
X571500Y5731510D01*
X571500Y5854700D01*
D12*
G75*
G01*
X2805811Y5025581D02*
G03*
X1929996Y7139986I-2990220J0D01*
G75*
G01*
X1929996Y7139986D02*
G03*
X360761Y7789984I-1569235J-1569235D01*
G75*
G01*
X-2221174Y6908808D02*
G03*
X-2899994Y5269989I1638821J-1638819D01*
G75*
G01*
X-939998Y7639985D02*
G03*
X-1878904Y7251078I0J-1327816D01*
D22*
G01*
X1172108Y3952951D03*
G01*
X1172108Y4152950D03*
G01*
X1172108Y4352950D03*
G01*
X1622094Y4352950D03*
G01*
X1622094Y4152950D03*
G01*
X1622094Y3952951D03*
D23*
G01*
X618997Y5139994D03*
D24*
G01*
X872997Y5139994D03*
G01*
X1126997Y5139994D03*
G01*
X1380997Y5139994D03*
D25*
G01*
X-879982Y5249976D03*
D26*
G01*
X-1134008Y5249976D03*
G01*
X-1388008Y5249976D03*
G01*
X-1642008Y5249976D03*
D27*
G01*
X-1002512Y7214641D03*
G01*
X-1129512Y6994677D03*
G01*
X-2557221Y4729606D03*
G01*
X-2810865Y4716322D03*
G01*
X1125601Y6988124D03*
G01*
X998601Y7208088D03*
G01*
X2789910Y4714798D03*
G01*
X2536266Y4728108D03*
G01*
X-2577998Y4969713D03*
G01*
X-2831668Y4956403D03*
G01*
X-1198473Y7327264D03*
G01*
X-1325473Y7107301D03*
G01*
X1325422Y7090613D03*
G01*
X1198422Y7310602D03*
G01*
X2805811Y4943119D03*
G01*
X2552166Y4956429D03*
D28*
G01*
X637209Y4352315D03*
G01*
X637209Y4606315D03*
G01*
X637006Y4101464D03*
D29*
G01*
X879805Y2714294D03*
G01*
X879805Y2594305D03*
G01*
X999794Y2594305D03*
G01*
X999794Y2714294D03*
G01*
X-965987Y2374087D03*
G01*
X-1065987Y2374087D03*
G01*
X-1065987Y2274087D03*
G01*
X-965987Y2274087D03*
D30*
G01*
X76200Y2628900D03*
G01*
X76200Y2717800D03*
G01*
X165100Y2628900D03*
G01*
X165100Y2717800D03*
G01*
X165100Y2806700D03*
G01*
X254000Y2717800D03*
G01*
X254000Y2806700D03*
G01*
X1473200Y6070600D03*
G01*
X1562100Y6070600D03*
G01*
X1447800Y6007100D03*
G01*
X1524000Y6007100D03*
G01*
X1600200Y6007100D03*
G01*
X280009Y7389977D03*
G01*
X380009Y7389977D03*
G01*
X-12700Y7797800D03*
G01*
X-249986Y7619974D03*
G01*
X-219989Y7249972D03*
G01*
X180009Y4859985D03*
G01*
X-10007Y3789984D03*
G01*
X-1866900Y3911600D03*
G01*
X-1866900Y5003800D03*
G01*
X0Y254000D03*
G01*
X70002Y1459992D03*
G01*
X1866900Y1358900D03*
G01*
X1866900Y266700D03*
G01*
X640003Y7309993D03*
G01*
X1168400Y3022600D03*
G01*
X1270000Y3022600D03*
G01*
X596900Y3035300D03*
G01*
X698500Y3035300D03*
G01*
X-850900Y2717800D03*
G01*
X-762000Y2717800D03*
G01*
X-1181100Y2717800D03*
G01*
X-1270000Y2717800D03*
G01*
X-1524000Y787400D03*
G01*
X-1524000Y1041400D03*
G01*
X-1333500Y1257300D03*
G01*
X-952500Y901700D03*
G01*
X-952500Y647700D03*
G01*
X-952500Y520700D03*
G01*
X-2199995Y829995D03*
G01*
X685800Y3797300D03*
G01*
X685800Y3505200D03*
G01*
X-710006Y7009993D03*
G01*
X-710006Y6929983D03*
G01*
X-1828800Y5613400D03*
G01*
X571500Y5854700D03*
G01*
X482600Y5842000D03*
G01*
X622300Y5981700D03*
G01*
X750011Y5839993D03*
G01*
X685800Y6045200D03*
G01*
X1119987Y5829985D03*
G01*
X1059992Y5759983D03*
G01*
X1529994Y7039990D03*
G01*
X1319987Y5349976D03*
G01*
X-1440002Y6719976D03*
G01*
X-670001Y5639993D03*
G01*
X-640003Y5819978D03*
G01*
X840003Y5529986D03*
G01*
X919987Y5529986D03*
G01*
X840003Y5439994D03*
G01*
X919987Y5439994D03*
G01*
X-1199997Y3499993D03*
G01*
X-1140002Y3580003D03*
G01*
X-1249984Y3589985D03*
G01*
X189992Y3539997D03*
G01*
X250012Y3599992D03*
G01*
X159994Y3599992D03*
G01*
X-1129995Y6479997D03*
G01*
X-2229993Y6449974D03*
G01*
X750011Y6419977D03*
G01*
X-2119985Y4969713D03*
G01*
X-2209063Y4969713D03*
G01*
X-2029993Y910005D03*
G01*
X-2089988Y970000D03*
G01*
X540004Y7129983D03*
G01*
X610006Y7069988D03*
G01*
X670001Y6999986D03*
G01*
X929995Y6699986D03*
G01*
X1510004Y6199987D03*
G01*
X-1780006Y1689988D03*
G01*
X-1333500Y2634208D03*
G01*
X-1710004Y1610004D03*
G01*
X180009Y5129987D03*
G01*
X280009Y5139994D03*
G01*
X2375027Y6571742D03*
G01*
X-2449982Y6649973D03*
G01*
X399999Y4249978D03*
G01*
X229996Y4980000D03*
G01*
X540004Y4919979D03*
G01*
X1659991Y5219979D03*
G01*
X1810004Y6089980D03*
G01*
X2289987Y6199987D03*
G01*
X-519937Y5210047D03*
G01*
X-1010005Y6109995D03*
G01*
X-1510004Y6079997D03*
G01*
X970000Y6999986D03*
G01*
X-180009Y5319979D03*
G01*
X150012Y5649976D03*
G01*
X1080007Y5349976D03*
G01*
X1340002Y5529986D03*
G01*
X1399997Y5459984D03*
G01*
X1419987Y5529986D03*
G01*
X999997Y5309996D03*
G01*
X1019987Y5399989D03*
G01*
X470001Y3899992D03*
G01*
X470001Y3829989D03*
G01*
X340004Y3719982D03*
G01*
X310006Y3799992D03*
G01*
X1559991Y2569997D03*
G01*
X1559991Y2480005D03*
G01*
X1480007Y2419985D03*
G01*
X1389989Y2419985D03*
G01*
X1389989Y2340000D03*
G01*
X489991Y2429992D03*
G01*
X489991Y2349982D03*
G01*
X-649986Y2519984D03*
G01*
X-559993Y2519984D03*
G01*
X-1359992Y2519984D03*
G01*
X-1299997Y2459989D03*
G01*
X-2059990Y540004D03*
G01*
X1719986Y5149977D03*
G01*
X2119985Y5339994D03*
G01*
X2199995Y5379999D03*
G01*
X1229995Y7479995D03*
G01*
X1369999Y7409992D03*
G01*
X1599996Y7239990D03*
G01*
X1640001Y6729984D03*
G01*
X1759991Y6729984D03*
G01*
X2169998Y6649973D03*
G01*
X-910005Y5499988D03*
G01*
X1040003Y4199991D03*
G01*
X1669999Y5599988D03*
G01*
X1669999Y5499988D03*
G01*
X1089990Y6329984D03*
G01*
X-910005Y6419977D03*
G01*
X-910005Y6339992D03*
G01*
X-799998Y7799984D03*
G01*
X-2589987Y5749975D03*
G01*
X170002Y7299985D03*
G01*
X529996Y7659979D03*
G01*
X840003Y7299985D03*
G01*
X1769998Y5219979D03*
G01*
X729995Y6919976D03*
G01*
X310006Y3889984D03*
G01*
X310006Y3969994D03*
G01*
X310006Y4059986D03*
G01*
X-1810004Y3810000D03*
G01*
X-1759991Y3909999D03*
G01*
X1669999Y5499988D03*
G01*
X719988Y3719982D03*
G01*
X910005Y4089984D03*
G01*
X1880006Y4480001D03*
G01*
X1969998Y4480001D03*
G01*
X1919986Y4399991D03*
G01*
X1669999Y5080000D03*
G01*
X1750009Y5080000D03*
G01*
X2010003Y5119979D03*
G01*
X2089988Y5119979D03*
G01*
X2040000Y5049977D03*
G01*
X2110003Y6439992D03*
G01*
X2199995Y6439992D03*
G01*
X2149983Y6369989D03*
G01*
X289991Y3110001D03*
G01*
X-610006Y2599994D03*
G01*
X459994Y5359984D03*
G01*
X540004Y5359984D03*
G01*
X499998Y5289981D03*
G01*
X610006Y5459984D03*
G01*
X-29997Y5649976D03*
G01*
X-780008Y4389983D03*
G01*
X-670001Y4389983D03*
G01*
X-729995Y4299991D03*
G01*
X-1599996Y5519978D03*
G01*
X-1529994Y5569991D03*
G01*
X-1489989Y7319975D03*
G01*
X1650009Y6449974D03*
M02*
