G04 Layer: TopSolderMaskLayer*
G04 EasyEDA v6.5.46, 2025-06-12 16:27:01*
G04 6984151e568f4603bee7606f082ae18e,f8d66010605f41bc84f108214e51d488,10*
G04 Gerber Generator version 0.2*
G04 Scale: 100 percent, Rotated: No, Reflected: No *
G04 Dimensions in millimeters *
G04 leading zeros omitted , absolute positions ,4 integer and 5 decimal *
%FSLAX45Y45*%
%MOMM*%

%AMMACRO1*4,1,8,-0.3961,-0.5508,-0.4258,-0.521,-0.4258,0.5211,-0.3961,0.5508,0.396,0.5508,0.4258,0.5211,0.4258,-0.521,0.396,-0.5508,-0.3961,-0.5508,0*%
%AMMACRO2*4,1,8,-0.9211,-0.9508,-0.9508,-0.921,-0.9508,0.9211,-0.9211,0.9508,0.921,0.9508,0.9508,0.9211,0.9508,-0.921,0.921,-0.9508,-0.9211,-0.9508,0*%
%AMMACRO3*4,1,8,-0.6713,-0.7506,-0.701,-0.7208,-0.701,0.7208,-0.6713,0.7506,0.6713,0.7506,0.701,0.7208,0.701,-0.7208,0.6713,-0.7506,-0.6713,-0.7506,0*%
%AMMACRO4*4,1,8,-0.7208,-0.701,-0.7506,-0.6713,-0.7506,0.6713,-0.7208,0.701,0.7208,0.701,0.7506,0.6713,0.7506,-0.6713,0.7208,-0.701,-0.7208,-0.701,0*%
%AMMACRO5*4,1,8,-0.5211,-0.4258,-0.5508,-0.396,-0.5508,0.3961,-0.5211,0.4258,0.521,0.4258,0.5508,0.3961,0.5508,-0.396,0.521,-0.4258,-0.5211,-0.4258,0*%
%AMMACRO6*4,1,8,-0.4531,-0.454,-0.4828,-0.4243,-0.4828,0.4243,-0.4531,0.454,0.453,0.454,0.4828,0.4243,0.4828,-0.4243,0.453,-0.454,-0.4531,-0.454,0*%
%AMMACRO7*4,1,8,-0.4243,-0.4828,-0.454,-0.453,-0.454,0.4531,-0.4243,0.4828,0.4243,0.4828,0.454,0.4531,0.454,-0.453,0.4243,-0.4828,-0.4243,-0.4828,0*%
%AMMACRO8*4,1,8,-0.8711,-0.9008,-0.9008,-0.871,-0.9008,0.8711,-0.8711,0.9008,0.871,0.9008,0.9008,0.8711,0.9008,-0.871,0.871,-0.9008,-0.8711,-0.9008,0*%
%AMMACRO9*4,1,8,-1.0211,-1.0508,-1.0508,-1.021,-1.0508,1.0211,-1.0211,1.0508,1.021,1.0508,1.0508,1.0211,1.0508,-1.021,1.021,-1.0508,-1.0211,-1.0508,0*%
%AMMACRO10*4,1,8,-0.0918,-0.97,-0.97,-0.0917,-0.97,-0.0497,0.0497,0.97,0.0917,0.97,0.97,0.0917,0.97,0.0497,-0.0497,-0.97,-0.0918,-0.97,0*%
%AMMACRO11*4,1,8,-0.0917,-0.97,-0.97,-0.0917,-0.97,-0.0497,0.0497,0.97,0.0917,0.97,0.97,0.0918,0.97,0.0497,-0.0497,-0.97,-0.0917,-0.97,0*%
%AMMACRO12*4,1,8,-0.0917,-0.97,-0.97,-0.0917,-0.97,-0.0497,0.0497,0.97,0.0918,0.97,0.97,0.0917,0.97,0.0497,-0.0497,-0.97,-0.0917,-0.97,0*%
%AMMACRO13*4,1,8,-0.0917,-0.97,-0.97,-0.0918,-0.97,-0.0497,0.0497,0.97,0.0917,0.97,0.97,0.0917,0.97,0.0497,-0.0497,-0.97,-0.0917,-0.97,0*%
%AMMACRO14*4,1,8,-0.4211,-0.5008,-0.4508,-0.471,-0.4508,0.4711,-0.4211,0.5008,0.421,0.5008,0.4508,0.4711,0.4508,-0.471,0.421,-0.5008,-0.4211,-0.5008,0*%
%AMMACRO15*4,1,8,0.0143,-0.6518,-0.6518,0.0143,-0.6518,0.0564,-0.0564,0.6518,-0.0143,0.6518,0.6518,-0.0143,0.6518,-0.0564,0.0564,-0.6518,0.0143,-0.6518,0*%
%AMMACRO16*4,1,8,-0.0564,-0.6518,-0.6518,-0.0564,-0.6518,-0.0143,0.0143,0.6518,0.0564,0.6518,0.6518,0.0564,0.6518,0.0143,-0.0143,-0.6518,-0.0564,-0.6518,0*%
%AMMACRO17*4,1,8,-0.4711,-0.4508,-0.5008,-0.421,-0.5008,0.4211,-0.4711,0.4508,0.471,0.4508,0.5008,0.4211,0.5008,-0.421,0.471,-0.4508,-0.4711,-0.4508,0*%
%AMMACRO18*4,1,8,-1.4207,-0.55,-1.45,-0.5207,-1.45,0.5207,-1.4207,0.55,1.4207,0.55,1.45,0.5207,1.45,-0.5207,1.4207,-0.55,-1.4207,-0.55,0*%
%AMMACRO19*4,1,8,-0.8707,-0.35,-0.9,-0.3207,-0.9,0.3207,-0.8707,0.35,0.8707,0.35,0.9,0.3207,0.9,-0.3207,0.8707,-0.35,-0.8707,-0.35,0*%
%AMMACRO20*1,1,$1,$2,$3*1,1,$1,$4,$5*20,1,$1,$2,$3,$4,$5,0*%
%AMMACRO21*4,1,8,-1.5211,-2.1508,-1.5508,-2.121,-1.5508,2.1211,-1.5211,2.1508,1.521,2.1508,1.5508,2.1211,1.5508,-2.121,1.521,-2.1508,-1.5211,-2.1508,0*%
%AMMACRO22*4,1,8,-0.5711,-0.3508,-0.6008,-0.321,-0.6008,0.3211,-0.5711,0.3508,0.571,0.3508,0.6008,0.3211,0.6008,-0.321,0.571,-0.3508,-0.5711,-0.3508,0*%
%AMMACRO23*4,1,8,-0.3585,-0.1908,-0.3883,-0.161,-0.3883,0.1611,-0.3585,0.1908,0.3585,0.1908,0.3883,0.1611,0.3883,-0.161,0.3585,-0.1908,-0.3585,-0.1908,0*%
%AMMACRO24*4,1,8,0.161,-0.3883,-0.1611,-0.3882,-0.1908,-0.3585,-0.1908,0.3585,-0.1611,0.3883,0.161,0.3883,0.1908,0.3585,0.1908,-0.3585,0.161,-0.3883,0*%
%AMMACRO25*4,1,8,-0.1611,-0.3883,-0.1908,-0.3585,-0.1908,0.3585,-0.161,0.3883,0.1611,0.3883,0.1908,0.3585,0.1908,-0.3585,0.1611,-0.3882,-0.1611,-0.3883,0*%
%AMMACRO26*4,1,8,-0.1611,-0.3883,-0.1908,-0.3585,-0.1908,0.3585,-0.1611,0.3883,0.161,0.3883,0.1908,0.3585,0.1908,-0.3585,0.161,-0.3882,-0.1611,-0.3883,0*%
%AMMACRO27*4,1,8,-0.1611,-0.3883,-0.1908,-0.3585,-0.1908,0.3585,-0.1611,0.3883,0.161,0.3883,0.1908,0.3585,0.1908,-0.3585,0.161,-0.3883,-0.1611,-0.3883,0*%
%AMMACRO28*4,1,8,-0.161,-0.3883,-0.1908,-0.3585,-0.1908,0.3585,-0.1611,0.3883,0.1611,0.3883,0.1908,0.3585,0.1908,-0.3585,0.1611,-0.3883,-0.161,-0.3883,0*%
%AMMACRO29*4,1,8,-0.6961,-0.7558,-0.7258,-0.726,-0.7258,0.7261,-0.6961,0.7558,0.696,0.7558,0.7258,0.7261,0.7258,-0.726,0.696,-0.7558,-0.6961,-0.7558,0*%
%AMMACRO30*4,1,8,-0.7711,-0.7303,-0.8008,-0.7005,-0.8008,0.7005,-0.7711,0.7303,0.771,0.7303,0.8008,0.7005,0.8008,-0.7005,0.771,-0.7303,-0.7711,-0.7303,0*%
%AMMACRO31*4,1,8,-0.5873,-0.7393,-0.6171,-0.7095,-0.6171,0.7095,-0.5873,0.7393,0.5873,0.7393,0.6171,0.7095,0.6171,-0.7095,0.5873,-0.7393,-0.5873,-0.7393,0*%
%AMMACRO32*4,1,8,-0.7095,-0.6171,-0.7393,-0.5873,-0.7393,0.5873,-0.7095,0.6171,0.7095,0.6171,0.7393,0.5873,0.7393,-0.5873,0.7095,-0.6171,-0.7095,-0.6171,0*%
%AMMACRO33*4,1,8,-0.646,-0.4008,-0.6758,-0.371,-0.6758,0.3711,-0.646,0.4008,0.646,0.4008,0.6758,0.3711,0.6758,-0.371,0.646,-0.4008,-0.646,-0.4008,0*%
%AMMACRO34*4,1,8,-0.3711,-0.6758,-0.4008,-0.646,-0.4008,0.646,-0.3711,0.6758,0.371,0.6758,0.4008,0.646,0.4008,-0.646,0.371,-0.6758,-0.3711,-0.6758,0*%
%AMMACRO35*4,1,8,-1.3911,-1.4208,-1.4208,-1.391,-1.4208,1.3911,-1.3911,1.4208,1.391,1.4208,1.4208,1.3911,1.4208,-1.391,1.391,-1.4208,-1.3911,-1.4208,0*%
%ADD10MACRO1*%
%ADD11MACRO2*%
%ADD12C,1.7016*%
%ADD13MACRO3*%
%ADD14MACRO4*%
%ADD15MACRO5*%
%ADD16MACRO6*%
%ADD17MACRO7*%
%ADD18MACRO8*%
%ADD19C,1.8016*%
%ADD20MACRO9*%
%ADD21C,2.1016*%
%ADD22MACRO10*%
%ADD23MACRO11*%
%ADD24MACRO12*%
%ADD25MACRO13*%
%ADD26MACRO14*%
%ADD27MACRO15*%
%ADD28MACRO16*%
%ADD29MACRO17*%
%ADD30MACRO18*%
%ADD31MACRO19*%
%ADD32MACRO20,0.4016X-0.601X0.601X0.601X-0.601*%
%ADD33MACRO20,0.4016X-0.601X-0.601X0.601X0.601*%
%ADD34O,1.848104X0.4446016*%
%ADD35MACRO21*%
%ADD36MACRO22*%
%ADD37MACRO23*%
%ADD38MACRO24*%
%ADD39MACRO25*%
%ADD40MACRO26*%
%ADD41MACRO27*%
%ADD42MACRO28*%
%ADD43C,1.7031*%
%ADD44MACRO29*%
%ADD45MACRO30*%
%ADD46MACRO31*%
%ADD47MACRO32*%
%ADD48MACRO33*%
%ADD49MACRO34*%
%ADD50C,1.6015*%
%ADD51O,0.451612X1.4015974000000002*%
%ADD52MACRO35*%
%ADD53C,1.9812*%
%ADD54C,1.8796*%
%ADD55C,0.0121*%

%LPD*%
D10*
G01*
X417898Y2616197D03*
G01*
X267898Y2616197D03*
D11*
G01*
X-2114199Y266700D03*
G01*
X-2864200Y266700D03*
G01*
X1968500Y5352699D03*
G01*
X1968500Y6102700D03*
D12*
G01*
X1172108Y3952951D03*
G01*
X1172108Y4152950D03*
G01*
X1172108Y4352950D03*
G01*
X1622094Y4352950D03*
G01*
X1622094Y4152950D03*
G01*
X1622094Y3952951D03*
D13*
G01*
X-2180843Y5752972D03*
G01*
X-2390901Y5752972D03*
G01*
X-1019301Y7645272D03*
G01*
X-809243Y7645272D03*
G01*
X885698Y7657972D03*
G01*
X1095756Y7657972D03*
D14*
G01*
X2298827Y5756401D03*
G01*
X2298827Y5546343D03*
D10*
G01*
X-2055045Y649983D03*
G01*
X-2205045Y649983D03*
G01*
X-1979998Y5740402D03*
G01*
X-1829998Y5740402D03*
G01*
X-824298Y7416802D03*
G01*
X-674298Y7416802D03*
D15*
G01*
X647702Y7783898D03*
G01*
X647702Y7633898D03*
G01*
X2298697Y5957501D03*
G01*
X2298697Y6107501D03*
D16*
G01*
X-1180084Y6385192D03*
G01*
X-1180084Y6234543D03*
D17*
G01*
X913524Y3568700D03*
G01*
X762875Y3568700D03*
G01*
X919874Y3737356D03*
G01*
X769225Y3737356D03*
G01*
X596024Y3568700D03*
G01*
X445375Y3568700D03*
G01*
X602374Y3737356D03*
G01*
X451725Y3737356D03*
D18*
G01*
X618997Y5139989D03*
D19*
G01*
X872997Y5139994D03*
G01*
X1126997Y5139994D03*
G01*
X1380997Y5139994D03*
D20*
G01*
X-879995Y5249986D03*
D21*
G01*
X-1134008Y5249976D03*
G01*
X-1388008Y5249976D03*
G01*
X-1642008Y5249976D03*
D22*
G01*
X-1097186Y5640623D03*
D23*
G01*
X-941623Y5796186D03*
D24*
G01*
X-1061834Y5916396D03*
D25*
G01*
X-1217396Y5760834D03*
D26*
G01*
X609998Y7419985D03*
G01*
X749998Y7419985D03*
D27*
G01*
X763301Y5944904D03*
G01*
X862295Y6043898D03*
G01*
X-1344898Y5919504D03*
G01*
X-1245904Y6018498D03*
D28*
G01*
X-1370298Y5612098D03*
G01*
X-1271304Y5513104D03*
D27*
G01*
X430495Y5624798D03*
G01*
X331501Y5525804D03*
D26*
G01*
X949998Y6449987D03*
G01*
X1089997Y6449987D03*
D28*
G01*
X-433104Y5576604D03*
G01*
X-532098Y5675598D03*
D29*
G01*
X1422400Y2571600D03*
G01*
X1422400Y2711599D03*
G01*
X431800Y2940199D03*
G01*
X431800Y2800200D03*
G01*
X1651000Y5746600D03*
G01*
X1651000Y5886599D03*
D26*
G01*
X1073000Y6007100D03*
G01*
X1212999Y6007100D03*
D29*
G01*
X1079500Y5505300D03*
G01*
X1079500Y5645299D03*
G01*
X419100Y7511900D03*
G01*
X419100Y7651899D03*
G01*
X259999Y7509984D03*
G01*
X259999Y7649984D03*
D26*
G01*
X-108099Y7378700D03*
G01*
X31899Y7378700D03*
D11*
G01*
X-2254600Y6273800D03*
G01*
X-1504599Y6273800D03*
D30*
G01*
X-1716896Y353401D03*
D31*
G01*
X-1381892Y1163400D03*
G01*
X-1381892Y1038398D03*
G01*
X-1381892Y913400D03*
G01*
X-1381892Y788399D03*
G01*
X-1381892Y663401D03*
G01*
X-1381892Y538399D03*
D30*
G01*
X-1716896Y1348400D03*
G01*
X-480200Y1335695D03*
D31*
G01*
X-815205Y525697D03*
G01*
X-815205Y650698D03*
G01*
X-815205Y775696D03*
G01*
X-815205Y900697D03*
G01*
X-815205Y1025696D03*
G01*
X-815205Y1150697D03*
D30*
G01*
X-480200Y340696D03*
D32*
G01*
X-671728Y6580301D03*
G01*
X-636371Y6615658D03*
G01*
X-601040Y6651015D03*
G01*
X-565657Y6686372D03*
G01*
X-530326Y6721728D03*
G01*
X-494944Y6757085D03*
G01*
X-459613Y6792442D03*
G01*
X-424256Y6827799D03*
G01*
X-388899Y6863156D03*
G01*
X-353542Y6898513D03*
G01*
X-318185Y6933844D03*
G01*
X-282828Y6969226D03*
G01*
X-247472Y7004558D03*
G01*
X-212115Y7039940D03*
G01*
X-176758Y7075271D03*
G01*
X-141401Y7110628D03*
D33*
G01*
X141401Y7110628D03*
G01*
X176758Y7075271D03*
G01*
X212115Y7039940D03*
G01*
X247472Y7004558D03*
G01*
X282828Y6969226D03*
G01*
X318185Y6933844D03*
G01*
X353542Y6898513D03*
G01*
X388899Y6863156D03*
G01*
X424256Y6827799D03*
G01*
X459613Y6792442D03*
G01*
X494944Y6757085D03*
G01*
X530326Y6721728D03*
G01*
X565657Y6686372D03*
G01*
X601040Y6651015D03*
G01*
X636371Y6615658D03*
G01*
X671753Y6580301D03*
D32*
G01*
X671753Y6297498D03*
G01*
X636371Y6262141D03*
G01*
X601040Y6226784D03*
G01*
X565657Y6191427D03*
G01*
X530326Y6156071D03*
G01*
X494944Y6120714D03*
G01*
X459613Y6085357D03*
G01*
X424256Y6050000D03*
G01*
X388899Y6014643D03*
G01*
X353542Y5979287D03*
G01*
X318185Y5943955D03*
G01*
X282828Y5908573D03*
G01*
X247472Y5873242D03*
G01*
X212115Y5837859D03*
G01*
X176758Y5802528D03*
G01*
X141401Y5767146D03*
D33*
G01*
X-141401Y5767146D03*
G01*
X-176758Y5802528D03*
G01*
X-212115Y5837859D03*
G01*
X-247472Y5873242D03*
G01*
X-282828Y5908573D03*
G01*
X-318185Y5943955D03*
G01*
X-353542Y5979287D03*
G01*
X-388899Y6014643D03*
G01*
X-424256Y6050000D03*
G01*
X-459613Y6085357D03*
G01*
X-494944Y6120714D03*
G01*
X-530326Y6156071D03*
G01*
X-565657Y6191427D03*
G01*
X-601040Y6226784D03*
G01*
X-636371Y6262141D03*
G01*
X-671728Y6297498D03*
D34*
G01*
X1227124Y2361793D03*
G01*
X1227124Y2426792D03*
G01*
X1227124Y2491790D03*
G01*
X1227124Y2556789D03*
G01*
X1227124Y2621813D03*
G01*
X1227124Y2686812D03*
G01*
X1227124Y2751810D03*
G01*
X1227124Y2816809D03*
G01*
X1227124Y2881807D03*
G01*
X1227124Y2946806D03*
G01*
X652475Y2361793D03*
G01*
X652475Y2426792D03*
G01*
X652475Y2491790D03*
G01*
X652475Y2556789D03*
G01*
X652475Y2621813D03*
G01*
X652475Y2686812D03*
G01*
X652475Y2751810D03*
G01*
X652475Y2816809D03*
G01*
X652475Y2881807D03*
G01*
X652475Y2946806D03*
D35*
G01*
X939800Y2654300D03*
D36*
G01*
X1228888Y5645404D03*
G01*
X1228888Y5835396D03*
G01*
X1488911Y5835396D03*
G01*
X1488911Y5740400D03*
G01*
X1488911Y5645404D03*
D37*
G01*
X-126212Y7682306D03*
G01*
X-126212Y7632293D03*
G01*
X-126212Y7582306D03*
G01*
X-126212Y7532293D03*
D38*
G01*
X-49999Y7506045D03*
D39*
G01*
X-15Y7506045D03*
D40*
G01*
X49999Y7506045D03*
D37*
G01*
X126187Y7532293D03*
G01*
X126187Y7582306D03*
G01*
X126187Y7632293D03*
G01*
X126187Y7682306D03*
D41*
G01*
X49999Y7708555D03*
D42*
G01*
X-15Y7708555D03*
D41*
G01*
X-49999Y7708555D03*
D43*
G01*
X-1002512Y7214641D03*
G01*
X-1129512Y6994677D03*
D44*
G01*
X-673100Y2922597D03*
G01*
X-673100Y3122602D03*
D45*
G01*
X-896000Y2921000D03*
G01*
X-1135998Y2921000D03*
D44*
G01*
X-1384300Y2922597D03*
G01*
X-1384300Y3122602D03*
D46*
G01*
X-2144704Y5194300D03*
G01*
X-1944695Y5194300D03*
D47*
G01*
X-1727200Y6897695D03*
G01*
X-1727200Y7097704D03*
G01*
X1727200Y6897695D03*
G01*
X1727200Y7097704D03*
D46*
G01*
X2240000Y4709990D03*
G01*
X2039990Y4709990D03*
D16*
G01*
X-2235200Y5561724D03*
G01*
X-2235200Y5411075D03*
D17*
G01*
X-2081924Y6731000D03*
G01*
X-1931275Y6731000D03*
G01*
X1905875Y6731000D03*
G01*
X2056524Y6731000D03*
G01*
X1840624Y5016500D03*
G01*
X1689975Y5016500D03*
D16*
G01*
X-2400300Y5309475D03*
G01*
X-2400300Y5460124D03*
D17*
G01*
X-1613775Y6718300D03*
G01*
X-1764424Y6718300D03*
G01*
X1075322Y7489985D03*
G01*
X924673Y7489985D03*
G01*
X2196224Y4914900D03*
G01*
X2045575Y4914900D03*
D47*
G01*
X-1447800Y2185995D03*
G01*
X-1447800Y2386004D03*
G01*
X-596900Y2185995D03*
G01*
X-596900Y2386004D03*
D43*
G01*
X-2557221Y4729606D03*
G01*
X-2810865Y4716322D03*
G01*
X1125601Y6988124D03*
G01*
X998601Y7208088D03*
G01*
X2789910Y4714798D03*
G01*
X2536266Y4728108D03*
D48*
G01*
X-2081199Y5581396D03*
G01*
X-2081199Y5391405D03*
G01*
X-1881200Y5486401D03*
D49*
G01*
X-2094992Y6899986D03*
G01*
X-1905001Y6899986D03*
G01*
X-1999997Y7099985D03*
G01*
X1905000Y6899986D03*
G01*
X2094990Y6899986D03*
G01*
X1999994Y7099985D03*
D50*
G01*
X-2577998Y4969713D03*
G01*
X-2831668Y4956403D03*
G01*
X-1198473Y7327264D03*
G01*
X-1325473Y7107301D03*
G01*
X1325422Y7090613D03*
G01*
X1198422Y7310602D03*
G01*
X2805811Y4943119D03*
G01*
X2552166Y4956429D03*
D51*
G01*
X-1243507Y2039086D03*
G01*
X-1178509Y2039086D03*
G01*
X-1113510Y2039086D03*
G01*
X-1048486Y2039086D03*
G01*
X-983487Y2039086D03*
G01*
X-918489Y2039086D03*
G01*
X-853490Y2039086D03*
G01*
X-788492Y2039086D03*
G01*
X-1243507Y2609087D03*
G01*
X-1178509Y2609087D03*
G01*
X-1113510Y2609087D03*
G01*
X-1048486Y2609087D03*
G01*
X-983487Y2609087D03*
G01*
X-918489Y2609087D03*
G01*
X-853490Y2609087D03*
G01*
X-788492Y2609087D03*
D52*
G01*
X-1016000Y2324100D03*
D10*
G01*
X1967298Y6299197D03*
G01*
X1817298Y6299197D03*
G01*
X-2147501Y5981697D03*
G01*
X-2297501Y5981697D03*
D53*
G01*
X637209Y4352315D03*
D54*
G01*
X637209Y4606315D03*
G01*
X637006Y4101464D03*
D49*
G01*
X1860296Y4862499D03*
G01*
X1670305Y4862499D03*
G01*
X1765301Y4662500D03*
M02*
