G04 Layer: TopSilkscreenLayer*
G04 EasyEDA v6.5.46, 2025-06-12 16:27:01*
G04 6984151e568f4603bee7606f082ae18e,f8d66010605f41bc84f108214e51d488,10*
G04 Gerber Generator version 0.2*
G04 Scale: 100 percent, Rotated: No, Reflected: No *
G04 Dimensions in millimeters *
G04 leading zeros omitted , absolute positions ,4 integer and 5 decimal *
%FSLAX45Y45*%
%MOMM*%

%ADD10C,0.1524*%
%ADD11C,0.1016*%
%ADD12C,0.2540*%
%ADD13C,0.1270*%
%ADD14C,0.2000*%
%ADD15C,0.2032*%
%ADD16C,0.2030*%
%ADD17C,0.1000*%
%ADD18C,0.1001*%
%ADD19C,0.0800*%
%ADD20C,0.1520*%
%ADD21C,0.6000*%
%ADD22C,0.3000*%
%ADD23C,0.1500*%
%ADD24C,0.0156*%

%LPD*%
D10*
X294558Y2229952D02*
G01*
X403778Y2229952D01*
X294558Y2229952D02*
G01*
X294558Y2276688D01*
X299892Y2292436D01*
X304972Y2297516D01*
X315386Y2302850D01*
X325800Y2302850D01*
X336214Y2297516D01*
X341294Y2292436D01*
X346628Y2276688D01*
X346628Y2229952D01*
X346628Y2266274D02*
G01*
X403778Y2302850D01*
X320720Y2342220D02*
G01*
X315386Y2342220D01*
X304972Y2347300D01*
X299892Y2352634D01*
X294558Y2363048D01*
X294558Y2383876D01*
X299892Y2394290D01*
X304972Y2399370D01*
X315386Y2404450D01*
X325800Y2404450D01*
X336214Y2399370D01*
X351708Y2388956D01*
X403778Y2337140D01*
X403778Y2409784D01*
X294558Y2454488D02*
G01*
X294558Y2511638D01*
X336214Y2480396D01*
X336214Y2495890D01*
X341294Y2506304D01*
X346628Y2511638D01*
X362122Y2516718D01*
X372536Y2516718D01*
X388284Y2511638D01*
X398444Y2501224D01*
X403778Y2485730D01*
X403778Y2469982D01*
X398444Y2454488D01*
X393364Y2449154D01*
X382950Y2444074D01*
X-2889994Y5815304D02*
G01*
X-2889994Y5706338D01*
X-2889994Y5706338D02*
G01*
X-2827764Y5706338D01*
X-2793474Y5815304D02*
G01*
X-2793474Y5706338D01*
X-2793474Y5815304D02*
G01*
X-2725910Y5815304D01*
X-2793474Y5763488D02*
G01*
X-2751818Y5763488D01*
X-2793474Y5706338D02*
G01*
X-2725910Y5706338D01*
X-2691620Y5815304D02*
G01*
X-2691620Y5706338D01*
X-2691620Y5815304D02*
G01*
X-2655044Y5815304D01*
X-2639550Y5810224D01*
X-2629136Y5799810D01*
X-2624056Y5789396D01*
X-2618722Y5773648D01*
X-2618722Y5747740D01*
X-2624056Y5732246D01*
X-2629136Y5721832D01*
X-2639550Y5711418D01*
X-2655044Y5706338D01*
X-2691620Y5706338D01*
X-2584432Y5794476D02*
G01*
X-2574018Y5799810D01*
X-2558524Y5815304D01*
X-2558524Y5706338D01*
X-629998Y7695300D02*
G01*
X-629998Y7586334D01*
X-629998Y7586334D02*
G01*
X-567768Y7586334D01*
X-533478Y7695300D02*
G01*
X-533478Y7586334D01*
X-533478Y7695300D02*
G01*
X-465914Y7695300D01*
X-533478Y7643484D02*
G01*
X-491822Y7643484D01*
X-533478Y7586334D02*
G01*
X-465914Y7586334D01*
X-431624Y7695300D02*
G01*
X-431624Y7586334D01*
X-431624Y7695300D02*
G01*
X-395048Y7695300D01*
X-379554Y7690220D01*
X-369140Y7679806D01*
X-364060Y7669392D01*
X-358726Y7653644D01*
X-358726Y7627736D01*
X-364060Y7612242D01*
X-369140Y7601828D01*
X-379554Y7591414D01*
X-395048Y7586334D01*
X-431624Y7586334D01*
X-319356Y7669392D02*
G01*
X-319356Y7674472D01*
X-314022Y7684886D01*
X-308942Y7690220D01*
X-298528Y7695300D01*
X-277700Y7695300D01*
X-267286Y7690220D01*
X-262206Y7684886D01*
X-256872Y7674472D01*
X-256872Y7664058D01*
X-262206Y7653644D01*
X-272620Y7638150D01*
X-324436Y7586334D01*
X-251792Y7586334D01*
X1249997Y7575301D02*
G01*
X1249997Y7466335D01*
X1249997Y7466335D02*
G01*
X1312227Y7466335D01*
X1346517Y7575301D02*
G01*
X1346517Y7466335D01*
X1346517Y7575301D02*
G01*
X1414081Y7575301D01*
X1346517Y7523485D02*
G01*
X1388173Y7523485D01*
X1346517Y7466335D02*
G01*
X1414081Y7466335D01*
X1448371Y7575301D02*
G01*
X1448371Y7466335D01*
X1448371Y7575301D02*
G01*
X1484947Y7575301D01*
X1500441Y7570221D01*
X1510855Y7559807D01*
X1515935Y7549393D01*
X1521269Y7533645D01*
X1521269Y7507737D01*
X1515935Y7492243D01*
X1510855Y7481829D01*
X1500441Y7471415D01*
X1484947Y7466335D01*
X1448371Y7466335D01*
X1565973Y7575301D02*
G01*
X1623123Y7575301D01*
X1591881Y7533645D01*
X1607375Y7533645D01*
X1617789Y7528565D01*
X1623123Y7523485D01*
X1628203Y7507737D01*
X1628203Y7497323D01*
X1623123Y7481829D01*
X1612709Y7471415D01*
X1596961Y7466335D01*
X1581467Y7466335D01*
X1565973Y7471415D01*
X1560639Y7476495D01*
X1555559Y7486909D01*
X2566415Y5829300D02*
G01*
X2457450Y5829300D01*
X2457450Y5829300D02*
G01*
X2457450Y5767070D01*
X2566415Y5732779D02*
G01*
X2457450Y5732779D01*
X2566415Y5732779D02*
G01*
X2566415Y5665215D01*
X2514600Y5732779D02*
G01*
X2514600Y5691123D01*
X2457450Y5732779D02*
G01*
X2457450Y5665215D01*
X2566415Y5630926D02*
G01*
X2457450Y5630926D01*
X2566415Y5630926D02*
G01*
X2566415Y5594350D01*
X2561336Y5578855D01*
X2550922Y5568442D01*
X2540508Y5563362D01*
X2524759Y5558028D01*
X2498852Y5558028D01*
X2483358Y5563362D01*
X2472943Y5568442D01*
X2462529Y5578855D01*
X2457450Y5594350D01*
X2457450Y5630926D01*
X2566415Y5471921D02*
G01*
X2493772Y5523737D01*
X2493772Y5445760D01*
X2566415Y5471921D02*
G01*
X2457450Y5471921D01*
X-2610091Y685271D02*
G01*
X-2610091Y576305D01*
X-2610091Y685271D02*
G01*
X-2563355Y685271D01*
X-2547607Y680191D01*
X-2542527Y674857D01*
X-2537193Y664443D01*
X-2537193Y654283D01*
X-2542527Y643869D01*
X-2547607Y638535D01*
X-2563355Y633455D01*
X-2610091Y633455D01*
X-2573515Y633455D02*
G01*
X-2537193Y576305D01*
X-2502903Y664443D02*
G01*
X-2492489Y669777D01*
X-2476995Y685271D01*
X-2476995Y576305D01*
X-2370061Y685271D02*
G01*
X-2421877Y576305D01*
X-2442705Y685271D02*
G01*
X-2370061Y685271D01*
X-1969996Y5955304D02*
G01*
X-1969996Y5846338D01*
X-1969996Y5955304D02*
G01*
X-1923260Y5955304D01*
X-1907766Y5950224D01*
X-1902432Y5944890D01*
X-1897352Y5934476D01*
X-1897352Y5924062D01*
X-1902432Y5913648D01*
X-1907766Y5908568D01*
X-1923260Y5903488D01*
X-1969996Y5903488D01*
X-1933674Y5903488D02*
G01*
X-1897352Y5846338D01*
X-1863062Y5934476D02*
G01*
X-1852648Y5939810D01*
X-1836900Y5955304D01*
X-1836900Y5846338D01*
X-1776702Y5955304D02*
G01*
X-1792196Y5950224D01*
X-1797530Y5939810D01*
X-1797530Y5929396D01*
X-1792196Y5918982D01*
X-1782036Y5913648D01*
X-1761208Y5908568D01*
X-1745460Y5903488D01*
X-1735046Y5893074D01*
X-1729966Y5882660D01*
X-1729966Y5866912D01*
X-1735046Y5856498D01*
X-1740380Y5851418D01*
X-1755874Y5846338D01*
X-1776702Y5846338D01*
X-1792196Y5851418D01*
X-1797530Y5856498D01*
X-1802610Y5866912D01*
X-1802610Y5882660D01*
X-1797530Y5893074D01*
X-1787116Y5903488D01*
X-1771622Y5908568D01*
X-1750794Y5913648D01*
X-1740380Y5918982D01*
X-1735046Y5929396D01*
X-1735046Y5939810D01*
X-1740380Y5950224D01*
X-1755874Y5955304D01*
X-1776702Y5955304D01*
X-559998Y7475301D02*
G01*
X-559998Y7366335D01*
X-559998Y7475301D02*
G01*
X-513262Y7475301D01*
X-497768Y7470221D01*
X-492434Y7464887D01*
X-487354Y7454473D01*
X-487354Y7444059D01*
X-492434Y7433645D01*
X-497768Y7428565D01*
X-513262Y7423485D01*
X-559998Y7423485D01*
X-523676Y7423485D02*
G01*
X-487354Y7366335D01*
X-453064Y7454473D02*
G01*
X-442650Y7459807D01*
X-426902Y7475301D01*
X-426902Y7366335D01*
X-325048Y7438979D02*
G01*
X-330382Y7423485D01*
X-340796Y7413071D01*
X-356290Y7407737D01*
X-361624Y7407737D01*
X-377118Y7413071D01*
X-387532Y7423485D01*
X-392612Y7438979D01*
X-392612Y7444059D01*
X-387532Y7459807D01*
X-377118Y7470221D01*
X-361624Y7475301D01*
X-356290Y7475301D01*
X-340796Y7470221D01*
X-330382Y7459807D01*
X-325048Y7438979D01*
X-325048Y7413071D01*
X-330382Y7386909D01*
X-340796Y7371415D01*
X-356290Y7366335D01*
X-366704Y7366335D01*
X-382198Y7371415D01*
X-387532Y7381829D01*
X533400Y7582915D02*
G01*
X533400Y7473950D01*
X533400Y7582915D02*
G01*
X580136Y7582915D01*
X595629Y7577836D01*
X600963Y7572502D01*
X606044Y7562087D01*
X606044Y7551673D01*
X600963Y7541260D01*
X595629Y7536179D01*
X580136Y7531100D01*
X533400Y7531100D01*
X569721Y7531100D02*
G01*
X606044Y7473950D01*
X645668Y7557008D02*
G01*
X645668Y7562087D01*
X650747Y7572502D01*
X656081Y7577836D01*
X666495Y7582915D01*
X687070Y7582915D01*
X697484Y7577836D01*
X702818Y7572502D01*
X707897Y7562087D01*
X707897Y7551673D01*
X702818Y7541260D01*
X692404Y7525765D01*
X640334Y7473950D01*
X713231Y7473950D01*
X778510Y7582915D02*
G01*
X763015Y7577836D01*
X752602Y7562087D01*
X747521Y7536179D01*
X747521Y7520686D01*
X752602Y7494523D01*
X763015Y7479029D01*
X778510Y7473950D01*
X788923Y7473950D01*
X804671Y7479029D01*
X815086Y7494523D01*
X820165Y7520686D01*
X820165Y7536179D01*
X815086Y7562087D01*
X804671Y7577836D01*
X788923Y7582915D01*
X778510Y7582915D01*
X2411984Y5905500D02*
G01*
X2520950Y5905500D01*
X2411984Y5905500D02*
G01*
X2411984Y5952236D01*
X2417063Y5967729D01*
X2422397Y5973063D01*
X2432811Y5978144D01*
X2443225Y5978144D01*
X2453640Y5973063D01*
X2458720Y5967729D01*
X2463800Y5952236D01*
X2463800Y5905500D01*
X2463800Y5941821D02*
G01*
X2520950Y5978144D01*
X2437891Y6017768D02*
G01*
X2432811Y6017768D01*
X2422397Y6022847D01*
X2417063Y6028181D01*
X2411984Y6038595D01*
X2411984Y6059170D01*
X2417063Y6069584D01*
X2422397Y6074918D01*
X2432811Y6079997D01*
X2443225Y6079997D01*
X2453640Y6074918D01*
X2469134Y6064504D01*
X2520950Y6012434D01*
X2520950Y6085331D01*
X2432811Y6119621D02*
G01*
X2427477Y6130036D01*
X2411984Y6145529D01*
X2520950Y6145529D01*
X-1085212Y6189911D02*
G01*
X-976246Y6189911D01*
X-1085212Y6189911D02*
G01*
X-1085212Y6236647D01*
X-1080132Y6252395D01*
X-1075052Y6257475D01*
X-1064638Y6262809D01*
X-1054224Y6262809D01*
X-1043810Y6257475D01*
X-1038476Y6252395D01*
X-1033396Y6236647D01*
X-1033396Y6189911D01*
X-1033396Y6226233D02*
G01*
X-976246Y6262809D01*
X-1059304Y6302179D02*
G01*
X-1064638Y6302179D01*
X-1075052Y6307513D01*
X-1080132Y6312593D01*
X-1085212Y6323007D01*
X-1085212Y6343835D01*
X-1080132Y6354249D01*
X-1075052Y6359329D01*
X-1064638Y6364663D01*
X-1054224Y6364663D01*
X-1043810Y6359329D01*
X-1028062Y6348915D01*
X-976246Y6297099D01*
X-976246Y6369743D01*
X-1059304Y6409113D02*
G01*
X-1064638Y6409113D01*
X-1075052Y6414447D01*
X-1080132Y6419527D01*
X-1085212Y6429941D01*
X-1085212Y6450769D01*
X-1080132Y6461183D01*
X-1075052Y6466263D01*
X-1064638Y6471597D01*
X-1054224Y6471597D01*
X-1043810Y6466263D01*
X-1028062Y6456103D01*
X-976246Y6404033D01*
X-976246Y6476677D01*
X1054100Y3633215D02*
G01*
X1054100Y3524250D01*
X1054100Y3633215D02*
G01*
X1100836Y3633215D01*
X1116329Y3628136D01*
X1121663Y3622802D01*
X1126744Y3612387D01*
X1126744Y3601973D01*
X1121663Y3591560D01*
X1116329Y3586479D01*
X1100836Y3581400D01*
X1054100Y3581400D01*
X1090421Y3581400D02*
G01*
X1126744Y3524250D01*
X1166368Y3607307D02*
G01*
X1166368Y3612387D01*
X1171447Y3622802D01*
X1176781Y3628136D01*
X1187195Y3633215D01*
X1207770Y3633215D01*
X1218184Y3628136D01*
X1223518Y3622802D01*
X1228597Y3612387D01*
X1228597Y3601973D01*
X1223518Y3591560D01*
X1213104Y3576065D01*
X1161034Y3524250D01*
X1233931Y3524250D01*
X1320037Y3633215D02*
G01*
X1268221Y3560571D01*
X1346200Y3560571D01*
X1320037Y3633215D02*
G01*
X1320037Y3524250D01*
X1054100Y3785615D02*
G01*
X1054100Y3676650D01*
X1054100Y3785615D02*
G01*
X1100836Y3785615D01*
X1116329Y3780536D01*
X1121663Y3775202D01*
X1126744Y3764787D01*
X1126744Y3754373D01*
X1121663Y3743960D01*
X1116329Y3738879D01*
X1100836Y3733800D01*
X1054100Y3733800D01*
X1090421Y3733800D02*
G01*
X1126744Y3676650D01*
X1166368Y3759707D02*
G01*
X1166368Y3764787D01*
X1171447Y3775202D01*
X1176781Y3780536D01*
X1187195Y3785615D01*
X1207770Y3785615D01*
X1218184Y3780536D01*
X1223518Y3775202D01*
X1228597Y3764787D01*
X1228597Y3754373D01*
X1223518Y3743960D01*
X1213104Y3728465D01*
X1161034Y3676650D01*
X1233931Y3676650D01*
X1330452Y3785615D02*
G01*
X1278636Y3785615D01*
X1273302Y3738879D01*
X1278636Y3743960D01*
X1294129Y3749294D01*
X1309623Y3749294D01*
X1325371Y3743960D01*
X1335786Y3733800D01*
X1340865Y3718052D01*
X1340865Y3707637D01*
X1335786Y3692144D01*
X1325371Y3681729D01*
X1309623Y3676650D01*
X1294129Y3676650D01*
X1278636Y3681729D01*
X1273302Y3686810D01*
X1268221Y3697223D01*
X38100Y3620515D02*
G01*
X38100Y3511550D01*
X38100Y3620515D02*
G01*
X84836Y3620515D01*
X100329Y3615436D01*
X105663Y3610102D01*
X110744Y3599687D01*
X110744Y3589273D01*
X105663Y3578860D01*
X100329Y3573779D01*
X84836Y3568700D01*
X38100Y3568700D01*
X74421Y3568700D02*
G01*
X110744Y3511550D01*
X150368Y3594607D02*
G01*
X150368Y3599687D01*
X155447Y3610102D01*
X160781Y3615436D01*
X171195Y3620515D01*
X191770Y3620515D01*
X202184Y3615436D01*
X207518Y3610102D01*
X212597Y3599687D01*
X212597Y3589273D01*
X207518Y3578860D01*
X197104Y3563365D01*
X145034Y3511550D01*
X217931Y3511550D01*
X314452Y3605021D02*
G01*
X309371Y3615436D01*
X293623Y3620515D01*
X283210Y3620515D01*
X267715Y3615436D01*
X257302Y3599687D01*
X252221Y3573779D01*
X252221Y3547871D01*
X257302Y3527044D01*
X267715Y3516629D01*
X283210Y3511550D01*
X288544Y3511550D01*
X304037Y3516629D01*
X314452Y3527044D01*
X319786Y3542537D01*
X319786Y3547871D01*
X314452Y3563365D01*
X304037Y3573779D01*
X288544Y3578860D01*
X283210Y3578860D01*
X267715Y3573779D01*
X257302Y3563365D01*
X252221Y3547871D01*
X63500Y3798315D02*
G01*
X63500Y3689350D01*
X63500Y3798315D02*
G01*
X110236Y3798315D01*
X125729Y3793236D01*
X131063Y3787902D01*
X136144Y3777487D01*
X136144Y3767073D01*
X131063Y3756660D01*
X125729Y3751579D01*
X110236Y3746500D01*
X63500Y3746500D01*
X99821Y3746500D02*
G01*
X136144Y3689350D01*
X175768Y3772407D02*
G01*
X175768Y3777487D01*
X180847Y3787902D01*
X186181Y3793236D01*
X196595Y3798315D01*
X217170Y3798315D01*
X227584Y3793236D01*
X232918Y3787902D01*
X237997Y3777487D01*
X237997Y3767073D01*
X232918Y3756660D01*
X222504Y3741165D01*
X170434Y3689350D01*
X243331Y3689350D01*
X350265Y3798315D02*
G01*
X298450Y3689350D01*
X277621Y3798315D02*
G01*
X350265Y3798315D01*
X-989352Y6111651D02*
G01*
X-916708Y6002685D01*
X-916708Y6111651D02*
G01*
X-989352Y6002685D01*
X-882418Y6090823D02*
G01*
X-872004Y6096157D01*
X-856256Y6111651D01*
X-856256Y6002685D01*
X554875Y7295278D02*
G01*
X549541Y7305692D01*
X539127Y7316106D01*
X528967Y7321186D01*
X508139Y7321186D01*
X497725Y7316106D01*
X487311Y7305692D01*
X481977Y7295278D01*
X476897Y7279530D01*
X476897Y7253622D01*
X481977Y7238128D01*
X487311Y7227714D01*
X497725Y7217300D01*
X508139Y7212220D01*
X528967Y7212220D01*
X539127Y7217300D01*
X549541Y7227714D01*
X554875Y7238128D01*
X640981Y7321186D02*
G01*
X589165Y7248542D01*
X667143Y7248542D01*
X640981Y7321186D02*
G01*
X640981Y7212220D01*
X956571Y6231082D02*
G01*
X960163Y6242217D01*
X960163Y6256944D01*
X956571Y6267721D01*
X941842Y6282448D01*
X930887Y6286220D01*
X916160Y6286220D01*
X905024Y6282629D01*
X890295Y6275085D01*
X871976Y6256764D01*
X864613Y6242217D01*
X861021Y6231082D01*
X861021Y6216352D01*
X864791Y6205397D01*
X879520Y6190670D01*
X890295Y6187076D01*
X905024Y6187076D01*
X916160Y6190670D01*
X1043139Y6181150D02*
G01*
X1006500Y6217790D01*
X969680Y6188514D01*
X977046Y6188334D01*
X991773Y6181150D01*
X1002728Y6170195D01*
X1010091Y6155288D01*
X1010272Y6140739D01*
X1002728Y6126012D01*
X995365Y6118649D01*
X980818Y6111285D01*
X966088Y6111285D01*
X951362Y6118826D01*
X940407Y6129784D01*
X933043Y6144331D01*
X932863Y6151694D01*
X936635Y6162652D01*
X-1398079Y6138346D02*
G01*
X-1409214Y6141940D01*
X-1423941Y6141940D01*
X-1434719Y6138346D01*
X-1449445Y6123619D01*
X-1453217Y6112664D01*
X-1453217Y6097935D01*
X-1449626Y6086800D01*
X-1442082Y6072073D01*
X-1423763Y6053754D01*
X-1409214Y6046388D01*
X-1398079Y6042797D01*
X-1383352Y6042797D01*
X-1372395Y6046569D01*
X-1357668Y6061295D01*
X-1354076Y6072073D01*
X-1354076Y6086800D01*
X-1357668Y6097935D01*
X-1337193Y6213962D02*
G01*
X-1348148Y6217732D01*
X-1362877Y6210190D01*
X-1370060Y6203005D01*
X-1377604Y6188278D01*
X-1373832Y6169779D01*
X-1359105Y6147866D01*
X-1340784Y6129548D01*
X-1322466Y6118410D01*
X-1307739Y6118410D01*
X-1293009Y6125954D01*
X-1289418Y6129548D01*
X-1282054Y6144094D01*
X-1282054Y6158821D01*
X-1289237Y6173551D01*
X-1293009Y6177323D01*
X-1307739Y6184506D01*
X-1322466Y6184506D01*
X-1337012Y6177142D01*
X-1340606Y6173551D01*
X-1348148Y6158821D01*
X-1348148Y6144094D01*
X-1340784Y6129548D01*
X-1532082Y5744458D02*
G01*
X-1543217Y5748050D01*
X-1557944Y5748050D01*
X-1568721Y5744458D01*
X-1583448Y5729731D01*
X-1587220Y5718774D01*
X-1587220Y5704047D01*
X-1583629Y5692912D01*
X-1576085Y5678185D01*
X-1557766Y5659864D01*
X-1543217Y5652500D01*
X-1532082Y5648909D01*
X-1517355Y5648909D01*
X-1506397Y5652681D01*
X-1491670Y5667408D01*
X-1488079Y5678185D01*
X-1488079Y5692912D01*
X-1491670Y5704047D01*
X-1474787Y5838393D02*
G01*
X-1434376Y5724702D01*
X-1526156Y5787024D02*
G01*
X-1474787Y5838393D01*
X449127Y5452369D02*
G01*
X437992Y5455960D01*
X423263Y5455960D01*
X412488Y5452369D01*
X397758Y5437639D01*
X393987Y5426684D01*
X393987Y5411957D01*
X397581Y5400822D01*
X405122Y5386092D01*
X423443Y5367774D01*
X437992Y5360410D01*
X449127Y5356816D01*
X463854Y5356816D01*
X474809Y5360588D01*
X489539Y5375318D01*
X493130Y5386092D01*
X493130Y5400822D01*
X489539Y5411957D01*
X473374Y5513252D02*
G01*
X466008Y5498706D01*
X469602Y5487570D01*
X476966Y5480207D01*
X488101Y5476613D01*
X499237Y5480207D01*
X517377Y5491162D01*
X532104Y5498706D01*
X546831Y5498706D01*
X557789Y5494934D01*
X568924Y5483799D01*
X572696Y5472844D01*
X572515Y5465478D01*
X565152Y5450931D01*
X550423Y5436204D01*
X535876Y5428838D01*
X528513Y5428660D01*
X517555Y5432432D01*
X506420Y5443567D01*
X502648Y5454522D01*
X502648Y5469249D01*
X510192Y5483979D01*
X521149Y5502117D01*
X524741Y5513252D01*
X521149Y5524390D01*
X513783Y5531754D01*
X502648Y5535345D01*
X488101Y5527982D01*
X473374Y5513252D01*
X996375Y6640995D02*
G01*
X991041Y6651409D01*
X980627Y6661823D01*
X970467Y6666903D01*
X949639Y6666903D01*
X939225Y6661823D01*
X928811Y6651409D01*
X923477Y6640995D01*
X918397Y6625247D01*
X918397Y6599339D01*
X923477Y6583845D01*
X928811Y6573431D01*
X939225Y6563017D01*
X949639Y6557937D01*
X970467Y6557937D01*
X980627Y6563017D01*
X991041Y6573431D01*
X996375Y6583845D01*
X1098229Y6630581D02*
G01*
X1092895Y6615087D01*
X1082481Y6604673D01*
X1066987Y6599339D01*
X1061907Y6599339D01*
X1046159Y6604673D01*
X1035745Y6615087D01*
X1030665Y6630581D01*
X1030665Y6635661D01*
X1035745Y6651409D01*
X1046159Y6661823D01*
X1061907Y6666903D01*
X1066987Y6666903D01*
X1082481Y6661823D01*
X1092895Y6651409D01*
X1098229Y6630581D01*
X1098229Y6604673D01*
X1092895Y6578511D01*
X1082481Y6563017D01*
X1066987Y6557937D01*
X1056573Y6557937D01*
X1041079Y6563017D01*
X1035745Y6573431D01*
X-482010Y5429410D02*
G01*
X-487344Y5439824D01*
X-497758Y5450238D01*
X-507918Y5455318D01*
X-528746Y5455318D01*
X-539160Y5450238D01*
X-549574Y5439824D01*
X-554908Y5429410D01*
X-559988Y5413662D01*
X-559988Y5387754D01*
X-554908Y5372260D01*
X-549574Y5361846D01*
X-539160Y5351432D01*
X-528746Y5346352D01*
X-507918Y5346352D01*
X-497758Y5351432D01*
X-487344Y5361846D01*
X-482010Y5372260D01*
X-447720Y5434490D02*
G01*
X-437306Y5439824D01*
X-421812Y5455318D01*
X-421812Y5346352D01*
X-356280Y5455318D02*
G01*
X-372028Y5450238D01*
X-382188Y5434490D01*
X-387522Y5408582D01*
X-387522Y5393088D01*
X-382188Y5366926D01*
X-372028Y5351432D01*
X-356280Y5346352D01*
X-345866Y5346352D01*
X-330372Y5351432D01*
X-319958Y5366926D01*
X-314878Y5393088D01*
X-314878Y5408582D01*
X-319958Y5434490D01*
X-330372Y5450238D01*
X-345866Y5455318D01*
X-356280Y5455318D01*
X1410588Y2937972D02*
G01*
X1400175Y2932638D01*
X1389761Y2922224D01*
X1384680Y2912064D01*
X1384680Y2891236D01*
X1389761Y2880822D01*
X1400175Y2870408D01*
X1410588Y2865074D01*
X1426337Y2859994D01*
X1452245Y2859994D01*
X1467738Y2865074D01*
X1478153Y2870408D01*
X1488567Y2880822D01*
X1493646Y2891236D01*
X1493646Y2912064D01*
X1488567Y2922224D01*
X1478153Y2932638D01*
X1467738Y2937972D01*
X1405509Y2972262D02*
G01*
X1400175Y2982676D01*
X1384680Y2998170D01*
X1493646Y2998170D01*
X1405509Y3032460D02*
G01*
X1400175Y3042874D01*
X1384680Y3058368D01*
X1493646Y3058368D01*
X405892Y3125851D02*
G01*
X395478Y3120770D01*
X385063Y3110356D01*
X379984Y3099943D01*
X379984Y3079114D01*
X385063Y3068701D01*
X395478Y3058287D01*
X405892Y3053206D01*
X421639Y3048127D01*
X447547Y3048127D01*
X463042Y3053206D01*
X473455Y3058287D01*
X483870Y3068701D01*
X488950Y3079114D01*
X488950Y3099943D01*
X483870Y3110356D01*
X473455Y3120770D01*
X463042Y3125851D01*
X400812Y3160140D02*
G01*
X395478Y3170554D01*
X379984Y3186303D01*
X488950Y3186303D01*
X405892Y3225672D02*
G01*
X400812Y3225672D01*
X390397Y3231006D01*
X385063Y3236087D01*
X379984Y3246501D01*
X379984Y3267329D01*
X385063Y3277743D01*
X390397Y3282822D01*
X400812Y3288156D01*
X411226Y3288156D01*
X421639Y3282822D01*
X437134Y3272409D01*
X488950Y3220593D01*
X488950Y3293237D01*
X1676958Y5548121D02*
G01*
X1687372Y5553455D01*
X1697532Y5563870D01*
X1702866Y5574029D01*
X1702866Y5594857D01*
X1697532Y5605271D01*
X1687372Y5615686D01*
X1676958Y5621020D01*
X1661210Y5626100D01*
X1635302Y5626100D01*
X1619808Y5621020D01*
X1609394Y5615686D01*
X1598980Y5605271D01*
X1593646Y5594857D01*
X1593646Y5574029D01*
X1598980Y5563870D01*
X1609394Y5553455D01*
X1619808Y5548121D01*
X1682038Y5513831D02*
G01*
X1687372Y5503418D01*
X1702866Y5487923D01*
X1593646Y5487923D01*
X1702866Y5443220D02*
G01*
X1702866Y5386070D01*
X1661210Y5417312D01*
X1661210Y5401563D01*
X1656130Y5391150D01*
X1650796Y5386070D01*
X1635302Y5380989D01*
X1624888Y5380989D01*
X1609394Y5386070D01*
X1598980Y5396484D01*
X1593646Y5411978D01*
X1593646Y5427726D01*
X1598980Y5443220D01*
X1604060Y5448300D01*
X1614474Y5453634D01*
X1208278Y6198107D02*
G01*
X1202944Y6208521D01*
X1192529Y6218936D01*
X1182370Y6224015D01*
X1161542Y6224015D01*
X1151128Y6218936D01*
X1140713Y6208521D01*
X1135379Y6198107D01*
X1130300Y6182360D01*
X1130300Y6156452D01*
X1135379Y6140957D01*
X1140713Y6130544D01*
X1151128Y6120129D01*
X1161542Y6115050D01*
X1182370Y6115050D01*
X1192529Y6120129D01*
X1202944Y6130544D01*
X1208278Y6140957D01*
X1242568Y6203187D02*
G01*
X1252981Y6208521D01*
X1268476Y6224015D01*
X1268476Y6115050D01*
X1354836Y6224015D02*
G01*
X1302765Y6151371D01*
X1380744Y6151371D01*
X1354836Y6224015D02*
G01*
X1354836Y6115050D01*
X1259078Y5525007D02*
G01*
X1253744Y5535421D01*
X1243329Y5545836D01*
X1233170Y5550915D01*
X1212342Y5550915D01*
X1201928Y5545836D01*
X1191513Y5535421D01*
X1186179Y5525007D01*
X1181100Y5509260D01*
X1181100Y5483352D01*
X1186179Y5467857D01*
X1191513Y5457444D01*
X1201928Y5447029D01*
X1212342Y5441950D01*
X1233170Y5441950D01*
X1243329Y5447029D01*
X1253744Y5457444D01*
X1259078Y5467857D01*
X1293368Y5530087D02*
G01*
X1303781Y5535421D01*
X1319276Y5550915D01*
X1319276Y5441950D01*
X1416050Y5550915D02*
G01*
X1363979Y5550915D01*
X1358900Y5504179D01*
X1363979Y5509260D01*
X1379473Y5514594D01*
X1395221Y5514594D01*
X1410715Y5509260D01*
X1421129Y5499100D01*
X1426210Y5483352D01*
X1426210Y5472937D01*
X1421129Y5457444D01*
X1410715Y5447029D01*
X1395221Y5441950D01*
X1379473Y5441950D01*
X1363979Y5447029D01*
X1358900Y5452110D01*
X1353565Y5462523D01*
X382765Y7836415D02*
G01*
X377431Y7846829D01*
X367271Y7857243D01*
X356857Y7862323D01*
X336029Y7862323D01*
X325615Y7857243D01*
X315201Y7846829D01*
X310121Y7836415D01*
X304787Y7820667D01*
X304787Y7794759D01*
X310121Y7779265D01*
X315201Y7768851D01*
X325615Y7758437D01*
X336029Y7753357D01*
X356857Y7753357D01*
X367271Y7758437D01*
X377431Y7768851D01*
X382765Y7779265D01*
X417055Y7841495D02*
G01*
X427469Y7846829D01*
X442963Y7862323D01*
X442963Y7753357D01*
X539737Y7846829D02*
G01*
X534403Y7857243D01*
X518909Y7862323D01*
X508495Y7862323D01*
X493001Y7857243D01*
X482587Y7841495D01*
X477253Y7815587D01*
X477253Y7789679D01*
X482587Y7768851D01*
X493001Y7758437D01*
X508495Y7753357D01*
X513575Y7753357D01*
X529323Y7758437D01*
X539737Y7768851D01*
X544817Y7784345D01*
X544817Y7789679D01*
X539737Y7805173D01*
X529323Y7815587D01*
X513575Y7820667D01*
X508495Y7820667D01*
X493001Y7815587D01*
X482587Y7805173D01*
X477253Y7789679D01*
X234083Y7251550D02*
G01*
X223669Y7246216D01*
X213255Y7236056D01*
X208175Y7225642D01*
X208175Y7204814D01*
X213255Y7194400D01*
X223669Y7183986D01*
X234083Y7178906D01*
X249831Y7173572D01*
X275739Y7173572D01*
X291233Y7178906D01*
X301647Y7183986D01*
X312061Y7194400D01*
X317141Y7204814D01*
X317141Y7225642D01*
X312061Y7236056D01*
X301647Y7246216D01*
X291233Y7251550D01*
X229003Y7285840D02*
G01*
X223669Y7296254D01*
X208175Y7311748D01*
X317141Y7311748D01*
X208175Y7418936D02*
G01*
X317141Y7366866D01*
X208175Y7346038D02*
G01*
X208175Y7418936D01*
X-102021Y7239393D02*
G01*
X-107355Y7249807D01*
X-117769Y7260221D01*
X-127929Y7265301D01*
X-148757Y7265301D01*
X-159171Y7260221D01*
X-169585Y7249807D01*
X-174919Y7239393D01*
X-179999Y7223645D01*
X-179999Y7197737D01*
X-174919Y7182243D01*
X-169585Y7171829D01*
X-159171Y7161415D01*
X-148757Y7156335D01*
X-127929Y7156335D01*
X-117769Y7161415D01*
X-107355Y7171829D01*
X-102021Y7182243D01*
X-67731Y7244473D02*
G01*
X-57317Y7249807D01*
X-41823Y7265301D01*
X-41823Y7156335D01*
X18374Y7265301D02*
G01*
X2880Y7260221D01*
X-2199Y7249807D01*
X-2199Y7239393D01*
X2880Y7228979D01*
X13294Y7223645D01*
X34122Y7218565D01*
X49616Y7213485D01*
X60030Y7203071D01*
X65110Y7192657D01*
X65110Y7176909D01*
X60030Y7166495D01*
X54950Y7161415D01*
X39202Y7156335D01*
X18374Y7156335D01*
X2880Y7161415D01*
X-2199Y7166495D01*
X-7533Y7176909D01*
X-7533Y7192657D01*
X-2199Y7203071D01*
X7960Y7213485D01*
X23708Y7218565D01*
X44536Y7223645D01*
X54950Y7228979D01*
X60030Y7239393D01*
X60030Y7249807D01*
X54950Y7260221D01*
X39202Y7265301D01*
X18374Y7265301D01*
X-596976Y7214577D02*
G01*
X-596976Y7136599D01*
X-591642Y7121105D01*
X-581228Y7110691D01*
X-565734Y7105611D01*
X-555320Y7105611D01*
X-539826Y7110691D01*
X-529412Y7121105D01*
X-524078Y7136599D01*
X-524078Y7214577D01*
X-489788Y7193749D02*
G01*
X-479374Y7199083D01*
X-463880Y7214577D01*
X-463880Y7105611D01*
X-367360Y7199083D02*
G01*
X-372440Y7209497D01*
X-387934Y7214577D01*
X-398348Y7214577D01*
X-414096Y7209497D01*
X-424510Y7193749D01*
X-429590Y7167841D01*
X-429590Y7141933D01*
X-424510Y7121105D01*
X-414096Y7110691D01*
X-398348Y7105611D01*
X-393268Y7105611D01*
X-377774Y7110691D01*
X-367360Y7121105D01*
X-362026Y7136599D01*
X-362026Y7141933D01*
X-367360Y7157427D01*
X-377774Y7167841D01*
X-393268Y7173175D01*
X-398348Y7173175D01*
X-414096Y7167841D01*
X-424510Y7157427D01*
X-429590Y7141933D01*
X544682Y2059995D02*
G01*
X622660Y2059995D01*
X638154Y2065075D01*
X648568Y2075489D01*
X653648Y2091237D01*
X653648Y2101651D01*
X648568Y2117145D01*
X638154Y2127559D01*
X622660Y2132639D01*
X544682Y2132639D01*
X565510Y2166929D02*
G01*
X560176Y2177343D01*
X544682Y2193091D01*
X653648Y2193091D01*
X544682Y2300025D02*
G01*
X653648Y2247955D01*
X544682Y2227381D02*
G01*
X544682Y2300025D01*
X1320774Y6058915D02*
G01*
X1320774Y5980937D01*
X1326108Y5965444D01*
X1336268Y5955029D01*
X1352016Y5949950D01*
X1362430Y5949950D01*
X1377924Y5955029D01*
X1388338Y5965444D01*
X1393418Y5980937D01*
X1393418Y6058915D01*
X1427708Y6038087D02*
G01*
X1438122Y6043421D01*
X1453870Y6058915D01*
X1453870Y5949950D01*
X1514068Y6058915D02*
G01*
X1498574Y6053836D01*
X1493240Y6043421D01*
X1493240Y6033007D01*
X1498574Y6022594D01*
X1508988Y6017260D01*
X1529562Y6012179D01*
X1545310Y6007100D01*
X1555724Y5996686D01*
X1560804Y5986271D01*
X1560804Y5970523D01*
X1555724Y5960110D01*
X1550390Y5955029D01*
X1534896Y5949950D01*
X1514068Y5949950D01*
X1498574Y5955029D01*
X1493240Y5960110D01*
X1488160Y5970523D01*
X1488160Y5986271D01*
X1493240Y5996686D01*
X1503654Y6007100D01*
X1519148Y6012179D01*
X1539976Y6017260D01*
X1550390Y6022594D01*
X1555724Y6033007D01*
X1555724Y6043421D01*
X1550390Y6053836D01*
X1534896Y6058915D01*
X1514068Y6058915D01*
X-139725Y7862315D02*
G01*
X-139725Y7784337D01*
X-134391Y7768844D01*
X-124231Y7758429D01*
X-108483Y7753350D01*
X-98069Y7753350D01*
X-82575Y7758429D01*
X-72161Y7768844D01*
X-67078Y7784337D01*
X-67081Y7862318D01*
X-32791Y7841487D02*
G01*
X-22377Y7846821D01*
X-6629Y7862315D01*
X-6629Y7753350D01*
X95224Y7825994D02*
G01*
X89890Y7810500D01*
X79479Y7800086D01*
X63982Y7794752D01*
X58646Y7794752D01*
X43154Y7800086D01*
X32740Y7810500D01*
X27660Y7825994D01*
X27660Y7831073D01*
X32740Y7846821D01*
X43154Y7857236D01*
X58646Y7862315D01*
X63982Y7862315D01*
X79479Y7857236D01*
X89890Y7846821D01*
X95224Y7825994D01*
X95224Y7800086D01*
X89890Y7773923D01*
X79476Y7758429D01*
X63982Y7753350D01*
X53568Y7753350D01*
X38074Y7758429D01*
X32738Y7768844D01*
D11*
X-1248608Y7287882D02*
G01*
X-1196665Y7377849D01*
X-1394653Y7139061D02*
G01*
X-1304686Y7087118D01*
X-1375595Y7067933D02*
G01*
X-1323652Y7157900D01*
D10*
X-539432Y3137971D02*
G01*
X-549846Y3132637D01*
X-560260Y3122223D01*
X-565340Y3112063D01*
X-565340Y3091235D01*
X-560260Y3080821D01*
X-549846Y3070407D01*
X-539432Y3065073D01*
X-523684Y3059993D01*
X-497776Y3059993D01*
X-482282Y3065073D01*
X-471868Y3070407D01*
X-461454Y3080821D01*
X-456120Y3091235D01*
X-456120Y3112063D01*
X-461454Y3122223D01*
X-471868Y3132637D01*
X-482282Y3137971D01*
X-544512Y3172261D02*
G01*
X-549846Y3182675D01*
X-565340Y3198169D01*
X-456120Y3198169D01*
X-1022146Y3149401D02*
G01*
X-1027226Y3159815D01*
X-1037640Y3170229D01*
X-1048054Y3175309D01*
X-1068882Y3175309D01*
X-1079296Y3170229D01*
X-1089710Y3159815D01*
X-1094790Y3149401D01*
X-1099870Y3133653D01*
X-1099870Y3107745D01*
X-1094790Y3092251D01*
X-1089710Y3081837D01*
X-1079296Y3071423D01*
X-1068882Y3066343D01*
X-1048054Y3066343D01*
X-1037640Y3071423D01*
X-1027226Y3081837D01*
X-1022146Y3092251D01*
X-982522Y3149401D02*
G01*
X-982522Y3154481D01*
X-977442Y3164895D01*
X-972108Y3170229D01*
X-961694Y3175309D01*
X-941120Y3175309D01*
X-930706Y3170229D01*
X-925372Y3164895D01*
X-920292Y3154481D01*
X-920292Y3144067D01*
X-925372Y3133653D01*
X-935786Y3118159D01*
X-987856Y3066343D01*
X-914958Y3066343D01*
X-1613433Y2986278D02*
G01*
X-1623847Y2980944D01*
X-1634261Y2970529D01*
X-1639341Y2960370D01*
X-1639341Y2939542D01*
X-1634261Y2929128D01*
X-1623847Y2918713D01*
X-1613433Y2913379D01*
X-1597685Y2908300D01*
X-1571777Y2908300D01*
X-1556283Y2913379D01*
X-1545869Y2918713D01*
X-1535455Y2929128D01*
X-1530121Y2939542D01*
X-1530121Y2960370D01*
X-1535455Y2970529D01*
X-1545869Y2980944D01*
X-1556283Y2986278D01*
X-1639341Y3030981D02*
G01*
X-1639341Y3088131D01*
X-1597685Y3056889D01*
X-1597685Y3072384D01*
X-1592605Y3082797D01*
X-1587271Y3088131D01*
X-1571777Y3093212D01*
X-1561363Y3093212D01*
X-1545869Y3088131D01*
X-1535455Y3077718D01*
X-1530121Y3061970D01*
X-1530121Y3046476D01*
X-1535455Y3030981D01*
X-1540535Y3025647D01*
X-1550949Y3020568D01*
X-2089995Y4955306D02*
G01*
X-2089995Y4846340D01*
X-2089995Y4955306D02*
G01*
X-2043259Y4955306D01*
X-2027765Y4950226D01*
X-2022431Y4944892D01*
X-2017351Y4934478D01*
X-2017351Y4924064D01*
X-2022431Y4913650D01*
X-2027765Y4908570D01*
X-2043259Y4903490D01*
X-2089995Y4903490D01*
X-2053673Y4903490D02*
G01*
X-2017351Y4846340D01*
X-1983061Y4934478D02*
G01*
X-1972647Y4939812D01*
X-1956899Y4955306D01*
X-1956899Y4846340D01*
X-1955800Y7303515D02*
G01*
X-1955800Y7194550D01*
X-1955800Y7303515D02*
G01*
X-1909063Y7303515D01*
X-1893570Y7298436D01*
X-1888236Y7293102D01*
X-1883155Y7282687D01*
X-1883155Y7272273D01*
X-1888236Y7261860D01*
X-1893570Y7256779D01*
X-1909063Y7251700D01*
X-1955800Y7251700D01*
X-1919478Y7251700D02*
G01*
X-1883155Y7194550D01*
X-1843531Y7277608D02*
G01*
X-1843531Y7282687D01*
X-1838452Y7293102D01*
X-1833118Y7298436D01*
X-1822704Y7303515D01*
X-1802129Y7303515D01*
X-1791715Y7298436D01*
X-1786381Y7293102D01*
X-1781302Y7282687D01*
X-1781302Y7272273D01*
X-1786381Y7261860D01*
X-1796795Y7246365D01*
X-1848865Y7194550D01*
X-1775968Y7194550D01*
X1409997Y6925302D02*
G01*
X1409997Y6816336D01*
X1409997Y6925302D02*
G01*
X1456733Y6925302D01*
X1472227Y6920222D01*
X1477561Y6914888D01*
X1482641Y6904474D01*
X1482641Y6894060D01*
X1477561Y6883646D01*
X1472227Y6878566D01*
X1456733Y6873486D01*
X1409997Y6873486D01*
X1446319Y6873486D02*
G01*
X1482641Y6816336D01*
X1527345Y6925302D02*
G01*
X1584495Y6925302D01*
X1553507Y6883646D01*
X1569001Y6883646D01*
X1579415Y6878566D01*
X1584495Y6873486D01*
X1589829Y6857738D01*
X1589829Y6847324D01*
X1584495Y6831830D01*
X1574081Y6821416D01*
X1558587Y6816336D01*
X1543093Y6816336D01*
X1527345Y6821416D01*
X1522265Y6826496D01*
X1516931Y6836910D01*
X2038395Y4596706D02*
G01*
X2038395Y4487740D01*
X2038395Y4596706D02*
G01*
X2085131Y4596706D01*
X2100625Y4591626D01*
X2105959Y4586292D01*
X2111039Y4575878D01*
X2111039Y4565464D01*
X2105959Y4555050D01*
X2100625Y4549970D01*
X2085131Y4544890D01*
X2038395Y4544890D01*
X2074717Y4544890D02*
G01*
X2111039Y4487740D01*
X2197399Y4596706D02*
G01*
X2145329Y4524062D01*
X2223307Y4524062D01*
X2197399Y4596706D02*
G01*
X2197399Y4487740D01*
X-2514600Y5639815D02*
G01*
X-2514600Y5530850D01*
X-2514600Y5639815D02*
G01*
X-2467863Y5639815D01*
X-2452370Y5634736D01*
X-2447036Y5629402D01*
X-2441955Y5618987D01*
X-2441955Y5608573D01*
X-2447036Y5598160D01*
X-2452370Y5593079D01*
X-2467863Y5588000D01*
X-2514600Y5588000D01*
X-2478278Y5588000D02*
G01*
X-2441955Y5530850D01*
X-2345181Y5639815D02*
G01*
X-2397252Y5639815D01*
X-2402331Y5593079D01*
X-2397252Y5598160D01*
X-2381504Y5603494D01*
X-2366010Y5603494D01*
X-2350515Y5598160D01*
X-2340102Y5588000D01*
X-2334768Y5572252D01*
X-2334768Y5561837D01*
X-2340102Y5546344D01*
X-2350515Y5535929D01*
X-2366010Y5530850D01*
X-2381504Y5530850D01*
X-2397252Y5535929D01*
X-2402331Y5541010D01*
X-2407665Y5551423D01*
X-2362200Y6782815D02*
G01*
X-2362200Y6673850D01*
X-2362200Y6782815D02*
G01*
X-2315463Y6782815D01*
X-2299970Y6777736D01*
X-2294636Y6772402D01*
X-2289555Y6761987D01*
X-2289555Y6751573D01*
X-2294636Y6741160D01*
X-2299970Y6736079D01*
X-2315463Y6731000D01*
X-2362200Y6731000D01*
X-2325878Y6731000D02*
G01*
X-2289555Y6673850D01*
X-2192781Y6767321D02*
G01*
X-2198115Y6777736D01*
X-2213610Y6782815D01*
X-2224023Y6782815D01*
X-2239518Y6777736D01*
X-2249931Y6761987D01*
X-2255265Y6736079D01*
X-2255265Y6710171D01*
X-2249931Y6689344D01*
X-2239518Y6678929D01*
X-2224023Y6673850D01*
X-2218689Y6673850D01*
X-2203195Y6678929D01*
X-2192781Y6689344D01*
X-2187702Y6704837D01*
X-2187702Y6710171D01*
X-2192781Y6725665D01*
X-2203195Y6736079D01*
X-2218689Y6741160D01*
X-2224023Y6741160D01*
X-2239518Y6736079D01*
X-2249931Y6725665D01*
X-2255265Y6710171D01*
X2146300Y6782815D02*
G01*
X2146300Y6673850D01*
X2146300Y6782815D02*
G01*
X2193036Y6782815D01*
X2208529Y6777736D01*
X2213863Y6772402D01*
X2218943Y6761987D01*
X2218943Y6751573D01*
X2213863Y6741160D01*
X2208529Y6736079D01*
X2193036Y6731000D01*
X2146300Y6731000D01*
X2182622Y6731000D02*
G01*
X2218943Y6673850D01*
X2326131Y6782815D02*
G01*
X2274061Y6673850D01*
X2253234Y6782815D02*
G01*
X2326131Y6782815D01*
X1676400Y5220715D02*
G01*
X1676400Y5111750D01*
X1676400Y5220715D02*
G01*
X1723136Y5220715D01*
X1738629Y5215636D01*
X1743963Y5210302D01*
X1749044Y5199887D01*
X1749044Y5189473D01*
X1743963Y5179060D01*
X1738629Y5173979D01*
X1723136Y5168900D01*
X1676400Y5168900D01*
X1712721Y5168900D02*
G01*
X1749044Y5111750D01*
X1809495Y5220715D02*
G01*
X1793747Y5215636D01*
X1788668Y5205221D01*
X1788668Y5194807D01*
X1793747Y5184394D01*
X1804162Y5179060D01*
X1824989Y5173979D01*
X1840484Y5168900D01*
X1850897Y5158486D01*
X1856231Y5148071D01*
X1856231Y5132323D01*
X1850897Y5121910D01*
X1845818Y5116829D01*
X1830070Y5111750D01*
X1809495Y5111750D01*
X1793747Y5116829D01*
X1788668Y5121910D01*
X1783334Y5132323D01*
X1783334Y5148071D01*
X1788668Y5158486D01*
X1799081Y5168900D01*
X1814576Y5173979D01*
X1835404Y5179060D01*
X1845818Y5184394D01*
X1850897Y5194807D01*
X1850897Y5205221D01*
X1845818Y5215636D01*
X1830070Y5220715D01*
X1809495Y5220715D01*
X-2439995Y5185305D02*
G01*
X-2439995Y5076339D01*
X-2439995Y5185305D02*
G01*
X-2393259Y5185305D01*
X-2377765Y5180225D01*
X-2372431Y5174891D01*
X-2367351Y5164477D01*
X-2367351Y5154063D01*
X-2372431Y5143649D01*
X-2377765Y5138569D01*
X-2393259Y5133489D01*
X-2439995Y5133489D01*
X-2403673Y5133489D02*
G01*
X-2367351Y5076339D01*
X-2265497Y5148983D02*
G01*
X-2270577Y5133489D01*
X-2280991Y5123075D01*
X-2296485Y5117741D01*
X-2301819Y5117741D01*
X-2317313Y5123075D01*
X-2327727Y5133489D01*
X-2333061Y5148983D01*
X-2333061Y5154063D01*
X-2327727Y5169811D01*
X-2317313Y5180225D01*
X-2301819Y5185305D01*
X-2296485Y5185305D01*
X-2280991Y5180225D01*
X-2270577Y5169811D01*
X-2265497Y5148983D01*
X-2265497Y5123075D01*
X-2270577Y5096913D01*
X-2280991Y5081419D01*
X-2296485Y5076339D01*
X-2306899Y5076339D01*
X-2322647Y5081419D01*
X-2327727Y5091833D01*
X-1379997Y6775302D02*
G01*
X-1379997Y6666336D01*
X-1379997Y6775302D02*
G01*
X-1333261Y6775302D01*
X-1317767Y6770222D01*
X-1312433Y6764888D01*
X-1307353Y6754474D01*
X-1307353Y6744060D01*
X-1312433Y6733646D01*
X-1317767Y6728566D01*
X-1333261Y6723486D01*
X-1379997Y6723486D01*
X-1343675Y6723486D02*
G01*
X-1307353Y6666336D01*
X-1273063Y6754474D02*
G01*
X-1262649Y6759808D01*
X-1246901Y6775302D01*
X-1246901Y6666336D01*
X-1181623Y6775302D02*
G01*
X-1197117Y6770222D01*
X-1207531Y6754474D01*
X-1212611Y6728566D01*
X-1212611Y6713072D01*
X-1207531Y6686910D01*
X-1197117Y6671416D01*
X-1181623Y6666336D01*
X-1171209Y6666336D01*
X-1155461Y6671416D01*
X-1145047Y6686910D01*
X-1139967Y6713072D01*
X-1139967Y6728566D01*
X-1145047Y6754474D01*
X-1155461Y6770222D01*
X-1171209Y6775302D01*
X-1181623Y6775302D01*
X885697Y7706901D02*
G01*
X885697Y7597935D01*
X885697Y7706901D02*
G01*
X932434Y7706901D01*
X947928Y7701821D01*
X953262Y7696487D01*
X958342Y7686073D01*
X958342Y7675659D01*
X953262Y7665245D01*
X947928Y7660165D01*
X932434Y7655085D01*
X885697Y7655085D01*
X922020Y7655085D02*
G01*
X958342Y7597935D01*
X992631Y7686073D02*
G01*
X1003045Y7691407D01*
X1018794Y7706901D01*
X1018794Y7597935D01*
X1053084Y7686073D02*
G01*
X1063497Y7691407D01*
X1078992Y7706901D01*
X1078992Y7597935D01*
X2159000Y5131815D02*
G01*
X2159000Y5022850D01*
X2159000Y5131815D02*
G01*
X2205736Y5131815D01*
X2221229Y5126736D01*
X2226563Y5121402D01*
X2231643Y5110987D01*
X2231643Y5100573D01*
X2226563Y5090160D01*
X2221229Y5085079D01*
X2205736Y5080000D01*
X2159000Y5080000D01*
X2195322Y5080000D02*
G01*
X2231643Y5022850D01*
X2265934Y5110987D02*
G01*
X2276347Y5116321D01*
X2292095Y5131815D01*
X2292095Y5022850D01*
X2331465Y5105907D02*
G01*
X2331465Y5110987D01*
X2336800Y5121402D01*
X2341879Y5126736D01*
X2352293Y5131815D01*
X2373122Y5131815D01*
X2383536Y5126736D01*
X2388615Y5121402D01*
X2393950Y5110987D01*
X2393950Y5100573D01*
X2388615Y5090160D01*
X2378202Y5074665D01*
X2326386Y5022850D01*
X2399029Y5022850D01*
X-1677415Y2184400D02*
G01*
X-1568450Y2184400D01*
X-1677415Y2184400D02*
G01*
X-1677415Y2231136D01*
X-1672336Y2246629D01*
X-1667002Y2251963D01*
X-1656587Y2257044D01*
X-1646173Y2257044D01*
X-1635760Y2251963D01*
X-1630679Y2246629D01*
X-1625600Y2231136D01*
X-1625600Y2184400D01*
X-1625600Y2220721D02*
G01*
X-1568450Y2257044D01*
X-1656587Y2291334D02*
G01*
X-1661921Y2301747D01*
X-1677415Y2317495D01*
X-1568450Y2317495D01*
X-1677415Y2362200D02*
G01*
X-1677415Y2419350D01*
X-1635760Y2388107D01*
X-1635760Y2403602D01*
X-1630679Y2414015D01*
X-1625600Y2419350D01*
X-1609852Y2424429D01*
X-1599437Y2424429D01*
X-1583944Y2419350D01*
X-1573529Y2408936D01*
X-1568450Y2393187D01*
X-1568450Y2377694D01*
X-1573529Y2362200D01*
X-1578610Y2356865D01*
X-1589023Y2351786D01*
X-475315Y2169995D02*
G01*
X-366349Y2169995D01*
X-475315Y2169995D02*
G01*
X-475315Y2216731D01*
X-470235Y2232225D01*
X-464901Y2237559D01*
X-454487Y2242639D01*
X-444073Y2242639D01*
X-433659Y2237559D01*
X-428579Y2232225D01*
X-423499Y2216731D01*
X-423499Y2169995D01*
X-423499Y2206317D02*
G01*
X-366349Y2242639D01*
X-454487Y2276929D02*
G01*
X-459821Y2287343D01*
X-475315Y2303091D01*
X-366349Y2303091D01*
X-475315Y2389197D02*
G01*
X-402671Y2337381D01*
X-402671Y2415105D01*
X-475315Y2389197D02*
G01*
X-366349Y2389197D01*
D11*
X-2629816Y4975880D02*
G01*
X-2526073Y4981320D01*
X-2834170Y5017317D02*
G01*
X-2828734Y4913569D01*
X-2883443Y4962588D02*
G01*
X-2779699Y4968029D01*
X1312057Y7164616D02*
G01*
X1364000Y7074649D01*
X1256197Y7365507D02*
G01*
X1166230Y7313564D01*
X1185070Y7384564D02*
G01*
X1237013Y7294598D01*
X2832044Y4813200D02*
G01*
X2935787Y4807765D01*
X2442293Y4875171D02*
G01*
X2436855Y4771425D01*
X2387569Y4825895D02*
G01*
X2491313Y4820460D01*
D10*
X-1769996Y5525305D02*
G01*
X-1769996Y5447327D01*
X-1764916Y5431833D01*
X-1754502Y5421419D01*
X-1738754Y5416339D01*
X-1728340Y5416339D01*
X-1712846Y5421419D01*
X-1702432Y5431833D01*
X-1697352Y5447327D01*
X-1697352Y5525305D01*
X-1600578Y5525305D02*
G01*
X-1652648Y5525305D01*
X-1657728Y5478569D01*
X-1652648Y5483649D01*
X-1636900Y5488983D01*
X-1621406Y5488983D01*
X-1605912Y5483649D01*
X-1595498Y5473489D01*
X-1590164Y5457741D01*
X-1590164Y5447327D01*
X-1595498Y5431833D01*
X-1605912Y5421419D01*
X-1621406Y5416339D01*
X-1636900Y5416339D01*
X-1652648Y5421419D01*
X-1657728Y5426499D01*
X-1663062Y5436913D01*
X-2374900Y6960615D02*
G01*
X-2374900Y6882637D01*
X-2369820Y6867144D01*
X-2359405Y6856729D01*
X-2343657Y6851650D01*
X-2333244Y6851650D01*
X-2317750Y6856729D01*
X-2307336Y6867144D01*
X-2302255Y6882637D01*
X-2302255Y6960615D01*
X-2205481Y6945121D02*
G01*
X-2210815Y6955536D01*
X-2226310Y6960615D01*
X-2236723Y6960615D01*
X-2252218Y6955536D01*
X-2262631Y6939787D01*
X-2267965Y6913879D01*
X-2267965Y6887971D01*
X-2262631Y6867144D01*
X-2252218Y6856729D01*
X-2236723Y6851650D01*
X-2231389Y6851650D01*
X-2215895Y6856729D01*
X-2205481Y6867144D01*
X-2200402Y6882637D01*
X-2200402Y6887971D01*
X-2205481Y6903465D01*
X-2215895Y6913879D01*
X-2231389Y6918960D01*
X-2236723Y6918960D01*
X-2252218Y6913879D01*
X-2262631Y6903465D01*
X-2267965Y6887971D01*
X1849970Y7295301D02*
G01*
X1849970Y7217323D01*
X1855304Y7201829D01*
X1865464Y7191415D01*
X1881212Y7186335D01*
X1891626Y7186335D01*
X1907120Y7191415D01*
X1917534Y7201829D01*
X1922614Y7217323D01*
X1922614Y7295301D01*
X2029802Y7295301D02*
G01*
X1977732Y7186335D01*
X1956904Y7295301D02*
G01*
X2029802Y7295301D01*
D11*
X-2582176Y5246296D02*
G01*
X-2588353Y5257419D01*
X-2600619Y5268221D01*
X-2612341Y5273456D01*
X-2635422Y5272247D01*
X-2646786Y5265801D01*
X-2657602Y5253789D01*
X-2662836Y5242069D01*
X-2667754Y5224261D01*
X-2666253Y5195597D01*
X-2659514Y5178656D01*
X-2653068Y5167294D01*
X-2641056Y5156476D01*
X-2629082Y5151254D01*
X-2605999Y5152463D01*
X-2594891Y5158897D01*
X-2583822Y5170921D01*
X-2578851Y5182882D01*
X-2847604Y5261127D02*
G01*
X-2841261Y5140134D01*
X-2847604Y5261127D02*
G01*
X-2772775Y5265049D01*
X-2844586Y5203548D02*
G01*
X-2798419Y5205968D01*
X-2841261Y5140134D02*
G01*
X-2766435Y5144056D01*
X-1432709Y7474427D02*
G01*
X-1445402Y7475303D01*
X-1461142Y7470899D01*
X-1471917Y7463922D01*
X-1483474Y7443904D01*
X-1484256Y7430863D01*
X-1480073Y7415250D01*
X-1473095Y7404475D01*
X-1460837Y7390655D01*
X-1435981Y7376304D01*
X-1418102Y7372725D01*
X-1405064Y7371943D01*
X-1389448Y7376126D01*
X-1378549Y7383325D01*
X-1366992Y7403343D01*
X-1366334Y7416162D01*
X-1370393Y7431996D01*
X-1377716Y7442677D01*
X-1589709Y7259899D02*
G01*
X-1484784Y7199320D01*
X-1589709Y7259899D02*
G01*
X-1552244Y7324791D01*
X-1539775Y7231070D02*
G01*
X-1516661Y7271105D01*
X-1484784Y7199320D02*
G01*
X-1447319Y7264212D01*
X1569976Y7219904D02*
G01*
X1577080Y7230457D01*
X1581137Y7246292D01*
X1580481Y7259111D01*
X1568924Y7279129D01*
X1558023Y7286327D01*
X1542409Y7290511D01*
X1529590Y7289855D01*
X1511490Y7286150D01*
X1486634Y7271799D01*
X1474596Y7258105D01*
X1467401Y7247204D01*
X1463215Y7231590D01*
X1464000Y7218550D01*
X1475557Y7198532D01*
X1486329Y7191555D01*
X1502072Y7187150D01*
X1514982Y7188154D01*
X1462689Y7463134D02*
G01*
X1357764Y7402555D01*
X1462689Y7463134D02*
G01*
X1500154Y7398242D01*
X1412755Y7434305D02*
G01*
X1435869Y7394270D01*
X1357764Y7402555D02*
G01*
X1395229Y7337663D01*
X2830586Y5218635D02*
G01*
X2825602Y5230342D01*
X2814533Y5242366D01*
X2803423Y5248800D01*
X2780342Y5250009D01*
X2768368Y5244787D01*
X2756357Y5233969D01*
X2749923Y5222862D01*
X2743172Y5205666D01*
X2741670Y5177002D01*
X2746601Y5159448D01*
X2751823Y5147475D01*
X2762638Y5135463D01*
X2774002Y5129016D01*
X2797083Y5127807D01*
X2808803Y5133042D01*
X2821068Y5143845D01*
X2827261Y5155222D01*
X2568163Y5261129D02*
G01*
X2561821Y5140137D01*
X2568163Y5261129D02*
G01*
X2642989Y5257208D01*
X2565145Y5203550D02*
G01*
X2611310Y5201130D01*
X2561821Y5140137D02*
G01*
X2636649Y5136215D01*
D10*
X-1619996Y2765310D02*
G01*
X-1619996Y2687332D01*
X-1614916Y2671838D01*
X-1604502Y2661424D01*
X-1588754Y2656344D01*
X-1578340Y2656344D01*
X-1562846Y2661424D01*
X-1552432Y2671838D01*
X-1547352Y2687332D01*
X-1547352Y2765310D01*
X-1513062Y2744482D02*
G01*
X-1502648Y2749816D01*
X-1486900Y2765310D01*
X-1486900Y2656344D01*
X-1442196Y2765310D02*
G01*
X-1385046Y2765310D01*
X-1416288Y2723654D01*
X-1400794Y2723654D01*
X-1390380Y2718574D01*
X-1385046Y2713494D01*
X-1379966Y2697746D01*
X-1379966Y2687332D01*
X-1385046Y2671838D01*
X-1395460Y2661424D01*
X-1411208Y2656344D01*
X-1426702Y2656344D01*
X-1442196Y2661424D01*
X-1447530Y2666504D01*
X-1452610Y2676918D01*
X1701800Y6503415D02*
G01*
X1701800Y6394450D01*
X1701800Y6503415D02*
G01*
X1748536Y6503415D01*
X1764029Y6498336D01*
X1769363Y6493002D01*
X1774444Y6482587D01*
X1774444Y6472173D01*
X1769363Y6461760D01*
X1764029Y6456679D01*
X1748536Y6451600D01*
X1701800Y6451600D01*
X1738121Y6451600D02*
G01*
X1774444Y6394450D01*
X1808734Y6482587D02*
G01*
X1819147Y6487921D01*
X1834895Y6503415D01*
X1834895Y6394450D01*
X1931415Y6503415D02*
G01*
X1879600Y6503415D01*
X1874265Y6456679D01*
X1879600Y6461760D01*
X1895094Y6467094D01*
X1910587Y6467094D01*
X1926336Y6461760D01*
X1936750Y6451600D01*
X1941829Y6435852D01*
X1941829Y6425437D01*
X1936750Y6409944D01*
X1926336Y6399529D01*
X1910587Y6394450D01*
X1895094Y6394450D01*
X1879600Y6399529D01*
X1874265Y6404610D01*
X1869186Y6415023D01*
X-2629994Y6045304D02*
G01*
X-2629994Y5936338D01*
X-2629994Y6045304D02*
G01*
X-2583258Y6045304D01*
X-2567764Y6040224D01*
X-2562430Y6034890D01*
X-2557350Y6024476D01*
X-2557350Y6014062D01*
X-2562430Y6003648D01*
X-2567764Y5998568D01*
X-2583258Y5993488D01*
X-2629994Y5993488D01*
X-2593672Y5993488D02*
G01*
X-2557350Y5936338D01*
X-2523060Y6024476D02*
G01*
X-2512646Y6029810D01*
X-2496898Y6045304D01*
X-2496898Y5936338D01*
X-2400378Y6029810D02*
G01*
X-2405458Y6040224D01*
X-2421206Y6045304D01*
X-2431620Y6045304D01*
X-2447114Y6040224D01*
X-2457528Y6024476D01*
X-2462608Y5998568D01*
X-2462608Y5972660D01*
X-2457528Y5951832D01*
X-2447114Y5941418D01*
X-2431620Y5936338D01*
X-2426286Y5936338D01*
X-2410792Y5941418D01*
X-2400378Y5951832D01*
X-2395044Y5967326D01*
X-2395044Y5972660D01*
X-2400378Y5988154D01*
X-2410792Y5998568D01*
X-2426286Y6003648D01*
X-2431620Y6003648D01*
X-2447114Y5998568D01*
X-2457528Y5988154D01*
X-2462608Y5972660D01*
X1034674Y4490003D02*
G01*
X1143640Y4490003D01*
X1034674Y4490003D02*
G01*
X1034674Y4536739D01*
X1039754Y4552233D01*
X1045088Y4557567D01*
X1055502Y4562647D01*
X1065916Y4562647D01*
X1076330Y4557567D01*
X1081410Y4552233D01*
X1086490Y4536739D01*
X1086490Y4490003D02*
G01*
X1086490Y4536739D01*
X1091824Y4552233D01*
X1096904Y4557567D01*
X1107318Y4562647D01*
X1123066Y4562647D01*
X1133480Y4557567D01*
X1138560Y4552233D01*
X1143640Y4536739D01*
X1143640Y4490003D01*
X1034674Y4638593D02*
G01*
X1143640Y4596937D01*
X1034674Y4638593D02*
G01*
X1143640Y4680249D01*
X1107318Y4612685D02*
G01*
X1107318Y4664501D01*
X1034674Y4750861D02*
G01*
X1143640Y4750861D01*
X1034674Y4714539D02*
G01*
X1034674Y4787183D01*
X1055502Y4821473D02*
G01*
X1050168Y4831887D01*
X1034674Y4847381D01*
X1143640Y4847381D01*
X1676400Y4573015D02*
G01*
X1676400Y4495037D01*
X1681479Y4479544D01*
X1691894Y4469129D01*
X1707642Y4464050D01*
X1718055Y4464050D01*
X1733550Y4469129D01*
X1743963Y4479544D01*
X1749044Y4495037D01*
X1749044Y4573015D01*
X1809495Y4573015D02*
G01*
X1793747Y4567936D01*
X1788668Y4557521D01*
X1788668Y4547107D01*
X1793747Y4536694D01*
X1804162Y4531360D01*
X1824989Y4526279D01*
X1840484Y4521200D01*
X1850897Y4510786D01*
X1856231Y4500371D01*
X1856231Y4484623D01*
X1850897Y4474210D01*
X1845818Y4469129D01*
X1830070Y4464050D01*
X1809495Y4464050D01*
X1793747Y4469129D01*
X1788668Y4474210D01*
X1783334Y4484623D01*
X1783334Y4500371D01*
X1788668Y4510786D01*
X1799081Y4521200D01*
X1814576Y4526279D01*
X1835404Y4531360D01*
X1845818Y4536694D01*
X1850897Y4547107D01*
X1850897Y4557521D01*
X1845818Y4567936D01*
X1830070Y4573015D01*
X1809495Y4573015D01*
G36*
X-2275840Y5792978D02*
G01*
X-2305862Y5752998D01*
X-2275890Y5712968D01*
G37*
G36*
X-924255Y7685278D02*
G01*
X-924306Y7605268D01*
X-894283Y7645247D01*
G37*
G36*
X980744Y7697978D02*
G01*
X980694Y7617968D01*
X1010716Y7657947D01*
G37*
G36*
X2258822Y5661406D02*
G01*
X2298801Y5631383D01*
X2338832Y5661355D01*
G37*
G36*
X-1343812Y478586D02*
G01*
X-1369212Y440486D01*
X-1305712Y440486D01*
G37*
G36*
X-891387Y1248613D02*
G01*
X-853287Y1210513D01*
X-827887Y1248613D01*
G37*
G36*
X-645668Y6500317D02*
G01*
X-707085Y6438900D01*
X-645668Y6377482D01*
G37*
G36*
X1396034Y5656681D02*
G01*
X1392224Y5656072D01*
X1390396Y5655462D01*
X1386992Y5653633D01*
X1384096Y5651093D01*
X1381760Y5647994D01*
X1380185Y5644489D01*
X1379372Y5640730D01*
X1379372Y5636869D01*
X1380185Y5633110D01*
X1381760Y5629605D01*
X1384096Y5626506D01*
X1386992Y5623966D01*
X1390396Y5622137D01*
X1394104Y5621121D01*
X1397965Y5620918D01*
X1401775Y5621528D01*
X1403604Y5622137D01*
X1407007Y5623966D01*
X1409903Y5626506D01*
X1412240Y5629605D01*
X1413154Y5631281D01*
X1414322Y5634939D01*
X1414678Y5638800D01*
X1414322Y5642660D01*
X1413154Y5646318D01*
X1411173Y5649620D01*
X1408531Y5652465D01*
X1405331Y5654598D01*
X1403604Y5655462D01*
X1399895Y5656478D01*
G37*
D12*
X-1909302Y865436D02*
G01*
X-1909302Y2091687D01*
X-2309304Y2091687D02*
G01*
X-2309304Y865436D01*
X-1909302Y865436D01*
X-1909302Y2091687D01*
X290692Y289242D02*
G01*
X90698Y289242D01*
X90698Y529028D01*
X90698Y1484294D01*
X290692Y1484294D01*
X290692Y1179306D01*
X290692Y273199D01*
X390692Y273199D01*
X390692Y1473200D01*
X290692Y1473200D01*
X2290701Y1210462D02*
G01*
X1890699Y1210462D01*
X1890699Y273199D01*
X2290701Y273199D01*
X2290701Y1210462D01*
X2290701Y2091687D01*
X-2409304Y4493201D02*
G01*
X-3009310Y4493201D01*
X-3009310Y5293202D01*
X-3009298Y4493201D01*
X-2309304Y4493201D01*
X-2309304Y793203D01*
X-3009298Y793203D01*
X-3009298Y-6797D01*
X2990700Y-6797D01*
X2990700Y793203D01*
X2290701Y793203D01*
X2290701Y4493201D01*
X2990700Y4493201D01*
X2990700Y5293202D01*
X2990700Y4493201D01*
X2290701Y4493201D01*
X2290701Y4415439D01*
X2290701Y3189193D02*
G01*
X2290701Y4415439D01*
X1890699Y4415439D01*
X1890699Y3189193D01*
X-2309304Y2090440D02*
G01*
X-1909302Y2090440D01*
X-1909302Y3190440D01*
X-2309304Y3190440D01*
X-2309304Y2090440D01*
X210703Y4857676D02*
G01*
X-29306Y4857676D01*
X-29306Y3957675D01*
X210703Y3957675D01*
X210703Y4857676D01*
X1744215Y1727306D02*
G01*
X-1755780Y1727306D01*
X-1755780Y1727306D02*
G01*
X-1755780Y3727300D01*
X-1755780Y3727300D02*
G01*
X-1755780Y1727306D01*
X-1755780Y3727300D02*
G01*
X1744215Y3727300D01*
X1744215Y1727306D01*
X1790700Y1473200D02*
G01*
X390692Y1473200D01*
X390692Y273199D01*
X1790700Y273199D01*
X1790700Y1473200D01*
X-109301Y3796586D02*
G01*
X-109301Y4751847D01*
X390692Y7893199D02*
G01*
X-409308Y7893199D01*
X390692Y7893199D01*
X-3009310Y-6797D02*
G01*
X-3009310Y793203D01*
X-2309304Y793203D01*
X-2309304Y865436D01*
X-1909302Y4070410D02*
G01*
X-1909302Y5007676D01*
X-1909302Y2090440D02*
G01*
X-1909302Y3190440D01*
X-2309304Y865436D02*
G01*
X-2309304Y2091687D01*
X-2309304Y3189193D02*
G01*
X-2309304Y4070410D01*
X-1909302Y3189193D02*
G01*
X-1909302Y4070410D01*
X-2309304Y4070410D02*
G01*
X-2309304Y5007676D01*
X-1909302Y3190440D02*
G01*
X-2309304Y3190440D01*
X-1909302Y4070410D02*
G01*
X-2309304Y4070410D01*
X-1909302Y4070410D02*
G01*
X-1909302Y5007676D01*
X-2309304Y5007676D01*
X-2309304Y4070410D01*
X-1909302Y4070410D01*
X-1909302Y3189193D01*
X-309300Y3796586D02*
G01*
X-309300Y4101571D01*
X-109301Y4991638D02*
G01*
X-109301Y4995428D01*
X-109301Y4751847D02*
G01*
X-309300Y4751847D01*
X-109301Y3796586D02*
G01*
X-309300Y3796586D01*
X-109301Y4991638D02*
G01*
X-309300Y4991638D01*
X-109301Y4991638D02*
G01*
X-109301Y4751847D01*
X-109301Y4991638D02*
G01*
X-109301Y4995428D01*
X-309300Y4995428D01*
X-109301Y4357674D02*
G01*
X-29306Y4357674D01*
X-29306Y4457674D02*
G01*
X-109301Y4457674D01*
X210703Y3957675D02*
G01*
X210703Y4857676D01*
X-29306Y3957675D02*
G01*
X-29306Y4857676D01*
X-29306Y3957675D02*
G01*
X210703Y3957675D01*
X-309300Y4101571D02*
G01*
X-309300Y5007676D01*
X-409308Y3807673D02*
G01*
X-409308Y5007676D01*
X-409308Y3807673D02*
G01*
X-309300Y3807673D01*
X-309300Y5007676D02*
G01*
X-409308Y5007676D01*
X-409308Y3807673D02*
G01*
X-409308Y5007676D01*
X-1809302Y5007676D02*
G01*
X-1809302Y3807673D01*
X-1809302Y3807673D02*
G01*
X-409308Y3807673D01*
X-309300Y3807673D02*
G01*
X-409308Y3807673D01*
X-409308Y5007676D01*
X-1809302Y5007676D01*
X-1809302Y3807673D01*
X-409308Y3807673D01*
X-409308Y5007676D01*
X-309300Y5007676D01*
X-309300Y4101571D01*
X-309300Y3796586D01*
X-109301Y3796586D01*
X-109301Y4751847D01*
X-109301Y4991638D01*
X-309300Y4991638D01*
X1890699Y3190440D02*
G01*
X1890699Y2090440D01*
X1890699Y2091687D02*
G01*
X1890699Y1210462D01*
X1890699Y1210462D02*
G01*
X1890699Y273199D01*
X1890699Y2090440D02*
G01*
X2290701Y2090440D01*
X1890699Y1210462D02*
G01*
X2290701Y1210462D01*
X90698Y1484294D02*
G01*
X90698Y529028D01*
X290692Y1484294D02*
G01*
X290692Y1179306D01*
X90698Y289242D02*
G01*
X90698Y285445D01*
X90698Y529028D02*
G01*
X290692Y529028D01*
X90698Y1484294D02*
G01*
X290692Y1484294D01*
X90698Y289242D02*
G01*
X290692Y289242D01*
X90698Y289242D02*
G01*
X90698Y529028D01*
X90698Y289242D02*
G01*
X90698Y285445D01*
X290692Y285445D01*
X90698Y923198D02*
G01*
X10703Y923198D01*
X10703Y823198D02*
G01*
X90698Y823198D01*
X-229306Y1323200D02*
G01*
X-229306Y423199D01*
X10703Y1323200D02*
G01*
X10703Y423199D01*
X10703Y1323200D02*
G01*
X-229306Y1323200D01*
X-229306Y423199D02*
G01*
X10703Y423199D01*
X10703Y1323200D01*
X-229306Y1323200D01*
X-229306Y423199D01*
X290692Y1179306D02*
G01*
X290692Y273199D01*
X390692Y1473200D02*
G01*
X390692Y273199D01*
X390692Y1473200D02*
G01*
X290692Y1473200D01*
X709599Y2557520D02*
G01*
X709599Y2557536D01*
X709599Y2300518D02*
G01*
X709599Y2300533D01*
D13*
X490905Y2541193D02*
G01*
X194894Y2541193D01*
X194894Y2691206D01*
X490905Y2691206D01*
X490905Y2541193D01*
D12*
X-2189200Y153586D02*
G01*
X-2189200Y86700D01*
X-2789199Y379813D02*
G01*
X-2789199Y446699D01*
X-2189200Y446699D01*
X-2189200Y379813D01*
X-2189200Y86700D02*
G01*
X-2789199Y86700D01*
X-2789199Y153586D01*
X-2362200Y190500D02*
G01*
X-2616200Y190500D01*
X-2616200Y342900D01*
X-2362200Y342900D01*
X-2362200Y190500D01*
X1855386Y5427700D02*
G01*
X1788500Y5427700D01*
X2081613Y6027699D02*
G01*
X2148499Y6027699D01*
X2148499Y5427700D01*
X2081613Y5427700D01*
X1788500Y5427700D02*
G01*
X1788500Y6027699D01*
X1855386Y6027699D01*
X1892300Y5600700D02*
G01*
X1892300Y5854700D01*
X2044700Y5854700D01*
X2044700Y5600700D01*
X1892300Y5600700D01*
X1107099Y4432919D02*
G01*
X1107099Y4442947D01*
X1107099Y4232920D02*
G01*
X1107099Y4272978D01*
X1107099Y4032918D02*
G01*
X1107099Y4072978D01*
X1107099Y3862951D02*
G01*
X1107099Y3872979D01*
X1122039Y3862951D02*
G01*
X1107099Y3862951D01*
X1572026Y3862951D02*
G01*
X1222161Y3862951D01*
X1687088Y3862951D02*
G01*
X1672150Y3862951D01*
X1687088Y3872979D02*
G01*
X1687088Y3862951D01*
X1687088Y4072978D02*
G01*
X1687088Y4032918D01*
X1687088Y4272978D02*
G01*
X1687088Y4232920D01*
X1687088Y4442947D02*
G01*
X1687088Y4432919D01*
X1672150Y4442947D02*
G01*
X1687088Y4442947D01*
X1222161Y4442947D02*
G01*
X1572026Y4442947D01*
X1107099Y4442947D02*
G01*
X1122039Y4442947D01*
X1297091Y3992946D02*
G01*
X1297091Y4312950D01*
X1497091Y4312950D01*
X1497091Y3992946D01*
X1297091Y3992946D01*
X1337089Y4072948D02*
G01*
X1337089Y4232950D01*
X1457093Y4232950D01*
X1457093Y4072948D01*
X1357094Y4072948D01*
X1337089Y4072948D01*
D14*
X-2325872Y5652973D02*
G01*
X-2485872Y5652973D01*
X-2485872Y5852972D01*
X-2325872Y5852972D01*
X-2245873Y5852972D02*
G01*
X-2085873Y5852972D01*
X-2085873Y5652973D01*
X-2245873Y5652973D01*
X-2485872Y5652973D02*
G01*
X-2485872Y5652973D01*
X-2515872Y5682973D01*
X-2515872Y5822972D01*
X-2515872Y5822972D01*
X-2485872Y5852972D01*
X-874273Y7745272D02*
G01*
X-714273Y7745272D01*
X-714273Y7545273D01*
X-874273Y7545273D01*
X-954272Y7545273D02*
G01*
X-1114272Y7545273D01*
X-1114272Y7745272D01*
X-954272Y7745272D01*
X-714273Y7745272D02*
G01*
X-714273Y7745272D01*
X-684273Y7715272D01*
X-684273Y7575273D01*
X-684273Y7575273D01*
X-714273Y7545273D01*
X1030726Y7757972D02*
G01*
X1190726Y7757972D01*
X1190726Y7557973D01*
X1030726Y7557973D01*
X950727Y7557973D02*
G01*
X790727Y7557973D01*
X790727Y7757972D01*
X950727Y7757972D01*
X1190726Y7757972D02*
G01*
X1190726Y7757972D01*
X1220726Y7727972D01*
X1220726Y7587973D01*
X1220726Y7587973D01*
X1190726Y7557973D01*
X2398826Y5611373D02*
G01*
X2398826Y5451373D01*
X2198827Y5451373D01*
X2198827Y5611373D01*
X2198827Y5691372D02*
G01*
X2198827Y5851372D01*
X2398826Y5851372D01*
X2398826Y5691372D01*
X2398826Y5451373D02*
G01*
X2398826Y5451373D01*
X2368826Y5421373D01*
X2228827Y5421373D01*
X2228827Y5421373D01*
X2198827Y5451373D01*
D13*
X-1982038Y574979D02*
G01*
X-2278049Y574979D01*
X-2278049Y724992D01*
X-1982038Y724992D01*
X-1982038Y574979D01*
X-2053005Y5815406D02*
G01*
X-1756994Y5815406D01*
X-1756994Y5665393D01*
X-2053005Y5665393D01*
X-2053005Y5815406D01*
X-897305Y7491806D02*
G01*
X-601294Y7491806D01*
X-601294Y7341793D01*
X-897305Y7341793D01*
X-897305Y7491806D01*
X722706Y7856905D02*
G01*
X722706Y7560894D01*
X572693Y7560894D01*
X572693Y7856905D01*
X722706Y7856905D01*
X2223693Y5884494D02*
G01*
X2223693Y6180505D01*
X2373706Y6180505D01*
X2373706Y5884494D01*
X2223693Y5884494D01*
D10*
X-1114023Y6352489D02*
G01*
X-1114023Y6448376D01*
X-1246144Y6448376D01*
X-1246144Y6352489D01*
X-1114023Y6267246D02*
G01*
X-1114023Y6171359D01*
X-1246144Y6171359D01*
X-1246144Y6267246D01*
X880821Y3502639D02*
G01*
X976708Y3502639D01*
X976708Y3634760D01*
X880821Y3634760D01*
X795578Y3502639D02*
G01*
X699691Y3502639D01*
X699691Y3634760D01*
X795578Y3634760D01*
X887171Y3671295D02*
G01*
X983058Y3671295D01*
X983058Y3803416D01*
X887171Y3803416D01*
X801928Y3671295D02*
G01*
X706041Y3671295D01*
X706041Y3803416D01*
X801928Y3803416D01*
X563321Y3502639D02*
G01*
X659208Y3502639D01*
X659208Y3634760D01*
X563321Y3634760D01*
X478078Y3502639D02*
G01*
X382191Y3502639D01*
X382191Y3634760D01*
X478078Y3634760D01*
X569671Y3671295D02*
G01*
X665558Y3671295D01*
X665558Y3803416D01*
X569671Y3803416D01*
X484428Y3671295D02*
G01*
X388541Y3671295D01*
X388541Y3803416D01*
X484428Y3803416D01*
D12*
X748350Y5266989D02*
G01*
X1507997Y5266989D01*
X1507997Y5012989D01*
X491997Y5012989D01*
X491997Y5266989D01*
X748350Y5266989D01*
X748350Y5266989D02*
G01*
X748350Y5012989D01*
D15*
X-943495Y5122986D02*
G01*
X-752995Y5122986D01*
X-752995Y5376986D01*
X-1768995Y5376986D01*
X-1768995Y5122986D01*
X-1768998Y5122989D01*
D16*
X-1768998Y5122989D02*
G01*
X-943495Y5122986D01*
D10*
X-1104257Y5516369D02*
G01*
X-1341648Y5753760D01*
X-1054760Y6040648D01*
X-817369Y5803257D01*
X-1104257Y5516369D01*
X-1221437Y5601223D02*
G01*
X-1104257Y5484040D01*
X-972934Y5615363D01*
D12*
X708017Y7490942D02*
G01*
X788014Y7490942D01*
X651972Y7490988D02*
G01*
X571974Y7490988D01*
X708017Y7348974D02*
G01*
X788014Y7348974D01*
X651972Y7349022D02*
G01*
X571974Y7349022D01*
X818989Y7459959D02*
G01*
X818989Y7379954D01*
X540997Y7380008D02*
G01*
X540997Y7460010D01*
X782436Y6064387D02*
G01*
X839005Y6120952D01*
X742774Y6024788D02*
G01*
X686208Y5968222D01*
X882825Y5964001D02*
G01*
X939391Y6020567D01*
X843160Y5924405D02*
G01*
X786594Y5867836D01*
X882815Y6120947D02*
G01*
X939388Y6064377D01*
X742779Y5867841D02*
G01*
X686208Y5924412D01*
X-1325763Y6038987D02*
G01*
X-1269194Y6095552D01*
X-1365425Y5999388D02*
G01*
X-1421991Y5942822D01*
X-1225374Y5938601D02*
G01*
X-1168808Y5995167D01*
X-1265039Y5899005D02*
G01*
X-1321605Y5842436D01*
X-1225384Y6095547D02*
G01*
X-1168811Y6038977D01*
X-1365420Y5842441D02*
G01*
X-1421991Y5899012D01*
X-1250812Y5592963D02*
G01*
X-1194247Y5536394D01*
X-1290411Y5632625D02*
G01*
X-1346977Y5689191D01*
X-1351198Y5492574D02*
G01*
X-1294632Y5436008D01*
X-1390794Y5532239D02*
G01*
X-1447363Y5588805D01*
X-1194252Y5492584D02*
G01*
X-1250822Y5436011D01*
X-1447358Y5632620D02*
G01*
X-1390787Y5689191D01*
X411363Y5505312D02*
G01*
X354794Y5448747D01*
X451025Y5544911D02*
G01*
X507591Y5601477D01*
X310974Y5605698D02*
G01*
X254408Y5549132D01*
X350639Y5645294D02*
G01*
X407205Y5701863D01*
X310984Y5448752D02*
G01*
X254411Y5505322D01*
X451020Y5701858D02*
G01*
X507591Y5645287D01*
X1048016Y6520944D02*
G01*
X1128013Y6520944D01*
X991971Y6520990D02*
G01*
X911974Y6520990D01*
X1048016Y6378976D02*
G01*
X1128013Y6378976D01*
X991971Y6379024D02*
G01*
X911974Y6379024D01*
X1158989Y6489961D02*
G01*
X1158989Y6409956D01*
X880996Y6410010D02*
G01*
X880996Y6490012D01*
X-552587Y5595736D02*
G01*
X-609152Y5652305D01*
X-512988Y5556074D02*
G01*
X-456422Y5499508D01*
X-452201Y5696125D02*
G01*
X-508767Y5752691D01*
X-412605Y5656460D02*
G01*
X-356036Y5599894D01*
X-609147Y5696115D02*
G01*
X-552577Y5752688D01*
X-356041Y5556079D02*
G01*
X-412612Y5499508D01*
X1351442Y2669618D02*
G01*
X1351442Y2749616D01*
X1351396Y2613573D02*
G01*
X1351396Y2533576D01*
X1493410Y2669618D02*
G01*
X1493410Y2749616D01*
X1493362Y2613573D02*
G01*
X1493362Y2533576D01*
X1382425Y2780591D02*
G01*
X1462430Y2780591D01*
X1462377Y2502598D02*
G01*
X1382374Y2502598D01*
X502757Y2842181D02*
G01*
X502757Y2762183D01*
X502803Y2898226D02*
G01*
X502803Y2978223D01*
X360789Y2842181D02*
G01*
X360789Y2762183D01*
X360837Y2898226D02*
G01*
X360837Y2978223D01*
X471774Y2731208D02*
G01*
X391769Y2731208D01*
X391822Y3009201D02*
G01*
X471825Y3009201D01*
X1580042Y5844618D02*
G01*
X1580042Y5924616D01*
X1579996Y5788573D02*
G01*
X1579996Y5708576D01*
X1722010Y5844618D02*
G01*
X1722010Y5924616D01*
X1721962Y5788573D02*
G01*
X1721962Y5708576D01*
X1611025Y5955591D02*
G01*
X1691030Y5955591D01*
X1690977Y5677598D02*
G01*
X1610974Y5677598D01*
X1171018Y6078057D02*
G01*
X1251016Y6078057D01*
X1114973Y6078103D02*
G01*
X1034976Y6078103D01*
X1171018Y5936089D02*
G01*
X1251016Y5936089D01*
X1114973Y5936137D02*
G01*
X1034976Y5936137D01*
X1281991Y6047074D02*
G01*
X1281991Y5967069D01*
X1003998Y5967122D02*
G01*
X1003998Y6047125D01*
X1008542Y5603318D02*
G01*
X1008542Y5683316D01*
X1008496Y5547273D02*
G01*
X1008496Y5467276D01*
X1150510Y5603318D02*
G01*
X1150510Y5683316D01*
X1150462Y5547273D02*
G01*
X1150462Y5467276D01*
X1039525Y5714291D02*
G01*
X1119530Y5714291D01*
X1119477Y5436298D02*
G01*
X1039474Y5436298D01*
X348142Y7609918D02*
G01*
X348142Y7689916D01*
X348096Y7553873D02*
G01*
X348096Y7473876D01*
X490110Y7609918D02*
G01*
X490110Y7689916D01*
X490062Y7553873D02*
G01*
X490062Y7473876D01*
X379125Y7720891D02*
G01*
X459130Y7720891D01*
X459077Y7442898D02*
G01*
X379074Y7442898D01*
X189042Y7608003D02*
G01*
X189042Y7688000D01*
X188996Y7551958D02*
G01*
X188996Y7471961D01*
X331010Y7608003D02*
G01*
X331010Y7688000D01*
X330962Y7551958D02*
G01*
X330962Y7471961D01*
X220024Y7718976D02*
G01*
X300029Y7718976D01*
X299976Y7440983D02*
G01*
X219974Y7440983D01*
X-10081Y7449657D02*
G01*
X69916Y7449657D01*
X-66126Y7449703D02*
G01*
X-146123Y7449703D01*
X-10081Y7307689D02*
G01*
X69916Y7307689D01*
X-66126Y7307737D02*
G01*
X-146123Y7307737D01*
X100891Y7418674D02*
G01*
X100891Y7338669D01*
X-177101Y7338722D02*
G01*
X-177101Y7418725D01*
X-2179599Y6386913D02*
G01*
X-2179599Y6453799D01*
X-1579600Y6160686D02*
G01*
X-1579600Y6093800D01*
X-2179599Y6093800D01*
X-2179599Y6160686D01*
X-2179599Y6453799D02*
G01*
X-1579600Y6453799D01*
X-1579600Y6386913D01*
X-2006600Y6350000D02*
G01*
X-1752600Y6350000D01*
X-1752600Y6197600D01*
X-2006600Y6197600D01*
X-2006600Y6350000D01*
X-1856889Y427802D02*
G01*
X-1856889Y1270899D01*
X-1412389Y1216515D02*
G01*
X-1412389Y1401003D01*
X-1553931Y1401003D01*
X-1412389Y1091514D02*
G01*
X-1412389Y1110287D01*
X-1412389Y966515D02*
G01*
X-1412389Y985286D01*
X-1412389Y841514D02*
G01*
X-1412389Y860287D01*
X-1412389Y716516D02*
G01*
X-1412389Y735286D01*
X-1412389Y591515D02*
G01*
X-1412389Y610288D01*
X-1553931Y300802D02*
G01*
X-1412389Y300802D01*
X-1412389Y485287D01*
X-340210Y1261297D02*
G01*
X-340210Y418200D01*
X-784710Y472584D02*
G01*
X-784710Y288096D01*
X-643168Y288096D01*
X-784710Y597585D02*
G01*
X-784710Y578812D01*
X-784710Y722584D02*
G01*
X-784710Y703813D01*
X-784710Y847585D02*
G01*
X-784710Y828812D01*
X-784710Y972583D02*
G01*
X-784710Y953813D01*
X-784710Y1097584D02*
G01*
X-784710Y1078811D01*
X-643168Y1388297D02*
G01*
X-784710Y1388297D01*
X-784710Y1203812D01*
X-645673Y6500332D02*
G01*
X-645670Y6500329D01*
X-645670Y6377465D01*
X707105Y6438900D02*
G01*
X645673Y6500332D01*
X707105Y6438900D02*
G01*
X645670Y6377465D01*
X-61434Y7084570D02*
G01*
X0Y7146005D01*
X61434Y7084570D01*
X-645670Y6377465D02*
G01*
X-707105Y6438900D01*
X-645673Y6500332D01*
X61432Y5793226D02*
G01*
X0Y5731794D01*
X-61434Y5793229D01*
D14*
X0Y7039940D02*
G01*
X-601040Y6438900D01*
X0Y5837859D01*
X601040Y6438900D01*
X0Y7039940D01*
D10*
X1116939Y2321679D02*
G01*
X762660Y2321679D01*
X762660Y2986920D01*
X1116939Y2986920D01*
X1116939Y2321679D01*
D17*
X1448897Y5599988D02*
G01*
X1448897Y5585393D01*
X1448897Y5694987D02*
G01*
X1448897Y5690819D01*
X1448897Y5789980D02*
G01*
X1448897Y5785815D01*
X1448897Y5895395D02*
G01*
X1448897Y5880811D01*
X1268895Y5599988D02*
G01*
X1268895Y5585393D01*
X1268895Y5789980D02*
G01*
X1268895Y5690816D01*
X1268895Y5895395D02*
G01*
X1268895Y5880808D01*
X1268895Y5895395D02*
G01*
X1448897Y5895395D01*
X1268895Y5585393D02*
G01*
X1448897Y5585393D01*
D10*
X83037Y7739921D02*
G01*
X157606Y7739921D01*
X157606Y7715351D01*
X83037Y7474678D02*
G01*
X157606Y7474678D01*
X157606Y7499248D01*
X-83063Y7739921D02*
G01*
X-157632Y7739921D01*
X-157632Y7715351D01*
X-83063Y7474678D02*
G01*
X-157632Y7474678D01*
X-157632Y7499248D01*
D18*
X-953899Y7390937D02*
G01*
X-1253898Y6871322D01*
X-1340500Y6921322D01*
X-1040500Y7440937D01*
X-953899Y7390937D01*
D13*
X-1320942Y6963176D02*
G01*
X-1582867Y7137039D01*
X-1070955Y7396165D02*
G01*
X-1352489Y7536065D01*
X-1790354Y7550127D02*
G01*
X-1813976Y7509212D01*
D10*
X-582739Y2841480D02*
G01*
X-582739Y2982480D01*
X-763460Y2982480D02*
G01*
X-763460Y2841480D01*
X-748220Y2826240D02*
G01*
X-597979Y2826240D01*
X-582739Y3203719D02*
G01*
X-582739Y3062719D01*
X-763460Y3062719D02*
G01*
X-763460Y3203719D01*
X-748220Y3218959D02*
G01*
X-597979Y3218959D01*
D19*
X-858520Y3001010D02*
G01*
X-1173479Y3001010D01*
X-855979Y2840989D02*
G01*
X-1176020Y2840989D01*
X-983650Y3001010D02*
G01*
X-984023Y2840989D01*
D10*
X-1293939Y2841480D02*
G01*
X-1293939Y2982480D01*
X-1474660Y2982480D02*
G01*
X-1474660Y2841480D01*
X-1459420Y2826240D02*
G01*
X-1309179Y2826240D01*
X-1293939Y3203719D02*
G01*
X-1293939Y3062719D01*
X-1474660Y3062719D02*
G01*
X-1474660Y3203719D01*
X-1459420Y3218959D02*
G01*
X-1309179Y3218959D01*
X-2092319Y5286009D02*
G01*
X-2220813Y5286009D01*
X-2220813Y5102590D01*
X-2092319Y5102590D01*
X-1997080Y5286009D02*
G01*
X-1868586Y5286009D01*
X-1868586Y5102590D01*
X-1997080Y5102590D01*
X-1818909Y6950080D02*
G01*
X-1818909Y6821586D01*
X-1635490Y6821586D01*
X-1635490Y6950080D01*
X-1818909Y7045319D02*
G01*
X-1818909Y7173813D01*
X-1635490Y7173813D01*
X-1635490Y7045319D01*
X1635490Y6950080D02*
G01*
X1635490Y6821586D01*
X1818909Y6821586D01*
X1818909Y6950080D01*
X1635490Y7045319D02*
G01*
X1635490Y7173813D01*
X1818909Y7173813D01*
X1818909Y7045319D01*
X2187615Y4618281D02*
G01*
X2316109Y4618281D01*
X2316109Y4801699D01*
X2187615Y4801699D01*
X2092375Y4618281D02*
G01*
X1963882Y4618281D01*
X1963882Y4801699D01*
X2092375Y4801699D01*
X-2169139Y5529021D02*
G01*
X-2169139Y5624908D01*
X-2301260Y5624908D01*
X-2301260Y5529021D01*
X-2169139Y5443778D02*
G01*
X-2169139Y5347891D01*
X-2301260Y5347891D01*
X-2301260Y5443778D01*
X-2049221Y6797060D02*
G01*
X-2145108Y6797060D01*
X-2145108Y6664939D01*
X-2049221Y6664939D01*
X-1963978Y6797060D02*
G01*
X-1868091Y6797060D01*
X-1868091Y6664939D01*
X-1963978Y6664939D01*
X1938578Y6797060D02*
G01*
X1842691Y6797060D01*
X1842691Y6664939D01*
X1938578Y6664939D01*
X2023821Y6797060D02*
G01*
X2119708Y6797060D01*
X2119708Y6664939D01*
X2023821Y6664939D01*
X1807921Y4950439D02*
G01*
X1903808Y4950439D01*
X1903808Y5082560D01*
X1807921Y5082560D01*
X1722678Y4950439D02*
G01*
X1626791Y4950439D01*
X1626791Y5082560D01*
X1722678Y5082560D01*
X-2466360Y5342178D02*
G01*
X-2466360Y5246291D01*
X-2334239Y5246291D01*
X-2334239Y5342178D01*
X-2466360Y5427421D02*
G01*
X-2466360Y5523308D01*
X-2334239Y5523308D01*
X-2334239Y5427421D01*
X-1646478Y6652239D02*
G01*
X-1550591Y6652239D01*
X-1550591Y6784360D01*
X-1646478Y6784360D01*
X-1731721Y6652239D02*
G01*
X-1827608Y6652239D01*
X-1827608Y6784360D01*
X-1731721Y6784360D01*
X1042619Y7423924D02*
G01*
X1138506Y7423924D01*
X1138506Y7556045D01*
X1042619Y7556045D01*
X957376Y7423924D02*
G01*
X861489Y7423924D01*
X861489Y7556045D01*
X957376Y7556045D01*
X2163521Y4848839D02*
G01*
X2259408Y4848839D01*
X2259408Y4980960D01*
X2163521Y4980960D01*
X2078278Y4848839D02*
G01*
X1982391Y4848839D01*
X1982391Y4980960D01*
X2078278Y4980960D01*
X-1539509Y2238380D02*
G01*
X-1539509Y2109886D01*
X-1356090Y2109886D01*
X-1356090Y2238380D01*
X-1539509Y2333619D02*
G01*
X-1539509Y2462113D01*
X-1356090Y2462113D01*
X-1356090Y2333619D01*
X-688609Y2238380D02*
G01*
X-688609Y2109886D01*
X-505190Y2109886D01*
X-505190Y2238380D01*
X-688609Y2333619D02*
G01*
X-688609Y2462113D01*
X-505190Y2462113D01*
X-505190Y2333619D01*
D18*
X-2382878Y4784849D02*
G01*
X-2982053Y4753442D01*
X-2987286Y4853304D01*
X-2388110Y4884709D01*
X-2382878Y4784849D01*
D13*
X-2941533Y4859695D02*
G01*
X-2938373Y5174061D01*
X-2442245Y4885862D02*
G01*
X-2478250Y5198176D01*
X-2704934Y5573054D02*
G01*
X-2752115Y5570583D01*
D18*
X1253952Y6857862D02*
G01*
X953952Y7377478D01*
X1040554Y7427478D01*
X1340553Y6907862D01*
X1253952Y6857862D01*
D13*
X1067020Y7389611D02*
G01*
X1348554Y7529515D01*
X1317007Y6956623D02*
G01*
X1578932Y7130488D01*
X1810042Y7502659D02*
G01*
X1786420Y7543573D01*
D18*
X2969077Y4751517D02*
G01*
X2369901Y4782919D01*
X2375133Y4882779D01*
X2974312Y4851377D01*
X2969077Y4751517D01*
D13*
X2421305Y4884353D02*
G01*
X2457307Y5196662D01*
X2920593Y4858186D02*
G01*
X2917433Y5172549D01*
X2731173Y5569074D02*
G01*
X2683995Y5571543D01*
D10*
X-2053821Y5333779D02*
G01*
X-1908578Y5333779D01*
X-1908578Y5436941D01*
X-2053821Y5639020D02*
G01*
X-1908578Y5639020D01*
X-1908578Y5535858D01*
X-2053821Y5440860D02*
G01*
X-2053821Y5531939D01*
X-1847375Y6927364D02*
G01*
X-1847375Y7072607D01*
X-1950537Y7072607D01*
X-2152616Y6927364D02*
G01*
X-2152616Y7072607D01*
X-2049454Y7072607D01*
X-1954456Y6927364D02*
G01*
X-2045535Y6927364D01*
X2152616Y6927364D02*
G01*
X2152616Y7072607D01*
X2049454Y7072607D01*
X1847375Y6927364D02*
G01*
X1847375Y7072607D01*
X1950537Y7072607D01*
X2045535Y6927364D02*
G01*
X1954456Y6927364D01*
D13*
X-2907177Y5002537D02*
G01*
X-2507724Y5023472D01*
X-2512959Y5123334D01*
X-2537917Y5122026D01*
X-2887449Y5103708D01*
X-2912409Y5102400D01*
X-2907177Y5002537D01*
X-2887449Y5103708D02*
G01*
X-2884921Y5354424D01*
X-2537917Y5122026D02*
G01*
X-2566639Y5371104D01*
X-1405282Y7069099D02*
G01*
X-1205283Y7415509D01*
X-1291887Y7465509D01*
X-1304383Y7443863D01*
X-1479389Y7140745D01*
X-1491886Y7119099D01*
X-1405282Y7069099D01*
X-1479389Y7140745D02*
G01*
X-1688282Y7279413D01*
X-1304383Y7443863D02*
G01*
X-1528922Y7555433D01*
X1205237Y7398816D02*
G01*
X1405237Y7052406D01*
X1491841Y7102406D01*
X1479344Y7124052D01*
X1304338Y7427170D01*
X1291841Y7448816D01*
X1205237Y7398816D01*
X1304338Y7427170D02*
G01*
X1528876Y7538742D01*
X1479344Y7124052D02*
G01*
X1688236Y7262723D01*
X2481884Y5010183D02*
G01*
X2881337Y4989248D01*
X2886570Y5089110D01*
X2861609Y5090419D01*
X2512077Y5108737D01*
X2487119Y5110045D01*
X2481884Y5010183D01*
X2512077Y5108737D02*
G01*
X2540800Y5357817D01*
X2861609Y5090419D02*
G01*
X2859082Y5341137D01*
D20*
X-766000Y2534191D02*
G01*
X-766000Y2114008D01*
X-1270000Y2110122D02*
G01*
X-1270000Y2286000D01*
X-1270000Y2538077D02*
G01*
X-1270000Y2362200D01*
X-822627Y2104100D02*
G01*
X-819355Y2104100D01*
X-887625Y2104100D02*
G01*
X-884354Y2104100D01*
X-952624Y2104100D02*
G01*
X-949352Y2104100D01*
X-1017623Y2104100D02*
G01*
X-1014351Y2104100D01*
X-1082647Y2104100D02*
G01*
X-1079350Y2104100D01*
X-1147645Y2104100D02*
G01*
X-1144374Y2104100D01*
X-1212644Y2104100D02*
G01*
X-1209372Y2104100D01*
X-822627Y2544099D02*
G01*
X-819355Y2544099D01*
X-887625Y2544099D02*
G01*
X-884354Y2544099D01*
X-952624Y2544099D02*
G01*
X-949352Y2544099D01*
X-1017623Y2544099D02*
G01*
X-1014351Y2544099D01*
X-1082647Y2544099D02*
G01*
X-1079350Y2544099D01*
X-1147645Y2544099D02*
G01*
X-1144374Y2544099D01*
X-1212644Y2544099D02*
G01*
X-1209372Y2544099D01*
D13*
X2040305Y6224193D02*
G01*
X1744294Y6224193D01*
X1744294Y6374206D01*
X2040305Y6374206D01*
X2040305Y6224193D01*
X-2074494Y5906693D02*
G01*
X-2370505Y5906693D01*
X-2370505Y6056706D01*
X-2074494Y6056706D01*
X-2074494Y5906693D01*
D12*
X387035Y4744349D02*
G01*
X387088Y4847602D01*
X987036Y4847602D01*
X987341Y3842270D01*
X387342Y3842270D01*
X387342Y3942270D01*
X387342Y3942270D02*
G01*
X487418Y3941584D01*
X487418Y4142244D01*
X387342Y4142244D01*
X387106Y4542269D02*
G01*
X387106Y4142270D01*
X387035Y4744349D02*
G01*
X487342Y4744349D01*
X487342Y4542269D01*
X387106Y4542269D01*
D10*
X1612679Y4835121D02*
G01*
X1612679Y4689878D01*
X1715841Y4689878D01*
X1917920Y4835121D02*
G01*
X1917920Y4689878D01*
X1814758Y4689878D01*
X1719760Y4835121D02*
G01*
X1810839Y4835121D01*
D12*
G75*
G01*
X1890695Y1373200D02*
G03*
X1790695Y1473200I-100000J0D01*
G75*
G01*
X1790695Y273200D02*
G03*
X1890695Y373200I0J100000D01*
G75*
G01*
X-1909305Y3907673D02*
G03*
X-1809306Y3807673I99999J0D01*
G75*
G01*
X-1809306Y5007674D02*
G03*
X-1909305Y4907674I0J-100000D01*
G75*
G01*
X-409306Y7893200D02*
G03*
X-3009306Y5293200I0J-2600000D01*
G75*
G01*
X2990695Y5293200D02*
G03*
X390695Y7893200I-2600000J0D01*
G75*
G01*
X571980Y7349023D02*
G02*
X540997Y7380008I0J30983D01*
G75*
G01*
X540997Y7460005D02*
G02*
X571980Y7490988I30983J0D01*
G75*
G01*
X788010Y7490943D02*
G02*
X818990Y7459960I-3J-30983D01*
G75*
G01*
X818990Y7379962D02*
G02*
X788010Y7348974I-30983J-5D01*
G75*
G01*
X786597Y5867842D02*
G02*
X742780Y5867842I-21908J21908D01*
G75*
G01*
X686211Y5924410D02*
G02*
X686211Y5968225I21909J21908D01*
G75*
G01*
X839000Y6120950D02*
G02*
X882815Y6120948I21906J-21910D01*
G75*
G01*
X939381Y6064382D02*
G02*
X939389Y6020562I-21903J-21914D01*
G75*
G01*
X-1321603Y5842442D02*
G02*
X-1365420Y5842442I-21908J21908D01*
G75*
G01*
X-1421989Y5899010D02*
G02*
X-1421989Y5942825I21909J21908D01*
G75*
G01*
X-1269200Y6095550D02*
G02*
X-1225385Y6095548I21906J-21910D01*
G75*
G01*
X-1168819Y6038982D02*
G02*
X-1168811Y5995162I-21903J-21914D01*
G75*
G01*
X-1447358Y5588803D02*
G02*
X-1447358Y5632620I21908J21908D01*
G75*
G01*
X-1390790Y5689189D02*
G02*
X-1346975Y5689189I21908J-21909D01*
G75*
G01*
X-1194250Y5536400D02*
G02*
X-1194252Y5492585I-21910J-21906D01*
G75*
G01*
X-1250818Y5436019D02*
G02*
X-1294638Y5436011I-21914J21903D01*
G75*
G01*
X407203Y5701858D02*
G02*
X451020Y5701858I21908J-21908D01*
G75*
G01*
X507589Y5645290D02*
G02*
X507589Y5601475I-21909J-21908D01*
G75*
G01*
X354800Y5448750D02*
G02*
X310985Y5448752I-21906J21910D01*
G75*
G01*
X254419Y5505318D02*
G02*
X254411Y5549138I21903J21914D01*
G75*
G01*
X911979Y6379025D02*
G02*
X880996Y6410010I0J30982D01*
G75*
G01*
X880996Y6490007D02*
G02*
X911979Y6520990I30983J0D01*
G75*
G01*
X1128009Y6520945D02*
G02*
X1158989Y6489962I-3J-30983D01*
G75*
G01*
X1158989Y6409964D02*
G02*
X1128009Y6378976I-30983J-5D01*
G75*
G01*
X-356042Y5599897D02*
G02*
X-356042Y5556080I-21908J-21908D01*
G75*
G01*
X-412610Y5499511D02*
G02*
X-456425Y5499511I-21908J21909D01*
G75*
G01*
X-609150Y5652300D02*
G02*
X-609148Y5696115I21910J21906D01*
G75*
G01*
X-552582Y5752681D02*
G02*
X-508762Y5752689I21914J-21903D01*
G75*
G01*
X1493363Y2533581D02*
G02*
X1462377Y2502599I-30983J0D01*
G75*
G01*
X1382380Y2502599D02*
G02*
X1351397Y2533581I0J30982D01*
G75*
G01*
X1351443Y2749611D02*
G02*
X1382425Y2780591I30982J-3D01*
G75*
G01*
X1462423Y2780591D02*
G02*
X1493411Y2749611I5J-30983D01*
G75*
G01*
X360837Y2978219D02*
G02*
X391823Y3009201I30983J0D01*
G75*
G01*
X471820Y3009201D02*
G02*
X502803Y2978219I0J-30982D01*
G75*
G01*
X502757Y2762189D02*
G02*
X471775Y2731209I-30982J3D01*
G75*
G01*
X391777Y2731209D02*
G02*
X360789Y2762189I-5J30983D01*
G75*
G01*
X1721963Y5708581D02*
G02*
X1690977Y5677599I-30983J0D01*
G75*
G01*
X1610980Y5677599D02*
G02*
X1579997Y5708581I0J30982D01*
G75*
G01*
X1580043Y5924611D02*
G02*
X1611025Y5955591I30982J-3D01*
G75*
G01*
X1691023Y5955591D02*
G02*
X1722011Y5924611I5J-30983D01*
G75*
G01*
X1034981Y5936137D02*
G02*
X1003999Y5967123I0J30983D01*
G75*
G01*
X1003999Y6047120D02*
G02*
X1034981Y6078103I30982J0D01*
G75*
G01*
X1251011Y6078057D02*
G02*
X1281991Y6047075I-3J-30982D01*
G75*
G01*
X1281991Y5967077D02*
G02*
X1251011Y5936089I-30983J-5D01*
G75*
G01*
X1150463Y5467281D02*
G02*
X1119477Y5436299I-30983J0D01*
G75*
G01*
X1039480Y5436299D02*
G02*
X1008497Y5467281I0J30982D01*
G75*
G01*
X1008543Y5683311D02*
G02*
X1039525Y5714291I30982J-3D01*
G75*
G01*
X1119523Y5714291D02*
G02*
X1150511Y5683311I5J-30983D01*
G75*
G01*
X490063Y7473881D02*
G02*
X459077Y7442899I-30983J0D01*
G75*
G01*
X379080Y7442899D02*
G02*
X348097Y7473881I0J30982D01*
G75*
G01*
X348143Y7689911D02*
G02*
X379125Y7720891I30982J-3D01*
G75*
G01*
X459123Y7720891D02*
G02*
X490111Y7689911I5J-30983D01*
G75*
G01*
X330962Y7471966D02*
G02*
X299977Y7440983I-30983J0D01*
G75*
G01*
X219979Y7440983D02*
G02*
X188996Y7471966I0J30983D01*
G75*
G01*
X189042Y7687996D02*
G02*
X220025Y7718976I30983J-3D01*
G75*
G01*
X300022Y7718976D02*
G02*
X331010Y7687996I5J-30983D01*
G75*
G01*
X-146119Y7307737D02*
G02*
X-177101Y7338723I0J30983D01*
G75*
G01*
X-177101Y7418720D02*
G02*
X-146119Y7449703I30982J0D01*
G75*
G01*
X69911Y7449657D02*
G02*
X100891Y7418675I-3J-30982D01*
G75*
G01*
X100891Y7338677D02*
G02*
X69911Y7307689I-30983J-5D01*
D21*
G75*
G01*
X-447218Y6458298D02*
G03*
X-446857Y6457937I-21032J-21393D01*
D22*
G75*
G01*
X-696587Y6359088D02*
G03*
X-696407Y6358908I-10517J-10697D01*
D13*
G75*
G01*
X-1755132Y7587511D02*
G03*
X-1790355Y7550127I61593J-93317D01*
G75*
G01*
X-1701234Y7607310D02*
G03*
X-1755132Y7587511I14980J-124041D01*
G75*
G01*
X-1513754Y7595532D02*
G03*
X-1701234Y7607310I-125626J-501679D01*
G75*
G01*
X-1352489Y7536066D02*
G03*
X-1513754Y7595532I-355167J-714766D01*
G75*
G01*
X-1828742Y7460018D02*
G02*
X-1813977Y7509213I111611J-6685D01*
G75*
G01*
X-1818937Y7403440D02*
G02*
X-1828742Y7460018I114911J49051D01*
G75*
G01*
X-1714998Y7246968D02*
G02*
X-1818937Y7403440I371654J359636D01*
G75*
G01*
X-1582867Y7137039D02*
G02*
X-1714998Y7246968I441432J664960D01*
D10*
G75*
G01*
X-763460Y2841480D02*
G03*
X-748220Y2826240I15240J0D01*
G75*
G01*
X-597980Y2826240D02*
G03*
X-582740Y2841480I0J15240D01*
G75*
G01*
X-763460Y3203720D02*
G02*
X-748220Y3218960I15240J0D01*
G75*
G01*
X-597980Y3218960D02*
G02*
X-582740Y3203720I0J-15240D01*
G75*
G01*
X-1474660Y2841480D02*
G03*
X-1459420Y2826240I15240J0D01*
G75*
G01*
X-1309180Y2826240D02*
G03*
X-1293940Y2841480I0J15240D01*
G75*
G01*
X-1474660Y3203720D02*
G02*
X-1459420Y3218960I15240J0D01*
G75*
G01*
X-1309180Y3218960D02*
G02*
X-1293940Y3203720I0J-15240D01*
D13*
G75*
G01*
X-2654399Y5563878D02*
G03*
X-2704935Y5573055I-44711J-102482D01*
G75*
G01*
X-2608440Y5529461D02*
G03*
X-2654399Y5563878I-95869J-80124D01*
G75*
G01*
X-2516208Y5365811D02*
G03*
X-2608440Y5529461I-489164J-167876D01*
G75*
G01*
X-2478250Y5198176D02*
G03*
X-2516208Y5365811I-792891J-91420D01*
G75*
G01*
X-2801414Y5556174D02*
G02*
X-2752115Y5570583I55179J-97247D01*
G75*
G01*
X-2843525Y5517134D02*
G02*
X-2801414Y5556174I103726J-69653D01*
G75*
G01*
X-2918145Y5344744D02*
G02*
X-2843525Y5517134I504032J-115829D01*
G75*
G01*
X-2938374Y5174061D02*
G02*
X-2918145Y5344744I798104J-8047D01*
G75*
G01*
X1824807Y7453465D02*
G03*
X1810042Y7502660I-111611J-6685D01*
G75*
G01*
X1815003Y7396886D02*
G03*
X1824807Y7453465I-114912J49052D01*
G75*
G01*
X1711063Y7240415D02*
G03*
X1815003Y7396886I-371653J359636D01*
G75*
G01*
X1578933Y7130489D02*
G03*
X1711063Y7240415I-441425J664964D01*
G75*
G01*
X1751198Y7580958D02*
G02*
X1786420Y7543574I-61593J-93317D01*
G75*
G01*
X1697299Y7600757D02*
G02*
X1751198Y7580958I-14980J-124041D01*
G75*
G01*
X1509819Y7588979D02*
G02*
X1697299Y7600757I125627J-501679D01*
G75*
G01*
X1348555Y7529515D02*
G02*
X1509819Y7588979I355156J-714771D01*
G75*
G01*
X2780474Y5554660D02*
G03*
X2731173Y5569074I-55188J-97241D01*
G75*
G01*
X2822583Y5515630D02*
G03*
X2780474Y5554660I-103717J-69667D01*
G75*
G01*
X2897205Y5343233D02*
G03*
X2822583Y5515630I-504033J-115823D01*
G75*
G01*
X2917434Y5172550D02*
G03*
X2897205Y5343233I-798104J-8047D01*
G75*
G01*
X2633457Y5562366D02*
G02*
X2683995Y5571543I44711J-102482D01*
G75*
G01*
X2587498Y5527944D02*
G02*
X2633457Y5562366I95875J-80116D01*
G75*
G01*
X2495268Y5364297D02*
G02*
X2587498Y5527944I489165J-167875D01*
G75*
G01*
X2457308Y5196662D02*
G02*
X2495268Y5364297I792890J-91431D01*
G75*
G01*
X-2566640Y5371104D02*
G03*
X-2733619Y5512318I-158665J-18284D01*
G75*
G01*
X-2884922Y5354424D02*
G02*
X-2733619Y5512318I159707J-1600D01*
G75*
G01*
X-1528923Y7555433D02*
G03*
X-1738295Y7492304I-71078J-143027D01*
G75*
G01*
X-1688282Y7279414D02*
G02*
X-1738295Y7492304I88326J133069D01*
G75*
G01*
X1688236Y7262724D02*
G03*
X1738249Y7475611I-88327J133068D01*
G75*
G01*
X1528877Y7538743D02*
G02*
X1738249Y7475611I71077J-143028D01*
G75*
G01*
X2859082Y5341137D02*
G03*
X2707780Y5499029I-159707J-1602D01*
G75*
G01*
X2540800Y5357818D02*
G02*
X2707780Y5499029I158665J-18288D01*
D20*
G75*
G01*
X-1270000Y2286000D02*
G03*
X-1270000Y2362200I0J38100D01*
D12*
G75*
G01
X1765402Y3949751D02*
G03X1765402Y3949751I-12700J0D01*
D22*
G75*
G01
X1242136Y2299411D02*
G03X1242136Y2299411I-15011J0D01*
G75*
G01
X1081811Y2374900D02*
G03X1081811Y2374900I-15011J0D01*
D23*
G75*
G01
X-183007Y7683500D02*
G03X-183007Y7683500I-7493J0D01*
D22*
G75*
G01
X-1204189Y2159000D02*
G03X-1204189Y2159000I-15011J0D01*
G75*
G01
X-1290879Y2038147D02*
G03X-1290879Y2038147I-15011J0D01*
M02*
